<svg xmlns="http://www.w3.org/2000/svg"  height="40" viewBox="0 0 50 40">
  <g id="Grupo_3356" data-name="Grupo 3356" transform="translate(-598.273 -55)">
    <g id="Grupo_3346" data-name="Grupo 3346" transform="translate(61.49)">
      <g id="Grupo_3344" data-name="Grupo 3344" transform="translate(77 8)">

      </g>
    </g>
    <g id="Grupo_3189" data-name="Grupo 3189" transform="translate(3071 465)">
      <path id="Trazado_8148" data-name="Trazado 8148" d="M95.612,95.247l5.262,3.032q5.883,3.4,11.767,6.793a.371.371,0,0,1,.216.368q-.008,9.814,0,19.628a.372.372,0,0,1-.213.369q-5.874,3.385-11.743,6.777-2.553,1.473-5.1,2.951a.447.447,0,0,1-.512,0q-3.463-2.01-6.933-4.008-4.989-2.88-9.979-5.758a.329.329,0,0,1-.193-.329q.008-9.79,0-19.583a.42.42,0,0,1,.241-.414c.818-.462,1.631-.932,2.446-1.4l13.178-7.607c.473-.275.947-.546,1.421-.82Zm16.03,20.015q0-4.576,0-9.15a.211.211,0,0,0-.1-.224q-7.891-4.55-15.779-9.111a.387.387,0,0,0-.446,0q-7.872,4.559-15.752,9.1a.217.217,0,0,0-.131.22c0,.9,0,1.8,0,2.7q0,7.792,0,15.581a.232.232,0,0,0,.117.246q5.456,3.143,10.909,6.293,2.468,1.425,4.935,2.854a.253.253,0,0,0,.29,0c.777-.456,1.557-.9,2.337-1.353q6.734-3.888,13.469-7.771a.267.267,0,0,0,.158-.268Q111.638,119.822,111.642,115.262Z" transform="translate(-2550.904 -505.247)" fill="#fff" fill-rule="evenodd"/>
      <path id="Trazado_8149" data-name="Trazado 8149" d="M81.794,116.7q0-4.19,0-8.38a.4.4,0,0,1,.231-.4q7.266-4.182,14.522-8.384a.4.4,0,0,1,.473,0q7.284,4.215,14.575,8.418a.313.313,0,0,1,.181.309q-.006,8.455,0,16.911a.257.257,0,0,1-.138.267q-6.043,3.482-12.083,6.975c-.888.511-1.774,1.029-2.665,1.536a.257.257,0,0,1-.216-.009q-2.682-1.539-5.357-3.088-4.63-2.673-9.262-5.343a.439.439,0,0,1-.259-.445Q81.8,120.88,81.794,116.7Zm25.392,7.77-.172-.1q-1.664-.962-3.328-1.927a.3.3,0,0,0-.344-.005c-2.083,1.208-4.171,2.408-6.25,3.623a.521.521,0,0,1-.616,0q-5.667-3.289-11.347-6.558l-.272-.155c0,.049-.01.078-.01.106,0,1.345,0,2.689,0,4.031,0,.1.049.139.123.183q5.813,3.351,11.623,6.713a.33.33,0,0,0,.389,0q5.038-2.917,10.08-5.825C107.1,124.527,107.133,124.5,107.186,124.467Zm1.523-10.409c0-.052.009-.078.009-.1q0-2.007,0-4.016a.217.217,0,0,0-.14-.206q-5.846-3.373-11.687-6.749a.2.2,0,0,0-.231,0L86.5,108.858c-.037.022-.071.048-.119.08.066.041.116.075.168.1q1.7.985,3.407,1.969a.173.173,0,0,0,.205-.008c2.123-1.229,4.249-2.452,6.368-3.687a.418.418,0,0,1,.486-.006q5.768,3.339,11.543,6.67C108.6,114,108.645,114.025,108.709,114.058Zm-8.241,6.53-15.621-9.02v.189c0,1.3,0,2.6,0,3.9a.26.26,0,0,0,.149.262q5.828,3.36,11.651,6.726a.244.244,0,0,0,.278,0c.9-.525,1.8-1.041,2.7-1.562Zm8.233,1.241a1.369,1.369,0,0,0,.016-.137c0-1.333,0-2.666,0-4a.179.179,0,0,0-.109-.175q-5.838-3.369-11.674-6.741a.262.262,0,0,0-.306,0q-1.7.987-3.407,1.968a1.262,1.262,0,0,0-.115.084Z" transform="translate(-2552.148 -506.695)" fill="#fff" fill-rule="evenodd"/>
    </g>
  </g>
</svg>

