<svg xmlns="http://www.w3.org/2000/svg" xmlns:xlink="http://www.w3.org/1999/xlink" width="221" height="216" viewBox="0 0 221 216">
  <defs>
    <linearGradient id="linear-gradient" x1="0.5" x2="0.5" y2="1" gradientUnits="objectBoundingBox">
      <stop offset="0" stop-color="#05002a"/>
      <stop offset="1" stop-color="#025889"/>
    </linearGradient>
  </defs>
  <g id="Grupo_14356" data-name="Grupo 14356" transform="translate(-224 -2514)">
    <g id="Elipse_135" data-name="Elipse 135" transform="translate(224 2514)" stroke="#025889" stroke-width="1" fill="url(#linear-gradient)">
      <ellipse cx="110.5" cy="108" rx="110.5" ry="108" stroke="none"/>
      <ellipse cx="110.5" cy="108" rx="110" ry="107.5" fill="none"/>
    </g>
    <g id="Grupo_3372" data-name="Grupo 3372" transform="translate(267 2563)">
      <g id="Grupo_3482" data-name="Grupo 3482" transform="translate(0 -28)">
        <path id="Trazado_8425" data-name="Trazado 8425" d="M3248.093,1825.53c3.736-2.379,7.458-4.782,11.211-7.133,16.876-10.579,33.724-21.2,50.685-31.646a31.415,31.415,0,0,1,8.457-3.251,10.145,10.145,0,0,1,8.057,1.406,9.921,9.921,0,0,1,4.141,11.884,15.982,15.982,0,0,1-5.856,8.115q-14.391,9.993-28.748,20.036c-.478.333-.957.661-1.53,1.055.4.375.672.651.964.908,5.115,4.5,6.511,10.082,4.718,16.529a2.711,2.711,0,0,0,.469,2.713c4.248,5.572,5.378,11.666,2.925,18.342a2,2,0,0,0,.3,1.7c5.613,6.007,5.189,14.479-.064,20.9a44.66,44.66,0,0,1-6.229,5.788c-13.856,11.5-29.819,18.78-47.107,23.374-5.448,1.448-10.909,2.85-16.344,4.348a10.579,10.579,0,0,1-7.819-.947,35.783,35.783,0,0,1-10.036-7.731c-8.994-9.549-15.871-20.39-19.52-33.077a38.432,38.432,0,0,1-1.2-8.261,12.218,12.218,0,0,1,3.985-9.8c5.407-5.255,10.2-11.01,13.285-17.957,3.379-7.613,6.708-15.257,9.771-23,3.854-9.742,7.4-19.6,11.1-29.406a14.979,14.979,0,0,1,9.113-9.131,7.977,7.977,0,0,1,5.549-.153c6.746,2.242,10.146,7.758,8.293,14.628-2.555,9.484-5.578,18.842-8.4,28.253-.126.422-.264.841-.4,1.261Zm6.7,46.861c-.076-.062-.142-.155-.228-.18-.334-.1-.675-.172-1.012-.261a11.672,11.672,0,0,1-3.568-21.037c12.28-8.273,24.657-16.406,36.9-24.737,11.883-8.087,23.639-16.361,35.47-24.523a12.086,12.086,0,0,0,4.466-6.209,5.715,5.715,0,0,0-3.918-7.683,9.005,9.005,0,0,0-4.691-.049,32.823,32.823,0,0,0-7.363,3.209c-9.512,5.779-18.947,11.683-28.363,17.617q-18.431,11.615-36.785,23.354c-1.016.646-2.008.974-3.027.143-.963-.785-.873-1.771-.471-2.855.7-1.869,1.334-3.76,1.931-5.664,2.774-8.854,5.6-17.691,8.225-26.59a15.767,15.767,0,0,0,.479-6.183c-.491-4.107-5.686-6.725-9.488-5.192-3.155,1.274-4.881,3.72-6.005,6.686-3.767,9.936-7.441,19.905-11.192,29.847-3.5,9.295-6.909,18.689-12.447,26.988-3.782,5.666-8.385,10.778-12.527,16.211a9.691,9.691,0,0,0-1.713,3.729c-.685,3.219.108,6.365,1.067,9.42,3.27,10.408,8.964,19.442,15.972,27.7a42.936,42.936,0,0,0,9.846,8.909,9.424,9.424,0,0,0,7.987,1.371c2.44-.715,4.952-1.191,7.384-1.926q12.1-3.662,24.156-7.463a55.987,55.987,0,0,0,5.167-2.226c-5.836-3.668-7.77-8.585-5.928-14.923A12,12,0,0,1,3254.793,1872.392Zm42.113-32.517c.049-5.192-1.864-8.234-5-10.67a1.505,1.505,0,0,0-2.1-.045c-4.243,2.9-8.526,5.732-12.793,8.589-8.167,5.466-16.347,10.909-24.482,16.422a9.111,9.111,0,0,0-2.594,2.624,7.445,7.445,0,0,0,1.278,9.322,7.573,7.573,0,0,0,9.65.634c10.924-7.275,21.778-14.66,32.793-21.8C3296.132,1843.354,3296.925,1841.4,3296.906,1839.874Zm-.158,8.084a4.89,4.89,0,0,0-.482.24c-11.824,7.891-23.668,15.751-35.454,23.7a7.42,7.42,0,0,0-1.92,10.351,7.5,7.5,0,0,0,10.439,2.085q14.481-9.572,28.89-19.249a3.545,3.545,0,0,0,1.115-1.158C3302.021,1859.078,3300.847,1851.792,3296.748,1847.958Zm3.772,20.818c-.972.64-1.97,1.291-2.961,1.952q-12.58,8.376-25.162,16.746a7.754,7.754,0,0,0-3.766,5.489,7.132,7.132,0,0,0,3.1,7.294,6.461,6.461,0,0,0,7.542.354,139.833,139.833,0,0,0,19.228-13.705,15.273,15.273,0,0,0,4.522-6.417C3304.68,1876.108,3303.713,1871.478,3300.52,1868.776Z" transform="translate(-3195.545 -1747.962)" fill="#fad000" stroke="#fad000" stroke-width="3"/>
        <path id="Trazado_8426" data-name="Trazado 8426" d="M3481.294,1674.255q-.915,6.441-1.829,12.879c-.687,4.786-1.4,9.569-2.067,14.356a2.762,2.762,0,0,1-2.35,2.7c-1.764.293-3.154-1.283-2.872-3.251q1.5-10.508,3.038-21.012c.307-2.121.559-4.251.944-6.358a2.519,2.519,0,0,1,2.806-2.13A2.622,2.622,0,0,1,3481.294,1674.255Z" transform="translate(-3389.254 -1671.425)" fill="#fad000" stroke="#fad000" stroke-width="3"/>
        <path id="Trazado_8427" data-name="Trazado 8427" d="M3521.75,1734.319c-2.478-.027-3.694-2-2.868-3.763a13.924,13.924,0,0,1,1.021-1.651q6.947-10.637,13.92-21.258a4.663,4.663,0,0,1,1.8-1.669,2.256,2.256,0,0,1,2.813.763,2.621,2.621,0,0,1,.052,3.323q-3.89,5.937-7.778,11.878c-2.375,3.626-4.713,7.279-7.161,10.855A7.411,7.411,0,0,1,3521.75,1734.319Z" transform="translate(-3421.809 -1695.472)" fill="#fad000" stroke="#fad000" stroke-width="3"/>
        <path id="Trazado_8428" data-name="Trazado 8428" d="M3398.786,1681.27c1.362.086,2.092,1.035,2.505,2.4q2.711,8.938,5.464,17.865c.788,2.572,1.6,5.138,2.374,7.716.533,1.781-.065,3.223-1.487,3.706-1.545.524-2.931-.285-3.5-2.121q-3.986-12.927-7.932-25.864C3395.6,1682.95,3396.735,1681.259,3398.786,1681.27Z" transform="translate(-3335.962 -1678.32)" fill="#fad000" stroke="#fad000" stroke-width="3"/>
      </g>
    </g>
  </g>
</svg>
