<svg xmlns="http://www.w3.org/2000/svg" width="1669.416" height="451.217" viewBox="0 0 1669.416 451.217">
  <g id="Grupo_5459" data-name="Grupo 5459" transform="translate(1 -9.659)">
    <text id="Click_para_descargar_pdf" data-name="Click para descargar pdf" transform="translate(8.461 419.158)" fill="#7b90a3" font-size="66" font-family="JosefinSans-Regular, Josefin Sans" letter-spacing="0.092em"><tspan x="0" y="0">Click para descargar pdf</tspan></text>
    <text id="Whitepaper" transform="translate(281 306.871)" fill="#7be3ff" font-size="77" font-family="ErasITC-Demi, Eras ITC" font-weight="300" letter-spacing="0.092em"><tspan x="-281.451" y="0">WHITEPAPER</tspan></text>
    <text id="LEE" transform="translate(8.962 200.505)" fill="#fff" font-size="131" font-family="ErasITC-Bold, Eras ITC" font-weight="700" letter-spacing="0.092em"><tspan x="0" y="0">LEE</tspan></text>
    <g id="Grupo_3367" data-name="Grupo 3367" transform="translate(1243.915 -0.001) rotate(21)">
      <g id="Grupo_3365" data-name="Grupo 3365" transform="translate(0 0)">
        <path id="Trazado_8235" data-name="Trazado 8235" d="M6.277,158.8c0,42.463.23,84.928-.131,127.388a24.727,24.727,0,0,0,25.235,25.328c66.612-.278,133.226-.116,199.84-.136,14.692,0,24.572-9.882,24.6-24.642q.076-40.147.029-80.293a21.112,21.112,0,0,1,.18-3.552,2.981,2.981,0,0,1,5.877.318c.065.829.064,1.663.064,2.5q.009,40.682,0,81.363c-.033,17.85-12.772,30.538-30.621,30.543q-100.454.031-200.911-.008C15.988,317.591,4.5,308.763.994,295.256A32.171,32.171,0,0,1,0,287.139Q.021,159.218.018,31.3C.02,12.669,12.74.007,31.41.005Q111.7-.005,192,0c4.548,0,5.026.488,5.031,5.165.011,9.279-.111,18.559.059,27.834.2,11.25,7.014,20.087,17.424,22.962a28.774,28.774,0,0,0,7.769.868q17.308-.033,34.615-.019c4.553,0,5.077.527,5.077,5.167q.011,61.381,0,122.76a18.465,18.465,0,0,1-.068,2.493,2.769,2.769,0,0,1-2.918,2.559A2.72,2.72,0,0,1,256,187.315a23.873,23.873,0,0,1-.158-3.554q-.01-58.345-.014-116.689c0-4.88.312-4.135-4.224-4.156-10.229-.048-20.459.009-30.689-.022-16.948-.051-29.756-12.758-29.932-29.731-.078-7.612,0-15.226-.038-22.838-.022-4.149.869-4.073-3.941-4.077q-32.3-.028-64.592-.011-45.856,0-91.712.019C16.31,6.264,6.282,16.295,6.279,30.683Q6.269,94.739,6.277,158.8Z" transform="translate(46.606 34.715)" fill="#fff" stroke="#fff" stroke-width="1"/>
        <path id="Trazado_8236" data-name="Trazado 8236" d="M.019,150.8Q.021,84.957,0,19.115C-.005,12.828,1.521,7.141,5.545,2.21,6.932.51,8.483-.94,10.607.758c2,1.6,1.028,3.279-.379,4.884A18.328,18.328,0,0,0,5.8,18.126c-.009,3.569,0,7.138,0,10.707q0,126.687-.019,253.376c0,4.74.591,9.243,3.5,13.179a17.55,17.55,0,0,0,13.891,7.567c2.731.12,5.471.058,8.207.058q101.528,0,203.057.044c5.843.007,11.076-1.064,15.427-5.165,1.448-1.364,3.013-1.5,4.353.036,1.38,1.585.748,3.11-.635,4.355a23.55,23.55,0,0,1-16.162,6.462q-8.565.01-17.13.006-97.424,0-194.85-.007c-12.281,0-21.513-6.717-24.536-17.777a33.26,33.26,0,0,1-.889-8.843Q.024,216.462.019,150.8Z" transform="translate(23.927 65.898)" fill="#fff" stroke="#fff" stroke-width="1"/>
        <path id="Trazado_8237" data-name="Trazado 8237" d="M.032,150.883Q.03,84.7,0,18.513C-.009,12.179,1.684,6.579,5.831,1.757,6.706.739,7.648-.174,9.124.028c2.337.322,3.271,2.908,1.5,4.91C6.662,9.435,5.7,14.659,5.7,20.465q.113,131.121-.076,262.241c-.036,12.614,9.347,20.5,20.41,20.464,69.811-.238,139.624-.132,209.436-.08,5.362,0,10.077-1.36,14.038-5.034,1.522-1.412,3.139-1.873,4.633-.13,1.556,1.815.472,3.272-.955,4.575a23.491,23.491,0,0,1-14.438,6.222c-.947.072-1.9.053-2.853.053q-105.432,0-210.864,0c-10.83,0-18.6-4.893-23.174-14.724A24.255,24.255,0,0,1,.014,283.61Q.061,217.246.032,150.883Z" transform="translate(0 86.358)" fill="#fff" stroke="#fff" stroke-width="1"/>
        <path id="Trazado_8238" data-name="Trazado 8238" d="M57.227,0Q83.07,0,108.913,0c3.743,0,5.567,1.053,5.248,3.193-.463,3.107-2.953,2.866-5.242,2.865Q56.876,6.053,4.833,6.051a12.536,12.536,0,0,1-2.482-.129A2.74,2.74,0,0,1,0,2.843,2.628,2.628,0,0,1,2.343.129a19.172,19.172,0,0,1,3.2-.113q25.844-.009,51.686,0Z" transform="translate(83.548 173.74)" fill="#fff" stroke="#fff" stroke-width="1"/>
        <path id="Trazado_8239" data-name="Trazado 8239" d="M46.059.018q20.327,0,40.654,0c1.813,0,3.648-.1,4.365,2.147.732,2.294-.811,4.062-3.844,4.092-7.837.079-15.675.074-23.514.074Q34.859,6.33,6,6.305c-.594,0-1.189.041-1.78.016C2.019,6.232,0,5.636,0,3.021-.006.233,2.232,0,4.326,0Q24.479,0,44.632.074c.476,0,.951,0,1.427,0Z" transform="translate(137.657 228.096)" fill="#fff" stroke="#fff" stroke-width="1"/>
        <path id="Trazado_8240" data-name="Trazado 8240" d="M38.256.008H70.371c.713,0,1.428-.01,2.14.014,2.135.074,3.871.851,3.776,3.263-.094,2.379-1.8,3.041-3.992,3.033-9.4-.036-18.793-.007-28.189-.006q-19.269,0-38.538,0a17.854,17.854,0,0,1-2.849-.065A2.952,2.952,0,0,1,0,3.054,2.862,2.862,0,0,1,2.582.115,14.713,14.713,0,0,1,5.427.022q16.414-.007,32.829,0Z" transform="translate(83.575 198.914)" fill="#fff" stroke="#fff" stroke-width="1"/>
        <path id="Trazado_8241" data-name="Trazado 8241" d="M51.182,42.617a3.134,3.134,0,0,1-3.8,3.254,5.356,5.356,0,0,1-2.384-1.481Q23.556,25.36,2.116,6.335C.947,5.3-.261,4.259.049,2.464.5-.114,3.286-.855,5.581,1.136c5.647,4.9,11.212,9.9,16.807,14.857q13.055,11.576,26.1,23.164C49.626,40.169,50.955,41.064,51.182,42.617Z" transform="translate(249.35 37.608)" fill="#fff" stroke="#fff" stroke-width="1"/>
        <path id="Trazado_8242" data-name="Trazado 8242" d="M34.048,6.046q-14.45,0-28.9-.008A12.683,12.683,0,0,1,1.97,5.8,2.576,2.576,0,0,1,0,3.149,2.72,2.72,0,0,1,2.07.2,11.46,11.46,0,0,1,4.9.022Q33.8.005,62.7.008c.357,0,.714.01,1.07,0,2.107-.069,4.007.44,4.064,2.906.064,2.695-1.9,3.158-4.174,3.149C53.79,6.024,43.919,6.045,34.048,6.046Z" transform="translate(83.576 258.645)" fill="#fff" stroke="#fff" stroke-width="1"/>
        <path id="Trazado_8243" data-name="Trazado 8243" d="M28.115.011q11.749,0,23.5,0c1.449,0,2.881.023,3.772,1.46a3.1,3.1,0,0,1-2.038,4.7,15.449,15.449,0,0,1-3.191.146q-22.431,0-44.862-.008c-.475,0-.95-.006-1.423-.007C1.717,6.292-.038,5.544,0,3.134.038.788,1.687-.009,3.9,0,11.973.034,20.044.014,28.115.011Z" transform="translate(179.385 198.92)" fill="#fff" stroke="#fff" stroke-width="1"/>
        <path id="Trazado_8244" data-name="Trazado 8244" d="M27.368,6.059q-11.041,0-22.081,0a16.266,16.266,0,0,1-2.84-.112A2.745,2.745,0,0,1,.005,2.933,2.836,2.836,0,0,1,2.635.055,14.476,14.476,0,0,1,4.413.013Q27.028,0,49.644,0c2.177,0,4.517-.151,4.71,2.941.141,2.25-1.227,3.089-4.9,3.1-4.749.02-9.5.01-14.246.011Q31.286,6.06,27.368,6.059Z" transform="translate(215.094 173.74)" fill="#fff" stroke="#fff" stroke-width="1"/>
        <path id="Trazado_8245" data-name="Trazado 8245" d="M20.434,6.316c-5.447,0-10.9-.027-16.342.011C1.931,6.343.322,5.665.034,3.318-.229,1.183,1.028.056,4.068.037,15.21-.03,26.355.015,37.5.013c2.038,0,3.657.846,3.709,2.957.057,2.25-1.527,3.332-3.729,3.34C31.8,6.333,26.116,6.318,20.434,6.316Z" transform="translate(83.568 228.107)" fill="#fff" stroke="#fff" stroke-width="1"/>
        <path id="Trazado_8246" data-name="Trazado 8246" d="M24.59,27.581a3.611,3.611,0,0,1-2.776-1.4Q11.592,15.977,1.368,5.774C-.13,4.287-.549,2.535.88,1.048c1.56-1.623,3.4-1.251,5,.363Q16.069,11.656,26.309,21.846a3.392,3.392,0,0,1,1.06,3.859A2.909,2.909,0,0,1,24.59,27.581Z" transform="translate(15.382 5.167)" fill="#fff" stroke="#fff" stroke-width="1"/>
        <path id="Trazado_8247" data-name="Trazado 8247" d="M6.31,10.738c0,2.5.026,4.993-.012,7.489-.031,2.128-.748,3.877-3.227,3.79C.662,21.933-.025,20.283,0,18.077.057,13.322.033,8.567.01,3.811,0,1.585.875-.048,3.236,0S6.355,1.783,6.32,3.962C6.283,6.22,6.312,8.479,6.31,10.738Z" transform="translate(60.799 0)" fill="#fff" stroke="#fff" stroke-width="1"/>
        <path id="Trazado_8248" data-name="Trazado 8248" d="M11.055,0c2.369,0,4.737-.011,7.106,0C20.315.02,22,.794,21.953,3.219,21.911,5.4,20.4,6.27,18.356,6.276,13.5,6.289,8.645,6.3,3.79,6.27,1.667,6.257-.065,5.506,0,3.057S1.81,0,3.95.021c2.368.029,4.737.006,7.1.006Z" transform="translate(10.823 49.659)" fill="#fff" stroke="#fff" stroke-width="1"/>
        <path id="Trazado_8249" data-name="Trazado 8249" d="M9.786,6.2c-2.125,0-4.252.039-6.377-.009C1.359,6.144-.028,5.239,0,3,.027.944,1.287.074,3.227.06,7.718.027,12.21-.011,16.7,0c1.985.006,3.61.747,3.62,3,.011,2.4-1.613,3.211-3.8,3.2C14.279,6.192,12.033,6.2,9.786,6.2Z" transform="translate(171.32 258.598)" fill="#fff" stroke="#fff" stroke-width="1"/>
        <path id="Trazado_8250" data-name="Trazado 8250" d="M10.07.017c2.252,0,4.5-.044,6.754.011,1.879.046,3.3.889,3.356,2.913.058,2.129-1.225,3.3-3.331,3.331-4.5.06-9,.051-13.507.014C1.227,6.268-.086,5.132,0,3,.087,1.078,1.372.054,3.316.027,5.567,0,7.819.02,10.07.017Z" transform="translate(249.372 198.921)" fill="#fff" stroke="#fff" stroke-width="1"/>
      </g>
    </g>
    <g id="Grupo_3369" data-name="Grupo 3369" transform="matrix(0.53, -0.848, 0.848, 0.53, 1465.753, 377.843)">
      <path id="Trazado_8261" data-name="Trazado 8261" d="M28.921,65.467c0-13.719.015-26.29-.007-38.86-.009-5.015-.247-10.034-.115-15.045a11.669,11.669,0,0,1,23.333-.175c.194,5.367.039,10.746.039,16.669,8.53-3.1,14.564-.882,17.766,6.629,4.066,0,8.164-.984,11.383.276s5.539,4.766,8.253,7.287l-.652,1.158A32.9,32.9,0,0,1,94.334,42c6.47-.589,12.061,3.523,12.275,10.014.52,15.79,1.949,31.74-2.36,47.223a67.88,67.88,0,0,1-7.625,17.149,29.264,29.264,0,0,1-21.657,14.085,108.094,108.094,0,0,1-20.726.185c-6.276-.417-11.482-3.868-15.678-8.385a177.35,177.35,0,0,1-12.615-15.088c-7.81-10.552-15.333-21.316-22.93-32.025C-1.612,68.63-.845,61.34,4.839,56.942s12.7-3.2,18.045,2.912C24.394,61.583,26.251,63.008,28.921,65.467ZM34,41.113h-.034c0,9.656.064,19.31-.074,28.963-.018,1.333-.735,3.378-1.681,3.773s-2.852-.586-3.841-1.5c-3.772-3.49-7.257-7.292-11.019-10.795a6.927,6.927,0,0,0-9.494-.374,7.108,7.108,0,0,0-1.422,9.73c10.456,14.515,20.952,29,31.64,43.348,6.456,8.663,15.215,12.343,26.155,12.18C81.54,126.176,92.451,118.893,98,102.51c5.5-16.244,3.806-33.1,3.736-49.78-.015-3.462-3.448-5.912-6.586-5.639a6.561,6.561,0,0,0-6.3,6.832c.011,4.892,0,9.785.016,14.678.008,2.006.034,4.283-2.62,4.3-2.68.013-2.617-2.266-2.612-4.272.017-7.468.07-14.938-.026-22.405-.065-5.069-3.958-8.25-8.349-6.867-3.387,1.068-4.8,3.693-4.821,7.113-.039,5.922.112,11.852-.156,17.764-.057,1.254-1.575,2.442-2.419,3.661C67,66.669,65.586,65.526,65.4,64.209c-.335-2.378.118-4.86.147-7.3.074-6.305.285-12.618.072-18.914a6.663,6.663,0,0,0-7.037-6.685c-3.462.093-6,2.878-6.329,6.99-.08,1.024-.022,2.059-.044,3.089-.132,6.429-.163,12.864-.5,19.284-.06,1.122-1.428,2.174-2.192,3.259-.737-1.062-2.105-2.118-2.119-3.19-.207-15.832-.233-31.668-.307-47.5a14.388,14.388,0,0,0-.1-2.312A6.531,6.531,0,0,0,40.263,5.25,6.2,6.2,0,0,0,34.051,11.4C33.909,21.3,34,31.207,34,41.113Z" transform="translate(7.102 36.46)" fill="#fff"/>
      <path id="Trazado_8262" data-name="Trazado 8262" d="M19.041,21.466a35.187,35.187,0,0,1-2.935-2.317c-4.75-4.706-9.454-9.459-14.189-14.18-1.438-1.433-3-3.154-.878-4.755.789-.6,3.387.143,4.4,1.088C10.508,6.039,15.376,11,20.182,16.01a4.819,4.819,0,0,1,1.049,3.349C21.183,20.041,19.951,20.64,19.041,21.466Z" transform="translate(13.033 13.91)" fill="#fff"/>
      <path id="Trazado_8263" data-name="Trazado 8263" d="M18.924,0C19.57.523,20.6.948,20.8,1.62A3.338,3.338,0,0,1,20.429,4.4C14.971,10.042,9.438,15.613,3.761,21.031A3.3,3.3,0,0,1,.5,20.853a3.336,3.336,0,0,1-.122-3.292c5.412-5.682,11-11.2,16.58-16.718A6.718,6.718,0,0,1,18.924,0Z" transform="translate(60.893 12.932)" fill="#fff"/>
      <path id="Trazado_8264" data-name="Trazado 8264" d="M14.2,5.276c-3.6,0-7.224.231-10.789-.127C2.195,5.027,1.131,3.422,0,2.495,1.125,1.682,2.228.2,3.376.167c7.2-.216,14.4-.234,21.6.014,1.15.04,2.242,1.744,3.361,2.679-1.112.805-2.173,2.205-3.344,2.305C21.413,5.471,17.8,5.276,14.2,5.276Z" transform="translate(67.014 44.922)" fill="#fff"/>
      <path id="Trazado_8265" data-name="Trazado 8265" d="M5.221,14.428a99.923,99.923,0,0,1-.123,10.4c-.131,1.259-1.669,2.37-2.565,3.549C1.708,27.146.211,25.942.17,24.69Q-.173,14.1.181,3.494C.221,2.3,1.8,1.164,2.672,0,3.522,1.211,4.982,2.364,5.1,3.645,5.439,7.21,5.22,10.829,5.221,14.428Z" transform="translate(44.918 0)" fill="#fff"/>
      <path id="Trazado_8266" data-name="Trazado 8266" d="M13.757,5.16c-3.588,0-7.19.17-10.757-.105C1.95,4.973,1,3.627,0,2.861.977,1.923,1.93.206,2.935.174q11.139-.347,22.291,0c1.025.031,2,1.713,3,2.631-1.1.791-2.163,2.171-3.323,2.263-3.693.295-7.425.109-11.142.109Z" transform="translate(0 45.247)" fill="#fff"/>
    </g>
  </g>
</svg>
