<svg xmlns="http://www.w3.org/2000/svg" width="42.033" height="43.667" viewBox="0 0 42.033 43.667">
  <g id="Grupo_14492" data-name="Grupo 14492" transform="translate(-23.967 -2582.098)">
    <ellipse id="Elipse_105" data-name="Elipse 105" cx="14.299" cy="14.299" rx="14.299" ry="14.299" transform="translate(37.402 2596.167)" fill="#043361"/>
    <g id="_5" data-name=" 5" transform="translate(387.536 1644.279)" style="isolation: isolate">
      <g id="Grupo_14490" data-name="Grupo 14490" style="isolation: isolate">
        <path id="Trazado_49111" data-name="Trazado 49111" d="M-353.154,952.782a25.844,25.844,0,0,1,2.622-.414,23.987,23.987,0,0,1,2.423-.128,15.674,15.674,0,0,1,5.729.969,11.723,11.723,0,0,1,4.16,2.68,11.226,11.226,0,0,1,2.537,4,14.041,14.041,0,0,1,.855,4.944,15.115,15.115,0,0,1-1.154,5.985,13.548,13.548,0,0,1-3.206,4.631,14.449,14.449,0,0,1-4.86,2.979,17.246,17.246,0,0,1-6.113,1.054,16.319,16.319,0,0,1-3.676-.4,18.27,18.27,0,0,1-3.264-1.068,18.062,18.062,0,0,1-2.821-1.54,17.844,17.844,0,0,1-2.323-1.837l2.166-2.994a2.1,2.1,0,0,1,1.8-.968,2.767,2.767,0,0,1,1.454.456q.741.455,1.7,1a13.923,13.923,0,0,0,2.251,1,9.446,9.446,0,0,0,3.121.456,8.716,8.716,0,0,0,3.42-.627,6.652,6.652,0,0,0,2.465-1.753,7.5,7.5,0,0,0,1.482-2.679,11.009,11.009,0,0,0,.5-3.378,6.988,6.988,0,0,0-1.952-5.257,7.973,7.973,0,0,0-5.772-1.9,18.052,18.052,0,0,0-6.013,1.083l-4.389-1.254,3.42-20.007h20.349v2.993a3.312,3.312,0,0,1-.941,2.451,4.42,4.42,0,0,1-3.192.94H-351.7Z" fill="#fad000"/>
      </g>
      <g id="Grupo_14491" data-name="Grupo 14491" style="isolation: isolate">
        <path id="Trazado_49112" data-name="Trazado 49112" d="M-353.154,953.782a25.844,25.844,0,0,1,2.622-.414,23.987,23.987,0,0,1,2.423-.128,15.674,15.674,0,0,1,5.729.969,11.723,11.723,0,0,1,4.16,2.68,11.226,11.226,0,0,1,2.537,4,14.041,14.041,0,0,1,.855,4.944,15.115,15.115,0,0,1-1.154,5.985,13.548,13.548,0,0,1-3.206,4.631,14.449,14.449,0,0,1-4.86,2.979,17.246,17.246,0,0,1-6.113,1.054,16.319,16.319,0,0,1-3.676-.4,18.27,18.27,0,0,1-3.264-1.068,18.062,18.062,0,0,1-2.821-1.54,17.844,17.844,0,0,1-2.323-1.837l2.166-2.994a2.1,2.1,0,0,1,1.8-.968,2.767,2.767,0,0,1,1.454.456q.741.455,1.7,1a13.923,13.923,0,0,0,2.251,1,9.446,9.446,0,0,0,3.121.456,8.716,8.716,0,0,0,3.42-.627,6.652,6.652,0,0,0,2.465-1.753,7.5,7.5,0,0,0,1.482-2.679,11.009,11.009,0,0,0,.5-3.378,6.988,6.988,0,0,0-1.952-5.257,7.973,7.973,0,0,0-5.772-1.9,18.052,18.052,0,0,0-6.013,1.083l-4.389-1.254,3.42-20.007h20.349v2.993a3.312,3.312,0,0,1-.941,2.451,4.42,4.42,0,0,1-3.192.94H-351.7Z" fill="none" stroke="#043361" stroke-width="2"/>
      </g>
    </g>
  </g>
</svg>
