<svg xmlns="http://www.w3.org/2000/svg" width="43.709" height="45.198" viewBox="0 0 43.709 45.198">
  <g id="Grupo_4564" data-name="Grupo 4564" transform="translate(-77.427 -2180.062)">
    <ellipse id="Elipse_102" data-name="Elipse 102" cx="14.299" cy="14.299" rx="14.299" ry="14.299" transform="translate(92.538 2196.396)" fill="#043361"/>
    <g id="Grupo_2787" data-name="Grupo 2787" transform="translate(-3.65 2181.034)">
      <path id="Trazado_6004" data-name="Trazado 6004" d="M94.579,2685.018l-7.82,0q.316-6.816,4.284-10.727A15.131,15.131,0,0,1,108,2672a12.134,12.134,0,0,1,4.7,4.67,12.26,12.26,0,0,1,1.76,6.2,18.358,18.358,0,0,1-2.137,8.077,44.1,44.1,0,0,1-7.812,10.224l-4.729,4.983H114.8v7.421l-29.188-.006v-3.838l13.036-13.287a38.085,38.085,0,0,0,6.289-7.689,11.316,11.316,0,0,0,1.562-5.256,5.4,5.4,0,0,0-1.618-4.025,5.7,5.7,0,0,0-4.167-1.591,5.531,5.531,0,0,0-4.3,1.918A7.964,7.964,0,0,0,94.579,2685.018Z" transform="translate(-3.531 -2670.355)" fill="#fad000" stroke="#043361" stroke-width="2"/>
    </g>
  </g>
</svg>
