<svg xmlns="http://www.w3.org/2000/svg" width="44.117" height="44.255" viewBox="0 0 44.117 44.255">
  <g id="Grupo_4565" data-name="Grupo 4565" transform="translate(-108.019 -2276.444)">
    <ellipse id="Elipse_103" data-name="Elipse 103" cx="14.299" cy="14.299" rx="14.299" ry="14.299" transform="translate(123.538 2291.396)" fill="#043361"/>
    <path id="Trazado_6002" data-name="Trazado 6002" d="M725.112,2481.186h-7.357a11.983,11.983,0,0,1,12.418-10.937,11.661,11.661,0,0,1,8.3,3.148,9.9,9.9,0,0,1,3.349,7.466,8.7,8.7,0,0,1-1.464,4.9,10.463,10.463,0,0,1-4.254,3.582,10.844,10.844,0,0,1,5.73,3.817,10.3,10.3,0,0,1,2.062,6.413,12.127,12.127,0,0,1-3.994,9.175,14.252,14.252,0,0,1-10.176,3.759,13.219,13.219,0,0,1-9.542-3.545,13.916,13.916,0,0,1-4.046-9.641l7.576,0a7.62,7.62,0,0,0,2.173,4.635,6.654,6.654,0,0,0,8.7-.2,5.783,5.783,0,0,0-.613-8.834q-2.378-1.887-6.864-1.942v-6.565a12.385,12.385,0,0,0,4.117-.86,5.088,5.088,0,0,0,2.106-1.764,4.2,4.2,0,0,0,.754-2.378,3.577,3.577,0,0,0-1.149-2.721,4.2,4.2,0,0,0-3.008-1.082,4.873,4.873,0,0,0-2.981,1A4.987,4.987,0,0,0,725.112,2481.186Z" transform="translate(-607.058 -192.803)" fill="#fad000" stroke="#043361" stroke-width="2"/>
  </g>
</svg>
