<svg xmlns="http://www.w3.org/2000/svg" width="55.517" height="47.333" viewBox="0 0 55.517 47.333">
  <g id="Grupo_3473" data-name="Grupo 3473" transform="translate(-1092 -840.667)">
    <path id="Trazado_8114" data-name="Trazado 8114" d="M870.355,517.874c.337-3.735,1.758-5.057,5.309-5.07q6.805-.026,13.61,0c3.715.01,5.063,1.227,5.471,5.072,3.029,0,6.082,0,9.135,0,4.327.007,6.763,2.414,6.776,6.758q.03,10.159,0,20.319c-.016,4.217-2.474,6.653-6.682,6.657q-21.086.014-42.172,0c-4.166,0-6.627-2.5-6.635-6.708q-.019-10.16,0-20.32c.008-4.21,2.475-6.69,6.64-6.7C864.61,517.866,867.415,517.874,870.355,517.874Zm12.618,7.219a9.993,9.993,0,0,0-.037,19.985,10.332,10.332,0,0,0,10.119-9.994A10.212,10.212,0,0,0,882.973,525.093Z" transform="translate(236.845 327.874)" fill="#fff"/>
    <path id="Trazado_8115" data-name="Trazado 8115" d="M924.289,561.628a5.533,5.533,0,0,1-5.4,5.542,5.663,5.663,0,0,1-5.585-5.427,5.813,5.813,0,0,1,5.472-5.6A5.622,5.622,0,0,1,924.289,561.628Z" transform="translate(201.007 301.154)" fill="#fff"/>
    <path id="Polígono_1" data-name="Polígono 1" d="M5,0l5,5H0Z" transform="translate(1125 888) rotate(180)" fill="#fff"/>
  </g>
</svg>
