<svg xmlns="http://www.w3.org/2000/svg" width="90.84" height="136.391" viewBox="0 0 90.84 136.391">
  <g id="Grupo_3483" data-name="Grupo 3483" transform="translate(-3983.518 -1594)">
    <path id="Trazado_8429" data-name="Trazado 8429" d="M4054.725,1730.391H4003.19a5.8,5.8,0,0,0-1.078-.467c-11.13-2.362-18.372-10.881-18.5-22.25-.152-13.323-.082-26.649-.019-39.973.036-7.7,3.473-13.694,9.49-18.4a5.036,5.036,0,0,0,1.728-3.378c.172-5.951.033-11.91.09-17.865a34,34,0,0,1,22.324-31.882c2.525-.924,5.193-1.46,7.794-2.174h7.881a7.647,7.647,0,0,0,1.376.492c15.325,2.382,26.961,14.233,28.351,29.575.644,7.117.359,14.323.359,21.489a4.318,4.318,0,0,0,1.967,3.986c5.859,4.316,9.257,10.156,9.328,17.505.133,13.837.071,27.676,0,41.514a21.436,21.436,0,0,1-5.558,14.056C4065.028,1726.958,4060.1,1729.066,4054.725,1730.391Zm-25.913-11.4c7.373,0,14.748.04,22.121-.011,7.544-.052,12.2-4.754,12.22-12.361q.054-18.936,0-37.872c-.028-7.511-4.859-12.248-12.376-12.253q-21.819-.017-43.637,0c-7.505.005-12.342,4.757-12.37,12.266q-.07,18.936,0,37.872c.022,7.609,4.672,12.3,12.23,12.349C4014.265,1719.032,4021.538,1718.993,4028.812,1718.993Zm22.869-73.936c0-5.895.011-11.435,0-16.976-.028-11.39-8.688-21.317-19.639-22.529-12.088-1.338-23.2,5.939-25.063,17.655-1.122,7.051-.207,14.426-.207,21.85Z" fill="#fff"/>
    <path id="Trazado_8430" data-name="Trazado 8430" d="M4062.412,1727.185a11.917,11.917,0,0,1-3.958,8.8,5.825,5.825,0,0,0-1.6,3.492c-.215,3.412,0,6.849-.1,10.272-.112,3.772-2.086,5.771-5.522,5.826-3.573.057-5.65-2-5.758-5.89q-.133-4.833,0-9.671a4.831,4.831,0,0,0-1.883-4.371,11.071,11.071,0,0,1-2.446-13.734,11.3,11.3,0,0,1,21.264,5.276Z" transform="translate(-22.159 -48.021)" fill="#fff"/>
  </g>
</svg>
