<svg xmlns="http://www.w3.org/2000/svg" width="96.738" height="96.776" viewBox="0 0 96.738 96.776">
  <path id="Trazado_34359" data-name="Trazado 34359" d="M63.777,95.716a14.446,14.446,0,1,0-.948-20.408,14.445,14.445,0,0,0,.948,20.408" transform="translate(-25.205 -36.7)" fill="#1d3557"/>
  <path id="Trazado_34360" data-name="Trazado 34360" d="M70.461,77.942a48.708,48.708,0,0,0-3.663,3.62l-.05.05L72,86.4a41.536,41.536,0,0,0-5.408,7.51l-6.206-3.5a48.577,48.577,0,0,0-2.28,4.61l6.541,2.815a41.335,41.335,0,0,0-2.672,8.864l-7.012-1.29a49.064,49.064,0,0,0-.656,5.095l7.119.534a41.463,41.463,0,0,0,.328,9.256l-7.047,1.048a50.3,50.3,0,0,0,1.019,5.031l6.9-1.789a41,41,0,0,0,3.306,8.651l-6.321,3.278a46.924,46.924,0,0,0,2.615,4.432l5.921-3.933a41.657,41.657,0,0,0,5.957,7.083l-4.9,5.159a49.807,49.807,0,0,0,3.9,3.335l4.34-5.636a41.151,41.151,0,0,0,7.917,4.781l-2.971,6.47a50.144,50.144,0,0,0,4.781,1.9l2.273-6.755a41.282,41.282,0,0,0,9.043,1.938l-.705,7.09a47.326,47.326,0,0,0,5.123.235l-.043-7.126a41.611,41.611,0,0,0,9.192-1.09l1.632,6.94a49.267,49.267,0,0,0,4.924-1.432l-2.344-6.72a41.607,41.607,0,0,0,8.344-4.019l3.791,6.021a46.441,46.441,0,0,0,4.2-2.964l-4.411-5.579a41.463,41.463,0,0,0,4.967-4.617c.563-.62,1.1-1.254,1.617-1.9l5.53,4.468a48.469,48.469,0,0,0,3.014-4.154l-5.978-3.869a40.141,40.141,0,0,0,4.112-8.294l6.7,2.43a49.335,49.335,0,0,0,1.5-4.91l-6.919-1.7a41.283,41.283,0,0,0,1.183-9.185l7.133.128c.028-1.7-.036-3.427-.178-5.131l-7.1.627a40.983,40.983,0,0,0-1.838-9.078l6.784-2.181a47.588,47.588,0,0,0-1.831-4.8l-6.513,2.893a41.31,41.31,0,0,0-4.682-7.988l5.686-4.275a49.434,49.434,0,0,0-3.3-3.933l-5.209,4.853c-.762-.819-1.553-1.625-2.4-2.394a41.015,41.015,0,0,0-4.617-3.634l4-5.886a51.094,51.094,0,0,0-4.4-2.658l-3.349,6.271a41.315,41.315,0,0,0-8.608-3.406l1.86-6.883a49.016,49.016,0,0,0-5.017-1.076L109.2,73.4a41.461,41.461,0,0,0-9.249-.435L99.5,65.835a50.444,50.444,0,0,0-5.095.6l1.2,7.033a41.514,41.514,0,0,0-8.9,2.565l-2.736-6.577a46.11,46.11,0,0,0-4.632,2.23l3.42,6.249a40.523,40.523,0,0,0-7.575,5.323Zm55.972,10.1a35.366,35.366,0,1,1-49.966,2.316,35.4,35.4,0,0,1,49.966-2.316" transform="translate(-54.307 -65.835)" fill="#1d3557"/>
</svg>
