<svg xmlns="http://www.w3.org/2000/svg" width="464.497" height="464.58" viewBox="0 0 464.497 464.58">
  <path id="Trazado_34347" data-name="Trazado 34347" d="M79.624,159.571a59.042,59.042,0,1,0-56.913-61.1,59.115,59.115,0,0,0,56.913,61.1m2.907-81.839A22.849,22.849,0,1,1,58.889,99.758,22.868,22.868,0,0,1,82.532,77.732" transform="translate(150.53 131.72)" fill="#1d3557"/>
  <path id="Trazado_34348" data-name="Trazado 34348" d="M117.17,244.26A104.6,104.6,0,1,0,16.348,136.02,104.713,104.713,0,0,0,117.17,244.26m6.777-190.976a86.5,86.5,0,1,1-89.52,83.378,86.607,86.607,0,0,1,89.52-83.378" transform="translate(111.374 92.558)" fill="#1d3557"/>
  <path id="Trazado_34349" data-name="Trazado 34349" d="M7.43,181.191c-.406,3.912-.677,7.888-.819,11.822l-.021.449,16.011.513c-.121,3.62-.078,7.2.036,10.774L6.6,205.3c.135,3.941.406,7.924.812,11.829l15.962-1.639c.371,3.591.834,7.147,1.447,10.667l-15.8,2.722c.67,3.883,1.482,7.8,2.416,11.622l15.62-3.812c.855,3.492,1.8,6.955,2.893,10.361l-15.3,4.874c1.19,3.741,2.537,7.5,3.983,11.159l14.95-5.914q1.988,5,4.311,9.841l-14.522,6.94c1.7,3.556,3.534,7.09,5.48,10.518l13.988-7.9c1.767,3.128,3.663,6.171,5.636,9.157l-13.453,8.864c2.152,3.285,4.468,6.534,6.848,9.67l12.8-9.734c2.173,2.857,4.461,5.622,6.819,8.323l-12.135,10.6c2.594,2.964,5.316,5.879,8.095,8.658l11.387-11.394q3.805,3.805,7.86,7.354L66.131,330.2c2.964,2.587,6.064,5.1,9.2,7.482l9.734-12.826c2.865,2.166,5.765,4.275,8.772,6.249l-8.814,13.425c3.3,2.166,6.712,4.247,10.14,6.171l7.9-14.023q4.682,2.64,9.548,4.981l-6.891,14.508c3.563,1.7,7.225,3.285,10.9,4.731l5.886-14.95q4.992,1.967,10.147,3.591l-4.845,15.32c3.762,1.183,7.6,2.259,11.437,3.185L143,352.479c3.463.841,7,1.525,10.553,2.131l-2.7,15.826c3.876.655,7.824,1.2,11.743,1.589l1.625-15.962c3.449.356,6.919.634,10.432.755.1.007.207,0,.3.007l-.534,16c3.941.135,7.931.135,11.843,0l-.534-16.04q5.419-.182,10.738-.727l1.632,15.962c3.912-.392,7.874-.941,11.75-1.6l-2.715-15.8c3.556-.613,7.054-1.375,10.532-2.23l3.805,15.62c3.826-.933,7.667-2.009,11.423-3.207l-4.86-15.3q5.131-1.646,10.118-3.627l5.907,14.95c3.655-1.447,7.311-3.036,10.867-4.731l-6.926-14.529c3.242-1.546,6.442-3.171,9.556-4.938l7.888,14c3.427-1.931,6.834-4,10.126-6.164l-8.857-13.468c3.007-1.974,5.95-4.026,8.807-6.192l9.727,12.812c3.128-2.38,6.228-4.9,9.192-7.489L283.844,317.99q4.062-3.538,7.867-7.347L303.1,322.038c2.779-2.786,5.508-5.694,8.1-8.665l-12.128-10.582c2.359-2.7,4.617-5.5,6.8-8.358l12.819,9.748c2.38-3.142,4.7-6.4,6.848-9.691l-13.418-8.822c1.974-2.993,3.812-6.078,5.579-9.214l14.016,7.9c1.938-3.435,3.784-6.983,5.473-10.546l-14.5-6.912q2.309-4.842,4.3-9.876l14.943,5.893c1.447-3.663,2.786-7.432,3.976-11.187l-15.327-4.853c1.09-3.406,2.095-6.848,2.95-10.354l15.563,3.777c.933-3.819,1.739-7.731,2.4-11.615l-15.819-2.708q.9-5.28,1.461-10.667l15.954,1.632c.392-3.834.663-7.731.8-11.6l.007-.207-15.99-.57c.121-3.613.078-7.2-.036-10.767l16.04-.527c-.135-3.941-.4-7.924-.8-11.829l-15.969,1.618c-.363-3.584-.819-7.147-1.425-10.667l15.8-2.7c-.67-3.884-1.475-7.8-2.408-11.622l-15.62,3.791c-.848-3.5-1.8-6.955-2.886-10.368l15.313-4.853c-1.19-3.755-2.53-7.5-3.969-11.166l-14.957,5.9q-1.977-5.013-4.3-9.855l14.536-6.912c-1.689-3.556-3.527-7.1-5.465-10.525l-14,7.881c-1.76-3.128-3.655-6.171-5.629-9.171l13.475-8.836c-2.159-3.285-4.461-6.549-6.841-9.684l-12.819,9.719c-2.166-2.857-4.446-5.629-6.805-8.337L311.27,85.072c-2.579-2.964-5.3-5.879-8.081-8.672l-11.4,11.387c-2.537-2.544-5.145-5.009-7.853-7.375l10.6-12.114c-2.964-2.594-6.057-5.116-9.192-7.5l-9.755,12.826c-2.85-2.173-5.758-4.283-8.758-6.264l8.822-13.418c-3.292-2.166-6.7-4.247-10.133-6.185l-7.9,14.023c-3.121-1.767-6.3-3.442-9.548-5l6.919-14.508c-3.563-1.7-7.226-3.292-10.9-4.739l-5.907,14.936c-3.313-1.311-6.705-2.508-10.133-3.6L232.9,33.56c-3.748-1.19-7.589-2.273-11.423-3.2l-3.791,15.563c-3.463-.848-6.99-1.539-10.539-2.152l2.715-15.819c-3.869-.663-7.824-1.2-11.75-1.6L196.482,42.3c-3.513-.363-7.054-.648-10.639-.777h-.1l.556-15.99c-3.941-.143-7.924-.143-11.85-.014l.52,16.033q-5.408.182-10.738.72l-1.61-15.969c-3.919.392-7.874.933-11.75,1.6l2.686,15.791c-3.556.613-7.054,1.375-10.525,2.223L139.248,30.3c-3.827.926-7.674,2-11.437,3.185l4.853,15.313q-5.152,1.635-10.126,3.606l-5.893-14.957c-3.663,1.447-7.325,3.028-10.874,4.717L112.684,56.7c-3.242,1.546-6.449,3.164-9.57,4.924L95.247,47.612c-3.435,1.931-6.834,4-10.126,6.157L93.95,67.243c-3.007,1.974-5.95,4.019-8.807,6.185L75.438,60.6C72.3,62.975,69.2,65.49,66.231,68.077L76.806,80.226q-4.072,3.538-7.874,7.339L57.552,76.158c-2.786,2.779-5.515,5.693-8.109,8.651L61.55,95.4c-2.366,2.7-4.617,5.494-6.8,8.351L41.94,93.993c-2.394,3.135-4.7,6.392-6.862,9.684l13.411,8.836c-1.974,2.993-3.819,6.078-5.594,9.206L28.878,113.8c-1.938,3.442-3.784,6.983-5.48,10.539l14.5,6.926q-2.319,4.853-4.311,9.869L18.653,135.23c-1.454,3.67-2.793,7.432-3.99,11.18l15.32,4.874c-1.1,3.406-2.1,6.848-2.957,10.347l-15.57-3.791c-.933,3.819-1.739,7.731-2.416,11.615l15.819,2.722q-.909,5.27-1.468,10.66ZM184.882,68.654c71.97,2.551,128.441,63.184,125.89,135.153A130.759,130.759,0,0,1,175.611,329.7C103.648,327.14,47.177,266.514,49.728,194.544S112.912,66.1,184.882,68.654" transform="matrix(-0.899, 0.438, -0.438, -0.899, 481.566, 332.293)" fill="#1d3557"/>
</svg>
