<svg xmlns="http://www.w3.org/2000/svg" width="181.171" height="181.179" viewBox="0 0 181.171 181.179">
  <path id="Trazado_34356" data-name="Trazado 34356" d="M66.882,42.066a33.519,33.519,0,1,0,46.3-10.168,33.553,33.553,0,0,0-46.3,10.168m48.7,31.154a24.29,24.29,0,1,1-7.368-33.555,24.322,24.322,0,0,1,7.368,33.555" transform="translate(-4.533 30.466)" fill="#1d3557"/>
  <path id="Trazado_34357" data-name="Trazado 34357" d="M67.126,46.5a47.357,47.357,0,1,0,65.407-14.373A47.405,47.405,0,0,0,67.126,46.5m77.955,49.88a45.192,45.192,0,1,1-13.717-62.421,45.243,45.243,0,0,1,13.717,62.421" transform="translate(-16.433 18.566)" fill="#1d3557"/>
  <path id="Trazado_34358" data-name="Trazado 34358" d="M206.3,43.137a91.625,91.625,0,0,0-13.282-10.325l-.164-.1-4.268,6.727a82.335,82.335,0,0,0-25.631-10.76l1.81-7.8a90.23,90.23,0,0,0-16.646-2.273l-.335,8.016a83.207,83.207,0,0,0-27.577,3.5l-2.33-7.689a91.376,91.376,0,0,0-15.555,6.328l3.7,7.126A81.852,81.852,0,0,0,83.855,52.671l-5.843-5.465a90.815,90.815,0,0,0-10.2,13.133l-.086.128,6.72,4.3A82.382,82.382,0,0,0,63.668,90.387l-7.8-1.817A90.235,90.235,0,0,0,53.6,105.216l8.009.342a83.2,83.2,0,0,0,3.484,27.577L57.4,135.458a91.314,91.314,0,0,0,6.321,15.563l7.126-3.691A82.086,82.086,0,0,0,87.617,169.5l-5.465,5.843A91.984,91.984,0,0,0,95.32,185.573l.086.05,4.3-6.712A82.232,82.232,0,0,0,125.326,189.7l-1.831,7.8a91.041,91.041,0,0,0,16.646,2.294l.349-8.016a83.187,83.187,0,0,0,27.577-3.47l2.316,7.7a90.888,90.888,0,0,0,15.57-6.313l-3.691-7.126A82.009,82.009,0,0,0,204.45,165.8l5.836,5.473a91.687,91.687,0,0,0,10.268-13.211l.021-.043-6.727-4.275A82.165,82.165,0,0,0,224.673,128.1l7.788,1.831A90.9,90.9,0,0,0,234.77,113.3l-8.016-.363A83.412,83.412,0,0,0,223.3,85.357l7.689-2.309a91.032,91.032,0,0,0-6.292-15.57l-7.133,3.684a82.072,82.072,0,0,0-16.738-22.2Zm-2.515,104.192A70.753,70.753,0,1,1,182.311,49.6a70.835,70.835,0,0,1,21.47,97.729" transform="translate(-53.599 -18.61)" fill="#1d3557"/>
</svg>
