<svg xmlns="http://www.w3.org/2000/svg" width="143.358" height="143.414" viewBox="0 0 143.358 143.414">
  <path id="Trazado_34361" data-name="Trazado 34361" d="M61.558,54.488A21.408,21.408,0,1,0,39.81,33.417,21.415,21.415,0,0,0,61.558,54.488" transform="translate(10.557 38.546)" fill="#1d3557"/>
  <path id="Trazado_34362" data-name="Trazado 34362" d="M33.028,69.784a71.221,71.221,0,0,0-.278,7.625v.107l10.532-.171a60.758,60.758,0,0,0,1.789,13.61L34.816,93.477a70.813,70.813,0,0,0,2.216,7.282l9.919-3.6a61.146,61.146,0,0,0,6.121,12.278l-8.879,5.736a72.85,72.85,0,0,0,4.461,6.164l8.223-6.648a61.889,61.889,0,0,0,9.755,9.655l-6.541,8.294a73.307,73.307,0,0,0,6.214,4.389l5.629-8.943a61.22,61.22,0,0,0,12.349,5.986L80.8,144.026a72.244,72.244,0,0,0,7.318,2.131l2.394-10.268a61.052,61.052,0,0,0,13.639,1.6l-.064,10.546a70.876,70.876,0,0,0,7.582-.356l-1.033-10.489a60.94,60.94,0,0,0,13.411-2.879l3.363,10a72.665,72.665,0,0,0,7.076-2.808l-4.411-9.591a61.1,61.1,0,0,0,11.743-7.1l6.435,8.373a72.04,72.04,0,0,0,5.779-4.952l-7.29-7.646a61.624,61.624,0,0,0,8.815-10.51l8.807,5.843a73.9,73.9,0,0,0,3.869-6.556l-9.363-4.874a60.959,60.959,0,0,0,4.924-12.8L174,94.339a72.086,72.086,0,0,0,1.525-7.461L165.1,85.325a61.306,61.306,0,0,0,.677-10.026c-.021-1.24-.093-2.465-.178-3.691l10.5-.791a70.108,70.108,0,0,0-.969-7.539l-10.375,1.9a60.91,60.91,0,0,0-3.976-13.133l9.691-4.176a73.85,73.85,0,0,0-3.37-6.819l-9.2,5.18a61.579,61.579,0,0,0-8.045-11.109l7.824-7.1a69.686,69.686,0,0,0-5.408-5.351l-7.026,7.881a61.244,61.244,0,0,0-11.195-7.924l5.1-9.256a71.218,71.218,0,0,0-6.848-3.313l-4.1,9.734a60.642,60.642,0,0,0-13.161-3.862l1.8-10.4a72.322,72.322,0,0,0-7.553-.9L108.6,15.151c-1.667-.107-3.342-.171-5.038-.143a60.923,60.923,0,0,0-8.679.762L93.233,5.353a74.009,74.009,0,0,0-7.446,1.589l2.751,10.176a60.671,60.671,0,0,0-12.748,5.066l-4.967-9.32a71.118,71.118,0,0,0-6.513,3.926l5.921,8.743a61.753,61.753,0,0,0-10.425,8.921l-7.724-7.218a73.45,73.45,0,0,0-4.9,5.822l8.444,6.363a60.658,60.658,0,0,0-7,11.807L39,46.9a70.939,70.939,0,0,0-2.743,7.1l10.033,3.271a60.893,60.893,0,0,0-2.772,13.446Zm70.68-45.932a52.409,52.409,0,1,1-51.59,53.222,52.478,52.478,0,0,1,51.59-53.222" transform="translate(-32.74 -4.626)" fill="#1d3557"/>
</svg>
