<svg xmlns="http://www.w3.org/2000/svg" width="156.248" height="156.21" viewBox="0 0 156.248 156.21">
  <path id="Trazado_34344" data-name="Trazado 34344" d="M108.591,98.784a26.548,26.548,0,1,0-37.417-3.043,26.578,26.578,0,0,0,37.417,3.043M84.749,70.723A10.275,10.275,0,1,1,83.573,85.2a10.28,10.28,0,0,1,1.176-14.479" transform="translate(-13.282 -0.449)" fill="#1d3557"/>
  <path id="Trazado_34345" data-name="Trazado 34345" d="M139.453,132a47.03,47.03,0,1,0-66.291-5.394A47.074,47.074,0,0,0,139.453,132M83.83,66.517a38.893,38.893,0,1,1-4.468,54.818A38.934,38.934,0,0,1,83.83,66.517" transform="translate(-30.884 -18.055)" fill="#1d3557"/>
  <path id="Trazado_34346" data-name="Trazado 34346" d="M72.9,169.291c1.047,1.418,2.159,2.822,3.306,4.169l.135.157,5.472-4.674c1.055,1.233,2.152,2.416,3.278,3.563l-5.166,5.045c1.247,1.261,2.537,2.5,3.855,3.677l4.81-5.38c1.211,1.083,2.444,2.123,3.705,3.107l-4.418,5.693c1.4,1.083,2.857,2.138,4.325,3.121l4.026-6c1.354.9,2.715,1.767,4.1,2.565l-3.606,6.256c1.532.884,3.121,1.724,4.71,2.5l3.171-6.5q2.181,1.069,4.418,1.967l-2.722,6.705c1.639.663,3.321,1.283,5,1.831l2.259-6.862c1.532.506,3.078.941,4.646,1.333l-1.789,7.019c1.717.442,3.463.827,5.209,1.14l1.3-7.111c1.589.285,3.178.513,4.788.7l-.819,7.2c1.76.2,3.549.342,5.316.42l.328-7.233c1.61.071,3.228.093,4.838.057l.164,7.24c1.767-.043,3.563-.143,5.323-.306l-.656-7.211c1.61-.143,3.214-.321,4.81-.584l1.14,7.133c1.753-.278,3.513-.62,5.237-1.019l-1.625-7.055c1.568-.363,3.128-.77,4.682-1.24l2.1,6.912c1.7-.52,3.406-1.1,5.059-1.732l-2.579-6.748c1.5-.57,2.993-1.2,4.461-1.888l3.036,6.563c1.6-.748,3.207-1.553,4.753-2.408l-3.463-6.313c1.411-.77,2.793-1.61,4.154-2.487l3.9,6.071c1.489-.955,2.964-1.974,4.382-3.028l-4.3-5.793c1.254-.926,2.494-1.888,3.7-2.914l.1-.086,4.667,5.48c1.354-1.154,2.672-2.366,3.941-3.591l-5.045-5.166q1.742-1.7,3.349-3.5l5.38,4.81c1.183-1.318,2.33-2.7,3.413-4.1l-5.686-4.425c1-1.275,1.931-2.594,2.829-3.926l5.993,4.033c.983-1.475,1.938-2.993,2.822-4.532l-6.256-3.606c.805-1.4,1.561-2.829,2.266-4.268l6.5,3.178c.77-1.6,1.5-3.228,2.166-4.874l-6.7-2.722c.606-1.5,1.176-3.007,1.675-4.539l6.862,2.259c.556-1.675,1.062-3.4,1.5-5.109l-7.019-1.8c.392-1.561.755-3.135,1.047-4.724l7.111,1.311c.321-1.739.584-3.513.791-5.273l-7.2-.819c.185-1.61.321-3.214.385-4.831l7.24.335c.086-1.767.107-3.563.064-5.33l-7.233.157c-.043-1.61-.135-3.228-.278-4.831l7.211-.648c-.164-1.767-.378-3.549-.663-5.3l-7.126,1.14c-.256-1.6-.584-3.171-.948-4.746l7.062-1.632c-.4-1.724-.869-3.463-1.382-5.159l-6.919,2.1c-.463-1.539-.983-3.071-1.561-4.582l6.748-2.572c-.627-1.653-1.325-3.306-2.066-4.917l-6.563,3.028c-.67-1.461-1.375-2.907-2.159-4.332l6.313-3.463c-.848-1.553-1.76-3.093-2.722-4.582L195.5,84.687q-1.293-2.031-2.75-3.983l5.793-4.3c-1.026-1.39-2.116-2.765-3.249-4.09l-.057-.071-5.487,4.66c-1.055-1.247-2.159-2.423-3.278-3.57l5.173-5.038c-1.24-1.268-2.537-2.508-3.848-3.684l-4.817,5.373c-1.211-1.076-2.444-2.123-3.713-3.107l4.432-5.686c-1.4-1.09-2.85-2.145-4.318-3.135l-4.033,5.993c-1.354-.9-2.715-1.767-4.112-2.565l3.613-6.249c-1.532-.884-3.107-1.732-4.7-2.508l-3.178,6.492q-2.18-1.069-4.418-1.967l2.729-6.705c-1.639-.67-3.321-1.283-5-1.838l-2.259,6.855c-1.539-.5-3.093-.933-4.646-1.333l1.8-7.019c-1.717-.435-3.47-.827-5.209-1.147l-1.311,7.119q-2.384-.438-4.788-.713l.827-7.19c-1.753-.207-3.542-.349-5.309-.428l-.342,7.233c-1.617-.078-3.221-.107-4.845-.071l-.15-7.233c-1.767.036-3.563.135-5.323.292l.641,7.218c-1.6.142-3.207.321-4.8.57l-1.14-7.126c-1.753.271-3.513.62-5.237,1.012l1.625,7.054c-1.575.356-3.135.762-4.689,1.233l-2.095-6.912c-1.7.513-3.4,1.1-5.052,1.724L110.54,56.6q-2.255.855-4.461,1.874l-3.028-6.563c-1.6.741-3.207,1.553-4.767,2.4l3.456,6.321c-1.4.77-2.786,1.61-4.154,2.48L93.7,57.039c-1.489.955-2.964,1.967-4.4,3.021l4.3,5.8c-1.276.948-2.544,1.924-3.762,2.964l-.036.036-4.667-5.48c-1.347,1.147-2.679,2.351-3.933,3.584l5.031,5.166c-1.161,1.133-2.287,2.295-3.356,3.492l-5.373-4.81c-1.183,1.318-2.33,2.694-3.413,4.09l5.679,4.425c-1,1.283-1.931,2.6-2.829,3.933L70.95,79.214c-.983,1.468-1.938,2.993-2.829,4.532l6.256,3.613c-.819,1.4-1.568,2.822-2.28,4.268l-6.484-3.185c-.777,1.589-1.518,3.221-2.18,4.86l6.7,2.736c-.606,1.5-1.183,3.007-1.682,4.532L61.587,98.3c-.549,1.682-1.062,3.406-1.5,5.116l7.012,1.8c-.392,1.568-.755,3.142-1.047,4.724l-7.111-1.318c-.321,1.739-.584,3.513-.8,5.273l7.2.834c-.178,1.6-.314,3.207-.392,4.824l-7.233-.342c-.086,1.767-.107,3.563-.071,5.33l7.233-.15q.054,2.416.278,4.831l-7.218.641c.157,1.767.378,3.549.656,5.294l7.133-1.126c.249,1.6.57,3.178.933,4.753L59.6,140.4c.4,1.732.869,3.47,1.375,5.159l6.919-2.095q.695,2.319,1.553,4.589L62.7,150.621c.627,1.66,1.325,3.313,2.066,4.924l6.563-3.028c.67,1.468,1.375,2.914,2.152,4.332l-6.321,3.463c.848,1.546,1.767,3.093,2.722,4.589l6.071-3.891c.862,1.354,1.781,2.679,2.751,3.99ZM97.735,78.131A58.723,58.723,0,1,1,90.995,160.9a58.783,58.783,0,0,1,6.741-82.772" transform="translate(-57.63 -44.783)" fill="#1d3557"/>
</svg>
