<svg xmlns="http://www.w3.org/2000/svg" width="103.363" height="103.366" viewBox="0 0 103.363 103.366">
  <path id="Trazado_34350" data-name="Trazado 34350" d="M76.556,40.044A28.416,28.416,0,1,0,50.6,70.72,28.441,28.441,0,0,0,76.556,40.044m-48.84,4.069A20.6,20.6,0,1,1,49.949,62.924,20.618,20.618,0,0,1,27.716,44.112" transform="translate(3.445 9.28)" fill="#1d3557"/>
  <path id="Trazado_34351" data-name="Trazado 34351" d="M91.138,46.143A36.271,36.271,0,1,0,58,85.306,36.314,36.314,0,0,0,91.138,46.143M20.5,52.029a34.612,34.612,0,1,1,37.36,31.617A34.651,34.651,0,0,1,20.5,52.029" transform="translate(-3.307 2.526)" fill="#1d3557"/>
  <path id="Trazado_34352" data-name="Trazado 34352" d="M62.96,113.823a51.933,51.933,0,0,0,9.591.078l.114-.007-.4-4.525a46.869,46.869,0,0,0,15.335-4l1.874,4.161A51.391,51.391,0,0,0,97.8,104.8l-2.615-3.748A47.77,47.77,0,0,0,106.47,89.93l3.705,2.672a51.892,51.892,0,0,0,4.86-8.252l-4.14-1.945a46.828,46.828,0,0,0,4.24-15.27l4.532.449a51.888,51.888,0,0,0,.071-9.47l-.007-.086-4.525.378a46.9,46.9,0,0,0-3.983-15.342l4.161-1.874a52.51,52.51,0,0,0-4.724-8.33L106.9,35.476A47.5,47.5,0,0,0,95.788,24.188l2.679-3.705a52.407,52.407,0,0,0-8.244-4.867l-1.952,4.14A46.7,46.7,0,0,0,73,15.516l.456-4.539A52.276,52.276,0,0,0,63.95,10.9l-.064.007.385,4.525a46.942,46.942,0,0,0-15.342,3.983l-1.874-4.161a51.616,51.616,0,0,0-8.33,4.717l2.615,3.755A47.372,47.372,0,0,0,30.046,34.834l-3.705-2.679A52.125,52.125,0,0,0,21.467,40.4l4.14,1.945a46.71,46.71,0,0,0-4.247,15.27l-4.539-.456a51.95,51.95,0,0,0-.086,9.534l.007.028,4.525-.392a47.223,47.223,0,0,0,3.962,15.363L21.075,83.56a51.615,51.615,0,0,0,4.717,8.33l3.748-2.608a47.669,47.669,0,0,0,11.109,11.3l-2.679,3.705a51.837,51.837,0,0,0,8.237,4.874l1.952-4.14a46.64,46.64,0,0,0,15.263,4.261ZM28.051,65.753a40.328,40.328,0,1,1,43.538,36.84,40.368,40.368,0,0,1-43.538-36.84" transform="translate(-16.557 -10.72)" fill="#1d3557"/>
</svg>
