<svg xmlns="http://www.w3.org/2000/svg" width="202.605" height="202.599" viewBox="0 0 202.605 202.599">
  <path id="Trazado_34353" data-name="Trazado 34353" d="M66.5,83.2a37.6,37.6,0,1,0,46.36,26.037A37.638,37.638,0,0,0,66.5,83.2m17.529,62.428a27.244,27.244,0,1,1,18.862-33.6,27.278,27.278,0,0,1-18.862,33.6" transform="translate(24.634 -18.103)" fill="#1d3557"/>
  <path id="Trazado_34354" data-name="Trazado 34354" d="M75.652,81.6a53.12,53.12,0,1,0,65.507,36.783A53.176,53.176,0,0,0,75.652,81.6m28.061,99.938a50.683,50.683,0,1,1,35.1-62.5,50.747,50.747,0,0,1-35.1,62.5" transform="translate(11.282 -31.451)" fill="#1d3557"/>
  <path id="Trazado_34355" data-name="Trazado 34355" d="M232.732,165.185a102.614,102.614,0,0,0-3.406-18.555l-.064-.214-8.6,2.451a92.349,92.349,0,0,0-13.432-28.139l7.332-5.173a101.083,101.083,0,0,0-12.242-14.323l-6.264,6.456a93.356,93.356,0,0,0-25.7-17.65l3.784-8.166a101.89,101.89,0,0,0-17.743-6.313l-2.216,8.722a92.132,92.132,0,0,0-31.09-2.487l-.812-8.936a102.26,102.26,0,0,0-18.334,3.392l-.164.043,2.416,8.608A92.358,92.358,0,0,0,78.046,98.317l-5.173-7.339a100.962,100.962,0,0,0-14.323,12.235L65,109.483a93.384,93.384,0,0,0-17.665,25.688l-8.166-3.8a102.2,102.2,0,0,0-6.321,17.75l8.722,2.223a91.913,91.913,0,0,0-2.508,31.082l-8.936.812a102.874,102.874,0,0,0,3.392,18.391l.036.107,8.608-2.416a92.241,92.241,0,0,0,13.4,28.161l-7.354,5.159a101.619,101.619,0,0,0,12.228,14.344l6.278-6.449A93.5,93.5,0,0,0,92.4,258.218l-3.805,8.166a102.809,102.809,0,0,0,17.75,6.328L108.566,264a92.114,92.114,0,0,0,31.082,2.522l.805,8.936a102.51,102.51,0,0,0,18.463-3.4l.043-.014-2.437-8.6a92.424,92.424,0,0,0,28.2-13.4l5.152,7.347a101.506,101.506,0,0,0,14.351-12.213l-6.449-6.278a93.592,93.592,0,0,0,17.693-25.667l8.166,3.8a101.518,101.518,0,0,0,6.335-17.736l-8.708-2.237a92.243,92.243,0,0,0,2.537-31.075Zm-79.858,85.366a79.356,79.356,0,1,1,54.954-97.85,79.442,79.442,0,0,1-54.954,97.85" transform="translate(-30.126 -72.857)" fill="#1d3557"/>
</svg>
