<svg xmlns="http://www.w3.org/2000/svg" width="1418.418" height="1417.898" viewBox="0 0 1418.418 1417.898">
  <g id="Grupo_14297" data-name="Grupo 14297" transform="matrix(-0.174, 0.985, -0.985, -0.174, 2944.271, -1051.306)" opacity="0.24">
    <path id="Trazado_34367" data-name="Trazado 34367" d="M223.356,457.495c114.625,4.043,211.221-85.9,215.288-200.524,4.068-114.65-85.9-211.246-200.524-215.313C123.47,37.59,26.9,127.557,22.806,242.206c-4.068,114.625,85.9,211.221,200.549,215.288M233.6,169.113a80.514,80.514,0,1,1-83.313,77.613A80.583,80.583,0,0,1,233.6,169.113" transform="translate(1890.898 1645.852)" fill="#7b90a3"/>
    <path id="Trazado_34368" data-name="Trazado 34368" d="M371.79,772.053C574.9,779.259,746,619.889,753.2,416.779S601.04,42.6,397.929,35.367C194.819,28.16,23.723,187.53,16.517,390.64S168.68,764.846,371.79,772.053M395.669,99.094c167.957,5.976,299.757,147.468,293.806,315.45-5.951,167.932-147.468,299.731-315.425,293.78C206.068,702.374,74.268,560.857,80.219,392.9c6-167.957,147.493-299.756,315.45-293.806" transform="translate(1736.787 1491.718)" fill="#7b90a3"/>
    <path id="Trazado_34369" data-name="Trazado 34369" d="M9.552,574.3c-1.431,13.785-2.385,27.8-2.888,41.657l-.075,1.582,56.421,1.808c-.427,12.756-.276,25.385.126,37.965l-56.5,1.933c.477,13.886,1.431,27.922,2.862,41.682l56.245-5.775c1.306,12.655,2.938,25.185,5.1,37.589l-55.668,9.592c2.36,13.685,5.223,27.47,8.512,40.953l55.04-13.433c3.013,12.3,6.353,24.507,10.194,36.509l-53.91,17.175c4.193,13.182,8.939,26.415,14.036,39.321l52.68-20.841q7.006,17.627,15.191,34.676L65.747,901.151c5.976,12.529,12.454,24.984,19.309,37.061l49.29-27.846c6.227,11.023,12.906,21.745,19.862,32.266L106.8,973.868c7.583,11.575,15.744,23.025,24.13,34.073l45.122-34.3c7.658,10.069,15.719,19.811,24.03,29.328l-42.761,37.363c9.14,10.446,18.732,20.715,28.524,30.508l40.125-40.15q13.408,13.408,27.7,25.913L216.4,1099.365c10.446,9.115,21.368,17.979,32.416,26.365l34.3-45.2c10.094,7.633,20.314,15.066,30.91,22.021l-31.06,47.306c11.626,7.633,23.653,14.965,35.731,21.745l27.821-49.415q16.5,9.3,33.647,17.552l-24.281,51.123c12.555,5.976,25.461,11.576,38.392,16.673l20.74-52.68q17.589,6.931,35.756,12.655L433.7,1221.5c13.258,4.168,26.792,7.96,40.3,11.224l13.258-54.839c12.2,2.963,24.658,5.373,37.187,7.508l-9.516,55.768c13.66,2.31,27.57,4.218,41.38,5.6l5.725-56.245c12.153,1.255,24.381,2.235,36.76,2.661.352.025.728,0,1.055.025l-1.883,56.371c13.885.477,27.947.477,41.732,0l-1.883-56.521q19.1-.641,37.84-2.561l5.75,56.245c13.785-1.381,27.746-3.315,41.406-5.65l-9.567-55.668c12.53-2.16,24.858-4.846,37.112-7.859l13.408,55.04c13.484-3.289,27.018-7.081,40.25-11.3l-17.125-53.91q18.079-5.8,35.655-12.78l20.816,52.679c12.881-5.1,25.762-10.7,38.292-16.673l-24.406-51.2c11.425-5.449,22.7-11.174,33.672-17.4l27.8,49.34c12.078-6.8,24.08-14.112,35.68-21.72l-31.211-47.457c10.6-6.955,20.966-14.187,31.035-21.82l34.274,45.147c11.023-8.386,21.946-17.25,32.391-26.39l-37.313-42.762q14.312-12.467,27.721-25.888l40.125,40.15c9.793-9.818,19.41-20.063,28.55-30.533l-42.736-37.287c8.311-9.517,16.271-19.384,23.954-29.453l45.172,34.35c8.387-11.073,16.547-22.548,24.13-34.149l-47.281-31.086c6.955-10.546,13.434-21.418,19.661-32.467l49.39,27.846c6.83-12.1,13.333-24.607,19.284-37.162l-51.1-24.356q8.136-17.062,15.141-34.8l52.654,20.766c5.1-12.906,9.818-26.189,14.011-39.422l-54.01-17.1c3.842-12,7.382-24.13,10.4-36.484l54.839,13.308c3.289-13.458,6.127-27.244,8.462-40.928l-55.743-9.542q3.164-18.606,5.147-37.589l56.22,5.75c1.381-13.509,2.335-27.244,2.812-40.878l.025-.728-56.346-2.009c.427-12.73.276-25.361-.125-37.94l56.521-1.858c-.477-13.886-1.406-27.922-2.812-41.682l-56.27,5.7c-1.281-12.63-2.888-25.185-5.022-37.589l55.668-9.516c-2.36-13.685-5.2-27.47-8.487-40.954l-55.04,13.358c-2.988-12.329-6.328-24.507-10.169-36.534l53.96-17.1c-4.193-13.233-8.914-26.44-13.986-39.347l-52.7,20.791q-6.968-17.665-15.166-34.726l51.223-24.356c-5.951-12.53-12.429-25.009-19.259-37.087l-49.34,27.771c-6.2-11.023-12.881-21.745-19.836-32.316l47.482-31.136c-7.608-11.576-15.718-23.076-24.105-34.124l-45.172,34.249c-7.633-10.069-15.668-19.837-23.979-29.378l42.786-37.288c-9.09-10.446-18.681-20.715-28.474-30.558l-40.175,40.125c-8.939-8.964-18.129-17.652-27.671-25.988l37.338-42.686c-10.445-9.14-21.343-18.029-32.391-26.44l-34.375,45.2c-10.044-7.658-20.288-15.091-30.86-22.071L954.7,125.9c-11.6-7.633-23.6-14.965-35.706-21.8l-27.846,49.415c-11-6.227-22.2-12.128-33.647-17.6L881.88,84.793c-12.555-5.976-25.461-11.6-38.392-16.7l-20.816,52.629c-11.676-4.62-23.628-8.839-35.706-12.68l17.1-53.96c-13.207-4.193-26.742-8.01-40.25-11.274L750.457,97.649c-12.2-2.988-24.632-5.424-37.137-7.583l9.567-55.743c-13.634-2.335-27.57-4.243-41.406-5.65l-5.75,56.22c-12.379-1.281-24.858-2.285-37.488-2.737h-.352l1.959-56.346c-13.886-.5-27.922-.5-41.757-.05l1.833,56.5q-19.058.64-37.84,2.536l-5.675-56.27c-13.81,1.381-27.746,3.289-41.406,5.625l9.466,55.643c-12.53,2.159-24.858,4.846-37.087,7.834l-13.333-55.04c-13.484,3.264-27.043,7.031-40.3,11.224l17.1,53.96q-18.154,5.763-35.681,12.705L394.4,67.769c-12.906,5.1-25.812,10.672-38.317,16.622l24.356,51.223c-11.425,5.449-22.724,11.149-33.722,17.351L319,103.6c-12.1,6.8-24.08,14.086-35.681,21.695l31.111,47.482c-10.6,6.955-20.966,14.162-31.035,21.795l-34.2-45.2c-11.073,8.361-21.971,17.225-32.441,26.34l37.262,42.812q-14.35,12.467-27.746,25.863l-40.1-40.2c-9.818,9.793-19.435,20.062-28.575,30.483l42.661,37.338c-8.336,9.516-16.271,19.359-23.954,29.428l-45.147-34.4c-8.437,11.048-16.547,22.523-24.18,34.124L154.233,332.3c-6.955,10.546-13.459,21.418-19.711,32.441l-49.39-27.9C78.3,348.969,71.8,361.449,65.822,373.978l51.1,24.406q-8.173,17.1-15.191,34.777L49.1,412.346c-5.122,12.931-9.843,26.189-14.061,39.4l53.985,17.175c-3.867,12-7.407,24.13-10.42,36.459L23.739,492.018c-3.289,13.459-6.127,27.244-8.512,40.928l55.743,9.592q-3.2,18.568-5.173,37.564Zm625.3-396.553c253.605,8.989,452.6,222.645,443.609,476.251-9.014,253.606-222.646,452.6-476.276,443.609C348.6,1088.593,149.612,874.962,158.6,621.357c9.014-253.605,222.645-452.6,476.251-443.608" transform="translate(1503.108 1257.764)" fill="#7b90a3"/>
  </g>
</svg>
