<svg xmlns="http://www.w3.org/2000/svg" width="121.085" height="134.71" viewBox="0 0 121.085 134.71">
  <path id="Trazado_771" data-name="Trazado 771" d="M766.987,1892.38c-.061,13.21-1.269,26.275-4.9,39.032-3.95,13.871-10.516,26.234-20.994,36.294a75.059,75.059,0,0,1-27.672,16.782c-8.719,3.031-5.353,3.113-13.964-.053-24.334-8.95-40.276-26.04-48.024-50.861-4.215-13.488-5.6-27.374-5.531-41.428.02-4.221.338-8.443.435-12.67a5.707,5.707,0,0,1,4.075-5.648c8.518-3.33,17-6.751,25.5-10.134,9.276-3.682,18.559-7.34,27.817-11.063a6.752,6.752,0,0,1,5.333-.015q26.765,10.676,53.564,21.295a5.588,5.588,0,0,1,3.871,5.4Q766.744,1885.849,766.987,1892.38Zm-82.233,27.937c-2.328.068-3.591.833-4.32,2.351a3.943,3.943,0,0,0,.7,4.535c3.486,4.072,6.96,8.147,10.516,12.154a6.067,6.067,0,0,0,2.485,1.613c2.366.817,4.233-.176,5.849-1.915q14.724-15.816,29.463-31.6a33.761,33.761,0,0,0,2.38-2.641,4.433,4.433,0,0,0-2.558-7.059c-1.817-.4-3.194.422-4.443,1.674q-14.107,14.22-28.238,28.394c-1.508,1.519-1.873,1.51-3.413-.041-1.981-1.99-3.909-4.042-5.971-5.945A12.733,12.733,0,0,0,684.754,1920.317Z" transform="translate(-645.902 -1852.077)" fill="#fff" fill-rule="evenodd"/>
</svg>
