<svg xmlns="http://www.w3.org/2000/svg" width="370" height="117" viewBox="0 0 370 117">
  <path id="Trazado_8267" data-name="Trazado 8267" d="M0,0H370V117H0Z" fill="#025889"/>
  <g id="Grupo_3372" data-name="Grupo 3372" transform="translate(35.818 25.392)">
    <g id="Grupo_3482" data-name="Grupo 3482">
      <path id="Trazado_8425" data-name="Trazado 8425" d="M3212.738,1795.376c1.223-.779,2.44-1.564,3.669-2.334,5.521-3.461,11.035-6.937,16.583-10.354a10.274,10.274,0,0,1,2.767-1.064,3.319,3.319,0,0,1,2.636.46,3.247,3.247,0,0,1,1.354,3.889,5.229,5.229,0,0,1-1.916,2.655q-4.709,3.269-9.406,6.555c-.156.109-.313.217-.5.345.129.123.219.213.315.3a4.93,4.93,0,0,1,1.543,5.408.889.889,0,0,0,.154.888,5.959,5.959,0,0,1,.957,6,.654.654,0,0,0,.1.557,5.052,5.052,0,0,1-.021,6.839,14.541,14.541,0,0,1-2.039,1.894,39.575,39.575,0,0,1-15.413,7.648c-1.782.474-3.569.932-5.347,1.422a3.464,3.464,0,0,1-2.559-.31,11.715,11.715,0,0,1-3.283-2.53,26.328,26.328,0,0,1-6.387-10.822,12.507,12.507,0,0,1-.391-2.7,3.994,3.994,0,0,1,1.3-3.208,19.132,19.132,0,0,0,4.346-5.875c1.106-2.491,2.2-4.992,3.2-7.526,1.261-3.187,2.422-6.414,3.633-9.621a4.9,4.9,0,0,1,2.981-2.987,2.607,2.607,0,0,1,1.815-.05,3.758,3.758,0,0,1,2.714,4.786c-.837,3.1-1.826,6.165-2.749,9.244-.042.138-.086.275-.13.413Zm2.193,15.333c-.025-.021-.046-.051-.074-.059-.11-.032-.221-.056-.332-.086a3.819,3.819,0,0,1-1.167-6.883c4.019-2.707,8.068-5.368,12.073-8.094,3.887-2.646,7.734-5.353,11.6-8.023a3.95,3.95,0,0,0,1.461-2.031,1.87,1.87,0,0,0-1.281-2.514,2.948,2.948,0,0,0-1.536-.016,10.725,10.725,0,0,0-2.409,1.05c-3.112,1.891-6.2,3.823-9.281,5.764q-6.029,3.8-12.035,7.641a.769.769,0,0,1-.99.047.74.74,0,0,1-.154-.934c.228-.611.437-1.23.632-1.853.908-2.9,1.833-5.788,2.691-8.7a5.168,5.168,0,0,0,.157-2.023,2.353,2.353,0,0,0-3.1-1.7,3.5,3.5,0,0,0-1.965,2.188c-1.232,3.251-2.435,6.513-3.661,9.766a42.7,42.7,0,0,1-4.073,8.83c-1.237,1.854-2.744,3.527-4.1,5.3a3.158,3.158,0,0,0-.561,1.22,6.033,6.033,0,0,0,.35,3.082,26.1,26.1,0,0,0,5.226,9.062,14.068,14.068,0,0,0,3.221,2.915,3.084,3.084,0,0,0,2.614.449c.8-.234,1.62-.389,2.416-.63q3.959-1.2,7.9-2.442a18.271,18.271,0,0,0,1.69-.728,38.326,38.326,0,0,0-5.315-10.6Zm13.778-10.64a3.966,3.966,0,0,0-1.635-3.491.493.493,0,0,0-.687-.014c-1.388.947-2.789,1.875-4.186,2.81-2.672,1.788-5.349,3.569-8.01,5.373a2.98,2.98,0,0,0-.849.858,2.437,2.437,0,0,0,.418,3.05,2.477,2.477,0,0,0,3.157.208c3.575-2.38,7.125-4.8,10.73-7.132A2,2,0,0,0,3228.709,1800.069Zm-.051,2.645a1.57,1.57,0,0,0-.158.078c-3.869,2.582-7.744,5.154-11.6,7.754a2.427,2.427,0,0,0-.627,3.387,2.453,2.453,0,0,0,3.416.682q4.738-3.132,9.452-6.3a1.157,1.157,0,0,0,.365-.379A4.583,4.583,0,0,0,3228.657,1802.714Zm1.234,6.811c-.318.209-.644.422-.969.639q-4.115,2.74-8.232,5.479a2.534,2.534,0,0,0-1.232,1.8,2.333,2.333,0,0,0,1.015,2.387,2.114,2.114,0,0,0,2.468.116,45.809,45.809,0,0,0,6.292-4.484,5.005,5.005,0,0,0,1.479-2.1A3.383,3.383,0,0,0,3229.891,1809.525Z" transform="translate(-3195.546 -1769.996)" fill="#fff" stroke="#fff" stroke-width="1"/>
      <path id="Trazado_8426" data-name="Trazado 8426" d="M3475.135,1672.351q-.3,2.107-.6,4.214c-.224,1.566-.457,3.131-.676,4.7a.9.9,0,0,1-.769.884.861.861,0,0,1-.94-1.063q.491-3.438.994-6.875c.1-.694.183-1.391.309-2.08a.824.824,0,0,1,.918-.7A.858.858,0,0,1,3475.135,1672.351Z" transform="translate(-3445.021 -1671.424)" fill="#fff" stroke="#fff" stroke-width="1"/>
      <path id="Trazado_8427" data-name="Trazado 8427" d="M3519.648,1715.105c-.811-.009-1.208-.655-.938-1.231a4.6,4.6,0,0,1,.333-.54c1.516-2.32,3.027-4.643,4.555-6.956a1.53,1.53,0,0,1,.589-.546.739.739,0,0,1,.921.25.859.859,0,0,1,.017,1.087q-1.274,1.943-2.545,3.887c-.777,1.186-1.542,2.381-2.343,3.552A2.43,2.43,0,0,1,3519.648,1715.105Z" transform="translate(-3486.948 -1702.395)" fill="#fff" stroke="#fff" stroke-width="1"/>
      <path id="Trazado_8428" data-name="Trazado 8428" d="M3396.942,1681.27c.445.028.684.338.82.784q.887,2.924,1.788,5.845c.258.842.523,1.681.776,2.524a.893.893,0,0,1-.486,1.213.875.875,0,0,1-1.144-.694q-1.3-4.229-2.6-8.462A.867.867,0,0,1,3396.942,1681.27Z" transform="translate(-3376.387 -1680.305)" fill="#fff" stroke="#fff" stroke-width="1"/>
    </g>
  </g>
  <text id="De_uso_fácil_Diseño_accesible_para_todos_los_Sunholders_creado_para_que_sea_práctico_cómodo_y_rápido_poder_adquirir_el_SUN." data-name="De uso fácil 
Diseño accesible para todos los Sunholders,
creado para que sea práctico, cómodo
y rápido poder adquirir el SUN." transform="translate(108 37)" fill="#fad000" font-size="15" font-family="Lato-Bold, Lato" font-weight="700" letter-spacing="0.006em"><tspan x="0" y="0">DE USO FÁCIL </tspan><tspan fill="#cedeee" font-size="12"><tspan x="0" y="14">Diseño accesible para todos los Sunholders,</tspan><tspan x="0" y="28">creado para que sea práctico, cómodo</tspan><tspan x="0" y="42">y rápido poder adquirir el SUN</tspan><tspan y="42" font-size="6">.</tspan></tspan></text>
</svg>

