<svg xmlns="http://www.w3.org/2000/svg" width="298.198" height="203.344" viewBox="0 0 298.198 203.344">
  <rect id="Rectángulo_5839" data-name="Rectángulo 5839" width="275" height="183" rx="17" transform="translate(17.198 20.344)" fill="#bfd4e2"/>
  <g id="Rectángulo_5838" data-name="Rectángulo 5838" transform="translate(23.198 13.344)" fill="none" stroke="#8f8f91" stroke-width="3" opacity="0.63">
    <rect width="275" height="184" rx="17" stroke="none"/>
    <rect x="1.5" y="1.5" width="272" height="181" rx="15.5" fill="none"/>
  </g>
  <g id="Grupo_14594" data-name="Grupo 14594" transform="translate(-15.164 -21.224)">
    <g id="Grupo_14592" data-name="Grupo 14592" transform="translate(15.164 21.224)">
      <g id="Grupo_14585" data-name="Grupo 14585">
        <path id="Trazado_49183" data-name="Trazado 49183" d="M57.346,105.568c-.32,0-.64,0-.958-.01l.049-2.269c.734.016,1.474.013,2.208-.01l.072,2.267Q58.033,105.568,57.346,105.568Zm-3.286-.127c-.775-.059-1.555-.141-2.318-.244l.3-2.248c.721.1,1.459.173,2.192.23Zm6.983-.03-.2-2.26c.737-.064,1.475-.148,2.192-.249l.316,2.247C62.6,105.255,61.821,105.344,61.043,105.411Zm-11.6-.586c-.755-.144-1.522-.312-2.276-.5l.547-2.2c.715.178,1.439.337,2.153.473Zm16.211-.066-.44-2.226c.721-.142,1.445-.306,2.15-.487l.562,2.2C67.179,104.435,66.414,104.609,65.652,104.759ZM44.919,103.7c-.743-.23-1.487-.482-2.211-.751l.789-2.127c.684.254,1.388.493,2.093.711Zm25.246-.1-.68-2.164c.689-.217,1.389-.459,2.08-.721l.8,2.121C71.636,103.118,70.895,103.375,70.164,103.6Zm-29.623-1.528c-.708-.309-1.419-.643-2.112-.992l1.02-2.027c.657.33,1.329.647,2,.939Zm33.982-.121L73.6,99.881c.664-.295,1.333-.615,1.988-.95l1.035,2.019C75.935,101.305,75.227,101.644,74.524,101.955ZM36.375,99.977c-.667-.384-1.336-.794-1.988-1.219l1.238-1.9c.617.4,1.251.789,1.883,1.154Zm42.3-.148L77.525,97.87c.633-.37,1.262-.763,1.87-1.166l1.255,1.889C80.007,99.021,79.341,99.437,78.671,99.829Zm-46.2-2.4c-.624-.457-1.244-.938-1.842-1.429l1.439-1.753c.566.465,1.153.92,1.744,1.352Zm50.088-.182L81.2,95.433c.585-.437,1.166-.9,1.728-1.369L84.384,95.8C83.789,96.3,83.175,96.789,82.556,97.25ZM28.865,94.476c-.567-.519-1.13-1.065-1.674-1.621l1.623-1.587c.515.528,1.048,1.044,1.585,1.536Zm57.265-.222L84.578,92.6c.535-.5,1.062-1.025,1.566-1.553l1.641,1.566C87.252,93.172,86.695,93.724,86.13,94.254ZM25.609,91.145c-.51-.583-1.01-1.186-1.486-1.794l1.786-1.4c.451.575.924,1.146,1.407,1.7Zm63.74-.262-1.725-1.474c.474-.555.941-1.133,1.387-1.716l1.8,1.377C90.343,89.686,89.85,90.3,89.349,90.883Zm-66.611-3.4c-.441-.632-.872-1.287-1.28-1.945l1.929-1.195c.386.624.794,1.243,1.212,1.841Zm69.441-.3L90.3,85.9c.413-.607.815-1.232,1.193-1.856l1.941,1.176C93.038,85.879,92.615,86.539,92.178,87.179ZM20.287,83.521c-.372-.683-.728-1.38-1.058-2.074l2.05-.973c.311.656.648,1.316,1,1.961Zm-2-4.2c-.294-.717-.57-1.45-.821-2.176l2.145-.742c.237.688.5,1.381.776,2.058Zm-1.521-4.4c-.212-.744-.406-1.5-.576-2.259l2.214-.5c.16.712.343,1.431.544,2.135Zm-1.024-4.546c-.127-.759-.235-1.536-.321-2.308l2.255-.251c.082.732.184,1.466.3,2.184Zm-.514-4.631c-.043-.772-.065-1.555-.065-2.329l2.269,0c0,.733.021,1.474.062,2.205Zm2.263-4.535-2.266-.123c.042-.772.105-1.553.189-2.322l2.256.247C17.592,59.738,17.531,60.478,17.492,61.209Zm.479-4.382-2.238-.372c.127-.764.277-1.533.445-2.287l2.214.5C18.234,55.376,18.092,56.1,17.972,56.827Zm.963-4.3-2.183-.619c.211-.744.446-1.492.7-2.224l2.145.739C19.357,51.114,19.135,51.822,18.935,52.525Zm1.437-4.17-2.1-.858c.292-.714.608-1.433.941-2.135l2.051.971C20.948,47,20.648,47.678,20.372,48.355Zm1.893-3.988-1.992-1.086c.368-.677.763-1.355,1.171-2.016l1.931,1.192C22.988,43.083,22.614,43.726,22.265,44.367Zm2.322-3.752-1.861-1.3c.445-.638.912-1.269,1.386-1.875l1.786,1.4C25.449,39.413,25.008,40.01,24.587,40.615Zm2.719-3.476L25.6,35.646c.508-.581,1.04-1.157,1.582-1.711L28.8,35.519C28.291,36.044,27.787,36.59,27.306,37.139Zm57.231-2.96c-.536-.5-1.092-.993-1.653-1.462l1.456-1.74c.592.5,1.179,1.015,1.745,1.543Zm-54.149-.194-1.534-1.672c.568-.521,1.16-1.035,1.759-1.527l1.44,1.753C31.486,33,30.926,33.49,30.388,33.985ZM81.154,31.35c-.587-.439-1.194-.866-1.8-1.27l1.254-1.891c.644.428,1.285.88,1.905,1.344Zm-47.36-.163-1.34-1.83c.62-.454,1.264-.9,1.913-1.324l1.241,1.9C34.992,30.334,34.382,30.757,33.794,31.187ZM77.48,28.911c-.625-.368-1.275-.725-1.93-1.062l1.036-2.018c.694.356,1.382.734,2.045,1.124Zm-40-.13-1.133-1.966c.67-.386,1.36-.758,2.049-1.106l1.021,2.027C38.771,28.064,38.119,28.416,37.485,28.782ZM73.562,26.9c-.671-.3-1.357-.58-2.039-.839l.8-2.121c.721.273,1.447.571,2.156.888Zm-32.147-.1-.908-2.08c.707-.309,1.433-.6,2.157-.871l.791,2.127C42.771,26.229,42.085,26.506,41.415,26.8ZM69.44,25.334c-.7-.222-1.413-.425-2.119-.606l.562-2.2c.748.191,1.5.407,2.243.642Zm-23.9-.073-.671-2.167c.734-.228,1.489-.439,2.243-.629l.552,2.2C46.952,24.846,46.237,25.046,45.542,25.262Zm19.627-1.02c-.72-.142-1.451-.266-2.175-.368l.316-2.247c.765.108,1.538.239,2.3.388Zm-15.351-.049-.428-2.228c.765-.146,1.539-.273,2.3-.374l.3,2.249C51.272,23.935,50.541,24.054,49.818,24.192ZM60.8,23.627c-.727-.062-1.468-.1-2.2-.127l.068-2.267c.776.023,1.559.068,2.328.134ZM54.186,23.6l-.178-2.261c.766-.06,1.55-.1,2.327-.119l.053,2.269C55.652,23.51,54.912,23.548,54.186,23.6Z" transform="translate(-15.164 -21.224)" fill="#4a555f"/>
      </g>
      <g id="Grupo_14586" data-name="Grupo 14586" transform="translate(35.655 30.982)">
        <path id="Trazado_49184" data-name="Trazado 49184" d="M99.1,98.589h-4.8V89.983h4.8a4.3,4.3,0,1,1,0,8.606Z" transform="translate(-94.294 -89.983)" fill="#71cce0"/>
      </g>
      <g id="Grupo_14587" data-name="Grupo 14587" transform="translate(35.655 44.027)">
        <path id="Trazado_49185" data-name="Trazado 49185" d="M105.714,123.6a4.648,4.648,0,0,1-4.659,4.659H94.294v-9.325h6.761A4.662,4.662,0,0,1,105.714,123.6Z" transform="translate(-94.294 -118.935)" fill="#71cce0"/>
      </g>
      <g id="Grupo_14588" data-name="Grupo 14588" transform="translate(4.913 4.906)">
        <path id="Trazado_49186" data-name="Trazado 49186" d="M82.424,88.658V57.409h4.084V49.6c0-3.3,3.282-6.458,3.282-6.458a37.257,37.257,0,1,0,5.43,45.519Z" transform="translate(-26.068 -32.112)" fill="#71cce0"/>
      </g>
      <g id="Grupo_14589" data-name="Grupo 14589" transform="translate(65.688 34.623)">
        <rect id="Rectángulo_5854" data-name="Rectángulo 5854" width="27.51" height="22.403" fill="#ffd452"/>
      </g>
      <g id="Grupo_14590" data-name="Grupo 14590" transform="translate(69.049 14.858)">
        <path id="Trazado_49187" data-name="Trazado 49187" d="M189.194,71.49h-2.269v-6.9a8.125,8.125,0,1,0-16.25,0v6.9h-2.269v-6.9a10.394,10.394,0,1,1,20.788,0Z" transform="translate(-168.406 -54.199)" fill="#4a555f"/>
      </g>
      <g id="Grupo_14591" data-name="Grupo 14591" transform="translate(75.238 38.914)">
        <path id="Trazado_49188" data-name="Trazado 49188" d="M189.6,121.83h-6.321a1.134,1.134,0,0,1-1.1-1.422l1.488-5.684a4.114,4.114,0,1,1,5.541,0l1.488,5.684a1.134,1.134,0,0,1-1.1,1.422Zm-4.852-2.269h3.383l-1.31-5a1.135,1.135,0,0,1,.532-1.27,1.821,1.821,0,0,0,.932-1.588,1.845,1.845,0,1,0-3.689,0,1.82,1.82,0,0,0,.932,1.588,1.134,1.134,0,0,1,.531,1.27Z" transform="translate(-182.142 -107.586)" fill="#4a555f"/>
      </g>
    </g>
    <g id="Grupo_14593" data-name="Grupo 14593" transform="translate(33.851 38.065)">
      <g id="Grupo_4" data-name="Grupo 4">
        <g id="Grupo_3" data-name="Grupo 3">
          <g id="Trazado_8183" data-name="Trazado 8183">
            <path id="Trazado_1" data-name="Trazado 1" d="M79.513,58.6c.055,0,1.141.6,2.412,1.333s6.951,4.007,9.793,5.649,10.409,6.032,10.491,6.109.132,4.227.13,8.97S102.322,98,102.3,98.109s-2.556,1.626-5.394,3.263-11.328,6.54-12.562,7.252-4.591,2.626-4.72,2.666a25.966,25.966,0,0,1-3.484-1.832c-1.674-.97-8.067-4.658-10.478-6.05s-8.83-5.116-8.9-5.184-.119-4.181-.117-8.913.018-17.312.048-17.434a5.73,5.73,0,0,1,1.338-.937c.592-.338,5.732-3.3,10.112-5.831l1.442-.833,8.587-4.957C78.507,59.121,79.457,58.6,79.513,58.6Zm21.229,26.383V80.962c0-2.211-.008-8.093-.017-8.158s-3.242-1.977-7.055-4.177S79.713,60.588,79.6,60.554s-3.5,1.863-7.3,4.064-13.886,8.03-13.937,8.075a21.639,21.639,0,0,0-.08,2.588V87.808c0,5.057.009,9.254.019,9.325s2.293,1.438,4.93,2.959,10.562,6.1,11.755,6.786,4.4,2.529,4.47,2.551a6.525,6.525,0,0,0,1.276-.636c.566-.328,4.717-2.726,7.972-4.6s11.886-6.874,11.947-6.93.1-2.056.093-4.261,0-8.016,0-8.016Z" transform="translate(-56.636 -58.6)" fill="#fff" fill-rule="evenodd"/>
          </g>
          <g id="Trazado_8184" data-name="Trazado 8184" transform="translate(3.319 3.355)">
            <path id="Trazado_2" data-name="Trazado 2" d="M64.006,92.417c0-2.022,0-5.333,0-7.358s.018-7.462.046-7.582,3.126-1.967,6.637-3.991,12.86-7.4,12.98-7.441,3.285,1.733,6.807,3.769,12.867,7.448,12.937,7.512.111,3.634.109,7.721-.009,14.926-.024,15-2.545,1.588-5.467,3.271-11.143,6.438-11.786,6.811-2.388,1.354-2.442,1.364-1.247-.638-2.542-1.383-6.537-3.772-8.775-5.064-8.222-4.771-8.323-4.864S64.006,94.439,64.006,92.417Zm33.468,6.565-.08-.047L95.784,98c-.8-.465-3-1.718-3.082-1.744a29.028,29.028,0,0,0-3.044,1.631c-1.512.873-5.617,3.228-5.774,3.278a53.245,53.245,0,0,1-5.51-2.974c-2.74-1.587-10.025-5.788-10.087-5.823s-.252-.094-.259-.037v1.807c0,1.948.01,3.584.028,3.634s2.429,1.477,5.238,3.1,10.295,5.929,10.394,5.959,2.325-1.212,4.761-2.621,8.879-5.132,8.906-5.15l.119-.079Zm2.008-13.72s0-.047.01-.1v-1.8c0-1.942-.013-3.581-.032-3.644S97,78.226,94.175,76.595,83.857,70.649,83.8,70.634s-2.205,1.2-4.66,2.616-8.95,5.17-8.975,5.188-.076.1-.033.123.819.477,1.642.953,3.036,1.742,3.089,1.756,1.434-.764,2.974-1.653S83.53,76.34,83.653,76.3s2.7,1.384,5.486,3,10.171,5.874,10.2,5.891l.14.072ZM88.618,93.869,81.761,89.91c-3.772-2.177-13.735-7.876-13.735-7.807V83.94c0,.942.011,3.487.029,3.565s2.468,1.533,5.284,3.157,10.3,5.93,10.365,5.95a8.363,8.363,0,0,0,1.426-.724l2.735-1.582.752-.437ZM99.47,95.505s0-.028.009-.061.013-.911.013-1.878-.007-3.558-.022-3.611-2.426-1.468-5.248-3.1-10.323-5.944-10.4-5.968a11.445,11.445,0,0,0-1.758.91c-.823.476-3.018,1.744-3.046,1.764s2.98,1.854,6.745,4.027L99.47,95.505Z" transform="translate(-64.002 -66.045)" fill="#fff" fill-rule="evenodd"/>
          </g>
        </g>
      </g>
    </g>
  </g>
</svg>
