<svg xmlns="http://www.w3.org/2000/svg" width="281" height="193" viewBox="0 0 281 193">
  <rect id="Rectángulo_5839" data-name="Rectángulo 5839" width="275" height="183" rx="17" transform="translate(0 10)" fill="#bfd4e2"/>
  <g id="Rectángulo_5838" data-name="Rectángulo 5838" transform="translate(6 3)" fill="none" stroke="#8f8f91" stroke-width="3" opacity="0.63">
    <rect width="275" height="184" rx="17" stroke="none"/>
    <rect x="1.5" y="1.5" width="272" height="181" rx="15.5" fill="none"/>
  </g>
  <g id="Grupo_14629" data-name="Grupo 14629" transform="translate(-8.618 -4.61)">
    <rect id="Rectángulo_5855" data-name="Rectángulo 5855" width="41.89" height="78.83" rx="12" transform="translate(9.525 5.901)" fill="#fff"/>
    <g id="Grupo_14627" data-name="Grupo 14627" transform="translate(8.618 4.61)">
      <g id="Grupo_14595" data-name="Grupo 14595">
        <path id="Trazado_49189" data-name="Trazado 49189" d="M45.965,86.068H15.117a6.507,6.507,0,0,1-6.5-6.5V11.109a6.507,6.507,0,0,1,6.5-6.5H45.965a6.507,6.507,0,0,1,6.5,6.5v68.46A6.507,6.507,0,0,1,45.965,86.068ZM15.117,5.752A5.363,5.363,0,0,0,9.76,11.109v68.46a5.363,5.363,0,0,0,5.357,5.357H45.965a5.363,5.363,0,0,0,5.357-5.357V11.109a5.363,5.363,0,0,0-5.357-5.357Z" transform="translate(-8.618 -4.61)" fill="#4a555f"/>
      </g>
      <g id="Grupo_14596" data-name="Grupo 14596" transform="translate(1.579 1.579)">
        <path id="Trazado_49190" data-name="Trazado 49190" d="M48.476,87.057H17.741a4.982,4.982,0,0,1-4.977-4.977V13.733a4.982,4.982,0,0,1,4.977-4.977H48.476a4.982,4.982,0,0,1,4.976,4.977V82.081A4.982,4.982,0,0,1,48.476,87.057ZM17.741,9.9a3.838,3.838,0,0,0-3.834,3.834V82.081a3.838,3.838,0,0,0,3.834,3.834H48.476a3.838,3.838,0,0,0,3.834-3.834V13.733A3.838,3.838,0,0,0,48.476,9.9Z" transform="translate(-12.764 -8.756)" fill="#71cce0"/>
      </g>
      <g id="Grupo_14597" data-name="Grupo 14597" transform="translate(7.846 10.146)">
        <path id="Trazado_49191" data-name="Trazado 49191" d="M56.8,39.441H29.793a.571.571,0,0,1-.571-.571V31.824a.571.571,0,0,1,.571-.571H56.8a.571.571,0,0,1,.571.571v7.045A.571.571,0,0,1,56.8,39.441ZM30.364,38.3H56.233V32.4H30.364Z" transform="translate(-29.222 -31.253)" fill="#4a555f"/>
      </g>
      <g id="Grupo_14598" data-name="Grupo 14598" transform="translate(9.997 12.296)">
        <rect id="Rectángulo_5856" data-name="Rectángulo 5856" width="23.853" height="3.888" fill="#ffd452"/>
      </g>
      <g id="Grupo_14599" data-name="Grupo 14599" transform="translate(7.846 22.432)">
        <path id="Trazado_49192" data-name="Trazado 49192" d="M56.8,71.7H29.793a.571.571,0,0,1-.571-.571V64.086a.571.571,0,0,1,.571-.571H56.8a.571.571,0,0,1,.571.571v7.045A.571.571,0,0,1,56.8,71.7ZM30.364,70.56H56.233v-5.9H30.364Z" transform="translate(-29.222 -63.515)" fill="#4a555f"/>
      </g>
      <g id="Grupo_14600" data-name="Grupo 14600" transform="translate(9.997 24.582)">
        <rect id="Rectángulo_5857" data-name="Rectángulo 5857" width="23.853" height="3.888" fill="#ffd452"/>
      </g>
      <g id="Grupo_14601" data-name="Grupo 14601" transform="translate(17.634 34.59)">
        <path id="Trazado_49193" data-name="Trazado 49193" d="M59.213,104.016A4.289,4.289,0,1,1,63.5,99.728,4.293,4.293,0,0,1,59.213,104.016Zm0-7.435a3.146,3.146,0,1,0,3.146,3.146A3.15,3.15,0,0,0,59.213,96.581Z" transform="translate(-54.924 -95.439)" fill="#4a555f"/>
      </g>
      <g id="Grupo_14602" data-name="Grupo 14602" transform="translate(19.784 36.739)">
        <path id="Trazado_49194" data-name="Trazado 49194" d="M62.709,105.362a2.139,2.139,0,1,1,2.139-2.139A2.141,2.141,0,0,1,62.709,105.362Z" transform="translate(-60.57 -101.084)" fill="#f58e6f"/>
      </g>
      <g id="Grupo_14603" data-name="Grupo 14603" transform="translate(10.487 38.546)">
        <path id="Trazado_49195" data-name="Trazado 49195" d="M38.465,110.449a2.31,2.31,0,1,1,2.311-2.31A2.313,2.313,0,0,1,38.465,110.449Zm0-3.478a1.168,1.168,0,1,0,1.168,1.168A1.169,1.169,0,0,0,38.465,106.97Z" transform="translate(-36.155 -105.828)" fill="#4a555f"/>
      </g>
      <g id="Grupo_14604" data-name="Grupo 14604" transform="translate(28.566 38.546)">
        <path id="Trazado_49196" data-name="Trazado 49196" d="M85.94,110.449a2.31,2.31,0,1,1,2.311-2.31A2.313,2.313,0,0,1,85.94,110.449Zm0-3.478a1.168,1.168,0,1,0,1.168,1.168A1.169,1.169,0,0,0,85.94,106.97Z" transform="translate(-83.63 -105.828)" fill="#4a555f"/>
      </g>
      <g id="Grupo_14605" data-name="Grupo 14605" transform="translate(9.392 49.034)">
        <path id="Trazado_49197" data-name="Trazado 49197" d="M46.106,159.019a12.826,12.826,0,1,1,12.826-12.826A12.84,12.84,0,0,1,46.106,159.019Zm0-24.509a11.683,11.683,0,1,0,11.683,11.683A11.7,11.7,0,0,0,46.106,134.51Z" transform="translate(-33.28 -133.368)" fill="#4a555f"/>
      </g>
      <g id="Grupo_14606" data-name="Grupo 14606" transform="translate(9.397 49.039)">
        <circle id="Elipse_171" data-name="Elipse 171" cx="10.676" cy="10.676" r="10.676" transform="translate(0 20.794) rotate(-76.878)" fill="#f58e6f"/>
      </g>
      <g id="Grupo_14607" data-name="Grupo 14607" transform="translate(13.154 52.796)">
        <rect id="Rectángulo_5858" data-name="Rectángulo 5858" width="24.492" height="1.142" transform="matrix(0.707, -0.707, 0.707, 0.707, 0, 17.319)" fill="#4a555f"/>
      </g>
      <g id="Grupo_14608" data-name="Grupo 14608" transform="translate(13.154 52.796)">
        <rect id="Rectángulo_5859" data-name="Rectángulo 5859" width="1.142" height="24.492" transform="matrix(0.707, -0.707, 0.707, 0.707, 0, 0.808)" fill="#4a555f"/>
      </g>
      <g id="Grupo_14609" data-name="Grupo 14609" transform="translate(16.692 56.334)">
        <path id="Trazado_49198" data-name="Trazado 49198" d="M57.975,163.588a5.525,5.525,0,1,1,5.525-5.525A5.532,5.532,0,0,1,57.975,163.588Zm0-9.908a4.383,4.383,0,1,0,4.383,4.383A4.388,4.388,0,0,0,57.975,153.679Z" transform="translate(-52.45 -152.537)" fill="#4a555f"/>
      </g>
      <g id="Grupo_14610" data-name="Grupo 14610" transform="translate(13.227 52.869)">
        <path id="Trazado_49199" data-name="Trazado 49199" d="M52.342,161.419a8.99,8.99,0,1,1,8.99-8.99A9,9,0,0,1,52.342,161.419Zm0-16.838a7.848,7.848,0,1,0,7.848,7.848A7.856,7.856,0,0,0,52.342,144.581Z" transform="translate(-43.352 -143.439)" fill="#4a555f"/>
      </g>
      <g id="Grupo_14611" data-name="Grupo 14611" transform="translate(53.806 31.278)">
        <path id="Trazado_49200" data-name="Trazado 49200" d="M171.457,108.866h-20.98a.571.571,0,0,1-.571-.571V87.315a.571.571,0,0,1,.571-.571h20.98a.571.571,0,0,1,.571.571V108.3A.571.571,0,0,1,171.457,108.866Zm-20.409-1.142h19.838V87.886H151.048Z" transform="translate(-149.906 -86.744)" fill="#4a555f"/>
      </g>
      <g id="Grupo_14612" data-name="Grupo 14612" transform="translate(55.955 33.429)">
        <path id="Trazado_49201" data-name="Trazado 49201" d="M155.55,92.391v17.822h17.822V92.391Z" transform="translate(-155.55 -92.391)" fill="#71cce0"/>
      </g>
      <g id="Grupo_14613" data-name="Grupo 14613" transform="translate(57.913 26.392)">
        <path id="Trazado_49202" data-name="Trazado 49202" d="M163.643,79.918h-2.379a.571.571,0,0,1-.571-.571V74.483a.571.571,0,0,1,.571-.571h2.379a.571.571,0,0,1,.571.571v4.864A.571.571,0,0,1,163.643,79.918Zm-1.807-1.142h1.236V75.054h-1.236Z" transform="translate(-160.693 -73.912)" fill="#4a555f"/>
      </g>
      <g id="Grupo_14614" data-name="Grupo 14614" transform="translate(63.106 26.392)">
        <path id="Trazado_49203" data-name="Trazado 49203" d="M177.279,79.918H174.9a.571.571,0,0,1-.571-.571V74.483a.571.571,0,0,1,.571-.571h2.379a.571.571,0,0,1,.571.571v4.864A.571.571,0,0,1,177.279,79.918Zm-1.807-1.142h1.236V75.054h-1.236Z" transform="translate(-174.329 -73.912)" fill="#4a555f"/>
      </g>
      <g id="Grupo_14615" data-name="Grupo 14615" transform="translate(68.299 26.392)">
        <path id="Trazado_49204" data-name="Trazado 49204" d="M190.915,79.918h-2.379a.571.571,0,0,1-.571-.571V74.483a.571.571,0,0,1,.571-.571h2.379a.571.571,0,0,1,.571.571v4.864A.571.571,0,0,1,190.915,79.918Zm-1.807-1.142h1.236V75.054h-1.236Z" transform="translate(-187.965 -73.912)" fill="#4a555f"/>
      </g>
      <g id="Grupo_14616" data-name="Grupo 14616" transform="translate(57.913 52.281)">
        <path id="Trazado_49205" data-name="Trazado 49205" d="M163.643,147.9h-2.379a.571.571,0,0,1-.571-.571v-4.863a.571.571,0,0,1,.571-.571h2.379a.571.571,0,0,1,.571.571v4.863A.571.571,0,0,1,163.643,147.9Zm-1.807-1.142h1.236v-3.721h-1.236Z" transform="translate(-160.693 -141.895)" fill="#4a555f"/>
      </g>
      <g id="Grupo_14617" data-name="Grupo 14617" transform="translate(63.106 52.281)">
        <path id="Trazado_49206" data-name="Trazado 49206" d="M177.279,147.9H174.9a.571.571,0,0,1-.571-.571v-4.863a.571.571,0,0,1,.571-.571h2.379a.571.571,0,0,1,.571.571v4.863A.571.571,0,0,1,177.279,147.9Zm-1.807-1.142h1.236v-3.721h-1.236Z" transform="translate(-174.329 -141.895)" fill="#4a555f"/>
      </g>
      <g id="Grupo_14618" data-name="Grupo 14618" transform="translate(68.299 52.281)">
        <path id="Trazado_49207" data-name="Trazado 49207" d="M190.915,147.9h-2.379a.571.571,0,0,1-.571-.571v-4.863a.571.571,0,0,1,.571-.571h2.379a.571.571,0,0,1,.571.571v4.863A.571.571,0,0,1,190.915,147.9Zm-1.807-1.142h1.236v-3.721h-1.236Z" transform="translate(-187.965 -141.895)" fill="#4a555f"/>
      </g>
      <g id="Grupo_14619" data-name="Grupo 14619" transform="translate(74.786 35.386)">
        <path id="Trazado_49208" data-name="Trazado 49208" d="M210.433,101.052h-4.863a.571.571,0,0,1-.571-.571V98.1a.571.571,0,0,1,.571-.571h4.863A.571.571,0,0,1,211,98.1v2.378A.571.571,0,0,1,210.433,101.052Zm-4.292-1.142h3.721V98.673H206.14Z" transform="translate(-204.998 -97.531)" fill="#4a555f"/>
      </g>
      <g id="Grupo_14620" data-name="Grupo 14620" transform="translate(74.786 40.579)">
        <path id="Trazado_49209" data-name="Trazado 49209" d="M210.433,114.687h-4.863a.571.571,0,0,1-.571-.571v-2.379a.571.571,0,0,1,.571-.571h4.863a.571.571,0,0,1,.571.571v2.379A.571.571,0,0,1,210.433,114.687Zm-4.292-1.142h3.721v-1.236H206.14Z" transform="translate(-204.998 -111.166)" fill="#4a555f"/>
      </g>
      <g id="Grupo_14621" data-name="Grupo 14621" transform="translate(74.786 45.772)">
        <path id="Trazado_49210" data-name="Trazado 49210" d="M210.433,128.323h-4.863a.571.571,0,0,1-.571-.571v-2.379a.571.571,0,0,1,.571-.571h4.863a.571.571,0,0,1,.571.571v2.379A.571.571,0,0,1,210.433,128.323Zm-4.292-1.142h3.721v-1.236H206.14Z" transform="translate(-204.998 -124.802)" fill="#4a555f"/>
      </g>
      <g id="Grupo_14622" data-name="Grupo 14622" transform="translate(48.942 35.386)">
        <path id="Trazado_49211" data-name="Trazado 49211" d="M142.569,101.052h-4.864a.571.571,0,0,1-.571-.571V98.1a.571.571,0,0,1,.571-.571h4.864a.571.571,0,0,1,.571.571v2.378A.571.571,0,0,1,142.569,101.052Zm-4.293-1.142H142V98.673h-3.721Z" transform="translate(-137.134 -97.531)" fill="#4a555f"/>
      </g>
      <g id="Grupo_14623" data-name="Grupo 14623" transform="translate(48.942 40.579)">
        <path id="Trazado_49212" data-name="Trazado 49212" d="M142.569,114.687h-4.864a.571.571,0,0,1-.571-.571v-2.379a.571.571,0,0,1,.571-.571h4.864a.571.571,0,0,1,.571.571v2.379A.571.571,0,0,1,142.569,114.687Zm-4.293-1.142H142v-1.236h-3.721Z" transform="translate(-137.134 -111.166)" fill="#4a555f"/>
      </g>
      <g id="Grupo_14624" data-name="Grupo 14624" transform="translate(48.942 45.772)">
        <path id="Trazado_49213" data-name="Trazado 49213" d="M142.569,128.323h-4.864a.571.571,0,0,1-.571-.571v-2.379a.571.571,0,0,1,.571-.571h4.864a.571.571,0,0,1,.571.571v2.379A.571.571,0,0,1,142.569,128.323Zm-4.293-1.142H142v-1.236h-3.721Z" transform="translate(-137.134 -124.802)" fill="#4a555f"/>
      </g>
      <g id="Grupo_14625" data-name="Grupo 14625" transform="translate(6.539 80.316)">
        <path id="Trazado_49214" data-name="Trazado 49214" d="M32.443,219.071H26.361a.571.571,0,0,1-.571-.571v-2.416a.571.571,0,0,1,.571-.571h6.082a.571.571,0,0,1,.571.571V218.5A.571.571,0,0,1,32.443,219.071Zm-5.51-1.142h4.939v-1.274H26.932Z" transform="translate(-25.79 -215.512)" fill="#4a555f"/>
      </g>
      <g id="Grupo_14626" data-name="Grupo 14626" transform="translate(30.633 80.316)">
        <path id="Trazado_49215" data-name="Trazado 49215" d="M95.709,219.071H89.627a.571.571,0,0,1-.571-.571v-2.416a.571.571,0,0,1,.571-.571h6.082a.571.571,0,0,1,.571.571V218.5A.571.571,0,0,1,95.709,219.071Zm-5.51-1.142h4.939v-1.274H90.2Z" transform="translate(-89.056 -215.512)" fill="#4a555f"/>
      </g>
    </g>
    <g id="Grupo_14628" data-name="Grupo 14628" transform="translate(67.848 40.637)">
      <g id="Grupo_4" data-name="Grupo 4">
        <g id="Grupo_3" data-name="Grupo 3">
          <g id="Trazado_8183" data-name="Trazado 8183">
            <path id="Trazado_1" data-name="Trazado 1" d="M169.84,99.214c.014,0,.284.149.6.331l2.436,1.405c.707.408,2.589,1.5,2.609,1.519s.033,1.051.032,2.231,0,4.312-.011,4.34-.636.4-1.342.812l-3.124,1.8c-.307.177-1.142.653-1.174.663a6.479,6.479,0,0,1-.866-.456l-2.606-1.5c-.6-.346-2.2-1.272-2.215-1.289s-.029-1.04-.029-2.217,0-4.306.012-4.336a1.425,1.425,0,0,1,.333-.233l2.515-1.451.359-.207,2.136-1.233C169.59,99.343,169.826,99.214,169.84,99.214Zm5.28,6.562v-1c0-.55,0-2.013,0-2.029s-.807-.492-1.755-1.039-3.472-2-3.5-2.008-.869.463-1.816,1.011-3.454,2-3.466,2.008a5.392,5.392,0,0,0-.02.644v3.115c0,1.258,0,2.3,0,2.319s.57.358,1.226.736l2.924,1.688c.3.171,1.094.629,1.112.634a1.608,1.608,0,0,0,.317-.158l1.983-1.145c.81-.467,2.956-1.71,2.972-1.724s.024-.511.023-1.06,0-1.994,0-1.994Z" transform="translate(-164.15 -99.214)" fill="#fff" fill-rule="evenodd"/>
          </g>
          <g id="Trazado_8184" data-name="Trazado 8184" transform="translate(0.826 0.834)">
            <path id="Trazado_2" data-name="Trazado 2" d="M166.319,107.964c0-.5,0-1.326,0-1.83s0-1.856.011-1.886.777-.489,1.65-.993,3.2-1.841,3.228-1.851.817.431,1.693.938,3.2,1.852,3.218,1.868.027.9.027,1.92,0,3.712-.006,3.732-.633.395-1.36.814-2.772,1.6-2.932,1.694-.594.337-.607.339-.31-.159-.633-.344l-2.182-1.259c-.557-.321-2.045-1.187-2.07-1.21S166.319,108.467,166.319,107.964Zm8.324,1.633-.02-.012-.4-.232c-.2-.116-.745-.427-.767-.434a7.158,7.158,0,0,0-.757.406c-.376.217-1.4.8-1.436.815a13.185,13.185,0,0,1-1.371-.74c-.682-.395-2.493-1.439-2.509-1.448s-.062-.024-.064-.01v.45c0,.484,0,.891.007.9s.6.368,1.3.771,2.561,1.475,2.585,1.482.578-.3,1.184-.652l2.215-1.281.03-.02Zm.5-3.413,0-.026v-.447c0-.483,0-.891-.008-.907s-.612-.371-1.315-.776-2.566-1.479-2.581-1.483-.549.3-1.159.65l-2.232,1.291c-.006,0-.019.024-.008.03l.409.237c.2.118.755.433.768.437s.357-.19.74-.411,1.416-.815,1.447-.824.671.344,1.364.745l2.537,1.465.035.018Zm-2.7,2.141-1.706-.984c-.938-.542-3.416-1.959-3.416-1.942v.457c0,.234,0,.868.007.887s.614.381,1.314.785,2.561,1.475,2.578,1.48a2.077,2.077,0,0,0,.355-.18l.68-.393.187-.109Zm2.7.407,0-.015c0-.008,0-.227,0-.467s0-.885-.005-.9-.6-.365-1.305-.77-2.567-1.478-2.587-1.484a2.827,2.827,0,0,0-.437.226l-.757.439c-.007,0,.741.461,1.678,1l3.409,1.968Z" transform="translate(-166.318 -101.405)" fill="#fff" fill-rule="evenodd"/>
          </g>
        </g>
      </g>
    </g>
  </g>
</svg>
