<svg xmlns="http://www.w3.org/2000/svg" width="296.166" height="200.643" viewBox="0 0 296.166 200.643">
  <rect id="Rectángulo_5839" data-name="Rectángulo 5839" width="275" height="183" rx="17" transform="translate(15.166 17.643)" fill="#bfd4e2"/>
  <g id="Rectángulo_5838" data-name="Rectángulo 5838" transform="translate(21.166 10.643)" fill="none" stroke="#8f8f91" stroke-width="3" opacity="0.63">
    <rect width="275" height="184" rx="17" stroke="none"/>
    <rect x="1.5" y="1.5" width="272" height="181" rx="15.5" fill="none"/>
  </g>
  <g id="Grupo_14584" data-name="Grupo 14584" transform="translate(-1 -12.947)">
    <circle id="Elipse_167" data-name="Elipse 167" cx="8.425" cy="8.425" r="8.425" transform="translate(53.044 28.25)" fill="#fff"/>
    <g id="Grupo_14583" data-name="Grupo 14583" transform="translate(1 12.947)">
      <g id="Grupo_14573" data-name="Grupo 14573" transform="translate(90.166 16.539)">
        <line id="Línea_113" data-name="Línea 113" y1="1.176" fill="#4a555f"/>
      </g>
      <g id="Grupo_14574" data-name="Grupo 14574" transform="translate(24.704 0.586)">
        <path id="Trazado_49174" data-name="Trazado 49174" d="M124.614,34.663l-1.2-15.329a5.164,5.164,0,0,0-6.364-4.616l-14.941,3.632a19.39,19.39,0,0,0-12.276,9.255L70.121,62.276a4.765,4.765,0,0,0,1.348,6.219l7.5,5.443L86.48,79.38a4.775,4.775,0,0,0,6.332-.655L119.63,49.208a18.292,18.292,0,0,0,1.348-1.658,19.381,19.381,0,0,0,3.7-11.387C124.673,35.666,124.653,35.165,124.614,34.663ZM111.95,42.668a8.341,8.341,0,1,1-1.857-11.649A8.345,8.345,0,0,1,111.95,42.668Z" transform="translate(-69.496 -14.571)" fill="#71cce0"/>
      </g>
      <g id="Grupo_14575" data-name="Grupo 14575" transform="translate(24.115)">
        <path id="Trazado_49175" data-name="Trazado 49175" d="M76.068,72.276l-5.99-4.343a5.351,5.351,0,0,1-1.512-6.986L88.281,26.279a19.978,19.978,0,0,1,12.651-9.538l14.939-3.63a5.75,5.75,0,0,1,7.09,5.14l1.194,15.327a19.981,19.981,0,0,1-5.133,14.989L97.551,72.2l-.87-.791,21.47-23.628a18.812,18.812,0,0,0,4.831-14.107l-1.194-15.328a4.574,4.574,0,0,0-5.64-4.088l-14.939,3.63A18.805,18.805,0,0,0,89.3,26.86L69.587,61.527a4.177,4.177,0,0,0,1.18,5.453l5.99,4.343Z" transform="translate(-67.862 -12.947)" fill="#4a555f"/>
      </g>
      <g id="Grupo_14576" data-name="Grupo 14576" transform="translate(12.747 31.245)">
        <path id="Trazado_49176" data-name="Trazado 49176" d="M49.821,109.735a17.68,17.68,0,0,0-11.4-2.7q-1.03.094-2.079.294a21.08,21.08,0,0,1,14.324-7.656,23.722,23.722,0,0,1,4.837.077Z" transform="translate(-36.342 -99.581)" fill="#ffd452"/>
      </g>
      <g id="Grupo_14577" data-name="Grupo 14577" transform="translate(54.453 52.909)">
        <path id="Trazado_49177" data-name="Trazado 49177" d="M158.46,180.168a17.868,17.868,0,0,0-6.48-12.019l7.725-8.5a20.639,20.639,0,0,1,.5,17.079A24.278,24.278,0,0,1,158.46,180.168Z" transform="translate(-151.98 -159.647)" fill="#ffd452"/>
      </g>
      <g id="Grupo_14578" data-name="Grupo 14578" transform="translate(19.894 55.797)">
        <path id="Trazado_49178" data-name="Trazado 49178" d="M77.428,179.783c-5.979,7.508-14.018,11-18.421,7.8s-3.593-11.911,1.688-19.931a7.315,7.315,0,0,0,.812.685l2.418,1.755,10.183,7.381,2.413,1.751A7.126,7.126,0,0,0,77.428,179.783Z" transform="translate(-56.158 -167.653)" fill="#f58e6f"/>
      </g>
      <g id="Grupo_14579" data-name="Grupo 14579" transform="translate(19.301 60.354)">
        <path id="Trazado_49179" data-name="Trazado 49179" d="M61.905,197.445a7.169,7.169,0,0,1-4.293-1.306c-3.683-2.669-4.117-8.89-1.105-15.849l1.078.467c-2.741,6.334-2.453,12.133.717,14.431,4.083,2.964,11.822-.416,17.617-7.692l.92.732C72.19,194.065,66.463,197.445,61.905,197.445Z" transform="translate(-54.515 -180.29)" fill="#4a555f"/>
      </g>
      <g id="Grupo_14580" data-name="Grupo 14580" transform="translate(25.863 58.236)">
        <path id="Trazado_49180" data-name="Trazado 49180" d="M84.69,181.8c-3.538,3.614-7.749,5.116-10.193,3.343s-2.329-6.239.009-10.724Z" transform="translate(-72.708 -174.417)" fill="#ffd452"/>
      </g>
      <g id="Grupo_14581" data-name="Grupo 14581" transform="translate(53.937 17.321)">
        <path id="Trazado_49181" data-name="Trazado 49181" d="M157.005,73.9a6.464,6.464,0,1,1,5.243-2.668h0A6.463,6.463,0,0,1,157.005,73.9Zm.015-11.752a5.29,5.29,0,1,0,4.276,8.394h0a5.288,5.288,0,0,0-4.276-8.394Z" transform="translate(-150.55 -60.974)" fill="#4a555f"/>
      </g>
      <g id="Grupo_14582" data-name="Grupo 14582" transform="translate(0 7.171)">
        <path id="Trazado_49182" data-name="Trazado 49182" d="M44.012,88.381,44,87.205q.584,0,1.164-.021l.034,1.175Q44.607,88.376,44.012,88.381Zm-1.187,0q-.591-.007-1.186-.024l.034-1.175q.584.016,1.165.023Zm3.56-.067-.056-1.174q.583-.028,1.162-.067l.08,1.173Q46.979,88.285,46.385,88.313Zm-5.932,0q-.6-.029-1.185-.069l.079-1.173q.579.039,1.162.067Zm8.3-.158-.1-1.171q.582-.051,1.158-.114l.127,1.169Q49.347,88.1,48.753,88.152Zm-10.669,0q-.593-.052-1.182-.115l.126-1.169q.577.062,1.158.113Zm-2.36-.253q-.591-.075-1.177-.161l.172-1.163q.573.085,1.153.158Zm15.391,0-.152-1.165q.579-.076,1.153-.162l.175,1.162Q51.706,87.817,51.115,87.895Zm-17.74-.344q-.588-.1-1.169-.208l.218-1.155q.57.108,1.146.2Zm20.089-.01-.2-1.159q.575-.1,1.144-.21l.225,1.154Q54.052,87.439,53.464,87.54Zm-22.423-.43q-.584-.122-1.16-.256l.266-1.145q.565.131,1.136.251ZM55.8,87.085l-.25-1.149q.57-.124,1.132-.259l.276,1.143Q56.38,86.959,55.8,87.085Zm-27.07-.511q-.578-.147-1.148-.305l.313-1.132q.558.154,1.125.3Zm29.381-.046-.3-1.137q.564-.149,1.119-.31l.328,1.129Q58.685,86.375,58.108,86.528Zm-31.671-.588q-.572-.172-1.134-.355l.363-1.118q.55.179,1.109.347Zm33.955-.075-.354-1.121q.557-.175,1.1-.363l.381,1.112Q60.962,85.686,60.392,85.866Zm-36.216-.659q-.564-.2-1.118-.405l.413-1.1q.541.2,1.092.4ZM62.643,85.1l-.408-1.1q.547-.2,1.083-.416l.436,1.091Q63.2,84.887,62.643,85.1ZM21.95,84.37q-.555-.223-1.1-.457l.465-1.08q.53.228,1.072.447Zm42.9-.158-.465-1.08q.536-.23,1.06-.472l.493,1.067Q65.405,83.975,64.854,84.212ZM19.764,83.43q-.544-.25-1.076-.511l.518-1.055q.518.255,1.048.5Zm47.254-.217-.523-1.052q.522-.26,1.031-.53l.552,1.038Q67.555,82.946,67.018,83.212ZM17.626,82.38q-.531-.278-1.048-.567l.573-1.026q.5.28,1.02.551Zm51.5-.289-.584-1.02q.506-.289,1-.59l.615,1Q69.644,81.793,69.123,82.091Zm-53.577-.872q-.516-.306-1.016-.624l.629-.993q.486.308.987.606Zm55.612-.375-.646-.982q.486-.32.955-.652l.678.96Q71.661,80.513,71.158,80.844Zm-57.627-.9q-.5-.336-.978-.683l.687-.954q.466.336.949.663Zm59.579-.48-.713-.935q.463-.353.907-.716l.744.91Q73.59,79.1,73.111,79.463ZM11.6,78.547q-.476-.367-.934-.744l.747-.908q.444.365.9.72Zm63.367-.6-.779-.88q.434-.385.848-.781l.813.85Q75.414,77.545,74.962,77.946Zm-65.211-.92q-.452-.4-.883-.808l.81-.852q.415.395.851.779Zm66.941-.739-.848-.814q.4-.418.778-.846l.883.776C77.243,75.7,76.969,76,76.693,76.287ZM8.016,75.379q-.422-.432-.821-.874l.872-.788q.384.425.789.839Zm70.263-.9-.917-.735c.239-.3.473-.6.7-.911l.951.69C78.775,73.849,78.529,74.171,78.279,74.483ZM6.41,73.6c-.258-.309-.509-.625-.748-.94l.936-.711q.346.454.716.9Zm73.282-1.064-.985-.642c.208-.32.41-.648.6-.975l1.017.589C80.124,71.852,79.911,72.2,79.691,72.535ZM4.956,71.688c-.23-.333-.452-.671-.661-1.006l1-.621c.2.319.41.641.63.958ZM80.9,70.447l-1.048-.533c.173-.34.337-.687.488-1.031l1.077.471C81.255,69.719,81.081,70.087,80.9,70.447Zm-77.215-.8c-.2-.352-.384-.711-.559-1.068L4.18,68.06c.166.338.344.68.531,1.014Zm78.184-1.412-1.1-.407c.132-.356.253-.718.362-1.077l1.125.34C82.136,67.47,82.007,67.855,81.868,68.233ZM2.622,67.481c-.158-.37-.306-.749-.441-1.124l1.106-.4c.128.355.268.712.417,1.062Zm79.943-1.558-1.144-.27c.087-.367.163-.742.226-1.115l1.159.2C82.739,65.133,82.658,65.532,82.565,65.923ZM1.8,65.206c-.114-.388-.218-.782-.308-1.172l1.145-.264c.084.367.182.738.29,1.1Zm81.168-1.673L81.8,63.408c.04-.374.068-.756.084-1.133l1.174.049C83.045,62.726,83.015,63.133,82.972,63.533ZM1.261,62.847c-.066-.395-.12-.8-.161-1.2l1.169-.12c.039.375.089.753.151,1.124Zm-.247-2.4Q1,60.071,1,59.7c0-.154,0-.309.005-.464l1.175.028c0,.146-.005.291-.005.436q0,.352.014.7Zm1.23-2.32-1.171-.1c.035-.4.084-.808.144-1.206l1.162.177C2.323,57.366,2.277,57.747,2.244,58.124Zm.342-2.251-1.149-.249c.085-.391.184-.786.294-1.174l1.131.321C2.759,55.135,2.666,55.506,2.586,55.873ZM3.2,53.687,2.1,53.3c.131-.375.277-.755.434-1.129l1.084.454C3.466,52.976,3.328,53.334,3.2,53.687Zm.88-2.1L3.028,51.07c.175-.359.364-.719.56-1.07l1.026.574C4.428,50.906,4.25,51.246,4.084,51.586ZM5.2,49.591,4.2,48.964c.21-.334.435-.671.669-1l.961.677C5.612,48.954,5.4,49.274,5.2,49.591Zm1.319-1.873-.927-.723c.243-.312.5-.625.762-.931l.892.765C6.994,47.122,6.749,47.42,6.517,47.718Zm1.495-1.743-.858-.8q.408-.435.84-.858l.822.84Q8.4,45.558,8.011,45.975Zm1.643-1.611-.788-.872q.441-.4.9-.786l.755.9Q10.079,43.979,9.654,44.363Zm1.768-1.479-.72-.929q.469-.364.957-.716l.688.953Q11.876,42.532,11.422,42.884ZM13.3,41.532l-.655-.976q.493-.332,1-.65l.623,1Q13.774,41.212,13.3,41.532Zm1.961-1.226-.591-1.016q.512-.3,1.039-.585l.562,1.033Q15.755,40.017,15.258,40.306ZM17.293,39.2l-.531-1.049q.529-.268,1.072-.524l.5,1.064Q17.807,38.94,17.293,39.2Zm2.1-.989-.472-1.077q.542-.237,1.1-.463l.444,1.088Q19.918,37.98,19.39,38.212Zm2.148-.876-.415-1.1q.553-.209,1.118-.407l.389,1.109Q22.079,37.132,21.539,37.336Zm2.192-.767-.361-1.119q.563-.181,1.136-.352l.335,1.126Q24.281,36.391,23.73,36.569Zm2.227-.661-.308-1.134q.571-.155,1.15-.3l.283,1.141Q26.516,35.756,25.958,35.907Zm2.256-.559L27.957,34.2q.578-.129,1.162-.247l.232,1.152Q28.779,35.222,28.214,35.349Zm2.28-.459-.207-1.157q.583-.1,1.172-.2l.182,1.162Q31.064,34.787,30.494,34.89Zm2.3-.361-.158-1.165q.586-.08,1.179-.148l.133,1.168Q33.366,34.451,32.792,34.529Zm2.312-.266-.111-1.17q.589-.056,1.184-.1l.086,1.173Q35.68,34.208,35.1,34.263Zm2.321-.171-.063-1.174q.591-.031,1.187-.052l.039,1.175Q38,34.061,37.425,34.092Zm2.326-.08-.017-1.176c.293,0,.586,0,.883-.006h.3l0,1.175h-.3C40.327,34.008,40.039,34.008,39.751,34.013Z" transform="translate(-1 -32.831)" fill="#4a555f"/>
      </g>
    </g>
  </g>
</svg>
