<svg xmlns="http://www.w3.org/2000/svg" width="310.212" height="200.716" viewBox="0 0 310.212 200.716">
  <rect id="Rectángulo_5839" data-name="Rectángulo 5839" width="275" height="183" rx="17" transform="translate(29.212 17.716)" fill="#bfd4e2"/>
  <g id="Rectángulo_5838" data-name="Rectángulo 5838" transform="translate(35.212 10.716)" fill="none" stroke="#8f8f91" stroke-width="3" opacity="0.63">
    <rect width="275" height="184" rx="17" stroke="none"/>
    <rect x="1.5" y="1.5" width="272" height="181" rx="15.5" fill="none"/>
  </g>
  <g id="Grupo_14511" data-name="Grupo 14511" transform="matrix(0.883, -0.469, 0.469, 0.883, -4151.559, -4204.85)">
    <rect id="Rectángulo_5840" data-name="Rectángulo 5840" width="44.011" height="58.495" transform="translate(1699.858 5698.405)" fill="#fff"/>
    <rect id="Rectángulo_5841" data-name="Rectángulo 5841" width="44.011" height="58.495" transform="translate(1690.875 5689.979)" fill="#fff"/>
    <rect id="Rectángulo_5842" data-name="Rectángulo 5842" width="44.011" height="58.495" transform="translate(1682.38 5681.414)" fill="#fff"/>
    <g id="Grupo_14510" data-name="Grupo 14510" transform="translate(1681.407 5680.779)">
      <g id="Grupo_14494" data-name="Grupo 14494" transform="translate(44.873 42.431)">
        <path id="Trazado_49115" data-name="Trazado 49115" d="M1828.329,5802.643v3.282l-9.781,9.712-2.447,5.379-1.3,2.872-.226.5-.978,2.166v0h-3.311v0l1.486-3.277,1.024-2.256h0l2.441-5.379Z" transform="translate(-1810.282 -5802.643)" fill="#71cce0"/>
      </g>
      <g id="Grupo_14495" data-name="Grupo 14495" transform="translate(13.068 12.75)">
        <path id="Trazado_49116" data-name="Trazado 49116" d="M1718.937,5771.124V5717.4h39.406v4.567h-34.536v49.159Z" transform="translate(-1718.937 -5717.397)" fill="#71cce0"/>
      </g>
      <g id="Grupo_14496" data-name="Grupo 14496" transform="translate(4.316 4.782)">
        <path id="Trazado_49117" data-name="Trazado 49117" d="M1693.8,5748.24v-53.728h39.406v4.566h-34.536v49.16Z" transform="translate(-1693.802 -5694.513)" fill="#71cce0"/>
      </g>
      <g id="Grupo_14497" data-name="Grupo 14497" transform="translate(17.414 16.795)">
        <path id="Trazado_49118" data-name="Trazado 49118" d="M1776.924,5789.357h-44.982a.522.522,0,0,1-.522-.522v-59.3a.521.521,0,0,1,.522-.521h44.982a.521.521,0,0,1,.522.521v28.4a.521.521,0,0,1-.154.371l-9.713,9.644-4.344,9.616,9.585-4.35,3.736-3.708a.521.521,0,0,1,.89.37v18.959A.523.523,0,0,1,1776.924,5789.357Zm-44.46-1.046H1776.4v-17.181l-2.912,2.89a.509.509,0,0,1-.152.105l-10.933,4.962a.522.522,0,0,1-.692-.69l4.954-10.968a.519.519,0,0,1,.108-.156l9.626-9.558v-27.658h-43.937Z" transform="translate(-1731.42 -5729.014)" fill="#4a555f"/>
      </g>
      <g id="Grupo_14498" data-name="Grupo 14498" transform="translate(8.714 8.396)">
        <path id="Trazado_49119" data-name="Trazado 49119" d="M1715.656,5765.236h-8.7a.522.522,0,0,1-.522-.521v-59.3a.522.522,0,0,1,.522-.521h44.978a.522.522,0,0,1,.522.521v8.4a.523.523,0,0,1-.522.522h-35.755v50.379A.522.522,0,0,1,1715.656,5765.236Zm-8.179-1.044h7.656v-50.379a.523.523,0,0,1,.522-.523h35.755v-7.354h-43.934Z" transform="translate(-1706.433 -5704.893)" fill="#4a555f"/>
      </g>
      <g id="Grupo_14499" data-name="Grupo 14499">
        <path id="Trazado_49120" data-name="Trazado 49120" d="M1690.63,5741.123h-8.7a.523.523,0,0,1-.522-.522v-59.3a.522.522,0,0,1,.522-.521h44.979a.522.522,0,0,1,.522.521v8.4a.523.523,0,0,1-.522.522h-35.756V5740.6A.523.523,0,0,1,1690.63,5741.123Zm-8.179-1.044h7.656V5689.7a.522.522,0,0,1,.522-.521h35.755v-7.355h-43.934Z" transform="translate(-1681.407 -5680.779)" fill="#4a555f"/>
      </g>
      <g id="Grupo_14500" data-name="Grupo 14500" transform="translate(26.999 46.445)">
        <rect id="Rectángulo_5843" data-name="Rectángulo 5843" width="27.395" height="1.045" fill="#4a555f"/>
      </g>
      <g id="Grupo_14501" data-name="Grupo 14501" transform="translate(31.217 27.523)">
        <rect id="Rectángulo_5844" data-name="Rectángulo 5844" width="3.522" height="16.174" fill="#ffd452"/>
      </g>
      <g id="Grupo_14502" data-name="Grupo 14502" transform="translate(38.819 33.714)">
        <rect id="Rectángulo_5845" data-name="Rectángulo 5845" width="3.522" height="9.983" fill="#f58e6f"/>
      </g>
      <g id="Grupo_14503" data-name="Grupo 14503" transform="translate(46.653 30.337)">
        <rect id="Rectángulo_5846" data-name="Rectángulo 5846" width="3.522" height="13.36" fill="#71cce0"/>
      </g>
      <g id="Grupo_14504" data-name="Grupo 14504" transform="translate(48.184 60.804)">
        <path id="Trazado_49121" data-name="Trazado 49121" d="M1825.53,5858.369l-5.738,2.575,2.509-5.536a5.534,5.534,0,0,1,2.106,1.325A5.478,5.478,0,0,1,1825.53,5858.369Z" transform="translate(-1819.792 -5855.408)" fill="#f58e6f"/>
      </g>
      <g id="Grupo_14505" data-name="Grupo 14505" transform="translate(52.615 39.782)">
        <path id="Trazado_49122" data-name="Trazado 49122" d="M1839.02,5817.206a.52.52,0,0,1-.37-.153l-5.979-6.007a.522.522,0,0,1,0-.739l15.231-15.122a.525.525,0,0,1,.738,0l5.979,6.006a.523.523,0,0,1,0,.74l-15.231,15.121A.522.522,0,0,1,1839.02,5817.206Zm-5.239-6.526,5.241,5.266,14.49-14.385-5.242-5.267Z" transform="translate(-1832.519 -5795.034)" fill="#4a555f"/>
      </g>
      <g id="Grupo_14506" data-name="Grupo 14506" transform="translate(56.594 43.761)">
        <path id="Trazado_49123" data-name="Trazado 49123" d="M1843.947,5818.134l11.766-11.671,2.529,2.541-11.766,11.672Z" transform="translate(-1843.947 -5806.463)" fill="#ffd452"/>
      </g>
      <g id="Grupo_14507" data-name="Grupo 14507" transform="translate(67.846 36.496)">
        <path id="Trazado_49124" data-name="Trazado 49124" d="M1882.764,5795.934h0a.523.523,0,0,1-.369-.153l-5.979-6.007a.523.523,0,0,1,0-.739l2.419-2.407a3.545,3.545,0,0,1,5.006.011l1.722,1.73a3.54,3.54,0,0,1-.012,5.006l-2.419,2.408A.525.525,0,0,1,1882.764,5795.934Zm-5.241-6.527,5.242,5.267,2.049-2.039a2.5,2.5,0,0,0,.009-3.529l-1.721-1.729a2.5,2.5,0,0,0-3.529-.009Z" transform="translate(-1876.262 -5785.597)" fill="#4a555f"/>
      </g>
      <g id="Grupo_14508" data-name="Grupo 14508" transform="translate(48.184 66.338)">
        <path id="Trazado_49125" data-name="Trazado 49125" d="M1819.792,5871.3h0v0Z" transform="translate(-1819.792 -5871.302)" fill="#f58e6f"/>
      </g>
      <g id="Grupo_14509" data-name="Grupo 14509" transform="translate(17.414 16.795)">
        <path id="Trazado_49126" data-name="Trazado 49126" d="M1776.924,5789.357h-44.982a.522.522,0,0,1-.522-.522v-59.3a.521.521,0,0,1,.522-.521h44.982a.521.521,0,0,1,.522.521v28.4a.521.521,0,0,1-.154.371l-9.713,9.644-4.344,9.616,9.585-4.35,3.736-3.708a.521.521,0,0,1,.89.37v18.959A.523.523,0,0,1,1776.924,5789.357Zm-44.46-1.046H1776.4v-17.181l-2.912,2.89a.509.509,0,0,1-.152.105l-10.933,4.962a.522.522,0,0,1-.692-.69l4.954-10.968a.519.519,0,0,1,.108-.156l9.626-9.558v-27.658h-43.937Z" transform="translate(-1731.42 -5729.014)" fill="#4a555f"/>
      </g>
    </g>
  </g>
</svg>
