<svg xmlns="http://www.w3.org/2000/svg" width="299.318" height="210.824" viewBox="0 0 299.318 210.824">
  <rect id="Rectángulo_5839" data-name="Rectángulo 5839" width="275" height="183" rx="17" transform="translate(18.318 27.824)" fill="#bfd4e2"/>
  <g id="Rectángulo_5838" data-name="Rectángulo 5838" transform="translate(24.318 20.824)" fill="none" stroke="#8f8f91" stroke-width="3" opacity="0.63">
    <rect width="275" height="184" rx="17" stroke="none"/>
    <rect x="1.5" y="1.5" width="272" height="181" rx="15.5" fill="none"/>
  </g>
  <g id="Grupo_14655" data-name="Grupo 14655" transform="matrix(0.951, -0.309, 0.309, 0.951, -12.118, 16.168)">
    <rect id="Rectángulo_5860" data-name="Rectángulo 5860" width="63.634" height="13.201" transform="translate(12.588 38.526)" fill="#fff"/>
    <rect id="Rectángulo_5861" data-name="Rectángulo 5861" width="36.556" height="36.217" transform="translate(26.127 43.604)" fill="#fff"/>
    <g id="Grupo_14652" data-name="Grupo 14652" transform="translate(6.237 8.096)">
      <g id="Grupo_14630" data-name="Grupo 14630" transform="translate(5.569 0)">
        <path id="Trazado_49216" data-name="Trazado 49216" d="M87.566,38.874H23.242a.554.554,0,0,1-.553-.553V22.908a.553.553,0,0,1,.553-.553H38.161a2.971,2.971,0,0,0,2.908-2.431,14.816,14.816,0,0,1,29.022,0A2.972,2.972,0,0,0,73,22.355H87.566a.553.553,0,0,1,.553.553V38.321A.554.554,0,0,1,87.566,38.874Z" transform="translate(-22.689 -8.096)" fill="#fff"/>
      </g>
      <g id="Grupo_14631" data-name="Grupo 14631" transform="translate(5.57 29.673)">
        <path id="Trazado_49217" data-name="Trazado 49217" d="M87.57,110.669H73.984a.554.554,0,0,1-.553-.553v-7.972H37.382v7.972a.554.554,0,0,1-.553.553H23.246a.554.554,0,0,1-.553-.553v-13.8a.554.554,0,0,1,.553-.553H87.57a.554.554,0,0,1,.553.553v13.8A.554.554,0,0,1,87.57,110.669Zm-13.032-1.107H87.016V96.869H23.8v12.694H36.275v-7.972a.553.553,0,0,1,.553-.553H73.984a.554.554,0,0,1,.553.553Z" transform="translate(-22.693 -95.762)" fill="#4a555f"/>
      </g>
      <g id="Grupo_14632" data-name="Grupo 14632" transform="translate(10.9 34.948)">
        <path id="Trazado_49218" data-name="Trazado 49218" d="M47.246,116.3H38.994a.553.553,0,0,1-.553-.553V111.9a.553.553,0,0,1,.553-.553h8.252a.553.553,0,0,1,.553.553v3.844A.553.553,0,0,1,47.246,116.3Zm-7.7-1.107h7.145v-2.737H39.548Z" transform="translate(-38.441 -111.347)" fill="#4a555f"/>
      </g>
      <g id="Grupo_14633" data-name="Grupo 14633" transform="translate(56.307 34.948)">
        <path id="Trazado_49219" data-name="Trazado 49219" d="M181.4,116.3h-8.252a.553.553,0,0,1-.553-.553V111.9a.553.553,0,0,1,.553-.553H181.4a.554.554,0,0,1,.553.553v3.844A.554.554,0,0,1,181.4,116.3Zm-7.7-1.107h7.145v-2.737H173.7Z" transform="translate(-172.592 -111.347)" fill="#4a555f"/>
      </g>
      <g id="Grupo_14634" data-name="Grupo 14634" transform="translate(7.964 32.071)">
        <path id="Trazado_49220" data-name="Trazado 49220" d="M29.766,102.846v10.111H41.508v-.992h-10.1v-7.532H88.759v7.532h-10.1v.992H90.4V102.846Z" transform="translate(-29.766 -102.846)" fill="#f58e6f"/>
      </g>
      <g id="Grupo_14635" data-name="Grupo 14635" transform="translate(19.154 34.948)">
        <path id="Trazado_49221" data-name="Trazado 49221" d="M100.533,149.139H63.378a.554.554,0,0,1-.553-.553V111.9a.553.553,0,0,1,.553-.553h37.155a.553.553,0,0,1,.553.553v36.685A.554.554,0,0,1,100.533,149.139Zm-36.6-1.107H99.98V112.454H63.931Z" transform="translate(-62.825 -111.347)" fill="#4a555f"/>
      </g>
      <g id="Grupo_14636" data-name="Grupo 14636" transform="translate(22.076 56.549)">
        <path id="Trazado_49222" data-name="Trazado 49222" d="M84.09,185.609a10.457,10.457,0,0,0-12.631-10.217v12.442h12.4A10.471,10.471,0,0,0,84.09,185.609Z" transform="translate(-71.459 -175.164)" fill="#71cce0"/>
      </g>
      <g id="Grupo_14637" data-name="Grupo 14637" transform="translate(21.523 59.023)">
        <path id="Trazado_49223" data-name="Trazado 49223" d="M70.377,193.223a.554.554,0,0,1-.553-.553V183.2a.553.553,0,0,1,.438-.541,8.514,8.514,0,0,1,10.09,10.127.554.554,0,0,1-.541.436Zm.553-9.561v8.454h8.42a7.493,7.493,0,0,0,.086-1.14,7.4,7.4,0,0,0-7.4-7.4A7.485,7.485,0,0,0,70.931,183.662Z" transform="translate(-69.824 -182.473)" fill="#4a555f"/>
      </g>
      <g id="Grupo_14638" data-name="Grupo 14638" transform="translate(41.826 56.568)">
        <path id="Trazado_49224" data-name="Trazado 49224" d="M140.252,175.221a10.456,10.456,0,0,0-10.217,12.631h12.441v-12.4A10.468,10.468,0,0,0,140.252,175.221Z" transform="translate(-129.807 -175.221)" fill="#71cce0"/>
      </g>
      <g id="Grupo_14639" data-name="Grupo 14639" transform="translate(44.3 59.033)">
        <path id="Trazado_49225" data-name="Trazado 49225" d="M147.314,193.223h-9.469a.553.553,0,0,1-.541-.438A8.514,8.514,0,0,1,147.431,182.7a.553.553,0,0,1,.436.541v9.433A.553.553,0,0,1,147.314,193.223Zm-9.007-1.106h8.453V183.7a7.5,7.5,0,0,0-1.14-.087,7.4,7.4,0,0,0-7.4,7.4A7.487,7.487,0,0,0,138.307,192.116Z" transform="translate(-137.118 -182.503)" fill="#4a555f"/>
      </g>
      <g id="Grupo_14640" data-name="Grupo 14640" transform="translate(23.186 34.948)">
        <path id="Trazado_49226" data-name="Trazado 49226" d="M99.117,144.568H80.551a.554.554,0,0,1-.553-.553,4.712,4.712,0,0,0-4.707-4.707.553.553,0,0,1-.553-.553V111.9a.553.553,0,0,1,.553-.553h29.087a.553.553,0,0,1,.553.553v26.854a.554.554,0,0,1-.553.553,4.712,4.712,0,0,0-4.707,4.707A.554.554,0,0,1,99.117,144.568Zm-18.039-1.107H98.59a5.825,5.825,0,0,1,5.235-5.234V112.454H75.843v25.773A5.825,5.825,0,0,1,81.078,143.461Z" transform="translate(-74.737 -111.347)" fill="#4a555f"/>
      </g>
      <g id="Grupo_14641" data-name="Grupo 14641" transform="translate(26.438 35.218)">
        <path id="Trazado_49227" data-name="Trazado 49227" d="M96.619,129.861l-.039-1.106c.35-.012.7-.042,1.049-.088l.145,1.1C97.392,129.815,97,129.847,96.619,129.861Zm-1.158-.014c-.385-.023-.772-.065-1.153-.126l.173-1.093c.346.055.7.093,1.047.114Zm3.455-.29-.251-1.078c.338-.079.679-.176,1.011-.288l.355,1.048C99.664,129.362,99.289,129.469,98.915,129.556Zm-5.744-.073c-.373-.1-.746-.214-1.107-.347l.382-1.038c.328.121.666.226,1,.315Zm7.937-.671-.456-1.008c.317-.144.632-.3.935-.48l.553.958C101.807,128.475,101.46,128.653,101.109,128.812ZM91,128.681c-.346-.167-.688-.355-1.018-.556l.577-.944c.3.183.61.353.924.5Zm12.121-1.027-.643-.9c.283-.2.561-.422.825-.653l.728.834C103.735,127.189,103.429,127.431,103.117,127.654Zm-14.1-.182c-.308-.233-.607-.482-.891-.743l.75-.814c.257.237.528.464.808.674Zm15.843-1.342-.806-.759c.239-.254.469-.523.683-.8l.876.677C105.378,125.552,105.124,125.849,104.861,126.13ZM87.314,125.9c-.256-.287-.5-.59-.729-.9l.894-.653c.206.283.429.558.661.818Zm18.963-1.608-.939-.586c.185-.3.358-.606.512-.918l.992.49C106.671,123.625,106.481,123.966,106.277,124.294Zm-20.33-.264c-.2-.332-.376-.678-.538-1.028l1-.464c.147.317.31.63.487.931Zm21.357-1.816-1.036-.389c.123-.329.231-.665.32-1l1.07.284A11.6,11.6,0,0,1,107.3,122.214Zm-22.328-.29c-.094-.273-.179-.553-.253-.832-.025-.093-.049-.188-.071-.284l1.077-.254c.02.086.042.171.064.256.066.253.144.506.229.753ZM107.9,119.97l-1.093-.175c.055-.342.093-.694.114-1.045l1.1.065C108,119.2,107.96,119.592,107.9,119.97Zm-23.458-.3c-.05-.381-.082-.77-.095-1.157l1.106-.036c.012.351.041.7.086,1.048ZM106.93,117.7a10.428,10.428,0,0,0-.093-1.046l1.1-.155a11.443,11.443,0,0,1,.1,1.158Zm-21.46-.278-1.1-.072a11.281,11.281,0,0,1,.135-1.156l1.091.186A10.224,10.224,0,0,0,85.47,117.421Zm21.171-1.8a10.432,10.432,0,0,0-.3-1.007l1.044-.368c.129.366.24.741.33,1.114Zm-20.826-.269-1.068-.289a11.5,11.5,0,0,1,.36-1.105l1.034.4A10.371,10.371,0,0,0,85.814,115.35Zm20.13-1.711c-.148-.315-.313-.629-.492-.93l.951-.565c.2.333.38.678.543,1.026Zm-19.38-.249-.989-.5c.128-.255.266-.507.412-.75l.95.568C86.805,112.931,86.68,113.159,86.564,113.39Z" transform="translate(-84.347 -112.143)" fill="#4a555f"/>
      </g>
      <g id="Grupo_14642" data-name="Grupo 14642" transform="translate(34.638 42.164)">
        <path id="Trazado_49228" data-name="Trazado 49228" d="M108.573,132.665h2.365c-.35,1-.774,1.14-1.058,1.14A1.226,1.226,0,0,1,108.573,132.665Z" transform="translate(-108.573 -132.665)" fill="#71cce0"/>
      </g>
      <g id="Grupo_14643" data-name="Grupo 14643" transform="translate(39.508 39.021)">
        <path id="Trazado_49229" data-name="Trazado 49229" d="M124.886,123.7a1.733,1.733,0,0,1,.405.856H122.96l.022-.144a1.72,1.72,0,0,1,.358-.712.89.89,0,0,1,.69-.325A1.135,1.135,0,0,1,124.886,123.7Z" transform="translate(-122.96 -123.379)" fill="#71cce0"/>
      </g>
      <g id="Grupo_14644" data-name="Grupo 14644" transform="translate(29.578 35.502)">
        <path id="Trazado_49230" data-name="Trazado 49230" d="M110.83,116.826a8.577,8.577,0,0,0-1.922-3.844H95.742a8.581,8.581,0,0,0-1.922,3.844,8.479,8.479,0,0,0-.2,1.848,8.7,8.7,0,1,0,17.408,0A8.458,8.458,0,0,0,110.83,116.826Zm-2.091,2.818h-1.121a4.546,4.546,0,0,1-.605,1.863,2.947,2.947,0,0,1-2.663,1.417v-2a1.648,1.648,0,0,0,1.5-1.276h-2.715c-.129.487-.258.889-.369,1.2a2.731,2.731,0,0,1-.343.668,2.843,2.843,0,0,1-2.774,1.213l-.111-.022a2.982,2.982,0,0,1-1.926-1.191,3.986,3.986,0,0,1-.7-1.863H95.528v-1.962h1.439a3.8,3.8,0,0,1,.255-.856A3.481,3.481,0,0,1,98,115.675a3.254,3.254,0,0,1,2.2-.944v2.084l-.085.011a1.788,1.788,0,0,0-1.24.856h2.59c0-.026.007-.052.011-.081a5.177,5.177,0,0,1,.151-.775,3.818,3.818,0,0,1,.878-1.627,2.539,2.539,0,0,1,1.066-.66,3.144,3.144,0,0,1,3.051.767,3.309,3.309,0,0,1,.76,1.214c.011.029.044.151.085.306a6.963,6.963,0,0,1,.188.856h1.084Z" transform="translate(-93.621 -112.982)" fill="#71cce0"/>
      </g>
      <g id="Grupo_14645" data-name="Grupo 14645" transform="translate(10.902 34.948)">
        <path id="Trazado_49231" data-name="Trazado 49231" d="M93.211,115.744H92.1v-3.29H39.551v3.29H38.445V111.9a.553.553,0,0,1,.553-.553H92.657a.553.553,0,0,1,.553.553Z" transform="translate(-38.445 -111.347)" fill="#4a555f"/>
      </g>
      <g id="Grupo_14646" data-name="Grupo 14646" transform="translate(65.959 49.896)">
        <rect id="Rectángulo_5862" data-name="Rectángulo 5862" width="1.107" height="12.044" fill="#4a555f"/>
      </g>
      <g id="Grupo_14647" data-name="Grupo 14647" transform="translate(62.356 57.615)">
        <path id="Trazado_49232" data-name="Trazado 49232" d="M194.619,183.475h0a.553.553,0,0,1-.415-.187l-3.742-4.243.83-.732,3.327,3.773,3.337-3.773.829.733-3.752,4.243A.555.555,0,0,1,194.619,183.475Z" transform="translate(-190.463 -178.313)" fill="#4a555f"/>
      </g>
      <g id="Grupo_14648" data-name="Grupo 14648" transform="translate(9.772 49.896)">
        <rect id="Rectángulo_5863" data-name="Rectángulo 5863" width="1.107" height="12.044" fill="#4a555f"/>
      </g>
      <g id="Grupo_14649" data-name="Grupo 14649" transform="translate(6.169 57.615)">
        <path id="Trazado_49233" data-name="Trazado 49233" d="M28.619,183.475h0a.553.553,0,0,1-.415-.187l-3.742-4.243.83-.732,3.327,3.773,3.337-3.773.829.733-3.752,4.243A.554.554,0,0,1,28.619,183.475Z" transform="translate(-24.462 -178.313)" fill="#4a555f"/>
      </g>
      <g id="Grupo_14650" data-name="Grupo 14650" transform="translate(5.569 0)">
        <path id="Trazado_49234" data-name="Trazado 49234" d="M87.566,38.874H23.242a.554.554,0,0,1-.553-.553V22.908a.553.553,0,0,1,.553-.553H38.161a2.971,2.971,0,0,0,2.908-2.431,14.816,14.816,0,0,1,29.022,0A2.972,2.972,0,0,0,73,22.355H87.566a.553.553,0,0,1,.553.553V38.321A.554.554,0,0,1,87.566,38.874ZM23.8,37.767H87.013V23.461H73a4.119,4.119,0,0,1-3.992-3.316,13.709,13.709,0,0,0-26.854,0,4.119,4.119,0,0,1-3.992,3.316H23.8Z" transform="translate(-22.689 -8.096)" fill="#4a555f"/>
      </g>
      <g id="Grupo_14651" data-name="Grupo 14651" transform="translate(0 11.924)">
        <path id="Trazado_49235" data-name="Trazado 49235" d="M6.237,43.323" transform="translate(-6.237 -43.323)" fill="#f58e6f"/>
      </g>
    </g>
    <g id="Grupo_14654" data-name="Grupo 14654" transform="translate(34.551 12.118)">
      <g id="Grupo_14653" data-name="Grupo 14653">
        <path id="Trazado_49236" data-name="Trazado 49236" d="M99.738,19.98a9.851,9.851,0,1,0,9.851,9.851A9.851,9.851,0,0,0,99.738,19.98Z" transform="translate(-89.887 -19.98)" fill="#f58e6f"/>
      </g>
      <g id="Trazado_8184" data-name="Trazado 8184" transform="translate(4.816 3.976)">
        <path id="Trazado_2" data-name="Trazado 2" d="M104.116,38.435c0-.514,0-1.357,0-1.872s0-1.9.012-1.929.8-.5,1.689-1.015,3.272-1.884,3.3-1.893.836.441,1.732.959,3.274,1.895,3.292,1.911.028.924.028,1.965,0,3.8-.006,3.817-.648.4-1.391.832-2.835,1.638-3,1.733-.608.344-.621.347-.317-.162-.647-.352l-2.233-1.289c-.569-.329-2.092-1.214-2.118-1.238S104.116,38.95,104.116,38.435Zm8.516,1.671-.02-.012-.41-.237c-.2-.118-.762-.437-.784-.444a7.365,7.365,0,0,0-.774.415c-.385.222-1.429.821-1.469.834a13.565,13.565,0,0,1-1.4-.757c-.7-.4-2.551-1.473-2.567-1.482s-.064-.024-.066-.01v.46c0,.5,0,.912.007.925s.618.376,1.333.788S109.1,42.1,109.123,42.1s.592-.308,1.211-.667l2.266-1.31.03-.02Zm.511-3.491,0-.027v-.457c0-.494,0-.911-.008-.927s-.626-.379-1.345-.794-2.625-1.513-2.64-1.517-.561.3-1.185.665l-2.284,1.32c-.006,0-.019.024-.008.031l.418.243c.21.121.773.443.786.447s.365-.194.757-.42,1.449-.834,1.48-.844.686.352,1.4.763l2.6,1.5.036.018Zm-2.764,2.19L108.633,37.8c-.96-.554-3.494-2-3.494-1.987v.467c0,.239,0,.887.007.907s.628.39,1.345.8,2.619,1.509,2.637,1.514a2.119,2.119,0,0,0,.363-.184l.7-.4.192-.111Zm2.761.416,0-.016c0-.008,0-.232,0-.478s0-.905-.006-.919-.617-.373-1.335-.788-2.627-1.512-2.647-1.518a2.884,2.884,0,0,0-.447.231l-.775.449c-.007.005.758.472,1.716,1.025l3.488,2.013Z" transform="translate(-104.115 -31.726)" fill="#fff" fill-rule="evenodd"/>
      </g>
      <g id="Trazado_8183" data-name="Trazado 8183" transform="translate(3.964 3.037)">
        <path id="Trazado_1" data-name="Trazado 1" d="M107.418,28.953c.014,0,.29.153.614.339l2.492,1.438c.723.418,2.648,1.535,2.669,1.554s.034,1.075.033,2.282,0,4.411-.011,4.439-.65.414-1.373.83l-3.2,1.845c-.314.181-1.168.668-1.2.678a6.646,6.646,0,0,1-.886-.466l-2.666-1.539c-.613-.354-2.246-1.3-2.265-1.319s-.03-1.064-.03-2.268,0-4.4.012-4.436a1.445,1.445,0,0,1,.34-.238c.15-.086,1.458-.84,2.573-1.484l.367-.212,2.185-1.261C107.163,29.086,107.4,28.953,107.418,28.953Zm5.4,6.713V34.643c0-.563,0-2.059,0-2.076s-.825-.5-1.795-1.063-3.551-2.045-3.58-2.054-.89.474-1.858,1.034-3.533,2.043-3.546,2.055a5.508,5.508,0,0,0-.02.658v3.187c0,1.287,0,2.354,0,2.373s.584.366,1.254.753l2.991,1.727c.3.175,1.119.643,1.137.649a1.656,1.656,0,0,0,.325-.161l2.028-1.171c.828-.478,3.024-1.749,3.04-1.763s.024-.523.024-1.084,0-2.039,0-2.039Z" transform="translate(-101.598 -28.953)" fill="#fff" fill-rule="evenodd"/>
      </g>
    </g>
  </g>
</svg>
