<svg xmlns="http://www.w3.org/2000/svg" width="290.674" height="204.714" viewBox="0 0 290.674 204.714">
  <rect id="Rectángulo_5839" data-name="Rectángulo 5839" width="275" height="183" rx="17" transform="translate(9.674 21.714)" fill="#bfd4e2"/>
  <g id="Rectángulo_5838" data-name="Rectángulo 5838" transform="translate(15.674 14.714)" fill="none" stroke="#8f8f91" stroke-width="3" opacity="0.63">
    <rect width="275" height="184" rx="17" stroke="none"/>
    <rect x="1.5" y="1.5" width="272" height="181" rx="15.5" fill="none"/>
  </g>
  <g id="Grupo_14572" data-name="Grupo 14572" transform="translate(-8.939 3.509) rotate(-8)">
    <circle id="Elipse_166" data-name="Elipse 166" cx="29.983" cy="29.983" r="29.983" transform="translate(13.906 13.748)" fill="#fff"/>
    <g id="Grupo_14570" data-name="Grupo 14570" transform="translate(6.623 6.383)">
      <g id="Grupo_14543" data-name="Grupo 14543" transform="translate(6.611 6.639)">
        <path id="Trazado_49151" data-name="Trazado 49151" d="M56.766,87.348A30.739,30.739,0,1,1,87.5,56.609,30.531,30.531,0,0,1,56.766,87.348Zm0-60.591A29.852,29.852,0,1,0,86.618,56.609,29.886,29.886,0,0,0,56.766,26.757Z" transform="translate(-26.027 -25.87)" fill="#4a555f"/>
      </g>
      <g id="Grupo_14544" data-name="Grupo 14544" transform="translate(58.44 12.593)">
        <rect id="Rectángulo_5850" data-name="Rectángulo 5850" width="4.316" height="0.887" transform="translate(0 3.052) rotate(-45)" fill="#4a555f"/>
      </g>
      <g id="Grupo_14545" data-name="Grupo 14545" transform="translate(60.918 9.869)">
        <path id="Trazado_49152" data-name="Trazado 49152" d="M187.381,39.274a1.962,1.962,0,1,1,1.388-.574A1.955,1.955,0,0,1,187.381,39.274Zm0-3.038a1.076,1.076,0,1,0,.761.314A1.073,1.073,0,0,0,187.381,36.236Z" transform="translate(-185.419 -35.35)" fill="#4a555f"/>
      </g>
      <g id="Grupo_14546" data-name="Grupo 14546" transform="translate(70.813 10.723)">
        <path id="Trazado_49153" data-name="Trazado 49153" d="M216.424,41.78a1.962,1.962,0,1,1,1.388-.574A1.958,1.958,0,0,1,216.424,41.78Zm0-3.038a1.076,1.076,0,1,0,.761.315A1.073,1.073,0,0,0,216.424,38.742Z" transform="translate(-214.462 -37.856)" fill="#4a555f"/>
      </g>
      <g id="Grupo_14547" data-name="Grupo 14547" transform="translate(61.838 13.447)">
        <path id="Trazado_49154" data-name="Trazado 49154" d="M188.746,52.618l-.627-.627,4.7-4.7a.442.442,0,0,1,.386-.124l2.7.449,1.766-1.766.627.627L196.368,48.4a.44.44,0,0,1-.386.124l-2.7-.449Z" transform="translate(-188.119 -45.849)" fill="#4a555f"/>
      </g>
      <g id="Grupo_14548" data-name="Grupo 14548" transform="translate(60.091 0.001)">
        <path id="Trazado_49155" data-name="Trazado 49155" d="M184.955,10.311a1.962,1.962,0,1,1,1.388-.574A1.957,1.957,0,0,1,184.955,10.311Zm0-3.038a1.076,1.076,0,1,0,.761.315A1.073,1.073,0,0,0,184.955,7.272Z" transform="translate(-182.993 -6.386)" fill="#4a555f"/>
      </g>
      <g id="Grupo_14549" data-name="Grupo 14549" transform="translate(54.523 2.724)">
        <path id="Trazado_49156" data-name="Trazado 49156" d="M167.277,24.556l-.627-.627,4.54-4.54-.449-2.7a.442.442,0,0,1,.124-.386l1.927-1.927.627.627-1.766,1.766.449,2.7a.442.442,0,0,1-.124.386Z" transform="translate(-166.65 -14.379)" fill="#4a555f"/>
      </g>
      <g id="Grupo_14550" data-name="Grupo 14550" transform="translate(12.619 58.496)">
        <rect id="Rectángulo_5851" data-name="Rectángulo 5851" width="4.276" height="0.887" transform="translate(0 3.024) rotate(-45)" fill="#4a555f"/>
      </g>
      <g id="Grupo_14551" data-name="Grupo 14551" transform="translate(9.895 60.945)">
        <path id="Trazado_49157" data-name="Trazado 49157" d="M37.628,189.185a1.963,1.963,0,0,1-1.388-3.351h0a1.963,1.963,0,1,1,1.388,3.351Zm0-3.038a1.073,1.073,0,0,0-.761.315h0a1.077,1.077,0,1,0,.761-.315Z" transform="translate(-35.664 -185.259)" fill="#4a555f"/>
      </g>
      <g id="Grupo_14552" data-name="Grupo 14552" transform="translate(0 60.092)">
        <path id="Trazado_49158" data-name="Trazado 49158" d="M8.586,186.679a1.962,1.962,0,1,1,1.388-.574A1.955,1.955,0,0,1,8.586,186.679Zm0-3.038a1.076,1.076,0,1,0,.761.314A1.073,1.073,0,0,0,8.586,183.641Z" transform="translate(-6.623 -182.754)" fill="#4a555f"/>
      </g>
      <g id="Grupo_14553" data-name="Grupo 14553" transform="translate(2.724 54.524)">
        <path id="Trazado_49159" data-name="Trazado 49159" d="M15.244,173.181l-.627-.627,1.927-1.927a.446.446,0,0,1,.386-.124l2.7.449,4.54-4.54.627.627-4.7,4.7a.444.444,0,0,1-.386.124l-2.7-.449Z" transform="translate(-14.617 -166.412)" fill="#4a555f"/>
      </g>
      <g id="Grupo_14554" data-name="Grupo 14554" transform="translate(10.722 70.814)">
        <path id="Trazado_49160" data-name="Trazado 49160" d="M40.056,218.149a1.962,1.962,0,1,1,1.388-.574A1.958,1.958,0,0,1,40.056,218.149Zm0-3.038a1.076,1.076,0,1,0,.761.315A1.072,1.072,0,0,0,40.056,215.111Z" transform="translate(-38.093 -214.225)" fill="#4a555f"/>
      </g>
      <g id="Grupo_14555" data-name="Grupo 14555" transform="translate(13.446 61.839)">
        <path id="Trazado_49161" data-name="Trazado 49161" d="M46.714,198.058l-.627-.627,1.766-1.766-.449-2.7a.443.443,0,0,1,.124-.386l4.7-4.7.627.627-4.541,4.54.449,2.7a.443.443,0,0,1-.124.386Z" transform="translate(-46.087 -187.882)" fill="#4a555f"/>
      </g>
      <g id="Grupo_14556" data-name="Grupo 14556" transform="translate(60.945 60.919)">
        <path id="Trazado_49162" data-name="Trazado 49162" d="M187.46,189.106a1.962,1.962,0,1,1,1.388-.574A1.958,1.958,0,0,1,187.46,189.106Zm0-3.038a1.076,1.076,0,1,0,.761.315A1.073,1.073,0,0,0,187.46,186.068Z" transform="translate(-185.498 -185.181)" fill="#4a555f"/>
      </g>
      <g id="Grupo_14557" data-name="Grupo 14557" transform="translate(60.091 70.815)">
        <path id="Trazado_49163" data-name="Trazado 49163" d="M184.955,218.151a1.958,1.958,0,0,1-1.388-.574h0a1.966,1.966,0,1,1,1.388.574Zm-.762-1.2a1.077,1.077,0,1,0,0-1.522,1.078,1.078,0,0,0,0,1.522Z" transform="translate(-182.992 -214.226)" fill="#4a555f"/>
      </g>
      <g id="Grupo_14558" data-name="Grupo 14558" transform="translate(54.523 61.839)">
        <path id="Trazado_49164" data-name="Trazado 49164" d="M172.792,198.059l-1.927-1.927a.442.442,0,0,1-.124-.386l.449-2.7-4.54-4.541.627-.627,4.7,4.7a.443.443,0,0,1,.124.386l-.449,2.7,1.766,1.766Z" transform="translate(-166.65 -187.882)" fill="#4a555f"/>
      </g>
      <g id="Grupo_14559" data-name="Grupo 14559" transform="translate(70.813 60.092)">
        <path id="Trazado_49165" data-name="Trazado 49165" d="M216.425,186.679a1.962,1.962,0,1,1,1.388-.574A1.957,1.957,0,0,1,216.425,186.679Zm0-3.038a1.076,1.076,0,1,0,.761.314A1.073,1.073,0,0,0,216.425,183.641Z" transform="translate(-214.462 -182.755)" fill="#4a555f"/>
      </g>
      <g id="Grupo_14560" data-name="Grupo 14560" transform="translate(61.806 54.492)">
        <path id="Trazado_49166" data-name="Trazado 49166" d="M197.606,173.119l-1.766-1.766-2.7.449a.445.445,0,0,1-.386-.124l-4.734-4.734.627-.627,4.573,4.573,2.7-.449a.441.441,0,0,1,.386.124l1.927,1.927Z" transform="translate(-188.025 -166.318)" fill="#4a555f"/>
      </g>
      <g id="Grupo_14561" data-name="Grupo 14561" transform="translate(12.592 12.62)">
        <rect id="Rectángulo_5852" data-name="Rectángulo 5852" width="0.887" height="4.702" transform="matrix(0.707, -0.707, 0.707, 0.707, 0, 0.627)" fill="#4a555f"/>
      </g>
      <g id="Grupo_14562" data-name="Grupo 14562" transform="translate(9.869 9.897)">
        <path id="Trazado_49167" data-name="Trazado 49167" d="M37.55,39.354a1.962,1.962,0,1,1,1.388-.574A1.957,1.957,0,0,1,37.55,39.354Zm0-3.038a1.076,1.076,0,1,0,.761.315A1.073,1.073,0,0,0,37.55,36.316Z" transform="translate(-35.588 -35.43)" fill="#4a555f"/>
      </g>
      <g id="Grupo_14563" data-name="Grupo 14563" transform="translate(10.721 0)">
        <path id="Trazado_49168" data-name="Trazado 49168" d="M40.054,10.309a1.962,1.962,0,1,1,1.388-.574A1.958,1.958,0,0,1,40.054,10.309Zm0-3.039a1.077,1.077,0,1,0,.761.315h0A1.069,1.069,0,0,0,40.054,7.27Z" transform="translate(-38.09 -6.383)" fill="#4a555f"/>
      </g>
      <g id="Grupo_14564" data-name="Grupo 14564" transform="translate(13.446 2.724)">
        <path id="Trazado_49169" data-name="Trazado 49169" d="M52.229,24.556l-4.7-4.7a.442.442,0,0,1-.124-.386l.449-2.7-1.766-1.766.627-.627,1.927,1.927a.442.442,0,0,1,.124.386l-.449,2.7,4.54,4.54Z" transform="translate(-46.087 -14.379)" fill="#4a555f"/>
      </g>
      <g id="Grupo_14565" data-name="Grupo 14565" transform="translate(0 10.723)">
        <path id="Trazado_49170" data-name="Trazado 49170" d="M8.586,41.781a1.962,1.962,0,1,1,1.388-.574A1.956,1.956,0,0,1,8.586,41.781Zm0-3.038a1.076,1.076,0,1,0,.761.315A1.073,1.073,0,0,0,8.585,38.743Z" transform="translate(-6.623 -37.856)" fill="#4a555f"/>
      </g>
      <g id="Grupo_14566" data-name="Grupo 14566" transform="translate(2.724 13.447)">
        <path id="Trazado_49171" data-name="Trazado 49171" d="M24.166,52.619l-4.54-4.541-2.7.449a.445.445,0,0,1-.386-.124l-1.927-1.927.627-.627,1.766,1.766,2.7-.449a.439.439,0,0,1,.386.124l4.7,4.7Z" transform="translate(-14.617 -45.85)" fill="#4a555f"/>
      </g>
      <g id="Grupo_14567" data-name="Grupo 14567" transform="translate(9.749 9.776)">
        <path id="Trazado_49172" data-name="Trazado 49172" d="M62.838,35.077a27.6,27.6,0,1,0,27.6,27.6A27.6,27.6,0,0,0,62.838,35.077Z" transform="translate(-35.237 -35.077)" fill="#71cce0"/>
      </g>
      <g id="Grupo_14568" data-name="Grupo 14568" transform="translate(11.806 11.838)">
        <path id="Trazado_49173" data-name="Trazado 49173" d="M66.819,92.211q-.238,0-.474,0l.017-.887c.29.005.582.006.871,0l.015.887Q67.034,92.211,66.819,92.211Zm1.33-.034-.047-.886q.437-.023.869-.06l.077.883Q68.6,92.155,68.149,92.178Zm-2.705,0q-.452-.024-.9-.064l.078-.883q.432.038.869.061Zm4.5-.153-.108-.88q.433-.053.863-.121l.138.876Q70.4,91.966,69.946,92.022Zm-6.3-.005q-.449-.056-.894-.127l.141-.876q.428.07.862.123Zm8.081-.276-.169-.871q.429-.083.851-.182l.2.864Q72.172,91.654,71.728,91.74Zm-9.862-.009q-.445-.087-.883-.19l.2-.863q.423.1.851.183Zm11.62-.4-.231-.856q.422-.113.837-.242l.262.848Q73.922,91.214,73.486,91.332ZM60.108,91.32q-.436-.119-.866-.252l.263-.847q.415.129.836.244Zm15.1-.52-.292-.838q.412-.144.817-.3l.321.827Q75.637,90.652,75.21,90.8Zm-16.828-.016q-.428-.15-.848-.314l.323-.826q.406.159.819.3Zm18.507-.636-.351-.815q.4-.172.792-.357l.378.8Q77.3,89.971,76.89,90.149ZM56.7,90.127q-.416-.179-.824-.373l.38-.8q.394.187.8.36Zm21.82-.746-.406-.789q.386-.2.765-.412l.434.773Q78.917,89.174,78.517,89.381Zm-23.453-.029q-.4-.208-.795-.431l.436-.772q.38.214.767.416ZM80.088,88.5l-.461-.758q.371-.226.734-.465l.488.741Q80.473,88.264,80.088,88.5Zm-26.6-.036q-.386-.237-.762-.486l.49-.739q.363.241.735.468Zm28.1-.955-.513-.723q.355-.252.7-.517l.539.7Q81.96,87.247,81.592,87.508Zm-29.608-.043q-.367-.263-.725-.538l.541-.7q.345.266.7.519Zm31.04-1.051-.563-.686q.336-.276.663-.564l.587.665Q83.373,86.127,83.024,86.413Zm-32.47-.049q-.348-.288-.686-.587l.589-.663q.326.289.662.567Zm33.822-1.144-.61-.644q.317-.3.622-.61l.632.622Q84.7,84.91,84.376,85.221ZM49.2,85.166q-.326-.311-.642-.633l.633-.62q.306.312.621.612Zm36.437-1.231-.653-.6q.295-.321.578-.652l.674.577Q85.947,83.6,85.642,83.935Zm-37.7-.058q-.3-.333-.6-.677l.675-.575q.283.332.576.654Zm38.872-1.314-.694-.552q.271-.341.531-.692l.713.527Q87.1,82.21,86.815,82.563ZM46.775,82.5q-.28-.354-.547-.717l.715-.525q.258.351.528.692Zm41.114-1.391-.731-.5q.247-.359.481-.727l.748.476Q88.145,80.74,87.889,81.112Zm-42.182-.061q-.254-.372-.495-.753l.749-.474q.233.368.478.727Zm43.151-1.463-.765-.45q.221-.376.429-.759l.78.421Q89.087,79.2,88.858,79.588Zm-44.113-.059q-.227-.389-.441-.786l.781-.419q.206.383.425.758ZM89.717,78l-.795-.394q.194-.39.374-.789l.808.366Q89.918,77.593,89.717,78Zm-45.825-.056q-.2-.4-.383-.815l.809-.363q.178.4.37.786ZM90.463,76.35l-.82-.337q.165-.4.316-.814l.832.307Q90.634,75.932,90.463,76.35ZM43.154,76.3q-.17-.418-.326-.842l.833-.3q.149.409.314.812Zm47.935-1.649-.843-.277q.135-.413.258-.832l.851.247Q91.23,74.225,91.089,74.652Zm-48.556-.045q-.14-.428-.265-.863l.852-.245q.121.42.256.833ZM91.591,72.92l-.86-.217q.106-.421.2-.848l.867.186Q91.7,72.483,91.591,72.92Zm-49.557-.047q-.109-.436-.2-.878l.867-.185q.091.427.2.849Zm49.934-1.718L91.1,71q.076-.428.137-.86l.878.124Q92.047,70.713,91.969,71.156ZM41.66,71.108q-.078-.443-.14-.891l.878-.122q.061.433.136.86Zm50.561-1.739-.882-.093q.046-.431.076-.867l.884.061Q92.268,68.922,92.221,69.369Zm-50.81-.048q-.046-.447-.077-.9l.884-.061q.03.436.075.868ZM92.346,67.57l-.886-.031c.01-.289.015-.58.015-.871h.887Q92.362,67.121,92.346,67.57ZM41.29,67.522q-.014-.425-.015-.854v-.047h.887v.047q0,.414.014.825Zm50.174-1.633q-.014-.437-.042-.871l.885-.058q.029.449.044.9Zm-49.285-.139-.886-.033q.017-.452.049-.9l.885.063Q42.195,65.313,42.179,65.751Zm49.17-1.6q-.044-.434-.1-.865l.879-.121q.061.445.107.9ZM42.3,64.013l-.882-.094q.048-.45.112-.9l.878.126Q42.349,63.579,42.3,64.013Zm48.809-1.587q-.075-.43-.164-.856l.868-.182q.092.441.17.886ZM42.55,62.289l-.873-.156q.08-.445.175-.885l.867.186Q42.627,61.86,42.55,62.289Zm48.2-1.568q-.1-.423-.224-.841l.853-.244q.124.433.232.873Zm-47.836-.134-.86-.217q.111-.439.238-.872l.851.25Q43.024,60.164,42.918,60.587Zm47.358-1.54q-.135-.415-.284-.823l.833-.3q.154.423.294.853Zm-46.87-.132-.842-.278q.143-.431.3-.855l.831.309Q43.542,58.5,43.405,58.916Zm46.274-1.5q-.164-.4-.34-.8l.81-.362q.184.41.353.828Zm-45.667-.132-.82-.338q.173-.419.36-.83l.807.367Q44.179,56.875,44.012,57.279ZM88.97,55.826q-.192-.39-.4-.773l.783-.418q.212.4.41.8ZM44.735,55.69l-.794-.4q.2-.4.417-.8l.779.423Q44.93,55.3,44.735,55.69Zm43.416-1.4q-.219-.377-.45-.744l.751-.472q.24.381.467.771Zm-42.583-.138-.764-.45q.229-.39.473-.771l.747.478Q45.789,53.781,45.567,54.157Zm41.656-1.335q-.244-.36-.5-.711l.715-.524q.267.363.52.736Zm-40.717-.135-.73-.5q.257-.372.526-.734l.712.529Q46.753,52.328,46.506,52.687ZM86.2,51.419q-.27-.342-.551-.675l.677-.573q.291.344.57.7Zm-38.651-.13-.692-.554q.282-.353.576-.7l.673.578Q47.817,50.948,47.545,51.289Zm37.526-1.2q-.293-.323-.6-.634l.635-.619q.315.323.618.657ZM48.68,49.966l-.652-.6q.306-.332.622-.652l.631.623Q48.975,49.646,48.68,49.966Zm35.175-1.123q-.315-.3-.64-.591l.589-.662q.337.3.664.612ZM49.9,48.727l-.609-.645q.328-.31.667-.607l.586.666Q50.221,48.428,49.9,48.727Zm32.649-1.043q-.335-.279-.68-.544l.542-.7q.357.276.7.565Zm-31.341-.107-.562-.686q.349-.286.708-.559l.537.706Q51.549,47.3,51.212,47.578Zm29.963-.959q-.355-.253-.718-.5l.491-.738q.376.25.743.513Zm-28.578-.1-.512-.724q.367-.26.745-.507l.486.742Q52.951,46.273,52.6,46.524Zm27.126-.87q-.371-.229-.751-.444l.438-.771q.394.223.778.46Zm-25.672-.083-.46-.759q.384-.233.778-.453l.432.774Q54.422,45.345,54.051,45.571Zm24.155-.778q-.387-.2-.781-.39l.382-.8q.409.195.81.4Zm-22.638-.071-.405-.789q.4-.206.808-.4l.377.8Q55.954,44.524,55.568,44.722Zm21.063-.681q-.4-.174-.807-.334l.324-.826q.422.166.836.345ZM57.14,43.983l-.348-.816q.412-.176.832-.338l.321.827Q57.539,43.813,57.14,43.983Zm17.867-.58q-.412-.145-.83-.275l.264-.846q.432.135.859.285Zm-16.244-.046-.29-.838q.426-.147.858-.279l.259.848Q59.173,43.215,58.762,43.357Zm14.578-.474q-.419-.114-.844-.215l.2-.863q.44.1.875.223Zm-12.914-.035-.229-.857q.435-.116.876-.218l.2.864Q60.847,42.736,60.427,42.848Zm11.219-.364q-.426-.085-.857-.155l.141-.875q.447.073.888.16Zm-9.522-.027-.168-.871q.442-.085.889-.155l.137.876C62.695,42.353,62.408,42.4,62.124,42.457Zm7.8-.252q-.43-.055-.866-.094l.08-.883q.451.04.9.1Zm-6.082-.017-.106-.881q.446-.054.9-.092l.075.883Q64.276,42.137,63.845,42.189Zm4.348-.14q-.434-.024-.871-.033l.018-.887q.453.01.9.034Zm-2.613-.007-.044-.886q.449-.022.9-.029l.013.887Q66.013,42.021,65.58,42.042Z" transform="translate(-41.275 -41.127)" fill="#4a555f"/>
      </g>
      <g id="Grupo_14569" data-name="Grupo 14569" transform="translate(58.476 58.45)">
        <rect id="Rectángulo_5853" data-name="Rectángulo 5853" width="0.887" height="4.304" transform="matrix(0.707, -0.707, 0.707, 0.707, 0, 0.627)" fill="#4a555f"/>
      </g>
    </g>
    <g id="Grupo_14571" data-name="Grupo 14571" transform="translate(27.498 24.907)">
      <g id="Grupo_4" data-name="Grupo 4" transform="translate(0)">
        <g id="Grupo_3" data-name="Grupo 3">
          <g id="Trazado_8183" data-name="Trazado 8183">
            <path id="Trazado_1" data-name="Trazado 1" d="M84.2,60.751c.04,0,.813.427,1.72.95s4.955,2.857,6.981,4.027,7.42,4.3,7.479,4.355.094,3.013.093,6.394-.013,12.36-.031,12.439-1.822,1.159-3.846,2.326-8.075,4.662-8.955,5.17-3.273,1.872-3.365,1.9a18.5,18.5,0,0,1-2.483-1.306c-1.194-.691-5.751-3.321-7.47-4.312s-6.3-3.647-6.348-3.7-.085-2.981-.083-6.354.013-12.341.034-12.428a4.072,4.072,0,0,1,.954-.668c.421-.241,4.086-2.354,7.208-4.157l1.028-.594,6.122-3.534C83.484,61.122,84.162,60.751,84.2,60.751ZM99.336,79.559V76.692c0-1.577-.005-5.769-.012-5.816s-2.311-1.409-5.029-2.978-9.95-5.731-10.031-5.755-2.492,1.328-5.205,2.9-9.9,5.724-9.935,5.757a15.3,15.3,0,0,0-.057,1.845v8.93c0,3.605.006,6.6.014,6.648s1.634,1.025,3.514,2.11,7.529,4.346,8.38,4.837,3.134,1.8,3.187,1.819a4.675,4.675,0,0,0,.909-.453c.4-.233,3.362-1.943,5.683-3.282s8.474-4.9,8.517-4.94.068-1.466.066-3.037,0-5.714,0-5.714Z" transform="translate(-67.893 -60.751)" fill="#fff" fill-rule="evenodd"/>
          </g>
          <g id="Trazado_8184" data-name="Trazado 8184" transform="translate(2.366 2.391)">
            <path id="Trazado_2" data-name="Trazado 2" d="M74.84,86.57c0-1.441,0-3.8,0-5.245s.013-5.32.032-5.405,2.229-1.4,4.731-2.845,9.168-5.278,9.253-5.3,2.342,1.236,4.852,2.687,9.173,5.309,9.222,5.355.079,2.59.078,5.5-.006,10.64-.017,10.7-1.815,1.132-3.9,2.332-7.944,4.589-8.4,4.855-1.7.965-1.741.972-.889-.455-1.812-.986-4.66-2.689-6.256-3.61-5.861-3.4-5.933-3.467S74.84,88.012,74.84,86.57ZM98.7,91.25l-.057-.034-1.148-.664c-.573-.332-2.135-1.225-2.2-1.243a20.621,20.621,0,0,0-2.17,1.162c-1.078.622-4,2.3-4.116,2.337a37.855,37.855,0,0,1-3.928-2.12c-1.954-1.132-7.146-4.126-7.191-4.151s-.18-.067-.184-.027V87.8c0,1.389.007,2.555.02,2.591s1.731,1.053,3.734,2.208,7.339,4.227,7.409,4.248,1.658-.864,3.394-1.868,6.33-3.659,6.35-3.672l.084-.056Zm1.432-9.781s0-.034.008-.074v-1.28c0-1.384-.009-2.553-.023-2.6s-1.753-1.063-3.767-2.226-7.356-4.238-7.4-4.25-1.572.854-3.322,1.865-6.379,3.686-6.4,3.7-.054.068-.024.088.584.34,1.171.68,2.165,1.242,2.2,1.252,1.022-.544,2.12-1.178,4.059-2.336,4.147-2.364,1.923.986,3.911,2.137,7.251,4.188,7.273,4.2l.1.051ZM92.386,87.6,87.5,84.783c-2.689-1.552-9.791-5.614-9.791-5.566v1.309c0,.671.008,2.485.02,2.541s1.759,1.092,3.767,2.251,7.339,4.227,7.389,4.242a5.95,5.95,0,0,0,1.016-.517l1.95-1.127.536-.312Zm7.736,1.167.006-.043c0-.024.009-.65.009-1.338s-.005-2.537-.015-2.574-1.73-1.046-3.741-2.207-7.359-4.237-7.414-4.254A8.145,8.145,0,0,0,87.714,79c-.587.339-2.151,1.243-2.171,1.257s2.124,1.321,4.808,2.871l9.772,5.641Z" transform="translate(-74.838 -67.77)" fill="#fff" fill-rule="evenodd"/>
          </g>
        </g>
      </g>
    </g>
  </g>
</svg>
