<svg xmlns="http://www.w3.org/2000/svg" xmlns:xlink="http://www.w3.org/1999/xlink" width="221" height="216" viewBox="0 0 221 216">
  <defs>
    <linearGradient id="linear-gradient" x1="0.5" x2="0.5" y2="1" gradientUnits="objectBoundingBox">
      <stop offset="0" stop-color="#05002a"/>
      <stop offset="1" stop-color="#025889"/>
    </linearGradient>
  </defs>
  <g id="Grupo_14360" data-name="Grupo 14360" transform="translate(-855 -3126)">
    <g id="Elipse_139" data-name="Elipse 139" transform="translate(855 3126)" stroke="#025889" stroke-width="1" fill="url(#linear-gradient)">
      <ellipse cx="110.5" cy="108" rx="110.5" ry="108" stroke="none"/>
      <ellipse cx="110.5" cy="108" rx="110" ry="107.5" fill="none"/>
    </g>
    <g id="Grupo_4330" data-name="Grupo 4330" transform="translate(905 3155)">
      <path id="Trazado_9592" data-name="Trazado 9592" d="M-7176.318-1220.119a56.6,56.6,0,0,1-2.242,6.685,12.8,12.8,0,0,0-.182,11.328c3.743,8.516,2.35,13.542-5.095,18.908-3.769,2.714-5.257,6.389-5.651,10.8-.63,7.042-4.573,11.454-11.682,12.178a16.339,16.339,0,0,0-12.593,7.271c-3.97,5.59-9.79,7.064-16.043,4.194a15.766,15.766,0,0,0-14.149-.034c-6.443,2.972-12.354,1.44-16.353-4.353a15.292,15.292,0,0,0-12.23-7.016c-7.165-.612-11.251-5.115-11.91-12.452a14.139,14.139,0,0,0-6.481-11.193c-6.312-4.313-7.824-10.223-4.579-17.3a14.606,14.606,0,0,0-.048-12.945c-3.2-7.052-1.605-13.012,4.687-17.281a13.819,13.819,0,0,0,6.41-10.786c.767-8.014,4.458-12.049,12.366-12.91a14.945,14.945,0,0,0,11.517-6.7c4.3-6.146,10.21-7.651,17.052-4.462a14.677,14.677,0,0,0,12.952.1c7.267-3.192,12.932-1.734,17.391,4.548a14.1,14.1,0,0,0,10.762,6.4c8.5.893,12.139,4.854,12.989,13.257a13.17,13.17,0,0,0,5.944,10.16C-7178.561-1228.363-7176.839-1225.145-7176.318-1220.119Zm-60.825,55.969c24.108.046,43.816-19.385,43.839-43.225.021-23.567-19.523-43.6-42.6-43.662-24.99-.066-44.846,19.361-44.677,43.71A43.583,43.583,0,0,0-7237.144-1164.15Z" transform="translate(7297.167 1267.811)" fill="#fad000"/>
      <path id="Trazado_9593" data-name="Trazado 9593" d="M-7213.928-1078.727c-2.562-7.98-5.6-15.852-7.434-24-.636-2.847,1.673-6.365,2.663-9.568.785-2.539,1.612-5.067,2.138-6.7,5.208-1.507,10.247-2.067,14.278-4.383,4-2.3,6.967-6.362,11.178-10.412,4.921,15.256,9.441,29.275,14.373,44.577a48.532,48.532,0,0,1-5.9-1.758c-4.829-2.278-9.7-4.506-14.338-7.135-2.732-1.548-4-.769-5.245,1.685-2.472,4.89-5.039,9.734-7.663,14.543a29.437,29.437,0,0,1-2.611,3.477Z" transform="translate(7285.423 1235.158)" fill="#fad000"/>
      <path id="Trazado_9594" data-name="Trazado 9594" d="M-7244.736-1081.871a53.6,53.6,0,0,1-3.46-4.722c-2.434-4.435-4.976-8.83-7.053-13.433-1.626-3.607-3.326-4.5-6.962-2.337-4.338,2.583-9.029,4.573-13.595,6.766-1.218.585-2.535.973-3.8,1.452l-1.331-.732c3.94-12.4,7.883-24.809,12.133-38.183,1.825,1.194,3.5,1.828,4.514,3.023,8.954,10.579,14.431,12.074,27.168,7.41,1.544-.565,3.365-.377,5.939-.622C-7235.777-1109.221-7240.056-1096.153-7244.736-1081.871Z" transform="translate(7294.65 1235.312)" fill="#fad000"/>
      <path id="Trazado_9595" data-name="Trazado 9595" d="M-7177.518-1028.325c-.111-.061-.228-.123-.342-.184a3.124,3.124,0,0,1,.59-.245c.1-.019.223.107.336.168Z" transform="translate(7278.658 1215.325)" fill="#fad000"/>
      <path id="Trazado_9596" data-name="Trazado 9596" d="M-7238.455-1196.517c7.369-7.406,13.815-13.88,20.255-20.364,5.526-5.563,10.063-6.456,13.769-2.691,3.541,3.6,2.6,8.015-2.773,13.355-7.886,7.841-15.715,15.741-23.627,23.552-5.19,5.119-9.317,5.032-14.48-.123-3.885-3.878-7.795-7.731-11.646-11.647-3.733-3.805-4.1-8.388-1.011-11.6,3.109-3.231,7.845-3.06,11.6.686C-7243.7-1202.674-7241.3-1199.719-7238.455-1196.517Z" transform="translate(7291.408 1256.93)" fill="#fad000"/>
    </g>
  </g>
</svg>
