<svg xmlns="http://www.w3.org/2000/svg" width="33.653" height="32.338" viewBox="0 0 33.653 32.338">
  <g id="Grupo_3259" data-name="Grupo 3259" transform="translate(0 0)">
    <path id="Trazado_8168" data-name="Trazado 8168" d="M1245.794,56.962c-.079-.1-.142-.187-.208-.271a5.337,5.337,0,0,1-.682-1.065,3.3,3.3,0,0,1-.08-2.75c.042-.105.082-.213.135-.343-.091,0-.159,0-.224,0a10.1,10.1,0,0,1-1.782.035,6.624,6.624,0,0,1-6.145-5.255,6.694,6.694,0,0,1,.411-4.056,7.8,7.8,0,0,1,3.638-3.96,12.585,12.585,0,0,1,3.5-1.224,15.957,15.957,0,0,1,3.128-.292q3.9,0,7.794,0h.262l.014.044a.737.737,0,0,1-.1.089c-.83.523-1.659,1.042-2.486,1.565a.488.488,0,0,1-.273.065h-2.341a1.348,1.348,0,0,0,.117.124,9.921,9.921,0,0,1,1.239,1.229,6.526,6.526,0,0,1,1.488,3.416,6.762,6.762,0,0,1-.264,3.012,6.175,6.175,0,0,1-1.495,2.385,18.249,18.249,0,0,1-1.615,1.418,4.193,4.193,0,0,0-.977,1.1,1.86,1.86,0,0,0,.281,2.357,6.815,6.815,0,0,0,.666.579c.78.612,1.573,1.206,2.308,1.874a9.459,9.459,0,0,1,1.724,1.951,5.632,5.632,0,0,1,.827,2.486,6.618,6.618,0,0,1-1.869,5.276,9.607,9.607,0,0,1-3.918,2.514,14.044,14.044,0,0,1-3.455.762,17.716,17.716,0,0,1-3.049.047,12.38,12.38,0,0,1-3.86-.853,7.179,7.179,0,0,1-2.49-1.652,4.989,4.989,0,0,1-1.416-2.958,5.212,5.212,0,0,1,.673-3.156,6.786,6.786,0,0,1,2.374-2.432,11.588,11.588,0,0,1,3.577-1.442,19.432,19.432,0,0,1,2.589-.43c.612-.058,1.224-.1,1.834-.157A1.026,1.026,0,0,0,1245.794,56.962Zm-.194,11.346a10.489,10.489,0,0,0,2.023-.173,6.019,6.019,0,0,0,2.516-1.03,3.98,3.98,0,0,0,1.624-4.079,3.656,3.656,0,0,0-.855-1.776,9.446,9.446,0,0,0-1.535-1.444c-.629-.484-1.273-.946-1.9-1.425a.786.786,0,0,0-.514-.171c-.519.012-1.037.012-1.554.037a14.745,14.745,0,0,0-2.673.388,7.49,7.49,0,0,0-2.624,1.135,4.012,4.012,0,0,0-1.766,3.991,4.2,4.2,0,0,0,1.215,2.467,6.2,6.2,0,0,0,2.285,1.444A10.692,10.692,0,0,0,1245.6,68.307Zm-5.224-24.427c.044.458.075.916.14,1.371a9.934,9.934,0,0,0,1.01,3.185,6.146,6.146,0,0,0,1.54,1.988,3.837,3.837,0,0,0,3.92.7,3.756,3.756,0,0,0,1.584-1.014,3.8,3.8,0,0,0,.914-2.194,7.68,7.68,0,0,0-.033-1.778,10.686,10.686,0,0,0-.96-3.4,6.84,6.84,0,0,0-1.647-2.29,3.663,3.663,0,0,0-3.392-.932,3.615,3.615,0,0,0-2.79,2.528A6.855,6.855,0,0,0,1240.376,43.88Z" transform="translate(-1234.562 -37.78)" fill="#fff"/>
    <path id="Trazado_8169" data-name="Trazado 8169" d="M1250.761,49.5h-2.1V45.29c-.248-.014-.477-.007-.7-.007s-.463,0-.691,0h-2.773a13.03,13.03,0,0,1-.007-2.138h4.168V38.94c.708-.021,1.395-.007,2.1-.012.009.11.021.2.021.283v3.666c0,.082.007.164.014.264h4.163a12.774,12.774,0,0,1,.01,2.138H1250.8c-.007.1-.019.18-.019.259v3.687C1250.777,49.311,1250.767,49.4,1250.761,49.5Z" transform="translate(-1221.351 -36.246)" fill="#fff"/>
  </g>
</svg>
