<svg id="Grupo_2734" data-name="Grupo 2734" xmlns="http://www.w3.org/2000/svg" width="21.843" height="36.699" viewBox="0 0 21.843 36.699">
  <path id="Trazado_7305" data-name="Trazado 7305" d="M57.862,82.542l-5.386-5.406H47.683l5.386,5.406Z" transform="translate(-47.683 -60.001)" fill="#ccc" style="mix-blend-mode: multiply;isolation: isolate"/>
  <path id="Trazado_7306" data-name="Trazado 7306" d="M58.894,75.154l-.108,14.136H52.924L58.31,94.7h5.862l.107-14.136h4.772c.27-1.868.518-3.726.788-5.662l-5.179-5.2c.03-.055.06-.114.095-.164.016-.023.03-.048.047-.07.03-.038.066-.066.1-.1a1.677,1.677,0,0,1,.243-.222c.044-.032.091-.059.139-.088a1.9,1.9,0,0,1,.274-.137c.053-.021.105-.043.161-.061a2.932,2.932,0,0,1,.333-.085c.052-.01.1-.023.155-.031a4.565,4.565,0,0,1,.534-.05c.415-.014.83-.018,1.244-.018.553,0,1.107.007,1.659.007h.4l.038-5.038L64.7,58.236l-.038,5.038h-.4c-.553,0-1.106-.007-1.659-.007-.415,0-.83,0-1.244.019a4.769,4.769,0,0,0-.534.049c-.053.008-.1.021-.154.031a3.134,3.134,0,0,0-.333.085c-.055.018-.109.039-.162.062a1.894,1.894,0,0,0-.273.137c-.047.028-.095.055-.139.088a1.676,1.676,0,0,0-.243.222c-.024.026-.055.042-.077.07-.007.009-.013.021-.021.03s-.032.048-.048.071c-.034.05-.072.1-.1.15s-.039.087-.059.13c-.013.027-.027.053-.038.08s-.02.038-.028.058a2.567,2.567,0,0,0-.1.331c0,.008,0,.019,0,.027-.01.045-.013.1-.021.142-.017.1-.037.2-.045.306,0,.047-.007.1-.009.146-.042,1.2-.073,3.853-.074,3.993l4.88,4.9c-.037.254-.072.509-.108.763Z" transform="translate(-48.238 -57.997)" fill="#025889" style="mix-blend-mode: multiply;isolation: isolate"/>
  <g id="Grupo_2733" data-name="Grupo 2733" transform="translate(0 0)">
    <path id="Trazado_7307" data-name="Trazado 7307" d="M60.026,57.969c.837,0,1.679.046,2.513.083.545.022,1.089.1,1.6.156L64.1,63.246h-.4c-.553,0-1.106-.007-1.659-.007-.415,0-.83,0-1.244.019-1.335.045-2.317.545-2.386,2.213-.042,1.2-.073,3.853-.074,3.993.069,0,1.388,0,2.717,0,.664,0,1.312,0,1.765,0H63.9c-.271,1.935-.518,3.792-.788,5.662H58.338L58.23,89.262H52.368L52.476,75.1H47.683l.042-5.628h4.817l0-.423c.008-1.134-.005-2.269.037-3.4a14.177,14.177,0,0,1,.183-2.158,6.405,6.405,0,0,1,2.568-4.2,7.37,7.37,0,0,1,4.225-1.312C59.715,57.971,59.87,57.969,60.026,57.969Z" transform="translate(-47.683 -57.969)" fill="#fff"/>
  </g>
</svg>
