<svg xmlns="http://www.w3.org/2000/svg" width="33.696" height="33.245" viewBox="0 0 33.696 33.245">
  <path id="Trazado_8145" data-name="Trazado 8145" d="M622.979,36.845V24.6a4.467,4.467,0,0,1,3.531-4.247,4.594,4.594,0,0,1,.939-.091h24.719a4.361,4.361,0,0,1,3.748,1.975,4.236,4.236,0,0,1,.752,2.492q-.016,12.168-.008,24.335a4.27,4.27,0,0,1-2.046,3.717,4.315,4.315,0,0,1-2.485.717c-2.265-.017-4.533-.011-6.8,0-.31,0-.424-.045-.422-.4q.025-5.565,0-11.127c0-.309.064-.389.387-.383,1.15.024,2.3.011,3.45.011.849,0,1.049-.205,1.121-1.05a30.475,30.475,0,0,1,.408-3.242c.116-.593-.271-.99-.966-.991-1.338,0-2.678-.015-4.017.009-.329,0-.387-.086-.382-.388.021-1.136-.028-2.27.021-3.4a1.813,1.813,0,0,1,1.782-1.819,27.869,27.869,0,0,1,2.792-.1.526.526,0,0,0,.561-.563c.008-1.118.011-2.237,0-3.355a.605.605,0,0,0-.682-.652c-1.356,0-2.72-.1-4.066.021a5.692,5.692,0,0,0-5,3.34,7.588,7.588,0,0,0-.642,3.047c-.031,1.163-.017,2.337,0,3.5,0,.278-.06.362-.355.359-.858-.021-1.717-.009-2.577-.008a.781.781,0,0,0-.888.867q0,1.8,0,3.606c0,.614.2.81.836.812.876,0,1.753,0,2.627,0,.225,0,.358-.012.356.3q-.021,5.639,0,11.28c0,.294-.106.315-.347.315-4.1-.008-8.206.039-12.308-.03a4.07,4.07,0,0,1-3.318-1.981,4.281,4.281,0,0,1-.728-2.45C622.985,44.975,622.979,40.909,622.979,36.845Z" transform="translate(-622.973 -20.264)" fill="#fff" fill-rule="evenodd"/>
</svg>
