<svg xmlns="http://www.w3.org/2000/svg" width="33.72" height="33.268" viewBox="0 0 33.72 33.268">
  <path id="Trazado_8146" data-name="Trazado 8146" d="M625.083,24.652a4.426,4.426,0,0,0-4.456-4.395h-24.81a4.424,4.424,0,0,0-4.455,4.395V49.129a4.427,4.427,0,0,0,4.455,4.4h24.81a4.429,4.429,0,0,0,4.456-4.4ZM596.337,42.915V39.688a.641.641,0,0,0,.006-.075q0-3.575,0-7.154c0-.032,0-.062-.008-.094v-1.5l.012-.062c.014-.094.021-.193.043-.29a2.531,2.531,0,0,1,2.016-1.948c.1-.021.2-.033.309-.047h19.011c.115.014.228.021.341.045a2.509,2.509,0,0,1,1.133.514,2.458,2.458,0,0,1,.807,1.148c.037.113.067.225.1.341V42.915c-.008.071-.017.142-.026.208a2.541,2.541,0,0,1-2.482,2.138q-9.349,0-18.7-.011a2.613,2.613,0,0,1-.265-.014,2.363,2.363,0,0,1-1.055-.339,2.447,2.447,0,0,1-1.206-1.765C596.36,43.06,596.35,42.987,596.337,42.915Zm2.514-13.074c.018.018.028.032.038.044q4.53,4.456,9.057,8.919a.568.568,0,0,0,.107.081.422.422,0,0,0,.541-.086l9.03-8.908c.015-.014.028-.032.046-.05ZM610.7,38.487a.167.167,0,0,1-.046.047q-1.025,1.025-2.057,2.035a.626.626,0,0,1-.191.131.416.416,0,0,1-.466-.121q-1.071-1.061-2.135-2.121c-.017-.017-.035-.03-.046-.041L600.108,44h16.183Zm8.131-8q-3.608,3.566-7.208,7.122a.479.479,0,0,1,.046.036q2.269,2.245,4.542,4.491.892.88,1.783,1.762c.021.018.035.039.073.03a.969.969,0,0,0,.628-.536,1.865,1.865,0,0,0,.136-.78V30.49Zm-21.077.045v12.3a2.524,2.524,0,0,0,.032.4.811.811,0,0,0,.515.665.081.081,0,0,0,.109-.027q3.2-3.145,6.392-6.3c.015-.015.029-.03.043-.042C602.485,35.2,600.13,32.875,597.758,30.535Z" transform="translate(-591.363 -20.257)" fill="#fff" fill-rule="evenodd"/>
</svg>
