<svg xmlns="http://www.w3.org/2000/svg" width="953" height="847.998" viewBox="0 0 953 847.998">
  <g id="Grupo_3404" data-name="Grupo 3404" transform="translate(398.616 34.374)">
    <g id="Grupo_3399" data-name="Grupo 3399" transform="translate(-327.163 90.905)">
      <path id="Trazado_8288" data-name="Trazado 8288" d="M-182.2,484.5c-61.624-17.575-58.065-153.569,39.183-180.439,28.324-7.808,58.919-25.629,58.919-55.041,0-38.668-21.4-45.9-59.84-48.427-38.325-2.518-48.507,31.912-49.143,32.494-29.023,83.882-79.588,51.474-100.475,46.478-80.192-31.644-74.569-60.324-52.151-119.023,5.56-14.648,29.979-53.218,57.619-77.173C-158.922-28.566,79.761,54.941,79.761,245.509c0,142.928-132.345,177.864-132.888,187.514-.74,13.089-2.431,21.377-11.305,33.8C-86.166,497.26-161.412,490.464-182.2,484.5Zm-6.672-34c8.076,13.872,107.03,29.425,109.742-18.94,1.228-21.792,22.785-28.767,22.977-28.9C4.7,377.889,53.721,323.08,53.721,245.509c0-166.245-210.362-241.608-324.75-142.461C-295.1,123.9-317.2,158.829-321.37,169.809c-19.614,51.364-23.018,61.681,37.269,85.493,95.133,35.606,31.127-80.748,140.166-80.748,30.72,0,52.208,6.372,65.7,19.485,30.731,29.916,37.987,108.706-57.848,135.123C-205.5,348.343-201.635,428.634-188.87,450.5Zm-7-38.208v0Z" transform="translate(360.2 -32.98)" fill="#025889"/>
    </g>
    <g id="Grupo_3400" data-name="Grupo 3400" transform="translate(-168.462 615.417)">
      <path id="Trazado_8289" data-name="Trazado 8289" d="M-214.477,436.281c-21.57,0-37.105-4.613-47.5-14.1l-.42-.4c-8.4-8.387-12.481-21.065-12.481-38.762v-8.15a165.72,165.72,0,0,1,.865-19.443c.71-5.675,2.736-11.685,6.19-18.373,4.3-8.322,11.657-14.315,21.877-17.808,8.422-2.87,18.877-4.265,31.975-4.265,22.14,0,37.65,4.747,47.415,14.51,8.857,8.857,12.985,23.763,12.985,46.907a133.226,133.226,0,0,1-1.181,20.133,60.891,60.891,0,0,1-6.38,18.183c-4.36,8.437-11.813,14.374-22.158,17.653C-191.59,435-201.8,436.281-214.477,436.281Zm-29.7-33.121c5.3,4.635,15.553,7.081,29.7,7.081,9.828,0,17.672-.908,23.313-2.7,4.745-1.5,6.2-3.445,6.891-4.775a36.217,36.217,0,0,0,3.809-10.36,107.834,107.834,0,0,0,.854-16.013c0-22.022-4.46-27.6-5.357-28.491-2.572-2.571-9.759-6.886-29-6.886-10.051,0-17.981.965-23.564,2.87-5.48,1.871-6.737,4.308-7.148,5.108-2.489,4.819-3.272,7.911-3.491,9.659a139.828,139.828,0,0,0-.664,16.212v8.15C-248.837,396.063-246,401.207-244.178,403.16Z" transform="translate(274.877 -314.976)" fill="#025889"/>
    </g>
    <g id="Grupo_3403" data-name="Grupo 3403" transform="translate(-398.616 -34.374)">
      <g id="Grupo_3401" data-name="Grupo 3401" transform="translate(11.16)" opacity="0.08" style="mix-blend-mode: multiply;isolation: isolate">
        <path id="Trazado_8290" data-name="Trazado 8290" d="M526.224,800.764h-627.11l-.417-53.114,4.425-.245c.272-.015,27.145-1.534,37.2-4.483,15.232-4.455,26.855-13.165,33.614-25.192a69.717,69.717,0,0,0,8.221-21.987,126.564,126.564,0,0,0,1.406-21.321c0-16.545-1.925-40.316-18.568-55.683-13.628-12.585-33.7-18.7-61.354-18.7h-4.71l.433-35.093,4.563-.028c27.8-.182,93.573-6.462,103.928-60.733a11.5,11.5,0,0,1,5.887-7.953c120.476-65.094,142.5-170.884,122.952-248.189C110.066,142.744,10.775,69.2-104.761,69.2h-4.65V-25.074H-392.616v-9.3h292.505V59.939c59.937.936,115.16,19.971,159.979,55.194,42.5,33.4,72.985,79.794,85.841,130.63,12.1,47.845,8.123,96.335-11.5,140.229-21.483,48.057-61.6,89-116.018,118.4a2.292,2.292,0,0,0-1.205,1.538C5.9,564.07-59.271,573.227-91.449,574.136l-.2,16.66c27.718.694,48.347,7.619,62.959,21.109C-9.37,629.75-7.137,656.13-7.137,674.422a134.893,134.893,0,0,1-1.546,22.913,78.744,78.744,0,0,1-9.265,24.933c-7.985,14.207-21.509,24.427-39.116,29.58-8.521,2.5-26.5,3.979-34.871,4.561l.275,35.055H526.224Z" transform="translate(392.616 34.374)" fill="#025889"/>
      </g>
      <g id="Grupo_3402" data-name="Grupo 3402" transform="translate(0 1.86)">
        <path id="Trazado_8291" data-name="Trazado 8291" d="M530.885,801.764H-106.886l-.417-53.114,4.425-.245c.272-.015,27.145-1.535,37.2-4.483,15.232-4.455,26.855-13.165,33.614-25.192a69.717,69.717,0,0,0,8.221-21.987,126.563,126.563,0,0,0,1.406-21.321c0-16.545-1.925-40.315-18.568-55.683-13.628-12.585-33.7-18.7-61.354-18.7h-4.709l.433-35.093,4.563-.028c27.8-.182,93.573-6.462,103.928-60.733a11.5,11.5,0,0,1,5.887-7.953c120.476-65.094,142.5-170.884,122.952-248.189C104.066,143.745,4.775,70.2-110.761,70.2h-4.65V-24.074H-398.616v-9.3h292.505V60.939c59.937.936,115.16,19.971,159.979,55.194,42.5,33.4,72.985,79.794,85.841,130.63,12.1,47.845,8.123,96.335-11.5,140.229-21.483,48.057-61.6,89-116.018,118.4a2.292,2.292,0,0,0-1.205,1.538C-.1,565.07-65.271,574.227-97.449,575.136l-.2,16.66c27.718.694,48.347,7.619,62.959,21.109,19.324,17.845,21.557,44.225,21.557,62.516a134.894,134.894,0,0,1-1.546,22.913,78.744,78.744,0,0,1-9.265,24.933c-7.985,14.207-21.509,24.427-39.116,29.58-8.521,2.5-26.5,3.979-34.871,4.561l.275,35.055H530.885Z" transform="translate(398.616 33.374)" fill="#025889"/>
      </g>
    </g>
  </g>
  <g id="Grupo_3409" data-name="Grupo 3409" transform="translate(421.616 45.374)">
    <g id="Grupo_3399-2" data-name="Grupo 3399" transform="translate(-327.163 90.905)">
      <path id="Trazado_8288-2" data-name="Trazado 8288" d="M-182.2,484.5c-61.624-17.575-58.065-153.569,39.183-180.439,28.324-7.808,58.919-25.629,58.919-55.041,0-38.668-21.4-45.9-59.84-48.427-38.325-2.518-48.507,31.912-49.143,32.494-29.023,83.882-79.588,51.474-100.475,46.478-80.192-31.644-74.569-60.324-52.151-119.023,5.56-14.648,29.979-53.218,57.619-77.173C-158.922-28.566,79.761,54.941,79.761,245.509c0,142.928-132.345,177.864-132.888,187.514-.74,13.089-2.431,21.377-11.305,33.8C-86.166,497.26-161.412,490.464-182.2,484.5Zm-6.672-34c8.076,13.872,107.03,29.425,109.742-18.94,1.228-21.792,22.785-28.767,22.977-28.9C4.7,377.889,53.721,323.08,53.721,245.509c0-166.245-210.362-241.608-324.75-142.461C-295.1,123.9-317.2,158.829-321.37,169.809c-19.614,51.364-23.018,61.681,37.269,85.493,95.133,35.606,31.127-80.748,140.166-80.748,30.72,0,52.208,6.372,65.7,19.485,30.731,29.916,37.987,108.706-57.848,135.123C-205.5,348.343-201.635,428.634-188.87,450.5Zm-7-38.208v0Z" transform="translate(360.2 -32.98)" fill="#cedeee"/>
    </g>
    <g id="Grupo_3400-2" data-name="Grupo 3400" transform="translate(-168.462 615.417)">
      <path id="Trazado_8289-2" data-name="Trazado 8289" d="M-214.477,436.281c-21.57,0-37.105-4.613-47.5-14.1l-.42-.4c-8.4-8.387-12.481-21.065-12.481-38.762v-8.15a165.72,165.72,0,0,1,.865-19.443c.71-5.675,2.736-11.685,6.19-18.373,4.3-8.322,11.657-14.315,21.877-17.808,8.422-2.87,18.877-4.265,31.975-4.265,22.14,0,37.65,4.747,47.415,14.51,8.857,8.857,12.985,23.763,12.985,46.907a133.226,133.226,0,0,1-1.181,20.133,60.891,60.891,0,0,1-6.38,18.183c-4.36,8.437-11.813,14.374-22.158,17.653C-191.59,435-201.8,436.281-214.477,436.281Zm-29.7-33.121c5.3,4.635,15.553,7.081,29.7,7.081,9.828,0,17.672-.908,23.313-2.7,4.745-1.5,6.2-3.445,6.891-4.775a36.217,36.217,0,0,0,3.809-10.36,107.834,107.834,0,0,0,.854-16.013c0-22.022-4.46-27.6-5.357-28.491-2.572-2.571-9.759-6.886-29-6.886-10.051,0-17.981.965-23.564,2.87-5.48,1.871-6.737,4.308-7.148,5.108-2.489,4.819-3.272,7.911-3.491,9.659a139.828,139.828,0,0,0-.664,16.212v8.15C-248.837,396.063-246,401.207-244.178,403.16Z" transform="translate(274.877 -314.976)" fill="#cedeee"/>
    </g>
    <g id="Grupo_3403-2" data-name="Grupo 3403" transform="translate(-398.616 -34.374)">
      <g id="Grupo_3401-2" data-name="Grupo 3401" transform="translate(11.16)" opacity="0.08" style="mix-blend-mode: multiply;isolation: isolate">
        <path id="Trazado_8290-2" data-name="Trazado 8290" d="M526.224,800.764h-627.11l-.417-53.114,4.425-.245c.272-.015,27.145-1.534,37.2-4.483,15.232-4.455,26.855-13.165,33.614-25.192a69.717,69.717,0,0,0,8.221-21.987,126.564,126.564,0,0,0,1.406-21.321c0-16.545-1.925-40.316-18.568-55.683-13.628-12.585-33.7-18.7-61.354-18.7h-4.71l.433-35.093,4.563-.028c27.8-.182,93.573-6.462,103.928-60.733a11.5,11.5,0,0,1,5.887-7.953c120.476-65.094,142.5-170.884,122.952-248.189C110.066,142.744,10.775,69.2-104.761,69.2h-4.65V-25.074H-392.616v-9.3h292.505V59.939c59.937.936,115.16,19.971,159.979,55.194,42.5,33.4,72.985,79.794,85.841,130.63,12.1,47.845,8.123,96.335-11.5,140.229-21.483,48.057-61.6,89-116.018,118.4a2.292,2.292,0,0,0-1.205,1.538C5.9,564.07-59.271,573.227-91.449,574.136l-.2,16.66c27.718.694,48.347,7.619,62.959,21.109C-9.37,629.75-7.137,656.13-7.137,674.422a134.893,134.893,0,0,1-1.546,22.913,78.744,78.744,0,0,1-9.265,24.933c-7.985,14.207-21.509,24.427-39.116,29.58-8.521,2.5-26.5,3.979-34.871,4.561l.275,35.055H526.224Z" transform="translate(392.616 34.374)" fill="#cedeee"/>
      </g>
      <g id="Grupo_3402-2" data-name="Grupo 3402" transform="translate(0 1.86)">
        <path id="Trazado_8291-2" data-name="Trazado 8291" d="M530.885,801.764H-106.886l-.417-53.114,4.425-.245c.272-.015,27.145-1.535,37.2-4.483,15.232-4.455,26.855-13.165,33.614-25.192a69.717,69.717,0,0,0,8.221-21.987,126.563,126.563,0,0,0,1.406-21.321c0-16.545-1.925-40.315-18.568-55.683-13.628-12.585-33.7-18.7-61.354-18.7h-4.709l.433-35.093,4.563-.028c27.8-.182,93.573-6.462,103.928-60.733a11.5,11.5,0,0,1,5.887-7.953c120.476-65.094,142.5-170.884,122.952-248.189C104.066,143.745,4.775,70.2-110.761,70.2h-4.65V-24.074H-398.616v-9.3h292.505V60.939c59.937.936,115.16,19.971,159.979,55.194,42.5,33.4,72.985,79.794,85.841,130.63,12.1,47.845,8.123,96.335-11.5,140.229-21.483,48.057-61.6,89-116.018,118.4a2.292,2.292,0,0,0-1.205,1.538C-.1,565.07-65.271,574.227-97.449,575.136l-.2,16.66c27.718.694,48.347,7.619,62.959,21.109,19.324,17.845,21.557,44.225,21.557,62.516a134.894,134.894,0,0,1-1.546,22.913,78.744,78.744,0,0,1-9.265,24.933c-7.985,14.207-21.509,24.427-39.116,29.58-8.521,2.5-26.5,3.979-34.871,4.561l.275,35.055H530.885Z" transform="translate(398.616 33.374)" fill="#cedeee"/>
      </g>
    </g>
  </g>
</svg>
