<svg xmlns="http://www.w3.org/2000/svg" width="35.368" height="35.368" viewBox="0 0 35.368 35.368">
  <g id="Grupo_3257" data-name="Grupo 3257" transform="translate(0 0)">
    <path id="Trazado_8164" data-name="Trazado 8164" d="M1285.745,37.132h-21.7a6.841,6.841,0,0,0-6.834,6.834v21.7a6.842,6.842,0,0,0,6.834,6.836h21.7a6.844,6.844,0,0,0,6.838-6.836v-21.7A6.844,6.844,0,0,0,1285.745,37.132Zm1.963,4.077.78,0v6l-5.972.019-.021-5.993Zm-17.857,9.979a6.211,6.211,0,1,1-1.177,3.628A6.219,6.219,0,0,1,1269.851,51.188Zm19.287,14.476a3.393,3.393,0,0,1-3.392,3.39h-21.7a3.393,3.393,0,0,1-3.39-3.39V51.188h5.28a9.572,9.572,0,0,0-.712,3.628,9.671,9.671,0,1,0,18.63-3.628h5.28Z" transform="translate(-1257.215 -37.132)" fill="#fff"/>
  </g>
</svg>
