<svg id="Grupo_2738" data-name="Grupo 2738" xmlns="http://www.w3.org/2000/svg" width="30.659" height="30.721" viewBox="0 0 30.659 30.721">
  <path id="Trazado_7308" data-name="Trazado 7308" d="M63.16,230.3a7.325,7.325,0,0,1,.114-.791c.025-.126.054-.249.087-.367.024-.089.048-.177.077-.26a3.485,3.485,0,0,1,.238-.56l.006-.014a2.622,2.622,0,0,1,.35-.475,2.269,2.269,0,0,1,.163-.158,2.485,2.485,0,0,1,.337-.257c.069-.043.139-.085.214-.122a2.824,2.824,0,0,1,.46-.173c.078-.022.148-.051.232-.068a4.077,4.077,0,0,1,.854-.089,3.07,3.07,0,0,1,1.081.174,2.065,2.065,0,0,1,.747.476h0l-5.385-5.406a2.09,2.09,0,0,0-.823-.5l-4.343-4.359-.018,2.314,2.093,2.1a2.808,2.808,0,0,0-.283.121,2.156,2.156,0,0,0-.213.122,2.307,2.307,0,0,0-.337.257c-.056.052-.114.1-.164.158-.025.029-.059.051-.082.08a2.725,2.725,0,0,0-.265.391l0,0-.008.017a3.355,3.355,0,0,0-.2.429c-.015.04-.024.087-.038.128-.029.085-.053.172-.078.259s-.047.145-.065.222c-.011.047-.012.1-.021.147a7.408,7.408,0,0,0-.114.794c0,.038-.013.072-.016.11,0,.013,0,.029,0,.043-.021.282-.031.569-.033.859l-.064,8.364H54.533l.088-11.512L52.3,220.424a3.035,3.035,0,0,0,.365-.046c.071-.016.136-.043.2-.063a3.009,3.009,0,0,0,.407-.145c.075-.035.144-.077.215-.116a3.191,3.191,0,0,0,.329-.207c.069-.051.132-.105.2-.162a2.9,2.9,0,0,0,.269-.266c.031-.035.071-.062.1-.1s.053-.08.081-.119q.072-.1.137-.2c.027-.042.059-.079.083-.122.035-.063.061-.131.092-.2.022-.047.046-.094.066-.143.01-.023.023-.045.032-.068a3.021,3.021,0,0,0,.124-.41l0-.025c.006-.028.007-.058.013-.087a2.877,2.877,0,0,0,.05-.33c.005-.071.009-.142.009-.215,0-.1,0-.207-.013-.309,0-.038-.021-.072-.027-.11a2.941,2.941,0,0,0-.143-.61c-.011-.03-.011-.065-.022-.1,0-.009-.011-.017-.014-.025a2.99,2.99,0,0,0-.344-.625c-.011-.015-.016-.035-.028-.049a2.884,2.884,0,0,0-.29-.336l-5.385-5.407a3.326,3.326,0,0,1,.661,1.01c.016.039.023.08.037.121a3.009,3.009,0,0,1,.144.611,3.071,3.071,0,0,1,.039.419,3.123,3.123,0,0,1-.059.545c-.005.028-.007.057-.013.085a3.007,3.007,0,0,1-.159.5c-.02.048-.044.095-.066.142a2.839,2.839,0,0,1-.176.319c-.042.069-.088.135-.136.2s-.118.147-.181.217a3.141,3.141,0,0,1-.269.266c-.064.055-.129.111-.2.161a3.132,3.132,0,0,1-.329.207c-.072.04-.141.082-.216.117a3.119,3.119,0,0,1-.406.144c-.069.02-.133.047-.2.063a3,3,0,0,1-2.8-.814l4.749,4.767-.117,15.343h-5.26l5.385,5.406h5.261l.025-3.28,3.267,3.28h5.261l.063-8.365c0-.289.013-.576.034-.857C63.146,230.4,63.156,230.349,63.16,230.3Z" transform="translate(-43.592 -208.952)" fill="#025889" style="mix-blend-mode: multiply;isolation: isolate"/>
  <path id="Trazado_7309" data-name="Trazado 7309" d="M76.509,229.275c0-.046-.014-.087-.019-.132q-.056-.561-.156-1.08c-.016-.084-.029-.168-.047-.25a7.892,7.892,0,0,0-.313-1.084c-.009-.027-.013-.057-.023-.082-.042-.108-.095-.207-.141-.311s-.08-.188-.125-.275c-.076-.148-.163-.285-.25-.422-.045-.07-.084-.144-.132-.211a.281.281,0,0,0-.021-.032,4.328,4.328,0,0,0-.448-.527l-5.385-5.406a4.428,4.428,0,0,1,.468.558c.048.067.088.142.132.212.089.138.175.274.251.421.045.089.083.183.124.276.058.128.115.257.165.392a8.073,8.073,0,0,1,.313,1.085c.018.081.031.166.046.249.066.348.12.707.157,1.08.005.063.015.124.021.188.058.663.08,1.361.075,2.087l-.071,9.277H65.88l5.386,5.406h5.249l.071-9.276c.006-.728-.016-1.425-.075-2.087C76.509,229.313,76.511,229.293,76.509,229.275Z" transform="translate(-45.928 -209.972)" fill="#025889" style="mix-blend-mode: multiply;isolation: isolate"/>
  <g id="Grupo_2735" data-name="Grupo 2735" transform="translate(0)">
    <path id="Trazado_7310" data-name="Trazado 7310" d="M46.633,208.847a3.017,3.017,0,0,1,3.025,3.048,3.073,3.073,0,0,1-3.071,3.048,3.025,3.025,0,0,1-3.025-3.048A3.081,3.081,0,0,1,46.633,208.847Z" transform="translate(-43.562 -208.847)" fill="#fff"/>
  </g>
  <g id="Grupo_2736" data-name="Grupo 2736" transform="translate(0.254 8.397)">
    <path id="Trazado_7311" data-name="Trazado 7311" d="M49.236,218.24l-.129,16.918H43.846l.129-16.918Z" transform="translate(-43.846 -218.24)" fill="#fff"/>
  </g>
  <g id="Grupo_2737" data-name="Grupo 2737" transform="translate(8.807 7.986)">
    <path id="Trazado_7312" data-name="Trazado 7312" d="M63.634,217.78c5.328,0,6.28,3.492,6.245,8.053l-.071,9.277h-5.25l.063-8.22c.015-1.969-.01-4.494-2.7-4.494-2.736,0-3.164,2.136-3.181,4.35l-.064,8.364h-5.26l.129-16.918h5.038l-.018,2.314h.078A5.577,5.577,0,0,1,63.634,217.78Z" transform="translate(-53.414 -217.78)" fill="#fff"/>
  </g>
</svg>
