<svg xmlns="http://www.w3.org/2000/svg" width="60.4" height="69.666" viewBox="0 0 60.4 69.666">
  <g id="Grupo_3189" data-name="Grupo 3189" transform="translate(2472.727 410)">
    <path id="Trazado_8148" data-name="Trazado 8148" d="M108.543,95.247q4.584,2.643,9.164,5.281,10.246,5.916,20.494,11.831a.646.646,0,0,1,.376.641q-.014,17.092,0,34.185a.648.648,0,0,1-.371.643q-10.231,5.9-20.451,11.8-4.447,2.566-8.89,5.14a.778.778,0,0,1-.892,0q-6.031-3.5-12.074-6.98-8.689-5.015-17.38-10.028a.574.574,0,0,1-.337-.573q.014-17.051,0-34.107a.732.732,0,0,1,.419-.722c1.424-.805,2.841-1.624,4.259-2.441l22.951-13.248c.824-.478,1.65-.951,2.474-1.427Zm27.918,34.86q0-7.97,0-15.936a.368.368,0,0,0-.183-.389q-13.744-7.924-27.481-15.869a.675.675,0,0,0-.778,0q-13.71,7.941-27.434,15.848a.378.378,0,0,0-.228.384c.008,1.572,0,3.141,0,4.71q0,13.571,0,27.137a.4.4,0,0,0,.2.428q9.5,5.474,19,10.961,4.3,2.482,8.6,4.971a.44.44,0,0,0,.5,0c1.353-.794,2.712-1.574,4.07-2.357q11.728-6.771,23.458-13.535a.464.464,0,0,0,.275-.467Q136.455,138.048,136.462,130.107Z" transform="translate(-2550.904 -505.247)" fill="#05103b" fill-rule="evenodd"/>
    <path id="Trazado_8149" data-name="Trazado 8149" d="M81.8,129.486q0-7.3-.008-14.595a.7.7,0,0,1,.4-.7q12.655-7.283,25.293-14.6a.7.7,0,0,1,.823,0q12.685,7.341,25.384,14.661a.545.545,0,0,1,.315.539q-.01,14.725,0,29.453a.448.448,0,0,1-.241.465q-10.525,6.065-21.044,12.149c-1.547.891-3.09,1.792-4.642,2.675a.447.447,0,0,1-.376-.015q-4.671-2.681-9.33-5.378-8.064-4.656-16.132-9.306a.764.764,0,0,1-.451-.774Q81.81,136.771,81.8,129.486Zm44.223,13.533c-.122-.07-.21-.123-.3-.175q-2.9-1.675-5.8-3.356a.516.516,0,0,0-.6-.009c-3.628,2.1-7.265,4.193-10.885,6.31a.908.908,0,0,1-1.073,0q-9.869-5.728-19.762-11.421c-.15-.087-.3-.17-.474-.271-.008.085-.017.136-.017.184,0,2.342,0,4.683-.006,7.02,0,.177.086.242.215.319q10.125,5.836,20.242,11.692a.576.576,0,0,0,.678-.007q8.775-5.08,17.557-10.146C125.869,143.123,125.93,143.079,126.022,143.019Zm2.653-18.129c.008-.091.015-.136.015-.178q0-3.5,0-6.994a.378.378,0,0,0-.243-.359q-10.181-5.875-20.355-11.755a.343.343,0,0,0-.4.008Q98.848,110.723,90,115.832c-.065.038-.124.083-.208.139.115.072.2.13.292.182q2.968,1.716,5.933,3.429a.3.3,0,0,0,.357-.014c3.7-2.14,7.4-4.271,11.09-6.422a.727.727,0,0,1,.847-.01q10.046,5.815,20.1,11.618C128.488,124.8,128.563,124.833,128.674,124.89Zm-14.354,11.372c-9.083-5.244-18.121-10.462-27.206-15.709v.33c0,2.261,0,4.523,0,6.784a.452.452,0,0,0,.259.456q10.15,5.853,20.292,11.715a.424.424,0,0,0,.484,0c1.567-.914,3.138-1.813,4.707-2.72C113.326,136.838,113.8,136.563,114.321,136.262Zm14.339,2.162a2.388,2.388,0,0,0,.029-.239c0-2.321,0-4.643.006-6.966a.312.312,0,0,0-.191-.3q-10.167-5.868-20.333-11.741a.456.456,0,0,0-.533,0q-2.965,1.72-5.933,3.428a2.2,2.2,0,0,0-.2.146Z" transform="translate(-2550.391 -504.65)" fill="#05103b" fill-rule="evenodd"/>
  </g>
</svg>
