<svg xmlns="http://www.w3.org/2000/svg" width="115.085" height="145.896" viewBox="0 0 115.085 145.896">
  <g id="Grupo_3372" data-name="Grupo 3372" transform="translate(-726.059 -2659.257)">
    <g id="Grupo_3482" data-name="Grupo 3482" transform="translate(727.56 2660.771)">
      <path id="Trazado_8425" data-name="Trazado 8425" d="M3238.942,1817.726c3.086-1.965,6.16-3.949,9.259-5.892,13.938-8.736,27.852-17.511,41.859-26.135a25.954,25.954,0,0,1,6.984-2.685,8.378,8.378,0,0,1,6.654,1.162,8.194,8.194,0,0,1,3.419,9.815,13.2,13.2,0,0,1-4.836,6.7q-11.885,8.253-23.742,16.547c-.395.275-.791.546-1.263.871.328.31.555.538.8.75,4.225,3.716,5.377,8.326,3.9,13.651a2.24,2.24,0,0,0,.387,2.241,15.037,15.037,0,0,1,2.416,15.148,1.645,1.645,0,0,0,.249,1.407c4.634,4.961,4.285,11.957-.054,17.263a36.83,36.83,0,0,1-5.145,4.78c-11.442,9.5-24.625,15.509-38.9,19.3-4.5,1.2-9.01,2.353-13.5,3.591a8.735,8.735,0,0,1-6.458-.782,29.535,29.535,0,0,1-8.288-6.385c-7.428-7.886-13.107-16.839-16.121-27.317a31.648,31.648,0,0,1-.988-6.822,10.091,10.091,0,0,1,3.291-8.1c4.464-4.34,8.424-9.093,10.971-14.83,2.792-6.287,5.541-12.6,8.07-19,3.182-8.046,6.113-16.19,9.17-24.285a12.37,12.37,0,0,1,7.526-7.541,6.583,6.583,0,0,1,4.582-.126c5.571,1.852,8.378,6.407,6.849,12.081-2.111,7.832-4.607,15.561-6.939,23.333-.1.348-.218.694-.327,1.041Zm5.534,38.7c-.062-.051-.117-.128-.188-.149-.276-.082-.558-.142-.836-.216a9.64,9.64,0,0,1-2.947-17.374c10.142-6.832,20.363-13.549,30.472-20.429,9.813-6.678,19.522-13.511,29.292-20.252a9.972,9.972,0,0,0,3.687-5.127,4.719,4.719,0,0,0-3.235-6.345,7.442,7.442,0,0,0-3.875-.04,27.148,27.148,0,0,0-6.081,2.65c-7.855,4.773-15.647,9.649-23.424,14.55q-15.221,9.593-30.379,19.286a1.94,1.94,0,0,1-2.5.119,1.868,1.868,0,0,1-.389-2.359c.574-1.543,1.1-3.105,1.594-4.677,2.291-7.312,4.627-14.611,6.793-21.96a13.039,13.039,0,0,0,.4-5.106c-.406-3.392-4.7-5.554-7.836-4.288a8.824,8.824,0,0,0-4.961,5.521c-3.11,8.205-6.146,16.439-9.242,24.65-2.894,7.676-5.706,15.435-10.28,22.288-3.123,4.679-6.926,8.9-10.345,13.388a7.982,7.982,0,0,0-1.416,3.08c-.565,2.658.09,5.257.882,7.78,2.7,8.6,7.4,16.056,13.19,22.872a35.5,35.5,0,0,0,8.13,7.357,7.785,7.785,0,0,0,6.6,1.132c2.015-.59,4.089-.983,6.1-1.591q9.992-3.024,19.949-6.163a46.187,46.187,0,0,0,4.267-1.838c-4.82-3.029-6.417-7.09-4.9-12.324A9.907,9.907,0,0,1,3244.475,1856.426Zm34.779-26.855a10.015,10.015,0,0,0-4.127-8.812,1.244,1.244,0,0,0-1.731-.036c-3.5,2.391-7.041,4.734-10.566,7.093-6.744,4.513-13.5,9.009-20.217,13.562a7.526,7.526,0,0,0-2.143,2.167,6.149,6.149,0,0,0,1.056,7.7,6.253,6.253,0,0,0,7.969.523c9.023-6.008,17.986-12.108,27.083-18C3278.615,1832.445,3279.27,1830.834,3279.254,1829.571Zm-.13,6.676a3.992,3.992,0,0,0-.4.2c-9.765,6.517-19.547,13.008-29.28,19.572a6.127,6.127,0,0,0-1.584,8.548,6.193,6.193,0,0,0,8.621,1.722q11.958-7.905,23.859-15.9a2.928,2.928,0,0,0,.921-.956A11.566,11.566,0,0,0,3279.124,1836.248Zm3.114,17.193c-.8.528-1.625,1.066-2.444,1.612q-10.389,6.917-20.78,13.83a6.4,6.4,0,0,0-3.11,4.533,5.891,5.891,0,0,0,2.563,6.025,5.337,5.337,0,0,0,6.229.292,115.53,115.53,0,0,0,15.88-11.318,12.622,12.622,0,0,0,3.735-5.3C3285.675,1859.495,3284.876,1855.672,3282.238,1853.44Z" transform="translate(-3195.545 -1753.665)" fill="#fff" stroke="#fff" stroke-width="3"/>
      <path id="Trazado_8426" data-name="Trazado 8426" d="M3479.7,1673.763q-.754,5.318-1.511,10.636c-.567,3.952-1.153,7.9-1.706,11.856a2.281,2.281,0,0,1-1.941,2.231,2.174,2.174,0,0,1-2.372-2.684q1.243-8.678,2.509-17.353c.254-1.751.461-3.511.78-5.251a2.08,2.08,0,0,1,2.317-1.759A2.166,2.166,0,0,1,3479.7,1673.763Z" transform="translate(-3403.688 -1671.424)" fill="#fff" stroke="#fff" stroke-width="3"/>
      <path id="Trazado_8427" data-name="Trazado 8427" d="M3521.206,1729.346c-2.047-.022-3.051-1.653-2.368-3.107a11.561,11.561,0,0,1,.843-1.363q5.737-8.785,11.5-17.556a3.857,3.857,0,0,1,1.487-1.379,1.865,1.865,0,0,1,2.324.63,2.167,2.167,0,0,1,.042,2.744q-3.214,4.9-6.424,9.81c-1.962,2.995-3.892,6.01-5.913,8.965A6.126,6.126,0,0,1,3521.206,1729.346Z" transform="translate(-3438.669 -1697.264)" fill="#fff" stroke="#fff" stroke-width="3"/>
      <path id="Trazado_8428" data-name="Trazado 8428" d="M3398.308,1681.27c1.125.071,1.728.854,2.07,1.979q2.24,7.382,4.512,14.754c.651,2.125,1.321,4.244,1.959,6.372.441,1.47-.053,2.662-1.228,3.061-1.276.433-2.42-.235-2.888-1.752q-3.292-10.675-6.551-21.359A2.188,2.188,0,0,1,3398.308,1681.27Z" transform="translate(-3346.425 -1678.833)" fill="#fff" stroke="#fff" stroke-width="3"/>
    </g>
  </g>
</svg>
