<svg xmlns="http://www.w3.org/2000/svg" width="31.608" height="46.333" viewBox="0 0 31.608 46.333">
  <g id="Grupo_3474" data-name="Grupo 3474" transform="translate(-1178.295 -840.667)">
    <g id="Grupo_3167" data-name="Grupo 3167" transform="translate(1178.295 840.667)">
      <path id="Trazado_8118" data-name="Trazado 8118" d="M1152.088,517.841h-22.615c-3.083-.846-3.74-3.144-3.431-5.926-1.579-.233-2.091-.7-2.1-1.894q-.017-4.918,0-9.836a1.589,1.589,0,0,1,1.549-1.721c.161-.021.322-.056.522-.091v-.986q0-7.032,0-14.063a5.06,5.06,0,0,1,.107-1.108,4.294,4.294,0,0,1,3.344-3.215h16.4a6.671,6.671,0,0,0,.512.654c2.87,2.867,5.755,5.718,8.6,8.607a1.975,1.975,0,0,1,.535,1.245q.047,12,.019,23.994a5.052,5.052,0,0,1-.1,1.024A4.326,4.326,0,0,1,1152.088,517.841Zm-23.527-6.014c-.023.361-.05.613-.053.867-.025,2.23.357,2.617,2.58,2.617q9.878,0,19.758,0c1.7,0,2.194-.5,2.189-2.221q-.038-11.3-.086-22.6c0-.219-.033-.438-.056-.723h-.991c-1.409,0-2.819.035-4.227,0a2.742,2.742,0,0,1-2.852-2.9c-.01-1.035,0-2.071,0-3.106v-2.212c-.269-.029-.409-.057-.55-.057-4.63.011-9.26.017-13.89.045-1.3.008-1.868.61-1.87,1.937q-.012,7.118,0,14.236c0,.222.042.444.073.75h1.056q9.145,0,18.291,0c1.6,0,2.094.507,2.1,2.126q0,4.573,0,9.145c0,1.582-.52,2.093-2.13,2.094q-7.2,0-14.409,0Zm5.792-2.818a31.132,31.132,0,0,0,4.066-.514,2.892,2.892,0,0,0,2.1-2.854,3.111,3.111,0,0,0-1.619-3.413c-1.463-.72-3-.445-4.545-.338Zm-6-7.145V508.8h1.523v-2.364c.552-.063,1.036-.093,1.511-.178a2.24,2.24,0,0,0,1.948-2.185,1.962,1.962,0,0,0-1.768-2.177A23.418,23.418,0,0,0,1128.355,501.864Zm14.891,2.838v-1.589h2.568v-1.271h-4.177v6.937h1.6v-2.767h2.4V504.7Z" transform="translate(-1123.939 -479)" fill="#fff"/>
      <path id="Trazado_8119" data-name="Trazado 8119" d="M1194.015,618.056v4.588a2.272,2.272,0,0,0,2.453-.983,2.645,2.645,0,0,0-.015-2.783C1195.914,618,1195.015,617.954,1194.015,618.056Z" transform="translate(-1181.918 -594.019)" fill="#fff"/>
      <path id="Trazado_8120" data-name="Trazado 8120" d="M1158.657,619.352a6.651,6.651,0,0,0,1.616-.754,1.076,1.076,0,0,0,.014-1.057,6.612,6.612,0,0,0-1.63-.693Z" transform="translate(-1152.664 -593.052)" fill="#fff"/>
      <path id="Trazado_8121" data-name="Trazado 8121" d="M1194.015,618.056c1-.1,1.9-.053,2.438.822a2.645,2.645,0,0,1,.015,2.783,2.272,2.272,0,0,1-2.453.983Z" transform="translate(-1181.918 -594.019)" fill="#fff"/>
      <path id="Trazado_8122" data-name="Trazado 8122" d="M1158.657,619.352v-2.5a6.612,6.612,0,0,1,1.63.693,1.076,1.076,0,0,1-.014,1.057A6.651,6.651,0,0,1,1158.657,619.352Z" transform="translate(-1152.664 -593.052)" fill="#fff"/>
    </g>
    <path id="Polígono_2" data-name="Polígono 2" d="M4.5,0,9,5H0Z" transform="translate(1201 887) rotate(180)" fill="#fff"/>
  </g>
</svg>
