<svg xmlns="http://www.w3.org/2000/svg" xmlns:xlink="http://www.w3.org/1999/xlink" width="221" height="216" viewBox="0 0 221 216">
  <defs>
    <linearGradient id="linear-gradient" x1="0.5" x2="0.5" y2="1" gradientUnits="objectBoundingBox">
      <stop offset="0" stop-color="#05002a"/>
      <stop offset="1" stop-color="#025889"/>
    </linearGradient>
  </defs>
  <g id="Grupo_14359" data-name="Grupo 14359" transform="translate(-855 -2515)">
    <g id="Elipse_136" data-name="Elipse 136" transform="translate(855 2515)" stroke="#025889" stroke-width="1" fill="url(#linear-gradient)">
      <ellipse cx="110.5" cy="108" rx="110.5" ry="108" stroke="none"/>
      <ellipse cx="110.5" cy="108" rx="110" ry="107.5" fill="none"/>
    </g>
    <g id="Grupo_4324" data-name="Grupo 4324" transform="translate(900 2554)">
      <path id="Trazado_9585" data-name="Trazado 9585" d="M-7157.626,476.643H-7261V339h79.506c.572.691,1.094,1.432,1.726,2.065,6.68,6.7,13.438,13.317,20.013,20.116a7.162,7.162,0,0,1,1.856,4.449c.16,10.169.084,20.342.084,30.514v3.225c1.171.264,1.958.464,2.754.618,12.266,2.372,21.47,9.091,27.157,20.112,2.184,4.23,3.067,9.129,4.545,13.723v7.953a7.509,7.509,0,0,0-.491,1.406c-1.829,12.728-8.391,22.365-19.6,28.457C-7147.8,474-7152.879,475.014-7157.626,476.643Zm-94.718-8.709h65.43a84.059,84.059,0,0,1-5.762-6.488,4.649,4.649,0,0,0-4.341-2.04c-14.478.067-28.958.037-43.436.037h-3.389c0-8.622-.029-16.766.008-24.91.031-6.288,3.122-9.352,9.432-9.365,10.909-.023,21.821-.078,32.728.051,2.273.027,3.34-.636,4.279-2.752,5.106-11.526,13.919-18.817,26.083-22.063,1.633-.435,3.305-.708,4.82-1.028v-26.2h-25.677V347.725h-60.174ZM-7131.939,438a30.4,30.4,0,0,0-30.082-30.27c-16.346-.123-30.2,13.665-30.284,30.135a30.423,30.423,0,0,0,30.154,30.207A30.26,30.26,0,0,0-7131.939,438Zm-51.637-73.435h15.587c-3.072-2.925-5.584-5.274-8.047-7.671-2.4-2.336-4.751-4.723-7.54-7.5Z" transform="translate(7261 -339)" fill="#fad000"/>
      <path id="Trazado_9586" data-name="Trazado 9586" d="M-7170.51,426.889a16.81,16.81,0,0,1-17.324,16.745,17.01,17.01,0,0,1-16.9-17.249,17.125,17.125,0,0,1,17.253-16.949A16.92,16.92,0,0,1-7170.51,426.889Z" transform="translate(7239.154 -366.347)" fill="#fad000"/>
      <path id="Trazado_9587" data-name="Trazado 9587" d="M-7096.278,482.786l3.3.332v20.975h-33.932v-20.92l3.238-.433c.273-5.479.537-11.16,5.766-14.8,3.119-2.171,6.625-2.443,10.242-2.08C-7100.6,466.567-7097.19,471.579-7096.278,482.786Zm-18.541,0h9.606c.342-3.023.67-6.166-2.115-7.776a6.488,6.488,0,0,0-5.643.182C-7115.563,476.846-7115.1,479.909-7114.819,482.787Z" transform="translate(7208.939 -388.202)" fill="#fad000"/>
    </g>
  </g>
</svg>
