<svg xmlns="http://www.w3.org/2000/svg" width="379.667" height="117" viewBox="0 0 379.667 117">
  <path id="Trazado_8268" data-name="Trazado 8268" d="M0,0H379.667V117H0Z" fill="#043361"/>
  <g id="Grupo_3483" data-name="Grupo 3483" transform="translate(26.939 28)">
    <path id="Trazado_8429" data-name="Trazado 8429" d="M4011.524,1647.643h-20.269a2.3,2.3,0,0,0-.424-.184,8.771,8.771,0,0,1-7.277-8.751c-.06-5.24-.032-10.481-.007-15.721a8.894,8.894,0,0,1,3.732-7.238,1.982,1.982,0,0,0,.679-1.329c.067-2.34.013-4.684.036-7.026a13.372,13.372,0,0,1,8.78-12.539c.994-.364,2.042-.574,3.066-.855h3.1a2.992,2.992,0,0,0,.541.193,12.968,12.968,0,0,1,11.151,11.632c.253,2.8.141,5.633.141,8.452a1.7,1.7,0,0,0,.774,1.568,8.378,8.378,0,0,1,3.669,6.885c.052,5.442.027,10.885,0,16.328a8.43,8.43,0,0,1-2.186,5.528A10.005,10.005,0,0,1,4011.524,1647.643Zm-10.191-4.483c2.9,0,5.8.016,8.7,0a4.5,4.5,0,0,0,4.806-4.862q.021-7.447,0-14.9a4.532,4.532,0,0,0-4.868-4.82q-8.581-.007-17.163,0a4.536,4.536,0,0,0-4.865,4.824q-.028,7.448,0,14.9a4.5,4.5,0,0,0,4.811,4.857C3995.611,1643.176,3998.471,1643.16,4001.332,1643.16Zm8.994-29.079c0-2.319,0-4.5,0-6.677a8.948,8.948,0,0,0-7.725-8.861c-4.754-.526-9.125,2.336-9.857,6.944-.441,2.773-.081,5.674-.081,8.594Z" transform="translate(-3983.518 -1594)" fill="#fff"/>
    <path id="Trazado_8430" data-name="Trazado 8430" d="M4048.684,1720.361a4.686,4.686,0,0,1-1.556,3.461,2.287,2.287,0,0,0-.629,1.373c-.084,1.342,0,2.694-.04,4.04a2.22,2.22,0,1,1-4.437-.025c-.035-1.267-.037-2.536,0-3.8a1.9,1.9,0,0,0-.741-1.719,4.354,4.354,0,0,1-.962-5.4,4.445,4.445,0,0,1,8.363,2.075Z" transform="translate(-4026.37 -1686.865)" fill="#fff"/>
  </g>
  <text id="Seguro_Procesamiento_confiable_el_SUN_está_asentado_sobre_el_protocolo_de_Blockchain_Ethereum_lo_que_lo_hace_privado_y_a_prueba_de_cualquier_hackeo._" data-name="Seguro 
Procesamiento confiable, el SUN está asentado 
sobre el protocolo de Blockchain Ethereum, lo que
lo hace privado y a prueba de cualquier hackeo.    " transform="translate(78.667 40)" fill="#fad000" font-size="15" font-family="Lato-Bold, Lato" font-weight="700" letter-spacing="0.006em"><tspan x="0" y="0">SEGURO </tspan><tspan fill="#cedeee" font-size="12"><tspan x="0" y="14">Procesamiento confiable, el SUN está asentado </tspan><tspan x="0" y="28">sobre el protocolo de Blockchain Ethereum, lo que</tspan><tspan x="0" y="42" xml:space="preserve">lo hace privado y a prueba de cualquier hackeo.    </tspan></tspan></text>
</svg>
