<svg xmlns="http://www.w3.org/2000/svg" width="53.293" height="47.43" viewBox="0 0 53.293 47.43">
  <g id="Grupo_3279" data-name="Grupo 3279" transform="translate(0)">
    <g id="Grupo_3274" data-name="Grupo 3274" transform="translate(0.858 32.674)">
      <path id="Trazado_8177" data-name="Trazado 8177" d="M1332.527,750.839h-32.976a1.876,1.876,0,0,1,0-3.751h31.692a.8.8,0,0,0,.208-.452,2.6,2.6,0,0,0-.464-1.456H1292.6l-.56-.8a5.95,5.95,0,0,1,.21-7.747l.549-.55h47.624a1.876,1.876,0,1,1,0,3.752h-45.841a2.181,2.181,0,0,0,.086,1.594h38.095l.558.614a7.1,7.1,0,0,1,1.856,5,4.8,4.8,0,0,1-2.169,3.454Z" transform="translate(-1290.724 -736.083)" fill="#fff"/>
    </g>
    <g id="Grupo_3275" data-name="Grupo 3275" transform="translate(0 0)">
      <path id="Trazado_8178" data-name="Trazado 8178" d="M1330.825,260.639a26.646,26.646,0,1,0-53.027,3.731h52.678A20.225,20.225,0,0,0,1330.825,260.639Z" transform="translate(-1277.532 -233.993)" fill="#fff"/>
    </g>
  </g>
</svg>
