<svg xmlns="http://www.w3.org/2000/svg" xmlns:xlink="http://www.w3.org/1999/xlink" width="221" height="216" viewBox="0 0 221 216">
  <defs>
    <linearGradient id="linear-gradient" x1="0.5" x2="0.5" y2="1" gradientUnits="objectBoundingBox">
      <stop offset="0" stop-color="#05002a"/>
      <stop offset="1" stop-color="#025889"/>
    </linearGradient>
  </defs>
  <g id="Grupo_14357" data-name="Grupo 14357" transform="translate(-223 -3126)">
    <g id="Elipse_137" data-name="Elipse 137" transform="translate(223 3126)" stroke="#025889" stroke-width="1" fill="url(#linear-gradient)">
      <ellipse cx="110.5" cy="108" rx="110.5" ry="108" stroke="none"/>
      <ellipse cx="110.5" cy="108" rx="110" ry="107.5" fill="none"/>
    </g>
    <g id="Grupo_4329" data-name="Grupo 4329" transform="translate(257 3150)">
      <path id="Trazado_9590" data-name="Trazado 9590" d="M-7547.025-822.757l-9.859,10.9a35,35,0,0,1,3.108,12.932c.352,9.412-2.362,17.6-8.309,24.321q-11.234,12.7-22.681,25.167c-14.328,15.636-38.172,11.027-46.979-9.025a35.166,35.166,0,0,1,5.668-37.04q11.064-12.371,22.217-24.639c8.967-9.88,21.7-12.354,33.252-6.551a1.265,1.265,0,0,0,1.207-.03c3.112-3.375,6.174-6.81,9.25-10.232a1.7,1.7,0,0,0,.124-.259,35.113,35.113,0,0,1-3.145-14.259c-.01-8.8,2.622-16.516,8.2-22.807,7.826-8.833,15.644-17.684,23.742-26.212,6.6-6.942,14.714-9.578,23.715-8.124,10.306,1.671,17.769,7.9,22.418,18.22,5.155,11.444,3.2,26.544-4.845,35.718q-11.71,13.371-23.737,26.4c-8.4,9.1-21.233,11.682-32.3,6.02C-7546.346-822.447-7546.717-822.609-7547.025-822.757Zm-20.9,23.564-.385-.089c-.282.293-.574.574-.843.875-1.43,1.577-2.822,3.193-4.28,4.736-2.594,2.746-5.67,3.66-9.113,2.5s-5.562-3.814-6.249-7.738a10.436,10.436,0,0,1,2.595-9.127c1.657-1.858,3.362-3.66,5.214-5.667a9.909,9.909,0,0,0-1.051-.2,13.928,13.928,0,0,0-11.177,4.34c-1.912,1.947-3.753,3.992-5.509,6.113-.784.948-11.372,12.57-11.889,13.136-1.991,2.16-4.011,4.294-5.873,6.581a16.949,16.949,0,0,0-3.621,14.318c1.192,6.475,4.733,10.87,10.4,12.809,5.777,1.981,10.939.349,15.222-4.362,7.384-8.115,14.711-16.3,22.063-24.452a17.055,17.055,0,0,0,4.245-9.025A46.262,46.262,0,0,0-7567.924-799.194Zm32.047-36.037c4.86.472,8.972-.8,12.266-4.383q11.405-12.4,22.62-25.023a17.052,17.052,0,0,0,4.095-15.516c-1.345-6.373-4.977-10.633-10.641-12.418-5.5-1.73-10.453-.242-14.573,4.162-3.612,3.856-7.1,7.852-10.671,11.75-.288.31-11.516,12.762-12.408,13.876a17.363,17.363,0,0,0-3.78,10.883,22.768,22.768,0,0,0,.211,2.309c.355-.374.509-.531.66-.693,1.8-1.959,3.5-4.069,5.436-5.841a7.826,7.826,0,0,1,9.383-1.318c5.875,2.938,7.154,11.2,2.607,16.384C-7532.316-839.175-7534-837.331-7535.877-835.231Z" transform="translate(7634.652 909)" fill="#fad000"/>
      <path id="Trazado_9591" data-name="Trazado 9591" d="M-7609.862-899.839l0,.018Z" transform="translate(7704.904 938.786)" fill="#fad000"/>
    </g>
  </g>
</svg>
