<svg xmlns="http://www.w3.org/2000/svg" xmlns:xlink="http://www.w3.org/1999/xlink" width="1839" height="679.197" viewBox="0 0 1839 679.197">
  <defs>
    <linearGradient id="linear-gradient" x1="0.5" x2="0.5" y2="1" gradientUnits="objectBoundingBox">
      <stop offset="0" stop-color="#c3dbf2"/>
      <stop offset="1" stop-color="#f2f6f9" stop-opacity="0"/>
    </linearGradient>
    <clipPath id="clip-path">
      <path id="Trazado_49112" data-name="Trazado 49112" d="M0,113.251H143V-43.509H0Z" transform="translate(0 43.509)" fill="none"/>
    </clipPath>
  </defs>
  <rect id="Rectángulo_5800" data-name="Rectángulo 5800" width="1839" height="679.197" opacity="0.44" fill="url(#linear-gradient)"/>
  <g id="Grupo_14474" data-name="Grupo 14474" transform="translate(-87.573 53.381)">
    <path id="Trazado_49001" data-name="Trazado 49001" d="M365.859,67.145a27.063,27.063,0,1,1,27-26.516C392.664,55.179,380.293,67.329,365.859,67.145Zm8.186-26.531c1.614-.625,2.9-1.428,3.447-3.039,1.069-3.134-.013-5.6-3.092-7.167-.775-.393-1.955-.289-2.279-1.175-.3-.822.289-1.732.478-2.6.481-2.2.5-2.187-1.748-2.632-.67-.133-1.084-.047-1.205.742-.128.844-.428,1.66-.551,2.5-.148,1.008-.636,1.256-1.6,1.043-1.085-.239-.809-.9-.626-1.581.105-.394.2-.789.289-1.188.513-2.423.507-2.4-1.948-2.841-.574-.1-.823,0-.929.584-.173.961-.426,1.907-.611,2.866-.159.824-.474,1.2-1.419.9-1.278-.4-2.606-.655-3.913-.966-.379-.09-.861-.351-1.027.231a6.546,6.546,0,0,0-.471,2.486c.092.69,1.112.458,1.674.748.287.148.63.183.922.321a1.236,1.236,0,0,1,.795,1.569q-1.686,6.562-3.344,13.132a1.071,1.071,0,0,1-1.454.884c-.436-.1-.861-.247-1.292-.37a.8.8,0,0,0-1.041.337c-1.551,2.4-1.4,2.83,1.314,3.571.275.075.548.157.823.23,2.489.656,2.489.656,1.889,3.135-.59,2.445-.466,2.6,2.012,2.97.545.081.746-.072.849-.555.2-.956.478-1.9.62-2.863.136-.915.517-1.228,1.455-1.035,1.108.226.761.945.651,1.595-.068.4-.236.782-.3,1.182-.482,2.837-.834,2.079,1.877,2.885.721.215.948-.062,1.068-.688.177-.919.443-1.825.57-2.749.139-1.012.575-1.407,1.624-1.18a12.589,12.589,0,0,0,4.021.11c2.869-.31,4.624-2.065,5.326-5.237C377.538,43.864,376.9,42.412,374.044,40.615Z" transform="translate(0 0.003)" fill="#f4941d"/>
    <path id="Trazado_49002" data-name="Trazado 49002" d="M404.9,30.185a16.48,16.48,0,0,1,7.9-.767,10.5,10.5,0,0,1,9.183,8.042c2.409,8.5.919,16.273-5.411,22.7-6.962,7.067-19.849,9.122-28.8,4.838a1.465,1.465,0,0,1-.973-2.024q5.618-23.512,11.1-47.056a1.676,1.676,0,0,1,1.709-1.575c2.669-.3,5.316-.8,7.971-1.231,1.359-.218,1.349-.226,1.043,1.05q-1.777,7.422-3.54,14.846C405.01,29.316,404.983,29.637,404.9,30.185Zm-3.881,28.384a8.365,8.365,0,0,0,3.8-.735c6.595-3.029,8.589-9.27,8.195-14.928-.2-2.932-1.673-4.48-4.189-5.007a7.922,7.922,0,0,0-5.094.781,2.378,2.378,0,0,0-1.448,1.771c-1.2,5.024-2.446,10.034-3.7,15.045C397.868,58.37,397.85,58.365,401.018,58.569Z" transform="translate(7.463)" fill="#4e4e4e"/>
    <path id="Trazado_49003" data-name="Trazado 49003" d="M562.741,64.762c-1.387,0-2.773-.029-4.159.012-.8.024-1.142-.042-.942-1.056,1.283-6.508,2.483-13.032,3.7-19.552a14.326,14.326,0,0,0,.143-4.019,2.749,2.749,0,0,0-2.5-2.726,31.918,31.918,0,0,0-7.076.018c-.7.039-.681.548-.771,1.034q-1.969,10.686-3.955,21.369c-.261,1.4-.575,2.793-.811,4.2-.094.557-.328.735-.88.73-2.935-.021-5.871-.05-8.806.009-1.146.023-.772-.659-.675-1.189.826-4.483,1.69-8.959,2.512-13.442,1.138-6.205,2.5-12.369,3.344-18.626.092-.683.288-1.108,1-1.314,6.69-1.92,13.411-3.431,20.46-2.361,6.039.917,9.137,4.438,9.133,10.535,0,4.069-1.021,7.986-1.746,11.946-.82,4.485-1.736,8.951-2.542,13.437-.151.841-.483,1.046-1.272,1.012C565.515,64.718,564.127,64.761,562.741,64.762Z" transform="translate(30.661 2.254)" fill="#4e4e4e"/>
    <path id="Trazado_49004" data-name="Trazado 49004" d="M485.3,48.113a21.094,21.094,0,0,1,11.438-18.128,19.486,19.486,0,0,1,13.038-2.029c6.985,1.278,11.425,6.4,11.64,13.811.206,7.083-2,13.389-7.534,18.087a19.725,19.725,0,0,1-19.008,4.08C488.744,62.206,485.243,56.814,485.3,48.113Zm25.32-5.434a9.435,9.435,0,0,0-.282-2.666,5.4,5.4,0,0,0-8.086-3.64,7.967,7.967,0,0,0-2.565,2.22,17.608,17.608,0,0,0-3.19,7.566,13.119,13.119,0,0,0,.047,6.756,5.084,5.084,0,0,0,5.3,3.817c2.613-.021,4.279-1.569,5.625-3.562A20.189,20.189,0,0,0,510.616,42.679Z" transform="translate(22.796 2.272)" fill="#4e4e4e"/>
    <path id="Trazado_49005" data-name="Trazado 49005" d="M454.661,18.926c-.919,3.278-1.781,6.366-2.65,9.451-.4,1.428-.409,1.427,1.1,1.427,2.936,0,5.873.025,8.808-.015.853-.013,1.033.215.825,1.047-.495,1.975-.92,3.968-1.31,5.966-.146.745-.464.972-1.224.96-2.977-.046-5.954.01-8.931-.038-.823-.014-1.235.173-1.426,1.042-1.058,4.851-2.432,9.63-3.257,14.534-.479,2.849.662,4.36,3.531,4.55a16.783,16.783,0,0,0,6.644-.666c.542-.187.745-.095.781.47q.2,3.172.428,6.341a.721.721,0,0,1-.626.868c-4.5,1.2-9.05,1.86-13.662.887-5.471-1.153-7.665-4.294-7.381-10.048.2-4.025,1.394-7.847,2.193-11.75,1.518-7.421,3.649-14.694,5.325-22.076a1.328,1.328,0,0,1,1.206-1.234C448.161,20.122,451.278,19.535,454.661,18.926Z" transform="translate(15.174 0.922)" fill="#4e4e4e"/>
    <path id="Trazado_49006" data-name="Trazado 49006" d="M483.584,59.2v1.956c0,1.989.008,2.013-1.866,2.572a24.8,24.8,0,0,1-11.6.86c-7.13-1.28-11.4-6.378-11.57-13.644-.294-12.907,9.608-22.908,22.761-23a25.339,25.339,0,0,1,6.651.839c.757.2.986.492.715,1.269-.722,2.075-1.41,4.164-2.048,6.268-.208.686-.454.752-1.127.562-10.6-3-17.069,6.175-15.8,14.191.537,3.4,3.374,5.6,7.139,5.477a16.393,16.393,0,0,0,5.729-1.1c.781-.319,1.021-.11.989.7-.042,1.017-.01,2.037-.01,3.056Z" transform="translate(18.635 2.324)" fill="#4e4e4e"/>
    <path id="Trazado_49007" data-name="Trazado 49007" d="M424.7,64.514c-1.427,0-2.854-.027-4.28.01-.721.02-1.008-.088-.841-.945q3.226-16.66,6.36-33.34c.166-.886.441-1.217,1.389-1.191,2.689.07,5.381.052,8.071.01.9-.014,1.255.05,1.035,1.173q-3.246,16.594-6.34,33.219c-.169.9-.512,1.125-1.359,1.083C427.389,64.466,426.04,64.514,424.7,64.514Z" transform="translate(12.568 2.495)" fill="#4e4e4e"/>
    <path id="Trazado_49008" data-name="Trazado 49008" d="M524.472,64.518c-1.427,0-2.854-.024-4.28.009-.728.017-.971-.1-.805-.954q3.253-16.78,6.406-33.58c.131-.7.385-.946,1.106-.937q4.279.055,8.56,0c.787-.01.973.191.822.975q-3.214,16.664-6.356,33.34c-.17.907-.489,1.229-1.417,1.173-1.34-.082-2.69-.021-4.035-.021Z" transform="translate(28.09 2.497)" fill="#4e4e4e"/>
    <path id="Trazado_49009" data-name="Trazado 49009" d="M431.743,26.746a4.843,4.843,0,0,1-5.232-5.007,5.926,5.926,0,0,1,6.056-6,4.981,4.981,0,0,1,5.3,5.139C437.893,24.281,435.358,26.709,431.743,26.746Z" transform="translate(13.654 0.426)" fill="#4e4e4e"/>
    <path id="Trazado_49010" data-name="Trazado 49010" d="M531.477,26.74a4.842,4.842,0,0,1-5.167-5.078,5.962,5.962,0,0,1,6.026-5.924,4.992,4.992,0,0,1,5.342,5.1C537.7,24.319,535.168,26.734,531.477,26.74Z" transform="translate(29.174 0.426)" fill="#4e4e4e"/>
    <path id="Trazado_49011" data-name="Trazado 49011" d="M372.241,39.32c2.859,1.8,3.494,3.249,2.851,6.158-.7,3.172-2.457,4.927-5.326,5.237a12.589,12.589,0,0,1-4.021-.11c-1.048-.228-1.485.168-1.624,1.18-.127.924-.393,1.83-.57,2.749-.12.625-.347.9-1.068.688-2.711-.807-2.358-.049-1.877-2.885.068-.4.236-.782.3-1.182.111-.649.458-1.368-.651-1.595-.938-.193-1.318.12-1.455,1.035-.142.964-.417,1.908-.62,2.863-.1.483-.3.636-.849.555-2.477-.37-2.6-.525-2.012-2.97.6-2.479.6-2.479-1.889-3.135-.275-.073-.548-.155-.823-.23-2.718-.741-2.865-1.167-1.314-3.571a.8.8,0,0,1,1.041-.337c.431.122.856.269,1.292.37a1.071,1.071,0,0,0,1.454-.884q1.659-6.571,3.344-13.132a1.236,1.236,0,0,0-.795-1.569c-.292-.139-.636-.173-.922-.321-.563-.29-1.582-.058-1.674-.748A6.546,6.546,0,0,1,355.509,25c.166-.582.648-.321,1.027-.231,1.307.311,2.635.563,3.913.966.945.3,1.259-.079,1.419-.9.185-.959.438-1.9.611-2.866.106-.586.355-.686.929-.584,2.455.44,2.461.418,1.948,2.841-.084.4-.184.794-.289,1.188-.183.682-.459,1.342.626,1.581.961.213,1.449-.036,1.6-1.043.124-.844.423-1.66.551-2.5.121-.789.535-.875,1.205-.742,2.25.445,2.229.428,1.748,2.632-.189.871-.778,1.782-.478,2.6.324.886,1.5.782,2.279,1.175,3.079,1.562,4.161,4.033,3.092,7.166C375.139,37.892,373.855,38.695,372.241,39.32Zm-6.8,7.281c2.09.006,3.274-.671,3.586-2.061.367-1.636-.393-3-2.215-3.9a15.385,15.385,0,0,0-4.448-1.249c-.619-.1-.879.131-1.024.711-.381,1.541-.8,3.073-1.223,4.6-.146.527-.037.834.538,1A19.578,19.578,0,0,0,365.436,46.6Zm1.117-9.707c2.331.023,3.044-.446,3.436-2.139.342-1.473-.33-2.631-2-3.465a14.757,14.757,0,0,0-3.49-1.023c-.677-.15-.849.262-.969.779-.322,1.38-.627,2.764-.98,4.137a.791.791,0,0,0,.607,1.1A10.5,10.5,0,0,0,366.554,36.893Z" transform="translate(1.803 1.298)" fill="#fdfdfd"/>
    <path id="Trazado_49012" data-name="Trazado 49012" d="M364.124,44.176a19.578,19.578,0,0,1-4.785-.9c-.575-.162-.684-.469-.538-1,.421-1.531.841-3.062,1.223-4.6.144-.58.4-.812,1.024-.711a15.385,15.385,0,0,1,4.448,1.249c1.822.906,2.583,2.265,2.215,3.9C367.4,43.5,366.215,44.181,364.124,44.176Z" transform="translate(3.115 3.723)" fill="#f4941d"/>
    <path id="Trazado_49013" data-name="Trazado 49013" d="M364.912,35.7a10.5,10.5,0,0,1-3.391-.61.791.791,0,0,1-.607-1.1c.352-1.373.658-2.757.98-4.137.12-.517.292-.929.969-.779a14.757,14.757,0,0,1,3.49,1.023c1.665.834,2.338,1.992,2,3.465C367.956,35.251,367.243,35.72,364.912,35.7Z" transform="translate(3.445 2.494)" fill="#f4941d"/>
  </g>
  <g id="Grupo_14475" data-name="Grupo 14475" transform="translate(1613.367 -528.96)">
    <path id="Trazado_49014" data-name="Trazado 49014" d="M-339.593,642.644c3.875-7.851,7.565-15.094,11.011-22.451,1.019-2.174,2.377-2.852,4.55-2.519,2.606.4,1.5,2.457,1.516,3.775.092,10.117.06,20.235.041,30.353,0,1.6.614,3.486-2.3,3.431-2.955-.055-2.174-2.047-2.184-3.572-.05-7.863-.023-15.727-.872-23.808l-7.729,15.8c-.8,1.628-1.375,3.177-3.84,3.187-2.449.009-3.377-1.159-4.3-3.071-2.569-5.338-5.3-10.6-8.142-16.233-1.107,1.313-.749,2.547-.755,3.639q-.054,10.605-.009,21.21c.005,1.54.118,2.846-2.172,2.847-2.4,0-2.051-1.472-2.051-2.915,0-10.483-.025-20.967.039-31.45.007-1.14-.83-2.936,1.34-3.164,1.691-.178,3.215-.229,4.207,1.863,3.386,7.143,7,14.176,10.537,21.248C-340.494,641.229-340.223,641.61-339.593,642.644Z" transform="translate(-134.814 -10.158)" fill="#111"/>
    <path id="Trazado_49015" data-name="Trazado 49015" d="M-522.017,636.431c0-5.362.076-10.726-.036-16.085-.043-2.071.64-2.786,2.729-2.71,3.9.141,7.806-.016,11.707.059a10.22,10.22,0,0,1,9.981,7.14,10.025,10.025,0,0,1-4.64,11.982c-2.787,1.5-2.149,2.671-.958,4.61,2.1,3.421,4.128,6.893,6.034,10.425.506.938,2.486,2.184.616,3.154a3.064,3.064,0,0,1-4.265-1.593c-2.1-3.977-4.472-7.814-6.739-11.7-1.4-2.4-6.765-4.059-9.133-2.828-1.132.588-.781,1.676-.79,2.589-.037,3.656-.045,7.312,0,10.968.02,1.594.009,2.808-2.227,2.808-2.147,0-2.325-1.042-2.3-2.728C-521.979,647.156-522.02,641.794-522.017,636.431Zm4.657-8.285c0,1.579.048,3.161-.015,4.738-.051,1.264.469,1.706,1.714,1.674,2.8-.072,5.606.12,8.386-.1a5.989,5.989,0,0,0,5.512-6.169,5.93,5.93,0,0,0-5.048-6.207,19.848,19.848,0,0,0-4.358-.207C-517.362,621.858-517.362,621.868-517.36,628.146Z" transform="translate(-90.707 -10.168)" fill="#111"/>
    <path id="Trazado_49016" data-name="Trazado 49016" d="M-604.5,636.369c0,5.483-.045,10.965.029,16.446.022,1.631-.309,2.454-2.188,2.408-1.714-.042-2.382-.569-2.335-2.338.1-3.774-.054-7.555.064-11.328.061-1.91-.251-2.877-2.528-2.8-4.871.171-9.755.136-14.629.013-1.98-.05-2.5.706-2.454,2.544.1,3.774-.042,7.555.06,11.329.05,1.847-.484,2.6-2.466,2.582-2.021-.023-2.053-1.126-2.051-2.594q.036-16.081.007-32.162c0-1.536-.09-2.863,2.189-2.865,2.169,0,2.323,1.124,2.3,2.764-.048,3.776.089,7.557-.054,11.328-.082,2.149.458,3.04,2.815,2.948,4.627-.18,9.269-.159,13.9-.005,2.174.073,3.057-.438,2.929-2.794-.2-3.644-.07-7.307-.041-10.962.012-1.511-.461-3.195,2.153-3.281,2.934-.1,2.276,1.835,2.287,3.412C-604.476,626.135-604.5,631.252-604.5,636.369Z" transform="translate(-61.073 -10.161)" fill="#111"/>
    <path id="Trazado_49017" data-name="Trazado 49017" d="M-860.668,623.27c2.8-6.339,6.877-11.944,10.359-17.89,4.664-7.964,9.48-15.84,14.353-23.678.435-.7.553-3.545,2.676-1.272-1.477.768-.82,2.15-.826,3.247-.05,9.346-.022,18.693-.018,28.039-6.064,2.791-12.078,5.7-18.216,8.319C-855.068,621.2-857.44,623.372-860.668,623.27Z" transform="translate(-0.255)" fill="#757575"/>
    <path id="Trazado_49018" data-name="Trazado 49018" d="M-824.493,612.031c0-9.346-.032-18.693.018-28.039.006-1.1-.652-2.479.826-3.247l25.42,42.292c-3.223.313-5.738-1.6-8.5-2.72-5.921-2.4-11.365-5.93-17.681-7.384Z" transform="translate(-9.886 -0.315)" fill="#252525"/>
    <path id="Trazado_49019" data-name="Trazado 49019" d="M-744.683,636.421c0-5.362.078-10.725-.039-16.084-.045-2.072.629-2.731,2.71-2.692,6.339.119,12.682.051,19.024.04,1.408,0,2.654-.078,2.664,1.994.01,2.12-1.312,1.955-2.675,1.955-4.756,0-9.514.076-14.268-.037-2.07-.049-3.2.32-3.006,2.764.254,3.257-1.024,7.513.6,9.542,1.726,2.152,6.16.5,9.4.7a44.9,44.9,0,0,0,4.754,0c1.633-.072,2.863.056,2.813,2.234-.048,2.018-1.249,2-2.685,1.985-4.146-.032-8.3.089-12.438-.051-1.96-.066-2.4.608-2.454,2.483-.307,10.009-.363,10.007,9.628,10.007,2.682,0,5.366.029,8.049-.01,1.416-.021,2.272.273,2.27,2.005,0,1.8-.979,1.927-2.333,1.922-6.586-.02-13.172-.082-19.755.034-2.169.039-2.3-1.062-2.284-2.709C-744.651,647.144-744.683,641.783-744.683,636.421Z" transform="translate(-31.227 -10.172)" fill="#0c0c0c"/>
    <path id="Trazado_49020" data-name="Trazado 49020" d="M-468.256,636.454c0-5.363.072-10.727-.036-16.088-.042-2.081.687-2.749,2.755-2.714,6.342.107,12.685.054,19.028.026,1.442-.007,2.627-.034,2.643,2,.018,2.089-1.253,1.977-2.653,1.972-4.88-.018-9.76.054-14.638-.04-2.059-.04-2.808.7-2.682,2.771.2,3.276-1.065,7.582.575,9.571,1.724,2.089,6.194.486,9.458.659,1.46.078,2.927,0,4.391.015,1.531.016,3.233-.457,3.169,2.187-.065,2.74-1.947,1.957-3.351,1.984-3.78.07-7.567.133-11.342-.022-2.151-.088-2.91.433-2.933,2.781-.1,9.719-.191,9.718,9.629,9.714,2.805,0,5.612.044,8.416-.021,1.431-.033,1.945.581,1.947,1.949,0,1.326-.4,2.007-1.881,2-6.83-.047-13.662-.06-20.493,0-2.043.018-2.018-1.219-2.013-2.65C-468.244,647.18-468.256,641.817-468.256,636.454Z" transform="translate(-105.068 -10.174)" fill="#0c0c0c"/>
    <path id="Trazado_49021" data-name="Trazado 49021" d="M-834.379,623.435q.042.451.083.9.011,13.894.021,27.786c-2.109.045-3.476-1.517-5.1-2.449-6.813-3.911-13.568-7.922-20.307-11.959-.916-.549-3.04-.825-1.24-2.724,3.227.1,5.6-2.07,8.328-3.236C-846.456,629.135-840.443,626.226-834.379,623.435Z" transform="translate(0 -11.719)" fill="#292929"/>
    <path id="Trazado_49022" data-name="Trazado 49022" d="M-574.505,636.438c0-5.246.119-10.5-.053-15.736-.081-2.465.778-3.121,3.141-3.063,5.98.147,11.965.025,17.947.069,1.335.01,3.087-.591,3.164,1.845.086,2.714-1.861,2.038-3.3,2.056-4.639.055-9.281.1-13.918-.016-2.049-.053-2.684.589-2.744,2.691-.293,10.334-.359,10.331,10.017,10.331,1.465,0,2.935-.073,4.394.02,1.4.09,3.318-.77,3.368,1.981.055,2.988-2.034,2.141-3.549,2.169-3.906.075-7.818.119-11.72-.016-1.937-.067-2.432.6-2.505,2.486-.388,10.007-.443,10.005,9.682,10.005,2.687,0,5.373.04,8.059-.015,1.5-.03,2.262.433,2.219,2.088-.039,1.5-.8,1.846-2.084,1.842-6.715-.018-13.431-.048-20.146.017-2.06.02-1.988-1.234-1.983-2.65C-574.492,647.174-574.5,641.807-574.505,636.438Z" transform="translate(-76.681 -10.169)" fill="#0c0c0c"/>
    <path id="Trazado_49023" data-name="Trazado 49023" d="M-824.314,652.45q-.01-13.893-.021-27.786c6.316,1.454,11.76,4.988,17.681,7.384,2.762,1.118,5.276,3.033,8.5,2.72,1.092,1.077,1.2,1.963-.323,2.823C-807.131,642.472-815.435,647.96-824.314,652.45Z" transform="translate(-9.961 -12.047)" fill="#111"/>
    <path id="Trazado_49024" data-name="Trazado 49024" d="M-386.853,631.643c0,3.66.07,7.321-.016,10.978-.176,7.5-6.271,13-14.37,13.062-8.046.062-14.07-5.433-14.183-13.125-.106-7.318,0-14.638-.057-21.957-.015-1.8.113-3.019,2.477-2.976,2.42.043,2.011,1.575,2.013,2.986.012,6.587-.021,13.174.011,19.761.029,6.368,4.232,11.052,9.84,10.881a10.516,10.516,0,0,0,9.966-10.907c-.428-6.559-.1-13.168-.1-19.755,0-1.464-.289-2.9,2.064-2.967,2.5-.075,2.386,1.354,2.367,3.039C-386.88,624.323-386.851,627.983-386.853,631.643Z" transform="translate(-119.176 -10.166)" fill="#0c0c0c"/>
    <path id="Trazado_49025" data-name="Trazado 49025" d="M-834.864,683.592c-5.891-6.828-10.582-14.534-15.92-21.767a101.62,101.62,0,0,1-9.033-14.154c5.821,3.42,11.616,6.886,17.476,10.237,2.842,1.626,5.433,3.732,8.649,4.671-.075,5.807-.113,11.615-.254,17.42C-833.975,681.223-833.311,682.72-834.864,683.592Z" transform="translate(-0.483 -18.193)" fill="#757575"/>
    <path id="Trazado_49026" data-name="Trazado 49026" d="M-825.769,683.713c1.553-.872.889-2.369.918-3.594.141-5.805.179-11.613.254-17.42l24.951-14.576c.947,1.067.285,1.486-.009,1.9-7.81,11-15.616,22-23.528,32.921C-823.576,683.486-824,686.717-825.769,683.713Z" transform="translate(-9.578 -18.313)" fill="#292929"/>
    <path id="Trazado_49027" data-name="Trazado 49027" d="M-679.809,638.2c0-4.632-.1-9.266.043-13.894.064-2.13-.709-2.8-2.743-2.682-2.31.13-4.635-.012-6.951.034-1.48.03-2.681-.067-2.624-2.053.05-1.714,1.041-1.917,2.419-1.913q12.077.038,24.155,0c1.34,0,2.366.108,2.419,1.887.06,2.007-1.1,2.109-2.583,2.079-2.195-.045-4.4.135-6.584-.053-2.528-.218-3.351.636-3.305,3.237.155,8.774.115,17.552,0,26.327-.018,1.489,1.251,3.92-2.017,4.032-3.3.114-2.147-2.309-2.19-3.841C-679.887,646.975-679.809,642.585-679.809,638.2Z" transform="translate(-45.288 -10.184)" fill="#0c0c0c"/>
  </g>
  <g id="Grupo_14476" data-name="Grupo 14476" transform="translate(2048.389 -747.619)">
    <path id="Trazado_49028" data-name="Trazado 49028" d="M-496.457,831.937c2.852-.726,4.374-2.691,6.778-2.957,9.97-1.1,14.182,2.312,14.653,12.514.271,5.861-.1,11.752.163,17.614.189,4.275-2.664,3.231-4.975,3.319-2.519.1-4.971.49-4.74-3.568.3-5.321.121-10.676,0-16.013-.078-3.475-1.107-6.561-5.322-6.6-4.1-.039-6.2,2.439-6.34,6.386-.189,5.333-.395,10.687-.112,16.006.2,3.755-1.658,3.99-4.508,3.835-2.636-.144-5.2.626-5.1-3.812.281-12.631.238-25.275.014-37.908-.071-4.038,2.238-3.6,4.777-3.586,2.5.01,5.1-.552,4.772,3.533C-496.684,824.328-496.457,828-496.457,831.937Z" fill="#373737"/>
    <path id="Trazado_49029" data-name="Trazado 49029" d="M-449.61,848.451c-2.842,0-5.687.091-8.525-.023-2.924-.118-2.76,1.461-1.992,3.37,1.667,4.142,8.084,5.59,11.864,2.66.685-.53,1.027-1.59,1.754-1.963,2.474-1.268,5.743-1.543,7.511-.1,1.518,1.237-.732,3.786-1.967,5.424-4.018,5.328-12.8,7.14-19.952,4.229-6.974-2.839-10.811-11.391-9.077-20.229A15.1,15.1,0,0,1-454.678,829.2c10.646,0,16.382,5.347,16.7,15.3.089,2.8-.335,4.354-3.641,4.01A77.08,77.08,0,0,0-449.61,848.451Zm-4.205-5.782c1.454-2.368,5.651,1.911,5.93-2.326.2-3.078-3.049-4.5-6.17-4.432s-6.3,1.651-6.08,4.632C-459.885,843.917-456.137,841.157-453.815,842.669Z" fill="#373737"/>
    <path id="Trazado_49030" data-name="Trazado 49030" d="M-544.553,848.449c-2.671,0-5.344-.073-8.01.034-1.1.044-2.681-.711-3.14,1.031a4.3,4.3,0,0,0,1.016,3.477,7.847,7.847,0,0,0,10.968,1.523c3.1-2.564,7.858-2.826,8.91-.989,1.525,2.665-2.038,5.576-4.675,7.378-5.257,3.592-14.684,3.2-19.723-.6-5.766-4.345-8.073-13.27-5.4-20.883,2.3-6.547,7.666-10.171,15.045-10.162,10.109.013,15.3,4.7,16.449,14.615.371,3.2.016,5.165-3.973,4.637A57.4,57.4,0,0,0-544.553,848.449Zm-4.732-5.744c1.7-2.154,5.764,1.64,6.172-2.238.319-3.032-2.922-4.569-6.051-4.557-3.1.012-6.3,1.465-6.176,4.515C-555.192,844.135-551.379,840.979-549.285,842.705Z" fill="#373737"/>
    <path id="Trazado_49031" data-name="Trazado 49031" d="M-573.782,862.424c-8.044-.181-10.038-2.19-10.077-10.191-.017-3.558.033-7.116-.015-10.672-.037-2.686.979-5.958-3.831-5.73-2.082.1-1.447-2.066-1.463-3.344-.016-1.3-.431-3.293,1.8-3.067,4.683.475,3.666-2.871,3.429-5.218-.4-3.905,1.252-4.665,4.817-4.638,3.475.027,5.371.567,4.886,4.59-.33,2.745-.793,5.978,3.943,5.261,2.783-.422,2.531,1.706,2.571,3.5.039,1.768-.173,3.381-2.517,3.011-4.145-.656-4.172,1.927-4.078,4.84.1,3.2.055,6.4.024,9.605-.023,2.281.086,4.553,3.188,4.351,4.156-.271,3.25,2.607,3.39,4.98.185,3.151-1.989,2.731-3.931,2.725C-572.359,862.428-573.07,862.429-573.782,862.424Z" fill="#373737"/>
    <path id="Trazado_49032" data-name="Trazado 49032" d="M-525.705,846.751c0-2.129-.034-4.258.01-6.386.048-2.373.336-4.761-3.333-4.468-2.629.21-1.954-1.925-1.993-3.375-.036-1.34-.387-3.312,1.766-3.074,4.053.448,3.781-2.161,3.514-4.639-.391-3.635.335-5.412,4.723-5.293,3.9.106,5.639.945,4.955,5.016-.56,3.33.178,5.48,4.332,4.905,2.5-.346,2.112,1.762,2.134,3.3.022,1.594.254,3.525-2.261,3.162-4.4-.633-4.417,2.05-4.25,5.161.142,2.653.111,5.323.01,7.981-.122,3.216-.236,6.049,4.439,5.891,3.235-.108,1.784,2.783,2.028,4.439.253,1.719-.059,3.061-2.419,3.084-9.589.092-14.476-.263-13.668-11.983C-525.633,849.24-525.707,847.993-525.705,846.751Z" fill="#373737"/>
    <path id="Trazado_49033" data-name="Trazado 49033" d="M-423.655,833.261c2.331-3.933,6.385-3.181,9.606-4.318,1.522-.537,2.691.216,2.341,1.751-.521,2.283,2,5.555-1.949,6.781-9.944,3.089-9.975,3.1-10,13.3,0,1.954,0,3.907,0,5.86-.005,5.6-2.356,7.259-7.761,5.82-2.1-.56-1.67-2-1.677-3.292-.045-8.7-.008-17.4-.035-26.1-.006-2.057-.105-4.168,2.912-3.66C-427.742,829.815-423.539,827.381-423.655,833.261Z" fill="#373737"/>
    <path id="Trazado_49034" data-name="Trazado 49034" d="M-619.351,849.56v.6l-.007-.022-.01-.015c-.131.135-.257.276-.392.406q-7.84,7.515-15.683,15.028l-29.193,27.977a.73.73,0,0,1-1.189-.005l-7.518-7.2-24.887-23.853q-6.276-6.014-12.556-12.024c-.112-.108-.174-.262-.321-.334v-.55a.121.121,0,0,0,.015.017.037.037,0,0,0,.015.006c.041-.072.087-.142.123-.217q8.29-17.412,16.575-34.826a.846.846,0,0,1,.859-.54q28.292.008,56.583,0a.845.845,0,0,1,.857.542q6.545,13.766,13.1,27.526,1.747,3.672,3.5,7.341C-619.456,849.464-619.475,849.581-619.351,849.56Zm-45.855-24.681h-21.47c-.311,0-.312,0-.312.3v10.07c0,.3,0,.3.3.3h15.437c.141,0,.263-.021.262.2q-.011,3.3,0,6.606c0,.131-.03.189-.176.194-.527.021-1.053.054-1.58.085q-2.551.152-5.094.431c-1.511.167-3.018.368-4.517.623a44.25,44.25,0,0,0-6.614,1.566,13.764,13.764,0,0,0-3.4,1.565,3.748,3.748,0,0,0-1.114,1.076,1.578,1.578,0,0,0,0,1.811,3.034,3.034,0,0,0,.589.669,8.86,8.86,0,0,0,2.408,1.4,30.825,30.825,0,0,0,5.526,1.64c1.792.387,3.6.677,5.42.915q1.9.247,3.806.415c1.477.132,2.956.227,4.437.3.31.017.31.024.31.34v21.768c0,.313,0,.313.306.314h10.918c.378,0,.342.044.342-.346q0-10.838,0-21.676c0-.076,0-.153,0-.229-.008-.113.032-.171.153-.172.138,0,.275-.017.412-.023,1.245-.053,2.488-.142,3.73-.247,1.842-.156,3.68-.358,5.51-.628a54.442,54.442,0,0,0,6.6-1.337,19.518,19.518,0,0,0,4.353-1.67,5.215,5.215,0,0,0,1.51-1.178,1.666,1.666,0,0,0,.016-2.312,4.531,4.531,0,0,0-1.15-.974,15.441,15.441,0,0,0-3.628-1.568,50.946,50.946,0,0,0-8.013-1.706c-3.058-.441-6.134-.7-9.219-.849-.227-.011-.271-.082-.27-.293.008-2.125.005-4.251.005-6.376,0-.336,0-.337.33-.337h15.368c.3,0,.3,0,.3-.3v-10.07c0-.3,0-.3-.312-.3Z" fill="#50ae94"/>
    <path id="Trazado_49035" data-name="Trazado 49035" d="M-665.206,824.879h21.47c.311,0,.312,0,.312.3v10.07c0,.3,0,.3-.3.3h-15.368c-.33,0-.33,0-.33.337,0,2.125,0,4.251-.005,6.376,0,.211.043.282.27.293,3.085.154,6.161.408,9.219.849a50.946,50.946,0,0,1,8.013,1.706,15.441,15.441,0,0,1,3.628,1.568,4.531,4.531,0,0,1,1.15.974,1.666,1.666,0,0,1-.016,2.312,5.215,5.215,0,0,1-1.51,1.178,19.518,19.518,0,0,1-4.353,1.67,54.442,54.442,0,0,1-6.6,1.337c-1.83.27-3.668.472-5.51.628-1.242.1-2.485.194-3.73.247-.137.006-.274.022-.412.023-.121,0-.161.059-.153.172.005.076,0,.153,0,.229q0,10.839,0,21.676c0,.39.036.346-.342.346h-10.918c-.306,0-.306,0-.306-.314V855.387c0-.316,0-.323-.31-.34-1.481-.078-2.96-.173-4.437-.3q-1.908-.171-3.806-.415c-1.818-.238-3.628-.528-5.42-.915a30.825,30.825,0,0,1-5.526-1.64,8.86,8.86,0,0,1-2.408-1.4,3.034,3.034,0,0,1-.589-.669,1.578,1.578,0,0,1,0-1.811,3.748,3.748,0,0,1,1.114-1.076,13.764,13.764,0,0,1,3.4-1.565,44.25,44.25,0,0,1,6.614-1.566c1.5-.255,3.006-.456,4.517-.623q2.541-.282,5.094-.431c.527-.031,1.053-.064,1.58-.085.146,0,.176-.063.176-.194q0-3.3,0-6.606c0-.222-.121-.2-.262-.2h-15.437c-.3,0-.3,0-.3-.3v-10.07c0-.3,0-.3.312-.3Zm-1.066,28.395c2.2,0,4.582,0,6.965-.129,1.847-.1,3.693-.21,5.535-.387,2.031-.2,4.054-.449,6.062-.815a31.25,31.25,0,0,0,5.494-1.414,7,7,0,0,0,2.2-1.2,1.273,1.273,0,0,0-.009-2.173,5.655,5.655,0,0,0-1.4-.857,21.927,21.927,0,0,0-4.433-1.374,64.268,64.268,0,0,0-7.2-1.111q-3.034-.315-6.081-.45c-.3-.014-.3-.01-.3.282q0,2.982,0,5.964c0,.436-.008.872,0,1.307.005.176-.027.259-.229.262-.358.006-.716.053-1.075.068a98.414,98.414,0,0,1-9.972-.069c-.236-.014-.284-.083-.284-.3.008-2.416,0-4.832.01-7.248,0-.218-.048-.284-.278-.273-2.344.113-4.683.289-7.015.556a57.247,57.247,0,0,0-7.313,1.247,17.351,17.351,0,0,0-3.882,1.358,3.925,3.925,0,0,0-1.246.92,1.15,1.15,0,0,0,.007,1.637,3,3,0,0,0,.6.529,7.728,7.728,0,0,0,1.5.785,30.3,30.3,0,0,0,6.126,1.6,80.17,80.17,0,0,0,7.985.954C-671.825,853.146-669.144,853.244-666.272,853.274Z" fill="#fefefe"/>
    <path id="Trazado_49036" data-name="Trazado 49036" d="M-666.272,853.274c-2.872-.03-5.553-.128-8.229-.33a80.17,80.17,0,0,1-7.985-.954,30.3,30.3,0,0,1-6.126-1.6,7.728,7.728,0,0,1-1.5-.785,3,3,0,0,1-.6-.529,1.15,1.15,0,0,1-.007-1.637,3.925,3.925,0,0,1,1.246-.92,17.351,17.351,0,0,1,3.882-1.358,57.247,57.247,0,0,1,7.313-1.247c2.332-.267,4.671-.443,7.015-.556.23-.011.278.055.278.273-.008,2.416,0,4.832-.01,7.248,0,.221.048.29.284.3a98.414,98.414,0,0,0,9.972.069c.359-.015.717-.062,1.075-.068.2,0,.234-.086.229-.262-.011-.435,0-.871,0-1.307q0-2.982,0-5.964c0-.292,0-.3.3-.282q3.047.136,6.081.45a64.268,64.268,0,0,1,7.2,1.111,21.927,21.927,0,0,1,4.433,1.374,5.655,5.655,0,0,1,1.4.857,1.273,1.273,0,0,1,.009,2.173,7,7,0,0,1-2.2,1.2,31.25,31.25,0,0,1-5.494,1.414c-2.008.366-4.031.619-6.062.815-1.842.177-3.688.287-5.535.387C-661.69,853.274-664.075,853.277-666.272,853.274Z" fill="#50ae94"/>
  </g>
  <g id="Grupo_14477" data-name="Grupo 14477" transform="translate(1443.936 -646.527)">
    <path id="Trazado_49037" data-name="Trazado 49037" d="M-323.952,1053.739v-25.6h9.285v39.26c-3.419,0-6.881.086-10.331-.081-.6-.029-1.327-1.03-1.707-1.736-3.913-7.272-7.764-14.576-11.639-21.868-.4-.762-.851-1.5-1.628-2.865v26.35h-9.6v-39.163c3.47,0,7.02-.087,10.558.087.588.029,1.263,1.123,1.655,1.855,3.815,7.12,7.576,14.27,11.36,21.407.452.852.951,1.681,1.428,2.52Z" transform="translate(-337.798 -51.968)"/>
    <path id="Trazado_49038" data-name="Trazado 49038" d="M-509.5,1027.318c7.459.411,14.792.241,21.926,1.349,9.713,1.508,15.255,9.258,14.954,19.381-.3,10.018-6.484,17.328-16.239,18.37-6.763.723-13.61.651-20.641.944Zm10.172,8.089v23.962c10.822.935,16.178-3.082,16.179-11.983C-483.151,1038.464-488.431,1034.5-499.332,1035.407Z" transform="translate(-264.209 -51.649)"/>
    <path id="Trazado_49039" data-name="Trazado 49039" d="M-249.774,1026.007c12.592,0,20.232,7.7,20.253,20.433.022,12.887-7.629,20.622-20.362,20.588-12.547-.034-20.127-7.783-20.114-20.562C-269.983,1033.73-262.353,1026.011-249.774,1026.007Zm10.143,20.495a64.569,64.569,0,0,0-1.739-7.63,8.263,8.263,0,0,0-8.2-5.837,8.384,8.384,0,0,0-8.554,5.746,21.017,21.017,0,0,0,.013,15.522,8.364,8.364,0,0,0,8.316,5.7,8.316,8.316,0,0,0,8.441-5.883A62.37,62.37,0,0,0-239.631,1046.5Z" transform="translate(-374.415 -51.045)"/>
    <path id="Trazado_49040" data-name="Trazado 49040" d="M-563.012,1048.668c6.79,4.454,7.891,12.225,11.988,18.731-3.664,0-6.7.085-9.734-.067a2.853,2.853,0,0,1-1.887-1.428c-1.514-2.853-2.822-5.814-4.292-8.691-2.283-4.471-4.116-5.361-9.536-4.676v14.656H-586.6v-39.2c1.637,0,3.3-.025,4.964,0,5.029.091,10.095-.146,15.076.393,6.589.712,9.3,3.209,10.16,8.2C-555.431,1042.171-557.315,1045.6-563.012,1048.668Zm-13.41-3.395c3.312-.3,7.087,1.2,9.179-2.155a6.785,6.785,0,0,0,.01-5.981c-2.1-3.339-5.878-1.827-9.189-2.135Z" transform="translate(-228.736 -51.954)"/>
    <path id="Trazado_49041" data-name="Trazado 49041" d="M-645.818,1027.956l14.529,39.312H-641.42c-.662-1.946-1.215-3.94-2.043-5.81a2.864,2.864,0,0,0-1.924-1.576c-4.75-.136-9.507-.072-14.36-.072-.667,1.978-1.357,3.824-1.9,5.711-.369,1.272-.907,1.952-2.4,1.881-2.671-.127-5.352-.036-8.428-.036l4.38-11.848c3.109-8.411,6.285-16.8,9.275-25.253.658-1.859,1.553-2.445,3.45-2.351C-652.24,1028.069-649.094,1027.956-645.818,1027.956Zm-6.054,9.236-5.281,15.4h10.606Z" transform="translate(-189.218 -51.918)"/>
    <path id="Trazado_49042" data-name="Trazado 49042" d="M-435.5,1067.372c2.316-6.254,4.492-12.119,6.658-17.987,2.391-6.478,4.817-12.943,7.124-19.451a2.5,2.5,0,0,1,2.882-2.009c2.779.136,5.574-.059,8.35.1a2.852,2.852,0,0,1,2.128,1.357c4.637,12.339,9.168,24.717,13.714,37.09a4.8,4.8,0,0,1,.071.883c-3.019,0-6.019.093-9-.086-.533-.032-1.2-1.122-1.462-1.847-2.02-5.6-1.993-5.609-8.027-5.609h-4.851c-4.908,0-5.034-.036-6.419,4.777-.628,2.184-1.6,3.052-3.894,2.828C-430.447,1067.2-432.7,1067.372-435.5,1067.372Zm25.99-14.662-5.384-15.482c-1.924,5.609-3.591,10.47-5.311,15.482Z" transform="translate(-298.262 -51.925)"/>
    <path id="Trazado_49043" data-name="Trazado 49043" d="M-707.613,1056.6c0,2.123.115,4.175-.064,6.2a2.7,2.7,0,0,1-1.348,1.913c-7.429,3.008-14.912,3.28-22.175-.4-7.414-3.755-11.1-12.161-9.68-21.377,1.827-11.9,11.786-18.728,24.576-16.85.355.052.7.145,1.059.206,7.644,1.3,8.277,2.136,7.432,9.951-6.96-3.306-14.069-6.3-20.22,1.116-3.722,4.487-3.4,13.693.073,18.34C-724.241,1060.681-719.131,1060.93-707.613,1056.6Z" transform="translate(-157.607 -50.942)"/>
    <path id="Trazado_49044" data-name="Trazado 49044" d="M-923.358,1091.63a10.139,10.139,0,0,1-10.14-10.1,10.253,10.253,0,0,1,10.3-10.245,10.355,10.355,0,0,1,10.282,10.279A10.281,10.281,0,0,1-923.358,1091.63Z" transform="translate(-69.113 -71.881)" fill="#296fce"/>
    <path id="Trazado_49045" data-name="Trazado 49045" d="M-889.829,1040.727c-.035,5.571-4.82,10.527-10.246,10.281a10.563,10.563,0,0,1-10.332-10.522c-.024-5.2,5.068-10.087,10.325-10.078A10.506,10.506,0,0,1-889.829,1040.727Z" transform="translate(-79.738 -53.07)" fill="#296fce"/>
    <path id="Trazado_49046" data-name="Trazado 49046" d="M-959.787,1081.624a10.391,10.391,0,0,1-10.252,10.342c-5.3.076-10.19-4.775-10.234-10.147a10.543,10.543,0,0,1,10.19-10.472A10.33,10.33,0,0,1-959.787,1081.624Z" transform="translate(-47.59 -71.908)" fill="#296fce"/>
    <path id="Trazado_49047" data-name="Trazado 49047" d="M-993.636,1051.466c-4.792.427-10.3-5.037-10.031-10.419a10.324,10.324,0,0,1,10.64-9.92,10.472,10.472,0,0,1,10,10.365A10.4,10.4,0,0,1-993.636,1051.466Z" transform="translate(-36.822 -53.4)" fill="#296fce"/>
    <path id="Trazado_49048" data-name="Trazado 49048" d="M-923.516,990.333c5.445-.031,10.6,4.956,10.524,10.175a10.6,10.6,0,0,1-10.229,10.449c-5.041.089-10.443-4.782-10.373-10.115A10.79,10.79,0,0,1-923.516,990.333Z" transform="translate(-69.069 -34.63)" fill="#296fce"/>
    <path id="Trazado_49049" data-name="Trazado 49049" d="M-980.5,1000.674a10.62,10.62,0,0,1,10.358-10.328c5.714.007,10.279,4.917,10.216,10.99-.05,4.872-4.947,9.689-10.222,9.545C-976.09,1010.719-980.094,1006.8-980.5,1000.674Z" transform="translate(-47.484 -34.636)" fill="#296fce"/>
    <path id="Trazado_49050" data-name="Trazado 49050" d="M-873.4,1079.268a5.578,5.578,0,0,1,5.527,5.981,5.836,5.836,0,0,1-5.861,5.5,6.135,6.135,0,0,1-5.745-5.991A5.765,5.765,0,0,1-873.4,1079.268Z" transform="translate(-93.97 -75.552)" fill="#296fce"/>
    <path id="Trazado_49051" data-name="Trazado 49051" d="M-873.611,1010.042a5.671,5.671,0,0,1-5.952-5.532,5.973,5.973,0,0,1,5.835-6.09,6.088,6.088,0,0,1,5.722,5.975A5.69,5.69,0,0,1-873.611,1010.042Z" transform="translate(-93.931 -38.351)" fill="#296fce"/>
    <path id="Trazado_49052" data-name="Trazado 49052" d="M-937.145,1125.174a5.606,5.606,0,0,1-5.722,5.772,5.8,5.8,0,0,1-5.793-5.475,5.818,5.818,0,0,1,5.9-5.982A5.906,5.906,0,0,1-937.145,1125.174Z" transform="translate(-62.136 -94.06)" fill="#296fce"/>
    <path id="Trazado_49053" data-name="Trazado 49053" d="M-1012.687,1009.952c-3.395-.078-5.584-2.576-5.477-6.253a5.879,5.879,0,0,1,5.746-5.32,5.858,5.858,0,0,1,5.61,6.01A5.444,5.444,0,0,1-1012.687,1009.952Z" transform="translate(-30.154 -38.333)" fill="#296fce"/>
    <path id="Trazado_49054" data-name="Trazado 49054" d="M-1007,1085.157a5.464,5.464,0,0,1-5.431,5.761,6.026,6.026,0,0,1-6.065-5.629,6.148,6.148,0,0,1,5.8-5.949A5.63,5.63,0,0,1-1007,1085.157Z" transform="translate(-30 -75.585)" fill="#296fce"/>
    <path id="Trazado_49055" data-name="Trazado 49055" d="M-937.594,964.792c-.083,3.153-2.914,5.936-5.881,5.782a5.972,5.972,0,0,1-5.453-6.158c.066-3.288,2.558-5.547,6.005-5.444A5.467,5.467,0,0,1-937.594,964.792Z" transform="translate(-62.013 -20.199)" fill="#296fce"/>
    <path id="Trazado_49056" data-name="Trazado 49056" d="M-885.448,1135.847a4.883,4.883,0,0,1-4.9,4.727,4.743,4.743,0,0,1-4.582-4.7,4.585,4.585,0,0,1,4.821-4.7A4.843,4.843,0,0,1-885.448,1135.847Z" transform="translate(-86.86 -99.437)" fill="#296fce"/>
    <path id="Trazado_49057" data-name="Trazado 49057" d="M-833.636,1045.657a5,5,0,0,1-4.716,4.613,4.98,4.98,0,0,1-4.885-4.759,5.065,5.065,0,0,1,4.587-4.8A5.1,5.1,0,0,1-833.636,1045.657Z" transform="translate(-110.646 -57.812)" fill="#296fce"/>
    <path id="Trazado_49058" data-name="Trazado 49058" d="M-1046.346,1041.01a4.71,4.71,0,0,1,4.938,4.581,5.191,5.191,0,0,1-4.579,4.849,4.783,4.783,0,0,1-4.867-4.755A4.494,4.494,0,0,1-1046.346,1041.01Z" transform="translate(-15.113 -57.949)" fill="#296fce"/>
    <path id="Trazado_49059" data-name="Trazado 49059" d="M-994.26,960.172a4.854,4.854,0,0,1-4.562-4.777,5.057,5.057,0,0,1,4.781-4.908,5.113,5.113,0,0,1,4.613,4.785A5.193,5.193,0,0,1-994.26,960.172Z" transform="translate(-39.055 -16.296)" fill="#296fce"/>
    <path id="Trazado_49060" data-name="Trazado 49060" d="M-989.159,1136.076a4.662,4.662,0,0,1-4.912,4.6,4.9,4.9,0,0,1-4.52-4.772,5.058,5.058,0,0,1,5.04-4.621A4.585,4.585,0,0,1-989.159,1136.076Z" transform="translate(-39.159 -99.487)" fill="#296fce"/>
    <path id="Trazado_49061" data-name="Trazado 49061" d="M-889.785,951.044a4.571,4.571,0,0,1,4.655,4.555,4.625,4.625,0,0,1-4.643,4.875,4.941,4.941,0,0,1-4.734-4.867A4.764,4.764,0,0,1-889.785,951.044Z" transform="translate(-87.054 -16.552)" fill="#296fce"/>
    <path id="Trazado_49062" data-name="Trazado 49062" d="M-826.388,1110.609a3.7,3.7,0,0,1-3.415,3.725,3.85,3.85,0,0,1-3.788-3.695,3.6,3.6,0,0,1,3.584-3.544A3.629,3.629,0,0,1-826.388,1110.609Z" transform="translate(-115.084 -88.357)" fill="#296fce"/>
    <path id="Trazado_49063" data-name="Trazado 49063" d="M-940.652,1178.589a3.86,3.86,0,0,1-3.781-3.408,4.088,4.088,0,0,1,3.7-3.87,3.645,3.645,0,0,1,3.512,3.625A3.508,3.508,0,0,1-940.652,1178.589Z" transform="translate(-64.081 -117.906)" fill="#296fce"/>
    <path id="Trazado_49064" data-name="Trazado 49064" d="M-1048.274,1111.118a3.419,3.419,0,0,1-3.456,3.587,3.88,3.88,0,0,1-3.735-3.464,3.884,3.884,0,0,1,3.718-3.808A3.71,3.71,0,0,1-1048.274,1111.118Z" transform="translate(-12.991 -88.512)" fill="#296fce"/>
    <path id="Trazado_49065" data-name="Trazado 49065" d="M-941.207,915.073a3.682,3.682,0,0,1,3.714,3.722,4.38,4.38,0,0,1-3.8,3.545,3.856,3.856,0,0,1-3.441-3.76A3.385,3.385,0,0,1-941.207,915.073Z" transform="translate(-63.942)" fill="#296fce"/>
    <path id="Trazado_49066" data-name="Trazado 49066" d="M-1048.328,982.354a4.036,4.036,0,0,1-3.488,3.816,4.08,4.08,0,0,1-3.7-3.648,3.882,3.882,0,0,1,3.553-3.733A3.593,3.593,0,0,1-1048.328,982.354Z" transform="translate(-12.967 -29.317)" fill="#296fce"/>
    <path id="Trazado_49067" data-name="Trazado 49067" d="M-833.7,982.278a3.607,3.607,0,0,1,3.611-3.572,3.932,3.932,0,0,1,3.608,3.713,4,4,0,0,1-3.736,3.6A3.8,3.8,0,0,1-833.7,982.278Z" transform="translate(-115.034 -29.278)" fill="#296fce"/>
    <path id="Trazado_49068" data-name="Trazado 49068" d="M-800.077,1050.388c-.7-1.05-2.061-2.185-1.938-3.127a3.947,3.947,0,0,1,2.554-2.705,2.276,2.276,0,0,1,2.67,2.8c-.217,1.12-1.351,2.061-2.074,3.082Z" transform="translate(-129.61 -59.561)" fill="#296fce"/>
    <path id="Trazado_49069" data-name="Trazado 49069" d="M-1007.5,926.114c-1.051.683-2.177,1.994-3.132,1.88-1.032-.123-2.668-1.6-2.649-2.449.023-1,1.517-2.721,2.422-2.754,1.089-.041,2.232,1.368,3.351,2.149Z" transform="translate(-32.403 -3.552)" fill="#296fce"/>
    <path id="Trazado_49070" data-name="Trazado 49070" d="M-870.4,928.558c-.682-1.054-2.016-2.211-1.87-3.134a3.942,3.942,0,0,1,2.628-2.59,2.286,2.286,0,0,1,2.688,2.783c-.218,1.1-1.442,2-2.214,2.995Z" transform="translate(-97.281 -3.554)" fill="#296fce"/>
    <path id="Trazado_49071" data-name="Trazado 49071" d="M-870.235,1172.645c-.689-1.051-2.014-2.183-1.892-3.13a3.782,3.782,0,0,1,2.54-2.61,2.322,2.322,0,0,1,2.706,2.779c-.25,1.1-1.377,2.011-2.108,3.006Z" transform="translate(-97.348 -115.871)" fill="#296fce"/>
    <path id="Trazado_49072" data-name="Trazado 49072" d="M-1011.109,1173.076c-.762-1.136-2.124-2.288-2.094-3.4.024-.871,1.68-2.214,2.781-2.415a2.159,2.159,0,0,1,2.519,2.643c-.234,1.162-1.369,2.143-2.1,3.205Z" transform="translate(-32.438 -116.022)" fill="#296fce"/>
    <path id="Trazado_49073" data-name="Trazado 49073" d="M-1081.651,1050.913c-.687-1.026-1.726-1.973-1.978-3.1a2.011,2.011,0,0,1,2.477-2.573,4.115,4.115,0,0,1,2.745,2.515c.152.908-1.239,2.073-1.95,3.125Z" transform="translate(0 -59.866)" fill="#296fce"/>
  </g>
  <g id="Grupo_14478" data-name="Grupo 14478" transform="translate(1059.145 58.127)">
    <path id="Trazado_49074" data-name="Trazado 49074" d="M7.928,297.169a18.375,18.375,0,0,1,12.817-17.914c7.64-2.563,16.592.1,21.242,6.353.755,1.021,1.364,2.152,2.065,3.214a7.544,7.544,0,0,0,9.46,2.8,7.257,7.257,0,0,0,3.811-9.048,26.077,26.077,0,0,0-1.462-3.145,17.989,17.989,0,0,1,4-21.31,19.456,19.456,0,0,1,22.606-2.68,18.236,18.236,0,0,1,9.153,19.711,18.541,18.541,0,0,1-16.106,14.62c-1.492.176-3.005.143-4.5.283a7.068,7.068,0,0,0-6.685,6.759,7.341,7.341,0,0,0,6.231,7.586c1.943.31,3.942.316,5.858.731,8.2,1.773,14.348,8.43,15.061,16.178A18.5,18.5,0,0,1,80.1,340.2c-7.246,3.19-16.571,1.253-21.74-4.512-5.652-6.3-6.518-14.285-2.175-21.874,1.71-2.984,2.283-5.87.149-8.741-2-2.692-4.867-3.426-8.072-2.808-2.772.537-4.088,2.823-5.61,4.864-6.231,8.353-16.885,10.627-25.652,5.5A18.176,18.176,0,0,1,7.928,297.169Z" transform="translate(0 0)" fill="#128abd"/>
    <path id="Trazado_49075" data-name="Trazado 49075" d="M72.537,302.092c0,6.607-.146,13.3.069,19.979.09,2.844-.874,3.468-3.539,3.42-8.129-.14-8.129-.036-8.129-8.192,0-17.392.048-34.784-.054-52.176-.015-2.5.54-3.677,3.244-3.393,1.835.191,3.706.012,5.563.048.674.012,1.874.024,1.949.286,1.131,3.987,3.229,1.3,4.8.639a20.345,20.345,0,0,1,24.584,6.491,23.155,23.155,0,0,1-.713,28.383A20.8,20.8,0,0,1,75.4,302.9C74.614,302.527,73.933,301.71,72.537,302.092Zm-1.173-19.165c.042,7.081,4.748,11.814,11.713,11.782,6.515-.03,11.271-5.088,11.218-11.928-.054-6.894-4.843-11.844-11.373-11.758C75.873,271.115,71.322,275.8,71.364,282.927Z" transform="translate(105.08 15.857)" fill="#4e5159"/>
    <path id="Trazado_49076" data-name="Trazado 49076" d="M78.28,293.545c0-9.612.057-19.227-.045-28.84-.024-2.214.519-3.211,2.892-2.975,1.835.185,3.7.018,5.557.057.68.015,1.9.039,1.958.284,1.006,4.151,3.118,1.382,4.673.7a20.419,20.419,0,0,1,22.8,4.163,22.919,22.919,0,0,1,4.8,25.363c-5.207,11.385-17.443,15.807-28.732,10.2-2.456-1.218-2.4-.119-2.387,1.683.036,6.139-.084,12.277.075,18.413.063,2.34-.725,2.9-2.96,2.91-8.621.024-8.618.1-8.609-8.681q.009-11.638,0-23.28Zm21.907-22.5c-7.055-.006-11.782,4.673-11.773,11.659.006,7.141,4.6,11.955,11.474,12.014,6.565.057,11.424-4.9,11.468-11.7C111.405,276.105,106.687,271.05,100.187,271.041Z" transform="translate(139.51 15.847)" fill="#4e5159"/>
    <path id="Trazado_49077" data-name="Trazado 49077" d="M127.537,285.853c-4.053,0-8.114.134-12.161-.042-2.763-.116-2.835,1.116-2.113,3.157,2,5.655,9.078,8.6,15.378,6.356a18.879,18.879,0,0,0,2.531-1.143c4.449-2.375,4.372-2.313,8.216,1.644,1.447,1.489,1.629,2.393-.012,3.868-9.156,8.23-25.19,7.219-32.916-2.167-7.875-9.562-6.034-25.2,3.841-32.639a20.22,20.22,0,0,1,21.955-1.429c6.759,3.891,11.367,12.871,10.564,20.233-.212,1.946-1.194,2.193-2.769,2.176C135.881,285.82,131.709,285.85,127.537,285.853Zm-6.034-8.111c2.3,0,4.608-.057,6.908.018,2.017.063,2.39-.692,1.65-2.5a8.54,8.54,0,0,0-8.21-5.214c-3.468.107-7.183,2.617-8.222,5.416-.639,1.719-.09,2.337,1.653,2.292C117.355,277.7,119.429,277.742,121.5,277.742Z" transform="translate(185.781 15.637)" fill="#4e5159"/>
    <path id="Trazado_49078" data-name="Trazado 49078" d="M95.444,285.652c0-9.382.06-18.762-.045-28.141-.027-2.226.564-2.96,2.9-2.975,8.7-.045,8.693-.137,8.687,8.553-.009,16.676-.072,33.349.048,50.025.024,2.922-.6,4.1-3.8,4.053-7.81-.119-7.813.033-7.813-7.89q0-11.813,0-23.623Z" transform="translate(173.568 3.033)" fill="#4e5159"/>
    <path id="Trazado_49079" data-name="Trazado 49079" d="M53.2,265.891a20.021,20.021,0,0,1,12.919-4.927c2.6-.057,4.059.686,3.33,3.6a8.608,8.608,0,0,0-.149,1.033c-.636,5.222-.636,5.222-5.909,5.8-5.915.654-9.388,4.47-9.412,10.4-.024,6.491-.078,12.981.03,19.472.036,2.214-.639,2.993-2.948,3.065-8.568.269-8.58.355-8.592-8.1-.015-10.433.06-20.866-.048-31.3-.024-2.355.54-3.459,3.071-3.151a26.871,26.871,0,0,0,4.518.021C52.2,261.7,54.175,261.761,53.2,265.891Z" transform="translate(68.445 15.796)" fill="#4e5159"/>
    <path id="Trazado_49080" data-name="Trazado 49080" d="M65.031,282.466c0,6.144-.057,12.289.033,18.431.027,2.023-.552,2.826-2.728,2.916-8.651.364-8.657.442-8.669-8.066-.012-10.433.054-20.869-.054-31.3-.027-2.346.567-3.214,3.08-3.214,8.35,0,8.35-.1,8.353,8.368q0,6.432,0,12.868Z" transform="translate(90.655 16.33)" fill="#4e5159"/>
    <path id="Trazado_49081" data-name="Trazado 49081" d="M60.546,268.2c-4.151.027-7.577-3.113-7.58-6.953a8.031,8.031,0,0,1,7.589-7.574,7.561,7.561,0,0,1,7.535,7.472A7.417,7.417,0,0,1,60.546,268.2Z" transform="translate(89.372 1.338)" fill="#4e5159"/>
  </g>
  <g id="Grupo_14481" data-name="Grupo 14481" transform="translate(110.654 386.805)">
    <g id="Grupo_14479" data-name="Grupo 14479" transform="translate(182.845 128.353)">
      <path id="Trazado_49082" data-name="Trazado 49082" d="M205.53,135.525c5.661,9.753,11.151,19.016,16.379,28.425a7.325,7.325,0,0,1,.256,5.1c-2.8,9.338-5.98,18.562-8.7,27.921-.87,2.988-2.161,3.968-5.235,3.968-9.37,0-9.366.128-12.188-8.965-2.19-7.066-4.2-14.193-6.669-21.16a9.356,9.356,0,0,1,.809-8.9C195.358,153.452,200.189,144.774,205.53,135.525Z" transform="translate(-168.122 -110.07)"/>
      <path id="Trazado_49083" data-name="Trazado 49083" d="M194.79,128.353c7.311,10.406,14.552,20.638,21.653,30.97a4.923,4.923,0,0,1,.408,3.7c-1.579,5.448-3.389,10.832-5.512,17.465-3.255-5.572-5.462-10.633-8.795-14.8-8.646-10.821-9.469-23.229-8.5-36.173C194.07,129.258,194.354,129.02,194.79,128.353Z" transform="translate(-155.1 -128.353)"/>
      <path id="Trazado_49084" data-name="Trazado 49084" d="M208.572,128.424c5.955,20.589-6.651,34.988-16.4,51.427-2.051-6.4-3.876-11.911-5.558-17.469a3.744,3.744,0,0,1,.3-2.825C194.1,149.1,201.388,138.717,208.572,128.424Z" transform="translate(-173.616 -128.172)"/>
      <path id="Trazado_49085" data-name="Trazado 49085" d="M224.041,176.3h-27.9c3.212-10.236,6.3-20.078,9.8-31.243Z" transform="translate(-148.959 -85.764)"/>
      <path id="Trazado_49086" data-name="Trazado 49086" d="M200.623,145.131l9.792,30.789h-27.57Z" transform="translate(-182.845 -85.583)"/>
      <path id="Trazado_49087" data-name="Trazado 49087" d="M194.077,174.5l6.3-19.719h24.436l.5.745C215.3,161.613,205.282,167.7,194.077,174.5Z" transform="translate(-154.213 -60.976)"/>
      <path id="Trazado_49088" data-name="Trazado 49088" d="M215.637,174.3l-31.989-19.481h25.824Z" transform="translate(-180.798 -60.897)"/>
      <path id="Trazado_49089" data-name="Trazado 49089" d="M205.013,139.6l9.277,40.943-.916.355c-4.586-7.95-9.2-15.886-13.7-23.882a4.012,4.012,0,0,1-.138-2.811c1.476-4.962,3.081-9.884,4.639-14.821Z" transform="translate(-140.777 -100.243)"/>
      <path id="Trazado_49090" data-name="Trazado 49090" d="M192.779,139.113c1.934,6.058,3.56,10.967,5.033,15.922a4.012,4.012,0,0,1-.284,2.814,269.108,269.108,0,0,1-14.271,23.126Z" transform="translate(-181.795 -100.924)"/>
      <path id="Trazado_49091" data-name="Trazado 49091" d="M191.791,154.788h11.315l-5.661,19.794Z" transform="translate(-160.04 -60.966)"/>
    </g>
    <g id="Grupo_14480" data-name="Grupo 14480" transform="translate(286.133 160.924)">
      <path id="Trazado_49092" data-name="Trazado 49092" d="M239.893,190.508H211.947v-52.73h26.771v5.593h-20.6v17.536h19.052v5.551H218.123v18.463h21.771Z" transform="translate(-211.947 -136.898)"/>
      <path id="Trazado_49093" data-name="Trazado 49093" d="M246.413,192.024q-11.212,0-17.962-7.393T221.707,165.4q0-12.724,6.878-20.3T247.3,137.53q10.919,0,17.593,7.354t6.669,19.233q0,12.9-6.836,20.4T246.413,192.024Zm.444-48.907a17.02,17.02,0,0,0-13.5,5.995q-5.175,5.995-5.185,15.741t5.061,15.68a16.478,16.478,0,0,0,13.178,5.938q8.683,0,13.675-5.661t5.008-15.847q0-10.445-4.855-16.142T246.856,143.116Z" transform="translate(-187.067 -137.53)"/>
      <path id="Trazado_49094" data-name="Trazado 49094" d="M237.982,189.007v-7.283a14.215,14.215,0,0,0,3,1.988,24.3,24.3,0,0,0,3.677,1.491,29.792,29.792,0,0,0,3.879.937,21.706,21.706,0,0,0,3.606.33q5.7,0,8.511-2.112a7.935,7.935,0,0,0,1.874-9.8,10.588,10.588,0,0,0-2.591-2.889,25.946,25.946,0,0,0-3.918-2.5c-1.5-.791-3.127-1.636-4.873-2.516q-2.752-1.395-5.146-2.829a22.409,22.409,0,0,1-4.152-3.162,13.187,13.187,0,0,1-2.776-3.918,13.358,13.358,0,0,1,.568-11.4,13.586,13.586,0,0,1,4.156-4.394,18.91,18.91,0,0,1,5.863-2.57,26.7,26.7,0,0,1,6.711-.848q7.794,0,11.361,1.878v6.949q-4.669-3.237-11.986-3.24a19.777,19.777,0,0,0-4.042.426,11.532,11.532,0,0,0-3.606,1.377,8.005,8.005,0,0,0-2.577,2.467,6.555,6.555,0,0,0-.99,3.677,7.543,7.543,0,0,0,.752,3.492,8.608,8.608,0,0,0,2.225,2.683,21.971,21.971,0,0,0,3.588,2.353q2.108,1.139,4.869,2.5,2.832,1.4,5.37,2.942a24.6,24.6,0,0,1,4.447,3.421,15.226,15.226,0,0,1,3.035,4.153,11.68,11.68,0,0,1,1.118,5.224,13.231,13.231,0,0,1-1.523,6.6,12.5,12.5,0,0,1-4.117,4.394,18.019,18.019,0,0,1-5.977,2.445,32.663,32.663,0,0,1-7.134.756,29.254,29.254,0,0,1-3.088-.206c-1.228-.135-2.474-.33-3.751-.586a31.658,31.658,0,0,1-3.62-.955A11.483,11.483,0,0,1,237.982,189.007Z" transform="translate(-145.58 -137.53)"/>
    </g>
  </g>
  <g id="Grupo_14484" data-name="Grupo 14484" transform="translate(1182.625 171.373)">
    <g id="Grupo_14482" data-name="Grupo 14482" transform="translate(-9.625 354.785)">
      <path id="Trazado_49095" data-name="Trazado 49095" d="M36.017,446.4c-25.442-.344-45.81-20.393-45.642-46.177a45.429,45.429,0,0,1,45.9-45.439A45.4,45.4,0,0,1,81.929,400.7C81.86,426.319,61.494,446.187,36.017,446.4ZM15.8,428.793a5.368,5.368,0,0,0,1.037.272q18.8.026,37.612.03a2.571,2.571,0,0,0,2.669-2.129c.535-1.855,1.057-3.712,1.6-5.564.832-2.85.515-3.293-2.432-3.3-7.891-.005-15.785,0-23.909,0,.976-3.315,2.236-6.423,2.758-9.649.758-4.685,2.9-7.562,7.832-8.02a2.216,2.216,0,0,0,1.6-1.047c.589-1.493.924-3.083,1.446-4.957l-7.129,2.055c.144-.584.2-.849.275-1.109q3.517-12,7.027-24c.644-2.219.213-2.793-2.048-2.82-2.632-.03-5.269.089-7.9-.04-1.966-.1-2.818.755-3.335,2.575-2.288,8.013-4.927,15.936-6.948,24.016-1.092,4.36-2.805,7.369-7.634,7.79a2.473,2.473,0,0,0-1.748,1.184,43.479,43.479,0,0,0-1.5,4.831l7.166-2Z" transform="translate(9.625 -354.785)" fill="#345d9d"/>
      <path id="Trazado_49096" data-name="Trazado 49096" d="M1.074,420.609l6.44-21.876-7.166,2a43.479,43.479,0,0,1,1.5-4.831A2.473,2.473,0,0,1,3.6,394.717c4.828-.421,6.542-3.429,7.634-7.79,2.02-8.079,4.66-16,6.948-24.016.518-1.82,1.369-2.674,3.335-2.575,2.627.129,5.264.01,7.9.04,2.261.027,2.692.6,2.048,2.82q-3.488,12-7.027,24c-.074.26-.131.525-.275,1.109l7.129-2.055c-.522,1.874-.857,3.464-1.446,4.957a2.216,2.216,0,0,1-1.6,1.047c-4.927.458-7.074,3.335-7.832,8.02-.522,3.226-1.783,6.334-2.758,9.649,8.124,0,16.018,0,23.909,0,2.947,0,3.263.446,2.432,3.3-.54,1.852-1.062,3.709-1.6,5.564a2.571,2.571,0,0,1-2.669,2.129q-18.8-.019-37.612-.03A5.368,5.368,0,0,1,1.074,420.609Z" transform="translate(24.349 -346.602)" fill="#fff"/>
    </g>
    <g id="Grupo_14483" data-name="Grupo 14483" transform="translate(111.489 373.224)">
      <path id="Trazado_49097" data-name="Trazado 49097" d="M129.9,384.17a24.018,24.018,0,0,1-5.175,15.77c-4.821,6.21-11.331,8.468-18.979,7.151-6.217-1.07-9.528-5.046-10.684-12.21-1.8-11.147,5.8-23.275,16.052-25.615C122.338,366.7,129.9,372.706,129.9,384.17Zm-24.516,6.1c-.035,5.044,1.089,7.344,3.481,8.02,2.818.8,5.992-.674,7.975-3.843a17,17,0,0,0,2.627-11.311c-.265-2.2-.745-4.373-3.276-5.15-2.679-.825-4.89.146-6.7,2.05A15.4,15.4,0,0,0,105.382,390.266Z" transform="translate(42.643 -352.713)"/>
      <path id="Trazado_49098" data-name="Trazado 49098" d="M143.327,406.164c-5.329.015-5.3.02-4.078-5.17,1.362-5.774,2.783-11.536,3.979-17.347.879-4.271-1.288-6.418-5.593-6.009a3.138,3.138,0,0,0-3.189,2.815c-1.711,7.624-3.655,15.193-5.353,22.817-.5,2.256-1.5,3.189-3.823,2.944a42.257,42.257,0,0,0-5.343-.037c-1.649.035-2.033-.674-1.656-2.221q3.751-15.421,7.408-30.869a2.545,2.545,0,0,1,1.77-2.137c5.529-1.768,11.155-2.83,16.949-1.83,7.035,1.213,10.848,6.106,9.615,13.178-1.3,7.488-3.35,14.849-5.024,22.275a1.822,1.822,0,0,1-2.095,1.6C145.7,406.151,144.516,406.164,143.327,406.164Z" transform="translate(77.098 -352.635)"/>
      <path id="Trazado_49099" data-name="Trazado 49099" d="M83.293,407.341c-11.539.007-17.325-6.616-15.812-18.105,1.609-12.224,10.64-20.69,21.9-20.532,5.4.077,9.644,2.84,10.907,7.1a11.917,11.917,0,0,1-4.814,13.567A24.382,24.382,0,0,1,84,393.076c-1.379.141-2.756.295-4.135.436-2.1.213-1.855,1.424-1.05,2.689a5.03,5.03,0,0,0,4.3,2.246,23.486,23.486,0,0,0,8.535-.777c1.59-.518,2,.042,2.305,1.548,1.213,6.061.946,6.495-5.046,7.678A28.734,28.734,0,0,1,83.293,407.341ZM81.3,385.921a20.7,20.7,0,0,0,6.723-1.6c2.065-1,3.858-2.483,2.924-5.061-.953-2.627-3.281-2.486-5.492-1.874a9.721,9.721,0,0,0-6.423,5.68C77.91,385.552,78.2,386.012,81.3,385.921Z" transform="translate(1.976 -352.681)"/>
      <path id="Trazado_49100" data-name="Trazado 49100" d="M68.417,413.025a21.939,21.939,0,0,1-5.309-.7,8.867,8.867,0,0,1-7.007-8.491c-.389-5.452,1.354-10.56,2.508-15.753,1.458-6.562,3.1-13.081,4.633-19.625.23-.983.334-2.043,1.557-2.251,2.729-.468,5.465-.886,8.2-1.285,1.268-.186,1.543.463,1.258,1.595-.582,2.3-1.062,4.628-1.686,6.916-.4,1.463.087,2.021,1.545,2.006,2.474-.022,4.95.027,7.423,0,1.394-.015,2.1.433,1.567,1.936a4.177,4.177,0,0,0-.131.579c-1.241,5.955-1.241,5.955-7.324,5.955a27.606,27.606,0,0,1-2.969-.015c-1.956-.215-2.87.669-3.259,2.533-.849,4.063-1.914,8.082-2.711,12.153-.713,3.632.837,5.366,4.6,5.452.691.017,1.384-.055,2.075-.052,1.4.007,3.135-1.5,4.118.047,1.176,1.86.763,4.219.6,6.376-.069.914-1.085,1.075-1.822,1.29a29.213,29.213,0,0,1-3.462.807C71.364,412.737,69.888,412.856,68.417,413.025Z" transform="translate(-14.553 -358.308)"/>
      <path id="Trazado_49101" data-name="Trazado 49101" d="M98.065,407.325c-10.395.062-16.424-6.213-15.983-16.558.673-15.708,14.428-25.568,29.124-20.968,2.273.711,3.323,1.55,1.85,3.858a4.443,4.443,0,0,0-.607,1.35c-.792,3.38-2.518,4.016-5.957,3.073-6.4-1.756-12.049,2.412-13.138,9.055-.032.2-.045.394-.067.589-1.057,9.04,2.508,12.309,11.308,10.117,2.278-.567,2.914-.131,3.031,2.194.3,6.061-.089,6.646-6.3,7.275A32.543,32.543,0,0,1,98.065,407.325Z" transform="translate(23.845 -352.737)"/>
      <path id="Trazado_49102" data-name="Trazado 49102" d="M39.3,406.257c.713-6.908,2.843-13.522,4.318-20.272,1.434-6.562,3.127-13.066,4.588-19.623.443-2,1.248-3.142,3.454-3.221a44.127,44.127,0,0,0,4.977-.765c2.783-.423,3.145-.032,2.476,2.8q-4.123,17.453-8.268,34.9c-.275,1.154-.592,2.3-.763,3.474-.272,1.879.344,3.5,2.288,3.925,2.251.485,2.384,1.77,1.607,3.387-.938,1.956.312,5.249-2.944,5.764-4.289.681-9.389-2.169-10.882-5.735A10.308,10.308,0,0,1,39.3,406.257Z" transform="translate(-39.288 -362.232)"/>
      <path id="Trazado_49103" data-name="Trazado 49103" d="M115.082,405.6c-5.7-.079-5.433.728-3.987-5.272,2.243-9.32,4.5-18.64,6.6-27.992.515-2.283,1.342-3.263,3.895-3.216,7.28.134,7.337.017,5.707,7.183-1.84,8.094-3.759,16.171-5.7,24.243C120.125,406.671,121.074,405.451,115.082,405.6Z" transform="translate(65.404 -352.061)"/>
      <path id="Trazado_49104" data-name="Trazado 49104" d="M52.526,405.6c-5.668,0-5.645,0-4.336-5.435,2.241-9.31,4.514-18.613,6.626-27.953.5-2.2,1.345-3.1,3.722-3.08,7.634.047,7.631-.049,5.856,7.436-1.914,8.07-3.754,16.156-5.762,24.2C57.27,406.235,58.369,405.529,52.526,405.6Z" transform="translate(-27.208 -352.053)"/>
      <path id="Trazado_49105" data-name="Trazado 49105" d="M64.017,367.566a7.175,7.175,0,0,1-7.1,7.191c-3.41.015-5.8-2.186-5.8-5.351a7.266,7.266,0,0,1,7.037-6.963C61.794,362.367,63.968,364.268,64.017,367.566Z" transform="translate(-21.821 -361.923)"/>
      <path id="Trazado_49106" data-name="Trazado 49106" d="M113.968,369.38a7.033,7.033,0,0,1,7.28-6.94c3.415.052,5.725,2.305,5.631,5.485a7.472,7.472,0,0,1-7.218,6.861A5.3,5.3,0,0,1,113.968,369.38Z" transform="translate(70.945 -361.927)"/>
    </g>
  </g>
  <g id="Grupo_14492" data-name="Grupo 14492" transform="translate(-217 -285.795)">
    <g id="Grupo_14491" data-name="Grupo 14491" transform="translate(920 288.491)" clip-path="url(#clip-path)">
      <g id="Grupo_14486" data-name="Grupo 14486" transform="translate(-0.001)">
        <path id="Trazado_49107" data-name="Trazado 49107" d="M45.054,113.251C24.225,60.893,3.548,8.921-17.309-43.509c6.244,1.456,12.037,2.792,17.824,4.151Q49.338-27.874,98.157-16.375a7.529,7.529,0,0,1,2.313.782c8.366,5.336,16.7,10.719,25.22,16.2-26.863,37.528-53.64,74.93-80.637,112.642M-5.711-35.647c-.086.137-.173.277-.263.414C14.033-14.221,34.036,6.791,53.6,27.339,66.787,14.192,79.8,1.214,92.8-11.749c-32.639-7.919-65.573-15.907-98.511-23.9m48.83,131c.173-.032.346-.061.519-.09.382-3.239.771-6.474,1.139-9.717,1.888-16.62,3.743-33.248,5.707-49.861a4.367,4.367,0,0,0-1.239-3.934Q22.536,3.133-4.115-25.545c-.49-.526-1.041-.994-1.564-1.488-.108.09-.213.177-.321.263Q18.558,34.289,43.119,95.351m6.68,1.56c.151.061.3.123.45.18Q83.184,51.862,116.266,6.435a3.288,3.288,0,0,0-.638,0Q87.023,20.733,58.45,35.085a3.28,3.28,0,0,0-1.326,2.273c-1.326,10.081-2.569,20.173-3.8,30.265-1.193,9.76-2.346,19.524-3.52,29.288m13.828-71.5c.072.141.144.281.213.422l51.9-25C109.611-2.965,103.991-6.453,98.28-10Q80.845,7.815,63.627,25.411" transform="translate(17.309 43.509)" fill="#fff"/>
      </g>
      <g id="Grupo_14487" data-name="Grupo 14487" transform="translate(11.335 7.862)">
        <path id="Trazado_49108" data-name="Trazado 49108" d="M.19,0C33.124,7.988,66.059,15.979,98.7,23.9c-13,12.963-26.017,25.941-39.2,39.088C39.937,42.439,19.93,21.427-.073.414L.19,0" transform="translate(0.073)" fill="#2b2e34"/>
      </g>
      <g id="Grupo_14488" data-name="Grupo 14488" transform="translate(11.31 16.479)">
        <path id="Trazado_49109" data-name="Trazado 49109" d="M35.486,88.413Q10.928,27.355-13.633-33.708c.1-.086.213-.173.321-.259.522.494,1.074.958,1.564,1.484Q14.927-3.834,41.611,24.811a4.387,4.387,0,0,1,1.239,3.934c-1.967,16.613-3.819,33.241-5.707,49.864-.368,3.239-.76,6.474-1.139,9.713-.173.029-.346.061-.519.09" transform="translate(13.633 33.967)" fill="#2b2e34"/>
      </g>
      <g id="Grupo_14489" data-name="Grupo 14489" transform="translate(67.108 49.933)">
        <path id="Trazado_49110" data-name="Trazado 49110" d="M0,65.372Q1.756,50.726,3.52,36.084C4.752,25.992,6,15.9,7.321,5.819A3.314,3.314,0,0,1,8.647,3.546Q37.2-10.857,65.829-25.1a3.267,3.267,0,0,1,.638,0Q33.311,20.427.45,65.552c-.151-.058-.3-.119-.45-.18" transform="translate(0 25.115)" fill="#2b2e34"/>
      </g>
      <g id="Grupo_14490" data-name="Grupo 14490" transform="translate(80.935 33.511)">
        <path id="Trazado_49111" data-name="Trazado 49111" d="M0,25.582Q17.272,7.931,34.653-9.828C40.364-6.283,45.984-2.8,52.109,1.006L.213,26c-.068-.141-.141-.281-.213-.422" transform="translate(0 9.828)" fill="#2b2e34"/>
      </g>
    </g>
  </g>
</svg>
