<svg xmlns="http://www.w3.org/2000/svg" xmlns:xlink="http://www.w3.org/1999/xlink" width="346" height="139" viewBox="0 0 346 139">
  <defs>
    <clipPath id="clip-path">
      <rect id="Rectángulo_408" data-name="Rectángulo 408" width="17.48" height="14.514" fill="#fff"/>
    </clipPath>
    <clipPath id="clip-path-2">
      <rect id="Rectángulo_409" data-name="Rectángulo 409" width="34.741" height="9.704" fill="#fff"/>
    </clipPath>
    <clipPath id="clip-path-3">
      <rect id="Rectángulo_411" data-name="Rectángulo 411" width="19" height="18" transform="translate(-0.475 -0.03)" fill="#fff"/>
    </clipPath>
    <clipPath id="clip-path-4">
      <rect id="Rectángulo_412" data-name="Rectángulo 412" width="44.045" height="12.236" fill="#fff"/>
    </clipPath>
    <clipPath id="clip-path-5">
      <rect id="Rectángulo_413" data-name="Rectángulo 413" width="76.357" height="19.979" fill="#fff"/>
    </clipPath>
    <clipPath id="clip-path-6">
      <rect id="Rectángulo_417" data-name="Rectángulo 417" width="29.497" height="12.926" fill="#fff"/>
    </clipPath>
    <clipPath id="clip-path-7">
      <rect id="Rectángulo_418" data-name="Rectángulo 418" width="11.653" height="17.634" fill="#fff"/>
    </clipPath>
    <clipPath id="clip-path-8">
      <rect id="Rectángulo_420" data-name="Rectángulo 420" width="47.783" height="12.707" fill="#fff"/>
    </clipPath>
  </defs>
  <g id="Grupo_4554" data-name="Grupo 4554" transform="translate(-0.134)">
    <g id="Grupo_4561" data-name="Grupo 4561" transform="translate(0 0)">
      <rect id="Rectángulo_405" data-name="Rectángulo 405" width="92" height="28" rx="3" transform="translate(0.134)" fill="#043361"/>
      <g id="Grupo_4533" data-name="Grupo 4533" transform="translate(14.293 7.913)">
        <path id="Trazado_8084" data-name="Trazado 8084" d="M833.547,518.683a1.9,1.9,0,0,0-1.713.873,3.447,3.447,0,0,0-.628,2.677c.132.725.578,1.033,1.411.969a1.724,1.724,0,0,0,1.121-.539,3.4,3.4,0,0,0,.964-2.381,2.5,2.5,0,0,0-.161-.971A1.021,1.021,0,0,0,833.547,518.683Z" transform="translate(-786.222 -513.219)" fill="none"/>
        <path id="Trazado_8085" data-name="Trazado 8085" d="M821.677,518.753a2.3,2.3,0,0,0-1.692.218.349.349,0,0,0-.189.24q-.512,1.906-1.033,3.808c-.036.134-.009.212.157.224a3.148,3.148,0,0,0,1.838-.26,3.245,3.245,0,0,0,1.7-2.765,5.644,5.644,0,0,0-.071-.575A1,1,0,0,0,821.677,518.753Z" transform="translate(-802.03 -513.221)" fill="none"/>
        <path id="Trazado_8086" data-name="Trazado 8086" d="M818.144,515.947c-3.688-.006-6.734,2.649-6.745,5.881-.011,3.32,2.969,6.007,6.665,6.029,3.587.018,6.768-2.453,6.815-5.925C824.923,518.632,821.879,515.955,818.144,515.947Zm2.748,7.577a1.494,1.494,0,0,1-1.542.991,5.481,5.481,0,0,1-.906-.064c-.15-.02-.186.026-.216.13-.068.244-.146.485-.207.729-.036.14-.093.2-.275.152-.655-.166-.535-.054-.4-.587a3.038,3.038,0,0,1,.1-.342c.073-.192.025-.286-.228-.328-.216-.036-.318-.032-.355.184s-.125.455-.182.685c-.025.1-.064.132-.2.114-.605-.086-.617-.094-.457-.6.191-.6.191-.6-.5-.753-.2-.042-.4-.088-.6-.12-.184-.03-.218-.1-.132-.24a1.18,1.18,0,0,0,.064-.13c.073-.134.107-.308.225-.392s.3.04.455.06c.289.034.384-.018.457-.273.248-.883.491-1.764.737-2.647.089-.316.014-.429-.337-.527-.482-.134-.469-.132-.375-.563.05-.224.153-.256.382-.194.325.086.66.136.987.214.146.036.2.014.234-.124.055-.254.141-.5.2-.755.027-.112.084-.146.2-.124.027.006.055.006.08.012.6.156.525.03.391.553-.041.16-.08.322-.129.482-.057.182.1.2.225.212s.3.136.355-.092c.059-.246.137-.487.2-.731.027-.108.063-.15.216-.12.585.116.587.108.448.62-.05.184-.177.386-.127.543s.353.168.534.26a1.458,1.458,0,0,1,.874.843,1.115,1.115,0,0,1-.785,1.39A1.1,1.1,0,0,1,820.892,523.524Z" transform="translate(-811.399 -515.947)" fill="#fff"/>
        <path id="Trazado_8087" data-name="Trazado 8087" d="M823.316,519.553a4.206,4.206,0,0,0-1.331.262c.339-1.251.662-2.453.992-3.654.043-.16.05-.226-.182-.19-.694.106-1.39.208-2.091.276a.365.365,0,0,0-.387.322c-.491,1.852-.994,3.7-1.492,5.55-.441,1.646-.88,3.29-1.331,4.933-.046.168.007.238.177.3a7.542,7.542,0,0,0,.837.244,8.8,8.8,0,0,0,3.969.084,5.025,5.025,0,0,0,3.969-5.983A2.917,2.917,0,0,0,823.316,519.553Zm-.94,6.141a3.148,3.148,0,0,1-1.838.26c-.166-.012-.194-.09-.157-.224q.522-1.9,1.033-3.808a.349.349,0,0,1,.189-.24,2.3,2.3,0,0,1,1.692-.218,1,1,0,0,1,.712.889,5.5,5.5,0,0,1,.071.575A3.245,3.245,0,0,1,822.377,525.694Z" transform="translate(-803.648 -515.933)" fill="#fff"/>
        <path id="Trazado_8088" data-name="Trazado 8088" d="M836.142,517.847a4.827,4.827,0,0,0-4.1.937,4.93,4.93,0,0,0-1.931,4.783,2.728,2.728,0,0,0,1.972,2.3,4.333,4.333,0,0,0,1.495.214,4.748,4.748,0,0,0,3.423-1.26,4.9,4.9,0,0,0,1.581-4.579A2.794,2.794,0,0,0,836.142,517.847Zm-1,5.761a1.724,1.724,0,0,1-1.121.539c-.833.064-1.278-.244-1.41-.969a3.446,3.446,0,0,1,.628-2.677,1.9,1.9,0,0,1,1.713-.873,1.022,1.022,0,0,1,.994.627,2.5,2.5,0,0,1,.161.971A3.4,3.4,0,0,1,835.139,523.608Z" transform="translate(-787.623 -514.165)" fill="#fff"/>
        <path id="Trazado_8089" data-name="Trazado 8089" d="M844.747,520.131a2.3,2.3,0,0,0-2.109-2.275,9.4,9.4,0,0,0-3.76.192,2.36,2.36,0,0,0-.9.262c-.228.18-.189.537-.275.815l-.009.022q-.9,3.261-1.8,6.523c-.05.178-.018.222.193.218.653-.012,1.306-.018,1.956,0,.273.008.373-.058.434-.3.5-1.89,1.021-3.774,1.526-5.664a.255.255,0,0,1,.257-.216,6.3,6.3,0,0,1,.933-.05c.639.022.967.316.974.873a4.179,4.179,0,0,1-.189,1.091q-.529,2.011-1.074,4.021c-.048.176-.022.238.2.23.339-.016.678,0,1.017,0v0c.348,0,.7-.012,1.046,0,.194.01.253-.054.294-.212.307-1.159.626-2.313.94-3.47A6.928,6.928,0,0,0,844.747,520.131Z" transform="translate(-780.197 -514.156)" fill="#fff"/>
        <path id="Trazado_8090" data-name="Trazado 8090" d="M830.292,519.015c-.787.008-1.572,0-2.359.006-.193,0-.239-.024-.184-.208.212-.7.4-1.408.594-2.13-.055,0-.089,0-.121,0-.758.1-1.515.218-2.275.3-.209.024-.278.1-.323.263-.473,1.75-.955,3.5-1.435,5.248a8.956,8.956,0,0,0-.439,2.477,1.982,1.982,0,0,0,1.827,2.02,7.352,7.352,0,0,0,3.558-.23c.164-.048.134-.142.123-.24-.05-.453-.11-.9-.148-1.358-.014-.158-.08-.154-.214-.114a5.221,5.221,0,0,1-1.285.208c-1.044.034-1.47-.377-1.254-1.272.239-.995.528-1.98.785-2.973.036-.142.118-.158.257-.158.8,0,1.59,0,2.386.006.173,0,.248-.04.284-.192.12-.489.25-.977.4-1.46C830.518,519.043,830.475,519.015,830.292,519.015Z" transform="translate(-795.654 -515.214)" fill="#fff"/>
        <path id="Trazado_8091" data-name="Trazado 8091" d="M834.3,518.114a6.214,6.214,0,0,0-2.043-.376,5.631,5.631,0,0,0-3.976,1.321,4.6,4.6,0,0,0-1.542,4.327,3.023,3.023,0,0,0,2.6,2.563,6.676,6.676,0,0,0,3.547-.248c.148-.05.148-.126.134-.236-.052-.444-.109-.889-.141-1.334-.014-.2-.043-.276-.3-.188a4.6,4.6,0,0,1-1.6.23c-1.06-.03-1.558-.457-1.644-1.384a3.805,3.805,0,0,1,.057-1.1,2.431,2.431,0,0,1,2.05-2,3.572,3.572,0,0,1,1.988.194c.191.076.273.03.348-.132.211-.457.43-.911.669-1.357C834.541,518.222,834.475,518.172,834.3,518.114Z" transform="translate(-791.923 -514.161)" fill="#fff"/>
        <path id="Trazado_8092" data-name="Trazado 8092" d="M826,517.837c-.7.012-1.392.008-2.088,0-.173,0-.244.038-.282.2-.246.945-.5,1.888-.757,2.831-.423,1.574-.839,3.15-1.272,4.724-.048.174,0,.2.177.192.348-.01.7,0,1.044,0v0c.348,0,.7-.008,1.044,0,.164.006.241-.036.273-.18.05-.238.121-.474.185-.709.619-2.281,1.233-4.563,1.858-6.842C826.233,517.881,826.214,517.835,826,517.837Z" transform="translate(-798.409 -514.061)" fill="#fff"/>
        <path id="Trazado_8093" data-name="Trazado 8093" d="M838.323,517.838c-.339.016-.678,0-1.019,0h0c-.33,0-.662.018-.99,0-.243-.018-.309.068-.359.262q-.993,3.734-2.006,7.465c-.043.164-.02.22.189.216.678-.01,1.356-.014,2.036,0,.221.006.282-.072.325-.238q.632-2.364,1.276-4.724c.248-.921.5-1.842.753-2.759C838.578,517.882,838.539,517.828,838.323,517.838Z" transform="translate(-782.677 -514.063)" fill="#fff"/>
        <path id="Trazado_8094" data-name="Trazado 8094" d="M823.534,518.623a1.716,1.716,0,0,0,2.209-1.417,1.073,1.073,0,0,0-.971-1.127,1.789,1.789,0,0,0-2.1,1.095A1.1,1.1,0,0,0,823.534,518.623Z" transform="translate(-797.096 -515.86)" fill="#fff"/>
        <path id="Trazado_8095" data-name="Trazado 8095" d="M836.235,518.675a1.755,1.755,0,0,0,1.786-1.071c.314-.853-.273-1.566-1.292-1.566a1.714,1.714,0,0,0-1.667,1.045A1.158,1.158,0,0,0,836.235,518.675Z" transform="translate(-781.353 -515.856)" fill="#fff"/>
        <path id="Trazado_8096" data-name="Trazado 8096" d="M815.714,519.35a4.889,4.889,0,0,0-1.21-.356c-.1-.022-.2-.016-.227.1q-.16.581-.325,1.163c-.027.1.021.14.13.162a4.867,4.867,0,0,0,1.126.172c.107,0,.216.008.321,0,.459-.046.73-.341.664-.731A.762.762,0,0,0,815.714,519.35Z" transform="translate(-808.155 -512.917)" fill="#fff"/>
        <path id="Trazado_8097" data-name="Trazado 8097" d="M815.558,518.241a5.22,5.22,0,0,0-.84-.232c-.129-.03-.2.008-.23.124-.089.336-.182.669-.275,1-.027.1,0,.162.127.186a6.321,6.321,0,0,0,.769.13c.58.006.887-.146.965-.413C816.175,518.688,816.006,518.433,815.558,518.241Z" transform="translate(-807.824 -513.9)" fill="#fff"/>
      </g>
    </g>
  </g>
  <g id="Grupo_4555" data-name="Grupo 4555" transform="translate(119.241 -0.26)">
    <rect id="Rectángulo_406" data-name="Rectángulo 406" width="100" height="28" rx="3" transform="translate(-0.241 0.26)" fill="#043361"/>
    <g id="Grupo_4535" data-name="Grupo 4535" transform="translate(8.242 4.396)">
      <g id="Grupo_3138" data-name="Grupo 3138" transform="translate(19.054 4.64)">
        <path id="Trazado_8098" data-name="Trazado 8098" d="M776.839,520.291a2.671,2.671,0,0,1,1.777-1.224,2.266,2.266,0,0,1,2.756,2.171c.04.87.011,1.741.007,2.613,0,.187.063.454-.26.454-.372,0-.29-.294-.292-.5-.007-.764,0-1.526,0-2.288a2.569,2.569,0,0,0-.118-.9,1.609,1.609,0,0,0-1.408-1.112,1.786,1.786,0,0,0-1.763.756,2.744,2.744,0,0,0-.508,1.682c0,.652,0,1.307,0,1.96,0,.171.025.392-.245.408-.349.018-.286-.241-.288-.426-.009-.937.023-1.875-.027-2.81a1.684,1.684,0,0,0-1.57-1.582,1.891,1.891,0,0,0-2.082,1.244,3.163,3.163,0,0,0-.186,1.095c.014.7.007,1.393,0,2.092,0,.167.043.39-.245.4s-.258-.211-.258-.384q0-2.188,0-4.378c0-.171-.038-.386.24-.406.231-.018.224.169.276.316.191.539.444.105.621,0a2.393,2.393,0,0,1,3.385.591C776.7,520.13,776.76,520.2,776.839,520.291Z" transform="translate(-717.772 -514.802)" fill="#fff"/>
        <path id="Trazado_8099" data-name="Trazado 8099" d="M754.765,521.636c0-1.417,0-2.832,0-4.249,0-.183-.077-.47.22-.484.372-.018.283.292.285.493.007,1.327,0,2.657.009,3.986,0,.159-.1.376.12.468.2.08.288-.127.412-.215a2.457,2.457,0,0,1,2.366-.354,1.96,1.96,0,0,1,1.4,1.783c.063,1,.032,2,.036,3,0,.147.023.334-.224.346-.3.016-.281-.191-.281-.364,0-.828,0-1.656,0-2.484a1.768,1.768,0,0,0-1.745-1.98,1.941,1.941,0,0,0-2.087,1.89c-.05.826,0,1.654,0,2.482,0,.185.068.454-.26.448s-.243-.281-.245-.46C754.763,524.511,754.765,523.072,754.765,521.636Z" transform="translate(-739.755 -516.903)" fill="#fff"/>
        <path id="Trazado_8100" data-name="Trazado 8100" d="M761.418,521.961c-.671,0-1.342.026-2.01-.008-.542-.026-.564.169-.435.543a2.5,2.5,0,0,0,4,.848c.163-.143.288-.535.607-.259.258.227-.077.432-.245.6a3.3,3.3,0,0,1-3.56.456,2.68,2.68,0,0,1-1.256-3.443,2.93,2.93,0,0,1,5.518.651c.059.432-.032.655-.607.623C762.761,521.933,762.088,521.961,761.418,521.961Zm-.319-.442c.641,0,1.285-.012,1.928.006.374.01.478-.1.39-.424a2.38,2.38,0,0,0-2.234-1.628,2.343,2.343,0,0,0-2.264,1.67c-.084.3-.02.388.324.38C759.861,521.509,760.479,521.519,761.1,521.519Z" transform="translate(-735.274 -514.802)" fill="#fff"/>
        <path id="Trazado_8101" data-name="Trazado 8101" d="M751.228,521.959c-.644,0-1.29.026-1.933-.006-.526-.026-.657.114-.494.559a2.509,2.509,0,0,0,3.952.868c.07-.06.12-.137.186-.2.116-.118.254-.255.435-.135.22.143.07.307-.034.456a3.248,3.248,0,0,1-3.488.754,2.688,2.688,0,0,1-1.607-3.26,2.905,2.905,0,0,1,5.631.559c0,.32-.152.418-.492.412C752.667,521.951,751.948,521.959,751.228,521.959Zm-.2-.442c.616,0,1.233,0,1.851,0,.288,0,.462-.018.387-.358a2.4,2.4,0,0,0-2.252-1.69,2.355,2.355,0,0,0-2.273,1.66c-.057.277.011.4.36.39C749.746,521.505,750.387,521.517,751.031,521.517Z" transform="translate(-748.137 -514.8)" fill="#fff"/>
        <path id="Trazado_8102" data-name="Trazado 8102" d="M767.71,521.961c-.671,0-1.344.016-2.012-.006-.519-.018-.574.167-.437.553a2.506,2.506,0,0,0,3.954.87c.1-.091.186-.205.292-.295a.261.261,0,0,1,.333-.038.209.209,0,0,1,.057.3,1.754,1.754,0,0,1-.517.549,3.291,3.291,0,0,1-3.535.107,2.644,2.644,0,0,1-1.024-3.347,2.877,2.877,0,0,1,3.075-1.6,2.829,2.829,0,0,1,2.427,2.344c.064.444-.109.589-.6.571C769.052,521.941,768.381,521.959,767.71,521.961Zm-.29-.444c.618,0,1.237-.02,1.853.006.478.02.533-.131.4-.5a2.364,2.364,0,0,0-4.439-.006c-.124.354-.081.525.4.5C766.233,521.5,766.829,521.517,767.42,521.517Z" transform="translate(-727.318 -514.8)" fill="#fff"/>
        <path id="Trazado_8103" data-name="Trazado 8103" d="M772.837,523.361a2.512,2.512,0,0,1-2.445,1.013,2.125,2.125,0,0,1-1.854-1.956c-.059-.977-.023-1.958-.025-2.939,0-.173-.018-.39.272-.372s.227.245.229.406c.007.872-.023,1.743.011,2.615a1.79,1.79,0,0,0,2.23,1.783,1.694,1.694,0,0,0,1.332-1.108,7.724,7.724,0,0,0,.272-2.848c.007-.173,0-.348,0-.521s.023-.324.256-.33.27.169.27.322c.009.7.007,1.395.007,2.092,0,.74.007,1.481,0,2.221,0,.2.1.511-.256.521-.378.012-.236-.306-.27-.5C772.853,523.673,772.853,523.586,772.837,523.361Z" transform="translate(-722.351 -514.725)" fill="#fff"/>
        <path id="Trazado_8104" data-name="Trazado 8104" d="M753.343,522.852c0-.587-.045-1.18.011-1.763.054-.545-.195-.7-.755-.629a3,3,0,0,1-.447,0c-.165,0-.3-.066-.3-.221s.131-.221.3-.235a.446.446,0,0,0,.073,0c.362-.073.868.2,1.072-.185a2.292,2.292,0,0,0,.048-.969,1.909,1.909,0,0,1,0-.2c.023-.2-.077-.519.272-.513s.245.32.259.527c.009.108,0,.217,0,.327,0,.939,0,.941,1.054,1.009.222.014.51-.014.485.267-.021.221-.281.189-.478.2-1.061.062-1.061.062-1.061.987,0,1.069.007,2.135-.007,3.2,0,.211.138.563-.281.557-.351-.006-.238-.33-.24-.529C753.334,524.074,753.343,523.463,753.343,522.852Z" transform="translate(-743.431 -515.684)" fill="#fff"/>
        <path id="Trazado_8105" data-name="Trazado 8105" d="M762.889,519.981a3.993,3.993,0,0,1,1.53-.852c.231-.038.557-.159.65.111.111.324-.27.276-.483.34a2.288,2.288,0,0,0-1.808,2.29c-.029.673,0,1.347-.011,2.022,0,.169.023.382-.279.362-.238-.016-.224-.2-.224-.35q0-2.215,0-4.434c0-.173-.009-.382.279-.366.238.012.216.2.229.35C762.785,519.623,762.715,519.8,762.889,519.981Z" transform="translate(-730.254 -514.757)" fill="#fff"/>
      </g>
      <g id="Grupo_3139" data-name="Grupo 3139">
        <path id="Trazado_8106" data-name="Trazado 8106" d="M752.711,524.06c.052-.2-.1-.328-.2-.476q-1.975-2.88-3.945-5.763c-.689-1.007-1.369-2.016-2.048-3.025-.127-.185-.242-.388-.4-.02q-3.039,4.43-6.075,8.866c-.122.177-.354.328-.265.585v0a4.843,4.843,0,0,0,1.541.91c1.645.852,3.254,1.757,4.949,2.529a6.709,6.709,0,0,0,1.557-.736c1.6-.816,3.188-1.65,4.779-2.478C752.784,524.354,753.056,524.273,752.711,524.06Z" transform="translate(-739.696 -514.571)" fill="#fff"/>
        <path id="Trazado_8107" data-name="Trazado 8107" d="M751.531,520.72q-2.587,1.358-5.176,2.72-3.148-1.624-6.293-3.25c-.077-.092-.179-.205-.306-.128-.075.046.014.137.116.159q1.563,1.946,3.127,3.891c1.011,1.252,2.021,2.5,3.046,3.747.068.081.161.529.388.064.227-.028.315-.2.428-.338q2.872-3.549,5.74-7.1c.075-.094.206-.183.052-.348C752.281,520.33,751.9,520.523,751.531,520.72Z" transform="translate(-739.729 -509.159)" fill="#fff"/>
      </g>
    </g>
  </g>
  <g id="Grupo_4556" data-name="Grupo 4556" transform="translate(181.879 54.322)">
    <rect id="Rectángulo_407" data-name="Rectángulo 407" width="100" height="28" rx="3" transform="translate(0.121 -0.322)" fill="#043361"/>
    <g id="Grupo_4537" data-name="Grupo 4537" transform="translate(14.858 6.992)">
      <g id="Grupo_4536" data-name="Grupo 4536" transform="translate(0 0)" clip-path="url(#clip-path)">
        <path id="Trazado_14769" data-name="Trazado 14769" d="M17.48,20.375c-.838,0-1.634,0-2.431,0a.3.3,0,0,1-.179-.093q-1.942-1.918-3.88-3.84a3.125,3.125,0,0,0-4.517,0q-1.936,1.924-3.881,3.84a.277.277,0,0,1-.161.09c-.8.006-1.6,0-2.432,0a.755.755,0,0,1,.061-.081c1.749-1.732,3.484-3.48,5.254-5.192a4.877,4.877,0,0,1,6.842,0c1.761,1.712,3.5,3.452,5.24,5.18.02.019.038.041.083.09" transform="translate(0 -5.861)" fill="#fff"/>
        <path id="Trazado_14770" data-name="Trazado 14770" d="M.073,0C.864,0,1.655,0,2.446,0A.319.319,0,0,1,2.64.1q1.952,1.923,3.9,3.85a3.118,3.118,0,0,0,4.426,0Q12.9,2.029,14.834.12A.357.357,0,0,1,15.04.006C15.836,0,16.632,0,17.456,0c-.049.056-.08.095-.115.13Q14.779,2.666,12.216,5.2a4.911,4.911,0,0,1-6.926.01Q2.7,2.661.128.1A.42.42,0,0,0,.036.05L.073,0" transform="translate(-0.015 0)" fill="#fff"/>
      </g>
    </g>
    <g id="Grupo_4539" data-name="Grupo 4539" transform="translate(47.196 9.145)">
      <g id="Grupo_4538" data-name="Grupo 4538" transform="translate(0 0)" clip-path="url(#clip-path-2)">
        <path id="Trazado_14771" data-name="Trazado 14771" d="M16.206,4.887c-.141-.152-.233-.27-.344-.368a.767.767,0,0,1-.23-1.045A1.7,1.7,0,0,0,14.088,1.2c-1.277-.053-2.556-.013-3.868-.013V4.713c.587,0,1.18.045,1.765-.008a3.023,3.023,0,0,1,2.874,1.32c.846,1.108,1.8,2.131,2.706,3.192.1.121.2.249.353.446-.526,0-.969.019-1.407-.013a.691.691,0,0,1-.392-.253c-.758-.86-1.518-1.718-2.254-2.6a2.392,2.392,0,0,0-2.048-.924c-.526.021-1.053,0-1.626,0V9.633H8.986c-.01-.144-.029-.286-.029-.428q0-4.189,0-8.377c0-.62.181-.807.79-.809,1.413,0,2.828-.043,4.237.013a2.958,2.958,0,0,1,2.781,1.856,2.727,2.727,0,0,1-.558,3" transform="translate(5.358 0.001)" fill="#fff"/>
        <path id="Trazado_14772" data-name="Trazado 14772" d="M17.934,5.865V9.639H16.721V.05A2.171,2.171,0,0,1,17,.015c1.56,0,3.122-.018,4.682,0a2.913,2.913,0,0,1,2.776,4.074,3.065,3.065,0,0,1-2.9,1.766c-1.01.026-2.024.006-3.037.006Zm.022-1.159c1.218,0,2.394,0,3.569,0a1.828,1.828,0,0,0,1.953-1.763,1.81,1.81,0,0,0-1.937-1.774c-1.081-.011-2.159,0-3.24,0a2.643,2.643,0,0,0-.345.046Z" transform="translate(10.006 0.004)" fill="#fff"/>
        <path id="Trazado_14773" data-name="Trazado 14773" d="M11.262,7.727c-.443,0-.889.024-1.328-.013A.828.828,0,0,1,9.49,7.45c-.756-.748-1.5-1.512-2.249-2.262A2.043,2.043,0,0,0,4.087,5.2c-.692.692-1.4,1.373-2.062,2.1a1.176,1.176,0,0,1-1.081.441A9.129,9.129,0,0,0,0,7.727c1.287-1.3,2.457-2.591,3.75-3.747A3.051,3.051,0,0,1,7.88,4.2q1.738,1.681,3.464,3.374l-.082.149" transform="translate(0 1.961)" fill="#fff"/>
        <path id="Trazado_14774" data-name="Trazado 14774" d="M.092.019C.522.019.952,0,1.377.03a.807.807,0,0,1,.456.235C2.579,1,3.311,1.747,4.047,2.492a2.059,2.059,0,0,0,3.224.014C7.934,1.831,8.617,1.175,9.259.479A1.213,1.213,0,0,1,10.381.012a6.7,6.7,0,0,0,.841.006c.006.048.026.093.011.107-1.143,1.159-2.26,2.342-3.44,3.462a3.106,3.106,0,0,1-4.257.01C2.34,2.474,1.181,1.309.006.163L.092.019" transform="translate(0.004 0)" fill="#fff"/>
      </g>
    </g>
  </g>
  <g id="Grupo_4558" data-name="Grupo 4558" transform="translate(233.365 107.66)">
    <rect id="Rectángulo_410" data-name="Rectángulo 410" width="100" height="28" rx="3" transform="translate(-0.365 0.34)" fill="#043361"/>
    <g id="Grupo_4541" data-name="Grupo 4541" transform="translate(13.11 4.37)">
      <g id="Grupo_4540" data-name="Grupo 4540" transform="translate(0 0)" clip-path="url(#clip-path-3)">
        <path id="Trazado_14775" data-name="Trazado 14775" d="M18.354,8.708v.938c-.013.117-.028.235-.038.353A9,9,0,0,1,17,13.978a9.176,9.176,0,0,1-6.807,4.32l-.545.057H8.708c-.114-.013-.228-.027-.343-.038a9,9,0,0,1-4.031-1.345A9.1,9.1,0,0,1,1.2,13.714,8.977,8.977,0,0,1,.057,10.182Q.028,9.915,0,9.646V8.728c.006-.04.013-.08.018-.119.035-.31.057-.623.107-.931a8.92,8.92,0,0,1,1.236-3.31,9.129,9.129,0,0,1,3.19-3.117A9.017,9.017,0,0,1,8.162.057L8.708,0h.938c.049.007.1.018.15.021a8.952,8.952,0,0,1,2.562.547,9.1,9.1,0,0,1,4.429,3.484A8.983,8.983,0,0,1,18.3,8.163c.02.181.038.363.057.545M8.635,11.637c.007-.04.01-.06.015-.079.186-.7.372-1.405.563-2.107a.184.184,0,0,1,.1-.1q.61-.231,1.225-.448a.176.176,0,0,0,.125-.139c.1-.375.2-.749.3-1.123.008-.03.013-.061.023-.113l-1.4.511,1-3.773h-.14c-.846,0-1.693,0-2.538,0-.114,0-.155.037-.183.143Q7.109,6.748,6.484,9.092a.161.161,0,0,1-.115.124c-.31.11-.62.222-.928.339a.174.174,0,0,0-.093.1c-.108.389-.21.78-.313,1.171-.006.025-.01.05-.016.089L6.1,10.522c-.261.979-.515,1.934-.772,2.9h.149q1.76,0,3.518,0,1.886,0,3.772,0a.105.105,0,0,0,.123-.1c.094-.361.194-.721.291-1.082.053-.2.106-.4.163-.612Z" fill="#fff"/>
      </g>
    </g>
    <g id="Grupo_4543" data-name="Grupo 4543" transform="translate(39.33 6.992)">
      <g id="Grupo_4542" data-name="Grupo 4542" transform="translate(0 0)" clip-path="url(#clip-path-4)">
        <path id="Trazado_14776" data-name="Trazado 14776" d="M18.859,10.113a3.045,3.045,0,0,1-3.233,2.568,2.3,2.3,0,0,1-2.468-2.5,11.222,11.222,0,0,1,.114-1.541,22.419,22.419,0,0,1,.441-2.5A3.2,3.2,0,0,1,17.7,3.9,2.272,2.272,0,0,1,19.406,6.03c.1,1.42.1,1.429-1.245,1.848-1.2.372-2.389.752-3.592,1.1a.69.69,0,0,0-.609.754c-.019,1.31.392,1.994,1.419,2.221a2.267,2.267,0,0,0,2.6-1.391c.177-.448.385-.633.88-.446M14.167,8.224c.109.02.169.05.214.036,1.321-.4,2.641-.811,3.957-1.231a.437.437,0,0,0,.247-.253,1.842,1.842,0,0,0-.963-2.1,2.286,2.286,0,0,0-2.883.94,5.867,5.867,0,0,0-.572,2.6" transform="translate(-1.658 -0.476)" fill="#fff"/>
        <path id="Trazado_14777" data-name="Trazado 14777" d="M30.406,9.9c.216-1.268.356-2.556.666-3.8A3.188,3.188,0,0,1,35.084,3.91a2.361,2.361,0,0,1,1.656,2.771c-.119,1.1-.254,2.195-.439,3.283a3.25,3.25,0,0,1-4.242,2.584c-1.05-.317-1.577-1.209-1.654-2.643m.856-.205c-.044,1.471.64,2.314,1.923,2.314a2.224,2.224,0,0,0,2.209-1.684,33.766,33.766,0,0,0,.521-4.206A1.574,1.574,0,0,0,34.6,4.553a2.3,2.3,0,0,0-2.8,1.714C31.571,7.4,31.44,8.554,31.262,9.7" transform="translate(-3.831 -0.475)" fill="#fff"/>
        <path id="Trazado_14778" data-name="Trazado 14778" d="M44.9,4.024V4.73a8.293,8.293,0,0,1,1.839-.836c1.9-.364,2.976.862,2.685,2.895-.238,1.659-.433,3.324-.649,4.986-.017.128-.044.255-.051.384-.018.335-.218.488-.508.38a.558.558,0,0,1-.269-.455c.147-1.356.333-2.707.5-4.061.064-.511.138-1.023.165-1.538a1.659,1.659,0,0,0-.973-1.816,2.047,2.047,0,0,0-2.217.4,2.805,2.805,0,0,0-.861,1.92c-.208,1.663-.456,3.323-.628,4.99-.06.592-.32.655-.854.527.129-1.07.253-2.124.386-3.177.2-1.572.407-3.143.593-4.717.079-.669.087-.695.839-.586" transform="translate(-5.429 -0.483)" fill="#fff"/>
        <path id="Trazado_14779" data-name="Trazado 14779" d="M27.7,10.115a3.226,3.226,0,0,1-4.16,2.44A2.137,2.137,0,0,1,22,10.6a13.992,13.992,0,0,1,.533-4.541,3.218,3.218,0,0,1,4.312-2.044,2.119,2.119,0,0,1,1.269,2.4c-.3.008-.628.19-.744-.338a1.906,1.906,0,0,0-3.176-1.129,2.943,2.943,0,0,0-.952,1.485,21.957,21.957,0,0,0-.48,3.333,1.791,1.791,0,0,0,1.394,2.183,2.29,2.29,0,0,0,2.608-1.384c.182-.485.434-.636.94-.454" transform="translate(-2.77 -0.476)" fill="#fff"/>
        <path id="Trazado_14780" data-name="Trazado 14780" d="M10.548,11.5c.135.544-.071.789-.572.865-1.4.212-2.093-.413-1.931-1.827.328-2.855.7-5.705,1.03-8.561.06-.506.317-.607.839-.468-.086.742-.135,1.508-.275,2.256-.1.533.1.66.567.629a4.032,4.032,0,0,1,.884.016c.137.022.253.181.378.277-.123.118-.237.322-.373.338a6.95,6.95,0,0,1-1.161.015c-.309-.014-.466.073-.505.414-.2,1.7-.435,3.4-.62,5.1-.1.895.368,1.252,1.254,1.039.156-.037.313-.061.483-.1" transform="translate(-1.011 -0.183)" fill="#fff"/>
        <path id="Trazado_14781" data-name="Trazado 14781" d="M2.3.139c-.142,1.141-.28,2.253-.42,3.365C1.551,6.08,1.221,8.656.9,11.234c-.111.906-.141.951-.9.766q.337-2.676.674-5.36c.247-1.993.5-3.985.735-5.979C1.48.066,1.539.014,2.3.139" transform="translate(0 -0.011)" fill="#fff"/>
        <path id="Trazado_14782" data-name="Trazado 14782" d="M3.918,12.509c.149-1.218.29-2.4.438-3.588.179-1.426.375-2.849.539-4.276.059-.507.212-.818.872-.6-.017.218-.029.467-.059.712-.29,2.322-.587,4.643-.874,6.966-.112.906-.108.912-.917.786" transform="translate(-0.494 -0.501)" fill="#fff"/>
        <path id="Trazado_14783" data-name="Trazado 14783" d="M39.437,12.509c.231-1.807.457-3.578.683-5.35.109-.859.205-1.721.33-2.578.093-.637.109-.635.853-.543-.068.573-.134,1.15-.2,1.725q-.38,3.1-.762,6.2c-.078.633-.126.67-.9.544" transform="translate(-4.969 -0.503)" fill="#fff"/>
        <path id="Trazado_14784" data-name="Trazado 14784" d="M41.3,0c.583.035.8.246.8.642s-.254.69-.615.607a.956.956,0,0,1-.621-.623C40.834.419,41.177.158,41.3,0" transform="translate(-5.149)" fill="#fff"/>
        <path id="Trazado_14785" data-name="Trazado 14785" d="M5.3,0c.583.035.8.246.8.642s-.254.69-.615.607A.956.956,0,0,1,4.863.627C4.834.419,5.177.158,5.3,0" transform="translate(-0.613)" fill="#fff"/>
      </g>
    </g>
  </g>
  <g id="Grupo_4559" data-name="Grupo 4559" transform="translate(48 54.164)">
    <rect id="Rectángulo_414" data-name="Rectángulo 414" width="100" height="28" rx="3" transform="translate(0 -0.164)" fill="#043361"/>
    <g id="Grupo_4545" data-name="Grupo 4545" transform="translate(9.614 4.37)">
      <g id="Grupo_4544" data-name="Grupo 4544" transform="translate(0 0)" clip-path="url(#clip-path-5)">
        <path id="Trazado_14786" data-name="Trazado 14786" d="M105.66,13.944v4.339H104.2V11.366c.441,0,.878-.016,1.312.011.1.007.219.142.3.244q1.438,1.891,2.868,3.789c.071.1.16.178.293.323V11.4h1.476v6.917c-.438,0-.876.019-1.309-.012-.117-.008-.245-.153-.33-.264-.96-1.26-1.913-2.527-2.869-3.789-.068-.09-.152-.166-.278-.3" transform="translate(-42.718 -4.658)" fill="#fff"/>
        <path id="Trazado_14787" data-name="Trazado 14787" d="M120.413,18.365a3.607,3.607,0,0,1-3.7-2.863,3.547,3.547,0,0,1,3.215-4.28,3.837,3.837,0,0,1,3.36,1.214,3.545,3.545,0,0,1-1.934,5.806c-.307.067-.625.083-.937.123m-.011-5.754a2.118,2.118,0,0,0-2.123,2.163,2.126,2.126,0,1,0,2.123-2.163" transform="translate(-47.81 -4.595)" fill="#fff"/>
        <path id="Trazado_14788" data-name="Trazado 14788" d="M78.778,18.311V11.357c1.021,0,2.023.007,3.026,0a3.641,3.641,0,0,1,2.112.6A3.326,3.326,0,0,1,85.335,15.5a3.211,3.211,0,0,1-2.607,2.714,3.682,3.682,0,0,1-.86.095c-1.02.011-2.039,0-3.09,0M80.338,17c.506,0,.974.021,1.439,0a1.982,1.982,0,0,0,1.958-1.728,2.047,2.047,0,0,0-1.388-2.45,13.684,13.684,0,0,0-2.009-.184Z" transform="translate(-32.295 -4.655)" fill="#fff"/>
        <path id="Trazado_14789" data-name="Trazado 14789" d="M66.582,11.464c1.313,0,2.6-.073,3.873.023a1.994,1.994,0,0,1,1.935,1.786,2.443,2.443,0,0,1-1.065,2.7c-.046.029-.089.062-.153.108l1.446,2.259c-.611,0-1.167.011-1.721-.012-.082,0-.177-.149-.234-.247-.281-.489-.539-.991-.837-1.47a.6.6,0,0,0-.4-.245c-.411-.032-.827-.012-1.288-.012v1.962H66.582Zm1.544,3.576c.59,0,1.141.026,1.688-.007a1.11,1.11,0,0,0,1.119-1.1,1.042,1.042,0,0,0-.959-1.182,15.656,15.656,0,0,0-1.847-.015Z" transform="translate(-27.295 -4.689)" fill="#fff"/>
        <path id="Trazado_14790" data-name="Trazado 14790" d="M92.3,16.957c-.148.356-.3.692-.425,1.039a.365.365,0,0,1-.418.292c-.436-.021-.873-.005-1.361-.005.456-1.056.889-2.063,1.327-3.067.527-1.208,1.067-2.412,1.578-3.626a.347.347,0,0,1,.389-.261c.442.015.975-.141,1.3.056s.413.73.584,1.127c.82,1.9,1.631,3.808,2.469,5.77-.553,0-1.057.008-1.56-.008a.342.342,0,0,1-.224-.179,3.172,3.172,0,0,1-.286-.68c-.1-.4-.339-.479-.718-.467-.882.028-1.765.009-2.655.009m2.665-1.29-1.071-2.63c-.381.942-.718,1.773-1.064,2.63Z" transform="translate(-36.934 -4.626)" fill="#fff"/>
        <path id="Trazado_14791" data-name="Trazado 14791" d="M60.086,18.283c-.529,0-1.023.007-1.515-.008-.082,0-.164-.1-.239-.158a.186.186,0,0,1-.054-.109c-.151-.969-.764-1.167-1.64-1.065a16.472,16.472,0,0,1-1.863.017,1.071,1.071,0,0,0-.115.015,6.6,6.6,0,0,0-.365.884c-.1.371-.3.461-.658.431-.369-.031-.744-.006-1.172-.006.352-.824.684-1.617,1.028-2.4.625-1.435,1.251-2.87,1.892-4.3.05-.112.225-.169.345-.247.019-.012.054,0,.082,0,.427,0,.947-.137,1.257.056s.391.716.556,1.1q1.167,2.7,2.322,5.414c.047.112.084.228.139.378m-2.76-2.613-1.067-2.635-1.07,2.635Z" transform="translate(-21.507 -4.627)" fill="#fff"/>
        <path id="Trazado_14792" data-name="Trazado 14792" d="M46.937,16.087l.89.988a3.833,3.833,0,0,1-5.364.311,3.6,3.6,0,0,1,.072-5.288,3.882,3.882,0,0,1,5.278.292l-.9,1.112a2.451,2.451,0,0,0-2.141-.889,2.018,2.018,0,0,0-1.273.7,2.245,2.245,0,0,0,.013,2.848c.83.953,1.909.937,3.423-.078" transform="translate(-16.948 -4.592)" fill="#fff"/>
        <path id="Trazado_14793" data-name="Trazado 14793" d="M14.4,9.41a1.449,1.449,0,0,1,1.452,1.472,1.487,1.487,0,0,1-1.463,1.48A1.521,1.521,0,0,1,12.9,10.853,1.483,1.483,0,0,1,14.4,9.41" transform="translate(-5.29 -3.858)" fill="#fff"/>
        <path id="Trazado_14794" data-name="Trazado 14794" d="M20.214,22.392a1.46,1.46,0,0,1,.005-2.92,1.486,1.486,0,0,1,1.5,1.486,1.467,1.467,0,0,1-1.506,1.433" transform="translate(-7.694 -7.983)" fill="#fff"/>
        <path id="Trazado_14795" data-name="Trazado 14795" d="M10.06,15.89a1.411,1.411,0,0,1,1.487-1.423,1.429,1.429,0,0,1,1.433,1.448,1.443,1.443,0,0,1-1.5,1.47,1.418,1.418,0,0,1-1.42-1.5" transform="translate(-4.124 -5.931)" fill="#fff"/>
        <path id="Trazado_14796" data-name="Trazado 14796" d="M24.587,15.887a1.46,1.46,0,1,1-1.454-1.466,1.44,1.44,0,0,1,1.454,1.466" transform="translate(-8.882 -5.912)" fill="#fff"/>
        <path id="Trazado_14797" data-name="Trazado 14797" d="M15.879,20.977a1.426,1.426,0,0,1-1.446,1.432,1.468,1.468,0,1,1,1.446-1.432" transform="translate(-5.312 -7.983)" fill="#fff"/>
        <path id="Trazado_14798" data-name="Trazado 14798" d="M20.227,9.41a1.46,1.46,0,1,1-.009,2.92,1.46,1.46,0,0,1,.009-2.92" transform="translate(-7.694 -3.858)" fill="#fff"/>
        <path id="Trazado_14799" data-name="Trazado 14799" d="M27.238,21.289a.864.864,0,0,1-1.728-.009.864.864,0,1,1,1.728.009" transform="translate(-10.458 -8.363)" fill="#fff"/>
        <path id="Trazado_14800" data-name="Trazado 14800" d="M25.51,11.3a.858.858,0,0,1,.848-.874.883.883,0,0,1,.027,1.765.862.862,0,0,1-.874-.892" transform="translate(-10.458 -4.276)" fill="#fff"/>
        <path id="Trazado_14801" data-name="Trazado 14801" d="M17.707,7.21a.841.841,0,0,1-.872-.841.88.88,0,0,1,.852-.883.857.857,0,0,1,.886.882.825.825,0,0,1-.866.843" transform="translate(-6.901 -2.249)" fill="#fff"/>
        <path id="Trazado_14802" data-name="Trazado 14802" d="M16.8,26.274a.825.825,0,0,1,.857-.852.844.844,0,0,1,.867.848.864.864,0,0,1-.887.879.834.834,0,0,1-.837-.876" transform="translate(-6.888 -10.422)" fill="#fff"/>
        <path id="Trazado_14803" data-name="Trazado 14803" d="M8.235,11.355a.864.864,0,0,1,1.728-.008.869.869,0,0,1-.879.892.879.879,0,0,1-.849-.884" transform="translate(-3.376 -4.301)" fill="#fff"/>
        <path id="Trazado_14804" data-name="Trazado 14804" d="M9.976,21.322a.857.857,0,0,1-.847.874.882.882,0,0,1-.886-.85.863.863,0,0,1,.881-.887.841.841,0,0,1,.852.864" transform="translate(-3.379 -8.387)" fill="#fff"/>
        <path id="Trazado_14805" data-name="Trazado 14805" d="M30.733,17.112a.724.724,0,0,1-.728-.74.74.74,0,1,1,1.479.024.724.724,0,0,1-.751.716" transform="translate(-12.3 -6.406)" fill="#fff"/>
        <path id="Trazado_14806" data-name="Trazado 14806" d="M24.259,4.494a.725.725,0,0,1,.759.746.77.77,0,0,1-.756.728.741.741,0,0,1-.718-.749.677.677,0,0,1,.716-.725" transform="translate(-9.651 -1.842)" fill="#fff"/>
        <path id="Trazado_14807" data-name="Trazado 14807" d="M11.337,4.5a.74.74,0,1,1,0,1.479.7.7,0,0,1-.716-.739.7.7,0,0,1,.715-.74" transform="translate(-4.354 -1.843)" fill="#fff"/>
        <path id="Trazado_14808" data-name="Trazado 14808" d="M4.9,15.73a.7.7,0,0,1,.746.7.766.766,0,0,1-.752.77.765.765,0,0,1-.727-.755A.7.7,0,0,1,4.9,15.73" transform="translate(-1.707 -6.449)" fill="#fff"/>
        <path id="Trazado_14809" data-name="Trazado 14809" d="M25.028,27.6a.69.69,0,0,1-.733.715.738.738,0,0,1-.741-.728.759.759,0,0,1,.774-.747.723.723,0,0,1,.7.76" transform="translate(-9.656 -11.001)" fill="#fff"/>
        <path id="Trazado_14810" data-name="Trazado 14810" d="M12.106,27.611a.707.707,0,0,1-.72.736.742.742,0,0,1-.754-.72.761.761,0,0,1,.759-.766.734.734,0,0,1,.716.75" transform="translate(-4.358 -11.012)" fill="#fff"/>
        <path id="Trazado_14811" data-name="Trazado 14811" d="M17.853,0a.563.563,0,0,1,.615.6.6.6,0,0,1-.577.618A.637.637,0,0,1,17.257.6a.6.6,0,0,1,.6-.6" transform="translate(-7.074 0)" fill="#fff"/>
        <path id="Trazado_14812" data-name="Trazado 14812" d="M18.453,32.42a.611.611,0,0,1-1.221-.045.627.627,0,0,1,.614-.6.619.619,0,0,1,.607.643" transform="translate(-7.064 -13.027)" fill="#fff"/>
        <path id="Trazado_14813" data-name="Trazado 14813" d="M3.5,8.536a.619.619,0,0,1,.679-.566.587.587,0,0,1,.536.692.615.615,0,0,1-.662.534.641.641,0,0,1-.553-.66" transform="translate(-1.432 -3.266)" fill="#fff"/>
        <path id="Trazado_14814" data-name="Trazado 14814" d="M4.148,25.1a.609.609,0,0,1-.6-.609.586.586,0,0,1,.62-.616.621.621,0,0,1,.608.6.634.634,0,0,1-.633.625" transform="translate(-1.456 -9.789)" fill="#fff"/>
        <path id="Trazado_14815" data-name="Trazado 14815" d="M32.268,8.5a.569.569,0,0,1-.62.606.606.606,0,0,1-.608-.592.661.661,0,0,1,.634-.627.619.619,0,0,1,.594.612" transform="translate(-12.725 -3.234)" fill="#fff"/>
        <path id="Trazado_14816" data-name="Trazado 14816" d="M32.332,24.413a.622.622,0,0,1-.6.612.608.608,0,1,1-.017-1.215.64.64,0,0,1,.617.6" transform="translate(-12.754 -9.761)" fill="#fff"/>
        <path id="Trazado_14817" data-name="Trazado 14817" d="M35.392,17.013c-.176-.012-.33-.162-.333-.464a.476.476,0,1,1,.952,0c-.011.286-.169.489-.619.469" transform="translate(-14.372 -6.587)" fill="#fff"/>
        <path id="Trazado_14818" data-name="Trazado 14818" d="M9.446,31.305c.081.117.287.287.309.479a.432.432,0,0,1-.49.481.44.44,0,0,1-.461-.476c.008-.311.185-.471.642-.484" transform="translate(-3.609 -12.834)" fill="#fff"/>
        <path id="Trazado_14819" data-name="Trazado 14819" d="M.463,16.14c.305.032.485.174.49.5a.433.433,0,0,1-.457.474A.448.448,0,0,1,0,16.662a.471.471,0,0,1,.462-.522" transform="translate(0 -6.617)" fill="#fff"/>
        <path id="Trazado_14820" data-name="Trazado 14820" d="M9.061.969c.474.015.624.2.618.5s-.217.434-.483.459c-.238.023-.543-.287-.469-.512A1.571,1.571,0,0,1,9.061.969" transform="translate(-3.573 -0.397)" fill="#fff"/>
        <path id="Trazado_14821" data-name="Trazado 14821" d="M26.6,1.9c-.091-.118-.307-.28-.341-.473a.427.427,0,0,1,.468-.5.436.436,0,0,1,.481.453c.011.313-.167.476-.608.519" transform="translate(-10.76 -0.379)" fill="#fff"/>
        <path id="Trazado_14822" data-name="Trazado 14822" d="M26.641,32.226c-.073-.11-.264-.28-.294-.474-.047-.3.163-.476.477-.472a.441.441,0,0,1,.466.469c0,.286-.179.48-.648.478" transform="translate(-10.798 -12.823)" fill="#fff"/>
      </g>
    </g>
  </g>
  <g id="Grupo_4560" data-name="Grupo 4560" transform="translate(9.501 110.904)">
    <rect id="Rectángulo_416" data-name="Rectángulo 416" width="99" height="28" rx="3" transform="translate(0.499 0.096)" fill="#043361"/>
    <g id="Grupo_4548" data-name="Grupo 4548" transform="translate(42.826 6.992)">
      <path id="Trazado_14823" data-name="Trazado 14823" d="M0,.248V12.755H6.629V11.43H1.466V7.051H5.983V5.735H1.466V1.574H6.35V.248Z" transform="translate(0 -0.039)" fill="#fff"/>
      <g id="Grupo_4547" data-name="Grupo 4547" transform="translate(0 0)">
        <g id="Grupo_4546" data-name="Grupo 4546" clip-path="url(#clip-path-6)">
          <path id="Trazado_14824" data-name="Trazado 14824" d="M15.62,12.926a5.491,5.491,0,0,1-4.261-1.754,6.5,6.5,0,0,1-1.6-4.561A6.886,6.886,0,0,1,11.392,1.8,5.693,5.693,0,0,1,15.831,0,5.367,5.367,0,0,1,20,1.744a6.526,6.526,0,0,1,1.582,4.562,6.908,6.908,0,0,1-1.621,4.84,5.592,5.592,0,0,1-4.344,1.78m.105-11.6a4.037,4.037,0,0,0-3.2,1.421,5.514,5.514,0,0,0-1.23,3.734,5.536,5.536,0,0,0,1.2,3.719,3.909,3.909,0,0,0,3.126,1.409,4.1,4.1,0,0,0,3.245-1.344,5.49,5.49,0,0,0,1.187-3.759A5.739,5.739,0,0,0,18.9,2.677a3.947,3.947,0,0,0-3.175-1.352" transform="translate(-1.543 0)" fill="#fff"/>
          <path id="Trazado_14825" data-name="Trazado 14825" d="M26.035,12.211V10.483a3.35,3.35,0,0,0,.711.471,5.85,5.85,0,0,0,.872.354,6.864,6.864,0,0,0,.92.221,5.064,5.064,0,0,0,.855.079,3.345,3.345,0,0,0,2.02-.5,1.7,1.7,0,0,0,.667-1.443,1.694,1.694,0,0,0-.222-.881,2.527,2.527,0,0,0-.615-.685,6.154,6.154,0,0,0-.929-.594c-.358-.188-.743-.388-1.156-.6q-.654-.332-1.221-.672a5.277,5.277,0,0,1-.985-.749,3.124,3.124,0,0,1-.658-.929,2.86,2.86,0,0,1-.24-1.217,2.863,2.863,0,0,1,.375-1.488A3.214,3.214,0,0,1,27.413.811,4.5,4.5,0,0,1,28.8.2,6.362,6.362,0,0,1,30.4,0a6.1,6.1,0,0,1,2.695.445V2.093a4.89,4.89,0,0,0-2.843-.768,4.7,4.7,0,0,0-.96.1,2.732,2.732,0,0,0-.855.327,1.905,1.905,0,0,0-.611.584,1.558,1.558,0,0,0-.235.873,1.792,1.792,0,0,0,.178.828,2.028,2.028,0,0,0,.528.636,5.3,5.3,0,0,0,.85.558q.5.27,1.155.593.673.332,1.274.7a5.777,5.777,0,0,1,1.056.812,3.629,3.629,0,0,1,.72.985,2.782,2.782,0,0,1,.265,1.239,3.139,3.139,0,0,1-.362,1.565,2.964,2.964,0,0,1-.977,1.042,4.27,4.27,0,0,1-1.417.58,7.8,7.8,0,0,1-1.692.179,6.912,6.912,0,0,1-.732-.049q-.437-.048-.89-.139a7.4,7.4,0,0,1-.86-.227,2.67,2.67,0,0,1-.649-.3" transform="translate(-4.116 0)" fill="#fff"/>
        </g>
      </g>
    </g>
    <g id="Grupo_4550" data-name="Grupo 4550" transform="translate(22.724 4.37)">
      <g id="Grupo_4549" data-name="Grupo 4549" transform="translate(0 0)" clip-path="url(#clip-path-7)">
        <path id="Trazado_14826" data-name="Trazado 14826" d="M8.4,7.172c.879,1.514,1.731,2.951,2.542,4.412a1.134,1.134,0,0,1,.04.792c-.435,1.449-.928,2.881-1.351,4.334a.708.708,0,0,1-.811.616c-1.455,0-1.454.019-1.892-1.391-.34-1.1-.652-2.2-1.035-3.284a1.451,1.451,0,0,1,.126-1.381c.8-1.314,1.552-2.661,2.381-4.1" transform="translate(-2.594 -3.221)" fill="#fff"/>
        <path id="Trazado_14827" data-name="Trazado 14827" d="M11.049,0c1.135,1.616,2.259,3.2,3.361,4.807a.767.767,0,0,1,.063.575c-.245.846-.526,1.682-.855,2.711a19.624,19.624,0,0,0-1.365-2.3A7.54,7.54,0,0,1,10.934.181c0-.04.047-.077.115-.181" transform="translate(-4.888 0)" fill="#fff"/>
        <path id="Trazado_14828" data-name="Trazado 14828" d="M7.051.072c.924,3.2-1.033,5.43-2.546,7.981-.319-.992-.6-1.848-.863-2.711A.578.578,0,0,1,3.689,4.9C4.805,3.282,5.936,1.669,7.051.072" transform="translate(-1.626 -0.032)" fill="#fff"/>
        <path id="Trazado_14829" data-name="Trazado 14829" d="M17.624,21.557H13.293c.5-1.588.977-3.116,1.521-4.849l2.81,4.849" transform="translate(-5.971 -7.504)" fill="#fff"/>
        <path id="Trazado_14830" data-name="Trazado 14830" d="M2.76,16.778l1.52,4.779H0l2.76-4.779" transform="translate(0 -7.536)" fill="#fff"/>
        <path id="Trazado_14831" data-name="Trazado 14831" d="M11.231,29.492c.373-1.167.674-2.107.979-3.061H16l.078.116-4.85,2.945" transform="translate(-5.044 -11.871)" fill="#fff"/>
        <path id="Trazado_14832" data-name="Trazado 14832" d="M5.767,29.487.8,26.463H4.811c.3.947.6,1.9.957,3.024" transform="translate(-0.36 -11.886)" fill="#fff"/>
        <path id="Trazado_14833" data-name="Trazado 14833" d="M17.382,11.061q.72,3.178,1.44,6.355l-.142.055c-.712-1.234-1.428-2.466-2.127-3.707a.626.626,0,0,1-.021-.436c.229-.77.478-1.534.72-2.3l.131.034" transform="translate(-7.412 -4.953)" fill="#fff"/>
        <path id="Trazado_14834" data-name="Trazado 14834" d="M1.889,10.76c.3.94.552,1.7.781,2.471a.619.619,0,0,1-.044.437A41.419,41.419,0,0,1,.411,17.257c.48-2.1.958-4.209,1.478-6.5" transform="translate(-0.185 -4.833)" fill="#fff"/>
        <path id="Trazado_14835" data-name="Trazado 14835" d="M8.946,26.435H10.7l-.879,3.072-.878-3.072" transform="translate(-4.018 -11.873)" fill="#fff"/>
      </g>
    </g>
  </g>
  <g id="Grupo_4557" data-name="Grupo 4557" transform="translate(245.877 0.204)">
    <rect id="Rectángulo_419" data-name="Rectángulo 419" width="100" height="28" rx="3" transform="translate(0.123 -0.204)" fill="#043361"/>
    <g id="Grupo_4552" data-name="Grupo 4552" transform="translate(37.324 6.118)">
      <g id="Grupo_4551" data-name="Grupo 4551" transform="translate(0 0)" clip-path="url(#clip-path-8)">
        <path id="Trazado_14836" data-name="Trazado 14836" d="M5.863,12.7a3.854,3.854,0,0,1-1.74.306q-2.754,0-2.754-2.861V6.277H0V4.356H1.369V2.534l2.6-.742V4.356h1.9V6.277h-1.9V9.691q0,1.319,1.047,1.319a1.761,1.761,0,0,0,.849-.239Z" transform="translate(0 -0.299)" fill="#fff"/>
        <path id="Trazado_14837" data-name="Trazado 14837" d="M16.208,9.794H10.7q.132,1.839,2.317,1.839a4.524,4.524,0,0,0,2.449-.66v1.88a6.429,6.429,0,0,1-3.043.627,4.283,4.283,0,0,1-3.175-1.134A4.283,4.283,0,0,1,8.119,9.183a4.519,4.519,0,0,1,1.22-3.331,4.068,4.068,0,0,1,3-1.228,3.69,3.69,0,0,1,2.857,1.1A4.221,4.221,0,0,1,16.208,8.7Zm-2.416-1.6q0-1.814-1.467-1.814a1.4,1.4,0,0,0-1.084.52,2.357,2.357,0,0,0-.557,1.294Z" transform="translate(-1.358 -0.773)" fill="#fff"/>
        <path id="Trazado_14838" data-name="Trazado 14838" d="M24.646,12.7a3.854,3.854,0,0,1-1.74.306q-2.754,0-2.754-2.861V6.277H18.783V4.356h1.369V2.534l2.6-.742V4.356h1.9V6.277h-1.9V9.691q0,1.319,1.047,1.319a1.761,1.761,0,0,0,.849-.239Z" transform="translate(-3.141 -0.299)" fill="#fff"/>
        <path id="Trazado_14839" data-name="Trazado 14839" d="M35.69,12.5h-2.6V7.7q0-1.855-1.352-1.855a1.383,1.383,0,0,0-1.121.52,2,2,0,0,0-.429,1.319V12.5H27.585V0h2.606V5.31h.033a2.961,2.961,0,0,1,2.6-1.46q2.869,0,2.869,3.464Z" transform="translate(-4.613 0)" fill="#fff"/>
        <path id="Trazado_14840" data-name="Trazado 14840" d="M47.278,9.794H41.77q.132,1.839,2.317,1.839a4.524,4.524,0,0,0,2.449-.66v1.88a6.432,6.432,0,0,1-3.043.627,4.283,4.283,0,0,1-3.175-1.134,4.283,4.283,0,0,1-1.129-3.162,4.519,4.519,0,0,1,1.22-3.331,4.068,4.068,0,0,1,3-1.228,3.69,3.69,0,0,1,2.857,1.1A4.221,4.221,0,0,1,47.278,8.7Zm-2.416-1.6q0-1.814-1.468-1.814a1.4,1.4,0,0,0-1.083.52,2.351,2.351,0,0,0-.557,1.294Z" transform="translate(-6.553 -0.773)" fill="#fff"/>
        <path id="Trazado_14841" data-name="Trazado 14841" d="M56.272,7.191a2.256,2.256,0,0,0-1.1-.256,1.579,1.579,0,0,0-1.327.623,2.714,2.714,0,0,0-.478,1.695v4.032H50.764V4.841H53.37V6.409H53.4a2.254,2.254,0,0,1,2.227-1.716,1.68,1.68,0,0,1,.643.1Z" transform="translate(-8.489 -0.785)" fill="#fff"/>
      </g>
    </g>
    <g id="Grupo_4553" data-name="Grupo 4553" transform="translate(11.362 5.244)">
      <path id="Trazado_14842" data-name="Trazado 14842" d="M3.462,0,0,7.723l9.586,9.32,9.853-9.32L15.711,0Z" transform="translate(0 0)" fill="#fff"/>
      <path id="Trazado_14843" data-name="Trazado 14843" d="M9.758,5.083h-3.2V2.953h9.055v2.13H12.155v9.054h-2.4Z" transform="translate(-1.237 -0.557)" fill="#043361"/>
    </g>
  </g>
</svg>
