<?xml version="1.0" encoding="utf-8"?>
<!-- Generator: Adobe Illustrator 25.0.1, SVG Export Plug-In . SVG Version: 6.00 Build 0)  -->
<svg version="1.1" xmlns="http://www.w3.org/2000/svg" xmlns:xlink="http://www.w3.org/1999/xlink" x="0px" y="0px"
	 viewBox="0 0 1503 710" style="enable-background:new 0 0 1503 710;" xml:space="preserve">
<style type="text/css">
	.st0{fill:#043361;}
	.st1{fill:none;}
	.st2{fill:#FFFFFF;}
	.st3{clip-path:url(#SVGID_2_);}
	.st4{clip-path:url(#SVGID_4_);}
	.st5{clip-path:url(#SVGID_6_);}
	.st6{clip-path:url(#SVGID_8_);}
	.st7{clip-path:url(#SVGID_10_);}
	.st8{clip-path:url(#SVGID_12_);}
	.st9{clip-path:url(#SVGID_14_);}
	.st10{clip-path:url(#SVGID_16_);}
</style>
<g id="Capa_1">
</g>
<g id="Capa_2">
	<g id="Grupo_5450" transform="translate(0.002 0.099)">
		<g id="Grupo_4561" transform="translate(-0.001 0)">
			<path id="Rectángulo_405" class="st0" d="M191.84,147.9h298.85c1.28,0,2.32,1.04,2.32,2.32v88.03c0,1.28-1.04,2.32-2.32,2.32
				H191.84c-1.28,0-2.32-1.04-2.32-2.32v-88.03C189.52,148.94,190.56,147.9,191.84,147.9z"/>
			<g id="Grupo_4533" transform="translate(60.464 34.48)">
				<path id="Trazado_8084" class="st1" d="M331.82,158.14c-2.27-0.14-4.43,0.96-5.65,2.88c-1.89,2.53-2.64,5.73-2.07,8.83
					c0.43,2.39,1.91,3.41,4.65,3.19c1.41-0.11,2.73-0.74,3.7-1.78c2.05-2.1,3.19-4.92,3.18-7.85c0.04-1.09-0.14-2.18-0.53-3.2
					C334.55,158.9,333.24,158.07,331.82,158.14z"/>
				<path id="Trazado_8085" class="st1" d="M240.54,158.37c-1.88-0.49-3.88-0.23-5.58,0.72c-0.32,0.15-0.55,0.45-0.62,0.79
					c-1.12,4.19-2.26,8.38-3.41,12.56c-0.12,0.44-0.03,0.7,0.52,0.74c2.1,0.16,4.18,0.2,6.06-0.86c3.8-2.14,5.3-5.36,5.61-9.12
					c-0.04-0.64-0.12-1.27-0.23-1.9C242.6,160.03,242.16,158.78,240.54,158.37z"/>
				<path id="Trazado_8086" class="st2" d="M197.99,140.12c-12.16-0.02-22.21,8.74-22.24,19.4c-0.04,10.95,9.79,19.81,21.98,19.88
					c11.83,0.06,22.32-8.09,22.47-19.54C220.35,148.98,210.31,140.15,197.99,140.12z M207.05,165.11c-0.79,2.16-2.46,3.2-5.09,3.27
					c-1,0.01-2-0.06-2.99-0.21c-0.49-0.07-0.62,0.09-0.71,0.43c-0.23,0.8-0.48,1.6-0.68,2.4c-0.12,0.46-0.31,0.65-0.91,0.5
					c-2.16-0.55-1.76-0.18-1.33-1.94c0.09-0.38,0.19-0.76,0.32-1.13c0.24-0.63,0.08-0.94-0.75-1.08c-0.71-0.12-1.05-0.11-1.17,0.61
					c-0.13,0.76-0.41,1.5-0.6,2.26c-0.08,0.34-0.21,0.43-0.65,0.38c-2-0.28-2.03-0.31-1.51-1.99c0.63-1.99,0.63-1.99-1.64-2.48
					c-0.66-0.14-1.31-0.29-1.97-0.4c-0.61-0.1-0.72-0.34-0.43-0.79c0.08-0.14,0.15-0.28,0.21-0.43c0.24-0.44,0.35-1.01,0.74-1.29
					s0.98,0.13,1.5,0.2c0.95,0.11,1.27-0.06,1.51-0.9c0.82-2.91,1.62-5.82,2.43-8.73c0.29-1.04,0.04-1.42-1.11-1.74
					c-1.59-0.44-1.54-0.44-1.24-1.86c0.17-0.74,0.5-0.84,1.26-0.64c1.07,0.28,2.17,0.45,3.25,0.71c0.48,0.12,0.67,0.05,0.77-0.41
					c0.18-0.84,0.46-1.66,0.66-2.49c0.09-0.37,0.28-0.48,0.67-0.41c0.09,0.02,0.18,0.02,0.26,0.04c1.99,0.51,1.73,0.1,1.29,1.82
					c-0.14,0.53-0.26,1.06-0.43,1.59c-0.19,0.6,0.34,0.65,0.74,0.7s0.98,0.45,1.17-0.3c0.19-0.81,0.45-1.61,0.67-2.41
					c0.09-0.36,0.21-0.49,0.71-0.4c1.93,0.38,1.94,0.36,1.48,2.04c-0.17,0.61-0.59,1.27-0.42,1.79c0.18,0.57,1.16,0.55,1.76,0.86
					c1.3,0.66,2.51,1.4,2.88,2.78c0.55,2.02-0.35,3.63-2.59,4.59C207.6,161.46,207.81,163.08,207.05,165.11L207.05,165.11z"/>
				<path id="Trazado_8087" class="st2" d="M240.61,152.06c-1.5,0.05-2.98,0.34-4.39,0.86c1.12-4.13,2.18-8.09,3.27-12.05
					c0.14-0.53,0.17-0.74-0.6-0.63c-2.29,0.35-4.58,0.69-6.89,0.91c-0.64-0.04-1.2,0.42-1.27,1.06c-1.62,6.11-3.28,12.2-4.92,18.3
					c-1.45,5.43-2.9,10.85-4.39,16.27c-0.15,0.55,0.02,0.78,0.58,0.98c0.9,0.32,1.83,0.59,2.76,0.8c4.34,0.96,8.73,1.31,13.09,0.28
					c9.47-2.25,15.44-11.32,13.09-19.73C249.66,154.51,245.99,152.02,240.61,152.06z M237.51,172.31c-1.88,1.05-3.96,1.01-6.06,0.86
					c-0.55-0.04-0.64-0.3-0.52-0.74c1.15-4.18,2.28-8.37,3.41-12.56c0.08-0.35,0.3-0.64,0.62-0.79c1.7-0.95,3.7-1.2,5.58-0.72
					c1.61,0.41,2.06,1.67,2.35,2.93c0.11,0.63,0.19,1.26,0.23,1.9C242.82,166.95,241.32,170.17,237.51,172.31L237.51,172.31z"/>
				<path id="Trazado_8088" class="st2" d="M335.76,152.27c-4.75-1.1-9.73,0.04-13.53,3.09c-5.3,4.24-7.2,9.63-6.37,15.77
					c0.49,3.55,2.59,6.21,6.5,7.58c1.59,0.52,3.26,0.76,4.93,0.71c4.17,0.17,8.23-1.32,11.29-4.16c4.28-3.76,6.26-9.5,5.21-15.1
					C343.13,156.04,340.48,153.2,335.76,152.27z M332.45,171.26c-0.97,1.03-2.29,1.66-3.7,1.78c-2.75,0.21-4.22-0.8-4.65-3.2
					c-0.56-3.1,0.19-6.3,2.07-8.83c1.22-1.91,3.38-3.02,5.65-2.88c1.42-0.07,2.73,0.76,3.28,2.07c0.39,1.02,0.57,2.11,0.53,3.2
					C335.64,166.34,334.5,169.16,332.45,171.26L332.45,171.26z"/>
				<path id="Trazado_8089" class="st2" d="M388.63,159.83c-0.13-3.97-2.56-6.72-6.95-7.5c-4.13-0.63-8.35-0.41-12.4,0.63
					c-1.03,0.23-2.27,0.3-2.97,0.86c-0.75,0.59-0.62,1.77-0.91,2.69l-0.03,0.07c-1.97,7.17-3.95,14.34-5.93,21.51
					c-0.17,0.59-0.06,0.73,0.64,0.72c2.15-0.04,4.31-0.06,6.45,0.01c0.9,0.03,1.23-0.19,1.43-0.98c1.65-6.23,3.37-12.44,5.03-18.68
					c0.06-0.42,0.43-0.72,0.85-0.71c1.02-0.13,2.05-0.19,3.08-0.16c2.11,0.07,3.19,1.04,3.21,2.88c-0.05,1.22-0.26,2.43-0.62,3.6
					c-1.16,4.42-2.34,8.84-3.54,13.26c-0.15,0.58-0.08,0.78,0.66,0.76c1.12-0.05,2.24-0.01,3.35-0.01v-0.01
					c1.15,0,2.3-0.04,3.45,0.01c0.64,0.03,0.83-0.18,0.97-0.7c1.01-3.82,2.06-7.63,3.1-11.44
					C388.21,164.44,388.59,162.14,388.63,159.83z"/>
				<path id="Trazado_8090" class="st2" d="M289.98,152.66c-2.59,0.03-5.18,0-7.78,0.02c-0.64,0.01-0.79-0.08-0.61-0.69
					c0.7-2.31,1.31-4.64,1.96-7.02c-0.18,0-0.29-0.01-0.4,0c-2.5,0.34-5,0.72-7.5,1c-0.69,0.08-0.92,0.32-1.07,0.87
					c-1.56,5.77-3.15,11.54-4.73,17.31c-0.74,2.69-1.49,5.38-1.45,8.17c0.04,3.57,2.08,5.87,6.02,6.66
					c3.91,0.71,7.94,0.45,11.73-0.76c0.54-0.15,0.44-0.46,0.41-0.79c-0.17-1.5-0.36-2.98-0.49-4.48c-0.05-0.52-0.26-0.51-0.71-0.38
					c-1.38,0.4-2.8,0.63-4.24,0.68c-3.44,0.11-4.85-1.24-4.13-4.2c0.79-3.28,1.74-6.53,2.59-9.8c0.12-0.47,0.39-0.52,0.85-0.52
					c2.63,0.01,5.24-0.01,7.87,0.02c0.57,0.01,0.82-0.13,0.94-0.63c0.4-1.61,0.83-3.22,1.31-4.82
					C290.72,152.75,290.58,152.66,289.98,152.66z"/>
				<path id="Trazado_8091" class="st2" d="M315.52,153.16c-2.16-0.79-4.44-1.2-6.74-1.24c-5.36-0.01-9.69,1.27-13.11,4.35
					c-4.12,3.51-6.06,8.95-5.09,14.27c0.67,4.41,3.59,7.35,8.58,8.45c3.9,0.79,7.94,0.51,11.7-0.82c0.49-0.16,0.49-0.41,0.44-0.78
					c-0.17-1.46-0.36-2.93-0.46-4.4c-0.04-0.66-0.14-0.91-1-0.62c-1.7,0.56-3.49,0.82-5.28,0.76c-3.5-0.1-5.14-1.51-5.42-4.57
					c-0.11-1.21-0.05-2.44,0.19-3.63c0.59-3.43,3.32-6.09,6.76-6.58c2.2-0.41,4.48-0.19,6.56,0.64c0.63,0.25,0.9,0.1,1.15-0.43
					c0.7-1.51,1.42-3,2.21-4.47C316.3,153.52,316.08,153.35,315.52,153.16z"/>
				<path id="Trazado_8092" class="st2" d="M266.76,152.58c-2.3,0.04-4.59,0.03-6.89,0c-0.57-0.01-0.8,0.13-0.93,0.65
					c-0.81,3.12-1.66,6.23-2.5,9.34c-1.4,5.19-2.77,10.39-4.19,15.58c-0.15,0.57,0.02,0.65,0.58,0.63c1.15-0.03,2.3-0.01,3.44-0.01
					v0.01c1.15,0,2.3-0.03,3.44,0.01c0.54,0.02,0.8-0.12,0.9-0.59c0.17-0.78,0.4-1.56,0.61-2.34c2.04-7.52,4.07-15.05,6.13-22.56
					C267.51,152.72,267.45,152.57,266.76,152.58z"/>
				<path id="Trazado_8093" class="st2" d="M359.26,152.58c-1.12,0.05-2.24,0.01-3.36,0.01l0,0c-1.09,0-2.18,0.06-3.26-0.01
					c-0.8-0.06-1.02,0.22-1.19,0.86c-2.18,8.21-4.39,16.42-6.62,24.62c-0.14,0.54-0.07,0.73,0.62,0.71
					c2.24-0.03,4.47-0.05,6.72,0.01c0.73,0.02,0.93-0.24,1.07-0.78c1.39-5.2,2.79-10.39,4.21-15.58c0.82-3.04,1.64-6.07,2.48-9.1
					C360.1,152.72,359.98,152.54,359.26,152.58z"/>
				<path id="Trazado_8094" class="st2" d="M262.94,149.24c3.53,0.92,7.19-1.43,7.28-4.67c0.06-1.94-1.04-3.22-3.2-3.72
					c-2.94-0.68-6.2,1.03-6.92,3.61C259.46,146.78,260.55,148.62,262.94,149.24z"/>
				<path id="Trazado_8095" class="st2" d="M356.74,149.42c2.52,0.24,4.91-1.19,5.89-3.53c1.03-2.81-0.9-5.17-4.26-5.17
					c-2.38-0.12-4.57,1.25-5.5,3.45C351.81,146.84,353.6,149.26,356.74,149.42z"/>
				<path id="Trazado_8096" class="st2" d="M200.68,161.34c-1.27-0.56-2.62-0.96-3.99-1.17c-0.34-0.07-0.64-0.05-0.75,0.33
					c-0.35,1.28-0.71,2.56-1.07,3.83c-0.09,0.32,0.07,0.46,0.43,0.53c1.21,0.33,2.46,0.52,3.71,0.57c0.35,0,0.71,0.03,1.06-0.01
					c1.52-0.15,2.41-1.13,2.19-2.41C202.03,162.23,201.44,161.61,200.68,161.34z"/>
				<path id="Trazado_8097" class="st2" d="M201.26,154.44c-0.9-0.33-1.83-0.59-2.77-0.76c-0.43-0.1-0.66,0.03-0.76,0.41
					c-0.29,1.11-0.6,2.21-0.91,3.31c-0.09,0.33-0.01,0.53,0.42,0.61c0.84,0.19,1.68,0.34,2.54,0.43c1.91,0.02,2.93-0.48,3.18-1.36
					C203.29,155.92,202.73,155.07,201.26,154.44z"/>
			</g>
		</g>
	</g>
	<g id="Grupo_5451" transform="translate(507.832 0.095)">
		<path id="Rectángulo_406" class="st0" d="M76.3,147.9H401.4c1.28,0,2.32,1.04,2.32,2.32v88.03c0,1.28-1.04,2.32-2.32,2.32H76.3
			c-1.28,0-2.32-1.04-2.32-2.32v-88.03C73.98,148.94,75.02,147.9,76.3,147.9z"/>
		<g id="Grupo_4535" transform="translate(36.599 18.354)">
			<g id="Grupo_3138" transform="translate(81.373 19.818)">
				<path id="Trazado_8098" class="st2" d="M241.78,157.39c1.47-1.98,3.15-3.63,5.86-4.04c4.93-0.74,8.87,2.31,9.09,7.16
					c0.13,2.87,0.04,5.74,0.02,8.62c0,0.62,0.21,1.5-0.86,1.5c-1.23,0-0.96-0.97-0.96-1.63c-0.02-2.52,0-5.03-0.01-7.55
					c0.05-1.01-0.08-2.02-0.39-2.98c-0.66-2.05-2.49-3.5-4.64-3.67c-2.26-0.37-4.52,0.6-5.81,2.49c-1.15,1.62-1.74,3.56-1.67,5.55
					c0.01,2.15,0.01,4.31-0.01,6.46c-0.01,0.56,0.08,1.29-0.81,1.35c-1.15,0.06-0.94-0.79-0.95-1.4c-0.03-3.09,0.08-6.18-0.09-9.27
					c-0.16-2.8-2.38-5.03-5.18-5.22c-3.21-0.32-5.89,1.25-6.87,4.1c-0.42,1.16-0.62,2.38-0.61,3.61c0.04,2.3,0.02,4.59,0.01,6.9
					c-0.01,0.55,0.14,1.29-0.81,1.31c-0.95,0.02-0.85-0.7-0.85-1.27c-0.01-4.81-0.01-9.62,0-14.44c0-0.57-0.13-1.27,0.79-1.34
					c0.76-0.06,0.74,0.56,0.91,1.04c0.63,1.78,1.47,0.35,2.05,0.01c4.2-2.5,8.46-1.78,11.16,1.95
					C241.31,156.86,241.51,157.07,241.78,157.39z"/>
				<path id="Trazado_8099" class="st2" d="M96.48,154.89c0-4.67-0.01-9.34,0.01-14.01c0-0.6-0.25-1.55,0.73-1.59
					c1.23-0.06,0.93,0.96,0.94,1.63c0.02,4.38,0,8.76,0.03,13.15c0,0.53-0.34,1.24,0.4,1.54c0.66,0.26,0.95-0.42,1.36-0.71
					c2.22-1.71,5.17-2.16,7.8-1.17c2.63,0.78,4.48,3.14,4.62,5.88c0.21,3.29,0.11,6.61,0.12,9.91c0.01,0.49,0.08,1.1-0.74,1.14
					c-0.99,0.05-0.93-0.63-0.93-1.2c-0.01-2.73,0.01-5.46-0.01-8.19c-0.04-3.97-2.23-6.44-5.75-6.53c-3.52-0.27-6.6,2.37-6.87,5.9
					c-0.01,0.11-0.01,0.22-0.02,0.34c-0.16,2.72-0.01,5.45-0.01,8.19c0,0.61,0.22,1.5-0.86,1.48s-0.8-0.93-0.81-1.52
					C96.47,164.38,96.48,159.63,96.48,154.89z"/>
				<path id="Trazado_8100" class="st2" d="M133.2,162.89c-2.21,0.01-4.42,0.08-6.63-0.03c-1.79-0.09-1.86,0.56-1.43,1.79
					c1.76,5.13,8.84,6.64,13.18,2.8c0.54-0.47,0.95-1.77,2-0.85c0.85,0.75-0.25,1.42-0.81,1.98c-2.77,2.71-8.17,3.39-11.74,1.5
					c-4.16-2.1-5.97-7.07-4.14-11.35c1.7-3.89,5.69-5.99,10.27-5.42c3.94,0.49,7.44,3.88,7.93,7.57c0.19,1.42-0.11,2.16-2,2.05
					C137.63,162.8,135.41,162.89,133.2,162.89z M132.14,161.44c2.11,0,4.24-0.04,6.36,0.02c1.24,0.03,1.58-0.33,1.29-1.4
					c-1.06-3.18-4.02-5.34-7.37-5.37c-3.44-0.03-6.48,2.22-7.47,5.51c-0.28,0.99-0.07,1.28,1.07,1.25
					C128.06,161.4,130.1,161.44,132.14,161.44z"/>
				<path id="Trazado_8101" class="st2" d="M57.17,162.89c-2.12,0-4.25,0.09-6.37-0.02c-1.73-0.08-2.17,0.37-1.63,1.84
					c1.8,4.99,8.83,6.56,13.03,2.86c0.23-0.2,0.4-0.45,0.61-0.67c0.38-0.39,0.84-0.84,1.44-0.45c0.72,0.47,0.23,1.01-0.11,1.5
					c-1.99,2.82-7.59,4.04-11.5,2.49c-4.29-1.67-6.59-6.33-5.3-10.75c1.22-4.19,5.14-6.75,9.9-6.46c4.56,0.29,8.68,4.27,8.67,8.3
					c-0.01,1.06-0.5,1.38-1.62,1.36C61.92,162.87,59.55,162.89,57.17,162.89z M56.52,161.44c2.03,0,4.07-0.01,6.11,0.01
					c0.95,0.01,1.52-0.06,1.28-1.18c-0.66-2.97-4-5.55-7.43-5.57c-3.45-0.03-6.9,2.51-7.5,5.47c-0.19,0.91,0.04,1.32,1.19,1.29
					C52.28,161.4,54.4,161.44,56.52,161.44L56.52,161.44z"/>
				<path id="Trazado_8102" class="st2" d="M180.19,162.9c-2.21,0-4.43,0.05-6.64-0.02c-1.71-0.06-1.89,0.55-1.44,1.82
					c1.76,5.01,8.84,6.58,13.04,2.87c0.34-0.3,0.61-0.68,0.96-0.97c0.29-0.3,0.75-0.35,1.1-0.12c0.32,0.21,0.41,0.63,0.21,0.95
					c-0.01,0.01-0.01,0.02-0.02,0.03c-0.43,0.72-1.01,1.34-1.7,1.81c-3.49,2.37-8.04,2.51-11.66,0.35c-3.75-2.3-5.2-7.04-3.38-11.04
					c1.7-3.76,5.64-5.81,10.14-5.28c4.08,0.53,7.33,3.67,8,7.73c0.21,1.47-0.36,1.94-1.99,1.88
					C184.61,162.83,182.4,162.89,180.19,162.9z M179.23,161.44c2.04,0,4.08-0.07,6.11,0.02c1.58,0.07,1.76-0.43,1.33-1.64
					c-1.47-4.04-5.95-6.13-9.99-4.66c-2.16,0.79-3.86,2.48-4.65,4.64c-0.41,1.17-0.27,1.73,1.33,1.66
					C175.32,161.37,177.28,161.44,179.23,161.44L179.23,161.44z"/>
				<path id="Trazado_8103" class="st2" d="M213.48,167.76c-2.28,2.51-4.69,3.96-8.06,3.34c-3.44-0.62-5.91-3.09-6.11-6.45
					c-0.19-3.22-0.08-6.46-0.08-9.69c0-0.57-0.06-1.29,0.9-1.23c0.96,0.06,0.75,0.81,0.76,1.34c0.02,2.87-0.08,5.75,0.04,8.62
					c0.16,4.15,3.33,6.64,7.35,5.88c2.02-0.32,3.71-1.72,4.39-3.65c1.27-3.07,0.8-6.25,0.9-9.39c0.02-0.57,0-1.15,0.01-1.72
					c0.01-0.53,0.08-1.07,0.85-1.09c0.79-0.01,0.89,0.56,0.89,1.06c0.03,2.3,0.02,4.6,0.02,6.9c0,2.44,0.02,4.88-0.01,7.32
					c-0.01,0.66,0.33,1.69-0.85,1.72c-1.25,0.04-0.78-1.01-0.89-1.65C213.53,168.79,213.53,168.5,213.48,167.76z"/>
				<path id="Trazado_8104" class="st2" d="M79.67,162.92c0-1.94-0.15-3.89,0.04-5.81c0.18-1.8-0.64-2.3-2.49-2.07
					c-0.49,0.03-0.98,0.03-1.47-0.01c-0.55-0.01-0.99-0.22-0.99-0.73s0.43-0.73,0.98-0.77c0.08,0,0.16,0,0.24-0.01
					c1.19-0.24,2.86,0.64,3.53-0.61c0.47-0.89,0.13-2.12,0.15-3.2c-0.01-0.22-0.01-0.43,0-0.65c0.08-0.67-0.25-1.71,0.9-1.69
					c1.11,0.02,0.81,1.06,0.85,1.74c0.03,0.36,0.01,0.72,0.01,1.08c0,3.1,0,3.1,3.48,3.33c0.73,0.05,1.68-0.05,1.6,0.88
					c-0.07,0.73-0.93,0.62-1.58,0.66c-3.5,0.2-3.5,0.2-3.5,3.26c0,3.52,0.02,7.04-0.02,10.57c-0.01,0.7,0.46,1.85-0.93,1.84
					c-1.16-0.02-0.78-1.09-0.79-1.75C79.64,166.95,79.67,164.94,79.67,162.92z"/>
				<path id="Trazado_8105" class="st2" d="M154.61,156.51c1.58-1.06,2.97-2.45,5.04-2.81c0.76-0.13,1.84-0.53,2.14,0.37
					c0.37,1.07-0.89,0.91-1.59,1.12c-3.8,1.11-5.8,3.58-5.96,7.55c-0.1,2.22-0.02,4.44-0.04,6.67c-0.01,0.56,0.08,1.26-0.92,1.19
					c-0.78-0.05-0.74-0.65-0.74-1.16c-0.01-4.87-0.01-9.74,0-14.62c0-0.57-0.03-1.26,0.92-1.21c0.78,0.04,0.71,0.66,0.76,1.16
					C154.26,155.33,154.04,155.93,154.61,156.51z"/>
			</g>
			<g id="Grupo_3139">
				<path id="Trazado_8106" class="st2" d="M108.44,175.09c0.17-0.65-0.33-1.08-0.66-1.57c-4.34-6.33-8.68-12.67-13.01-19.01
					c-2.27-3.32-4.51-6.65-6.76-9.97c-0.42-0.61-0.8-1.28-1.32-0.07c-6.68,9.74-13.36,19.49-20.04,29.24
					c-0.4,0.58-1.17,1.08-0.87,1.93v-0.01c1.31,1.5,3.33,2.09,5.08,3c5.42,2.81,10.73,5.79,16.32,8.34
					c1.94-0.44,3.45-1.57,5.13-2.43c5.28-2.69,10.51-5.44,15.76-8.17C108.68,176.06,109.57,175.79,108.44,175.09z"/>
				<path id="Trazado_8107" class="st2" d="M104.44,181.92c-5.69,2.99-11.38,5.98-17.07,8.97c-6.92-3.57-13.84-7.14-20.75-10.72
					c-0.25-0.3-0.59-0.68-1.01-0.42c-0.25,0.15,0.04,0.45,0.38,0.53c3.44,4.28,6.87,8.56,10.31,12.83
					c3.33,4.13,6.67,8.26,10.04,12.36c0.22,0.27,0.53,1.75,1.28,0.21c0.75-0.09,1.04-0.65,1.41-1.12
					c6.31-7.8,12.62-15.61,18.93-23.42c0.25-0.31,0.68-0.6,0.17-1.15C106.91,180.64,105.67,181.27,104.44,181.92z"/>
			</g>
		</g>
	</g>
	<g id="Grupo_5452" transform="translate(776.49 231.082)">
		<path id="Rectángulo_407" class="st0" d="M14.6,95.3h325.88c1.28,0,2.32,1.04,2.32,2.32v88.03c0,1.28-1.04,2.32-2.32,2.32H14.6
			c-1.28,0-2.32-1.04-2.32-2.32V97.62C12.28,96.34,13.32,95.3,14.6,95.3z"/>
		<g id="Grupo_4537" transform="translate(63.693 31.553)">
			<g>
				<defs>
					<rect id="SVGID_1_" x="-1.85" y="88.18" width="57.65" height="47.87"/>
				</defs>
				<clipPath id="SVGID_2_">
					<use xlink:href="#SVGID_1_"  style="overflow:visible;"/>
				</clipPath>
				<g id="Grupo_4536" transform="translate(0 0)" class="st3">
					<path id="Trazado_14769" class="st2" d="M55.8,136.04c-2.76,0-5.39,0.01-8.02-0.01c-0.23-0.03-0.43-0.14-0.59-0.31
						c-4.27-4.22-8.54-8.44-12.8-12.66c-3.94-4.11-10.46-4.25-14.57-0.31c-0.11,0.1-0.22,0.21-0.32,0.32
						c-4.26,4.23-8.52,8.45-12.8,12.66c-0.14,0.16-0.32,0.26-0.53,0.3c-2.64,0.02-5.29,0.01-8.02,0.01c0.06-0.09,0.13-0.18,0.2-0.27
						c5.77-5.71,11.49-11.48,17.33-17.12c6.26-6.16,16.31-6.15,22.56,0.01c5.81,5.65,11.53,11.38,17.28,17.08
						C55.59,135.81,55.65,135.88,55.8,136.04"/>
					<path id="Trazado_14770" class="st2" d="M-1.66,88.18c2.61,0,5.22-0.01,7.82,0.02c0.24,0.03,0.47,0.13,0.64,0.31
						c4.29,4.23,8.57,8.46,12.85,12.69c4,4.03,10.51,4.05,14.54,0.05c0.02-0.02,0.04-0.04,0.05-0.05c4.25-4.22,8.5-8.42,12.77-12.62
						c0.18-0.2,0.42-0.33,0.68-0.38c2.62-0.02,5.25-0.02,7.97-0.02c-0.16,0.18-0.26,0.31-0.38,0.43
						c-5.63,5.58-11.27,11.15-16.9,16.72c-6.31,6.29-16.52,6.31-22.84,0.03C9.86,99.76,4.19,94.14-1.48,88.51
						c-0.09-0.07-0.2-0.13-0.3-0.17C-1.74,88.29-1.7,88.24-1.66,88.18"/>
				</g>
			</g>
		</g>
		<g id="Grupo_4539" transform="translate(201.794 40.749)">
			<g>
				<defs>
					<rect id="SVGID_3_" x="-33.3" y="86.08" width="114.57" height="32"/>
				</defs>
				<clipPath id="SVGID_4_">
					<use xlink:href="#SVGID_3_"  style="overflow:visible;"/>
				</clipPath>
				<g id="Grupo_4538" transform="translate(0 0)" class="st4">
					<path id="Trazado_14771" class="st2" d="M37.81,102.2c-0.46-0.5-0.77-0.89-1.13-1.21c-1.1-0.98-1.47-1.83-0.76-3.45
						c1.45-3.33-1.3-7.33-5.09-7.49c-4.21-0.17-8.43-0.04-12.76-0.04v11.61c1.93,0,3.89,0.15,5.82-0.03
						c4.04-0.37,7.01,1.12,9.48,4.35c2.79,3.65,5.94,7.03,8.92,10.53c0.34,0.4,0.65,0.82,1.17,1.47c-1.73,0-3.19,0.06-4.64-0.04
						c-0.51-0.12-0.97-0.41-1.29-0.83c-2.5-2.84-5.01-5.67-7.43-8.57c-1.6-2.07-4.14-3.22-6.75-3.05c-1.73,0.07-3.48,0.02-5.36,0.02
						v12.37H14c-0.03-0.47-0.09-0.94-0.09-1.41c-0.01-9.21-0.01-18.42-0.01-27.63c0.01-2.04,0.6-2.66,2.6-2.67
						c4.66-0.01,9.32-0.14,13.97,0.04c4.2,0.17,7.47,2.15,9.17,6.12C41.18,95.88,40.35,99.14,37.81,102.2"/>
					<path id="Trazado_14772" class="st2" d="M58.84,105.44v12.45h-4V86.26c0.31-0.06,0.62-0.1,0.93-0.12
						c5.15-0.01,10.3-0.06,15.44,0.01c7.3,0.09,12.16,7.21,9.16,13.44c-1.9,3.94-5.29,5.72-9.56,5.83
						c-3.33,0.08-6.67,0.02-10.02,0.02L58.84,105.44z M58.91,101.62c4.02,0,7.9,0.02,11.77-0.01c3.7-0.02,6.43-2.51,6.44-5.81
						c0.02-3.33-2.66-5.81-6.39-5.85c-3.56-0.04-7.12-0.01-10.69,0c-0.38,0.03-0.76,0.08-1.14,0.15L58.91,101.62z"/>
					<path id="Trazado_14773" class="st2" d="M3.84,118.03c-1.46,0-2.93,0.08-4.38-0.04c-0.57-0.13-1.08-0.43-1.47-0.87
						c-2.49-2.47-4.93-4.99-7.41-7.46c-3.28-3.26-7.13-3.25-10.4,0.03c-2.28,2.28-4.62,4.53-6.8,6.91c-0.85,1.08-2.2,1.64-3.56,1.45
						c-1.04-0.06-2.08-0.07-3.12-0.02c4.25-4.28,8.1-8.54,12.37-12.36c3.87-3.46,9.83-2.92,13.62,0.74
						c3.82,3.7,7.63,7.4,11.42,11.13L3.84,118.03"/>
					<path id="Trazado_14774" class="st2" d="M-32.99,86.15c1.42,0,2.84-0.07,4.24,0.04c0.57,0.09,1.1,0.36,1.5,0.77
						c2.46,2.42,4.88,4.89,7.3,7.35c3.4,3.44,7.28,3.45,10.63,0.05c2.19-2.22,4.44-4.39,6.56-6.68c0.87-1.14,2.28-1.72,3.7-1.54
						c0.92,0.06,1.85,0.07,2.77,0.02c0.02,0.15,0.08,0.31,0.04,0.35c-3.77,3.82-7.45,7.72-11.34,11.42
						c-3.93,3.72-10.09,3.73-14.04,0.03c-3.94-3.71-7.77-7.55-11.64-11.33L-32.99,86.15"/>
				</g>
			</g>
		</g>
	</g>
	<g id="Grupo_5453" transform="translate(994.367 462.06)">
		<path id="Rectángulo_410" class="st0" d="M-34.93,42.71h325.88c1.28,0,2.32,1.04,2.32,2.32v88.03c0,1.28-1.04,2.32-2.32,2.32
			H-34.93c-1.28,0-2.32-1.04-2.32-2.32V45.03C-37.25,43.75-36.21,42.71-34.93,42.71z"/>
		<g id="Grupo_4541" transform="translate(55.698 16.385)">
			<g>
				<defs>
					<rect id="SVGID_5_" x="-49.7" y="38.68" width="63.32" height="59.46"/>
				</defs>
				<clipPath id="SVGID_6_">
					<use xlink:href="#SVGID_5_"  style="overflow:visible;"/>
				</clipPath>
				<g id="Grupo_4540" transform="translate(0 0)" class="st5">
					<path id="Trazado_14775" class="st2" d="M12.83,68.34v3.1c-0.04,0.39-0.09,0.77-0.13,1.16c-0.4,4.65-1.88,9.15-4.34,13.12
						C3.47,93.68-4.81,98.93-14.09,99.96c-0.6,0.06-1.2,0.13-1.8,0.19h-3.09c-0.38-0.04-0.75-0.09-1.13-0.12
						c-4.72-0.4-9.28-1.92-13.3-4.43c-4.29-2.66-7.84-6.35-10.33-10.74c-2.06-3.58-3.34-7.55-3.77-11.65
						c-0.06-0.59-0.13-1.17-0.19-1.77v-3.03c0.02-0.13,0.04-0.26,0.06-0.39c0.12-1.02,0.19-2.06,0.35-3.07
						c0.62-3.87,2-7.59,4.08-10.92c2.6-4.24,6.22-7.78,10.52-10.28c3.64-2.14,7.7-3.49,11.91-3.94c0.6-0.07,1.2-0.13,1.8-0.19h3.1
						c0.16,0.02,0.33,0.06,0.49,0.07c2.89,0.18,5.74,0.79,8.45,1.8c5.96,2.19,11.08,6.21,14.61,11.49c2.75,4.04,4.46,8.7,4.98,13.56
						C12.7,67.14,12.76,67.74,12.83,68.34 M-19.22,78c0.02-0.13,0.03-0.2,0.05-0.26c0.61-2.32,1.23-4.63,1.86-6.95
						c0.06-0.16,0.19-0.28,0.34-0.34c1.34-0.51,2.69-1,4.04-1.48c0.21-0.06,0.37-0.24,0.41-0.46c0.32-1.24,0.66-2.47,0.99-3.7
						c0.03-0.1,0.04-0.2,0.08-0.37c-1.57,0.57-3.07,1.11-4.63,1.68c1.11-4.19,2.2-8.3,3.3-12.44h-0.46c-2.79,0-5.58,0.01-8.37-0.01
						c-0.38,0-0.51,0.12-0.6,0.47c-1.36,5.16-2.72,10.31-4.1,15.46c-0.04,0.2-0.18,0.36-0.38,0.41c-1.02,0.36-2.04,0.73-3.06,1.12
						c-0.14,0.06-0.26,0.19-0.31,0.33c-0.36,1.28-0.7,2.57-1.03,3.86c-0.02,0.08-0.03,0.17-0.05,0.29c1.19-0.43,2.34-0.86,3.57-1.3
						c-0.86,3.23-1.7,6.38-2.55,9.58h0.5c3.87,0,7.74,0,11.6,0c4.15,0,8.29,0,12.44,0c0.19,0.03,0.37-0.09,0.4-0.28
						c0-0.01,0-0.02,0-0.03c0.31-1.19,0.64-2.38,0.96-3.57c0.18-0.66,0.35-1.31,0.54-2.02L-19.22,78z"/>
				</g>
			</g>
		</g>
		<g id="Grupo_4543" transform="translate(170.201 28.358)">
			<g>
				<defs>
					<rect id="SVGID_7_" x="-75.73" y="36.3" width="145.25" height="40.35"/>
				</defs>
				<clipPath id="SVGID_8_">
					<use xlink:href="#SVGID_7_"  style="overflow:visible;"/>
				</clipPath>
				<g id="Grupo_4542" transform="translate(0 0)" class="st6">
					<path id="Trazado_14776" class="st2" d="M-19.01,68.08c-0.35,4.82-5.14,8.57-10.66,8.47c-5.12-0.1-8.17-3.16-8.14-8.24
						c0.01-1.7,0.13-3.4,0.37-5.08c0.33-2.77,0.82-5.52,1.46-8.24c1.52-5.64,7.31-8.98,12.95-7.46c0.07,0.02,0.13,0.04,0.2,0.06
						c3.23,0.83,5.53,3.7,5.62,7.04c0.34,4.68,0.33,4.71-4.11,6.09c-3.94,1.23-7.88,2.48-11.85,3.62c-1.35,0.39-1.98,0.96-2.01,2.49
						c-0.06,4.32,1.29,6.58,4.68,7.32c3.6,0.79,7.23-1.16,8.57-4.59C-21.33,68.07-20.64,67.46-19.01,68.08 M-34.48,61.85
						c0.36,0.07,0.56,0.16,0.71,0.12c4.36-1.33,8.71-2.67,13.05-4.06c0.38-0.15,0.67-0.45,0.82-0.83c0.69-2.76-0.63-5.64-3.18-6.91
						c-3.5-1.52-7.58-0.19-9.51,3.1C-34.11,55.91-34.28,58.88-34.48,61.85"/>
					<path id="Trazado_14777" class="st2" d="M11.9,67.39c0.71-4.18,1.17-8.43,2.2-12.53c1.42-5.7,7.63-8.93,13.23-7.23
						c3.95,1.2,5.97,4.48,5.46,9.14c-0.39,3.62-0.84,7.24-1.45,10.83c-1.13,6.65-7.5,10.48-13.99,8.52
						C13.9,75.06,12.16,72.12,11.9,67.39 M14.73,66.71c-0.14,4.85,2.11,7.63,6.34,7.63c3.29,0,6.61-2.16,7.29-5.55
						c0.86-4.58,1.44-9.22,1.72-13.87c0.18-2.57-1.81-4.57-4.32-5.18c-4.07-1.01-8.19,1.48-9.2,5.55c-0.01,0.03-0.02,0.07-0.02,0.1
						C15.75,59.13,15.31,62.94,14.73,66.71"/>
					<path id="Trazado_14778" class="st2" d="M54.44,47.98v2.33c2-0.94,3.93-2.35,6.06-2.76c6.26-1.2,9.81,2.84,8.85,9.55
						c-0.78,5.47-1.43,10.96-2.14,16.45c-0.05,0.42-0.14,0.84-0.17,1.27c-0.06,1.1-0.72,1.61-1.67,1.25
						c-0.53-0.32-0.86-0.88-0.89-1.5c0.48-4.47,1.1-8.93,1.65-13.39c0.21-1.69,0.46-3.38,0.54-5.07c0.12-2.6-0.57-4.91-3.21-5.99
						c-2.48-1.06-5.36-0.55-7.31,1.31c-1.93,1.65-2.54,3.92-2.84,6.33c-0.69,5.48-1.5,10.96-2.07,16.46
						c-0.2,1.95-1.05,2.16-2.82,1.74c0.43-3.53,0.84-7,1.27-10.48c0.65-5.19,1.34-10.36,1.95-15.56
						C51.94,47.7,51.97,47.62,54.44,47.98"/>
					<path id="Trazado_14779" class="st2" d="M6.49,68.09c-1.48,6.41-7.6,9.96-13.72,8.05c-2.9-0.83-4.95-3.42-5.1-6.44
						c-0.24-5.05,0.35-10.11,1.76-14.98c1.69-5.61,7.61-8.79,13.22-7.1c0.34,0.1,0.67,0.22,1,0.36c3.12,1.28,4.88,4.61,4.19,7.91
						c-0.99,0.03-2.07,0.63-2.45-1.12c-1.12-5.1-6.37-7.05-10.47-3.72c-1.52,1.27-2.62,2.98-3.14,4.9
						c-0.81,3.62-1.34,7.29-1.58,10.99c-0.34,4.08,1.35,6.5,4.6,7.2c3.59,0.78,7.23-1.15,8.6-4.56C3.99,67.98,4.82,67.48,6.49,68.09
						"/>
					<path id="Trazado_14780" class="st2" d="M-44.28,73.61c0.45,1.79-0.23,2.6-1.89,2.86c-4.62,0.7-6.9-1.36-6.37-6.02
						c1.08-9.42,2.29-18.82,3.4-28.23c0.2-1.67,1.05-2,2.77-1.54c-0.28,2.45-0.44,4.97-0.91,7.44c-0.33,1.76,0.32,2.18,1.87,2.07
						c0.97-0.09,1.95-0.07,2.91,0.05c0.45,0.07,0.83,0.6,1.25,0.91c-0.41,0.39-0.78,1.06-1.23,1.12c-1.27,0.12-2.55,0.14-3.83,0.05
						c-1.02-0.05-1.54,0.24-1.67,1.37c-0.65,5.61-1.44,11.21-2.04,16.82c-0.32,2.95,1.21,4.13,4.14,3.43
						C-45.36,73.8-44.85,73.72-44.28,73.61"/>
					<path id="Trazado_14781" class="st2" d="M-68.16,36.72c-0.47,3.76-0.92,7.43-1.38,11.1c-1.07,8.49-2.16,16.99-3.21,25.49
						c-0.37,2.99-0.46,3.14-2.98,2.53c0.74-5.88,1.48-11.78,2.22-17.68c0.82-6.57,1.64-13.14,2.42-19.72
						C-70.86,36.48-70.66,36.31-68.16,36.72"/>
					<path id="Trazado_14782" class="st2" d="M-64.44,75.9c0.49-4.02,0.96-7.93,1.44-11.83c0.59-4.7,1.24-9.4,1.78-14.1
						c0.19-1.67,0.7-2.7,2.88-1.98c-0.06,0.72-0.09,1.54-0.19,2.35c-0.96,7.66-1.94,15.31-2.88,22.97
						C-61.79,76.3-61.77,76.31-64.44,75.9"/>
					<path id="Trazado_14783" class="st2" d="M37.93,75.89c0.76-5.96,1.51-11.8,2.25-17.64c0.36-2.83,0.68-5.68,1.09-8.5
						c0.31-2.1,0.36-2.1,2.81-1.79c-0.22,1.89-0.44,3.79-0.67,5.69c-0.84,6.82-1.67,13.63-2.51,20.45
						C40.64,76.18,40.49,76.31,37.93,75.89"/>
					<path id="Trazado_14784" class="st2" d="M43.48,36.3c1.92,0.12,2.65,0.81,2.64,2.12c0,1.31-0.84,2.28-2.03,2
						c-0.98-0.31-1.74-1.08-2.05-2.05C41.95,37.68,43.08,36.82,43.48,36.3"/>
					<path id="Trazado_14785" class="st2" d="M-60.29,36.3c1.92,0.12,2.65,0.81,2.64,2.12c0,1.31-0.84,2.28-2.03,2
						c-0.98-0.31-1.74-1.08-2.05-2.05C-61.81,37.68-60.68,36.82-60.29,36.3"/>
				</g>
			</g>
		</g>
	</g>
	<g id="Grupo_5454" transform="translate(204.77 231.082)">
		<path id="Rectángulo_414" class="st0" d="M145.37,95.3h325.11c1.28,0,2.32,1.04,2.32,2.32v88.03c0,1.28-1.04,2.32-2.32,2.32
			H145.37c-1.28,0-2.32-1.04-2.32-2.32V97.62C143.06,96.34,144.09,95.3,145.37,95.3z"/>
		<g id="Grupo_4545" transform="translate(41.276 19.68)">
			<g>
				<defs>
					<rect id="SVGID_9_" x="133.48" y="90.88" width="251.82" height="65.89"/>
				</defs>
				<clipPath id="SVGID_10_">
					<use xlink:href="#SVGID_9_"  style="overflow:visible;"/>
				</clipPath>
				<g id="Grupo_4544" transform="translate(0 0)" class="st7">
					<path id="Trazado_14786" class="st2" d="M341.06,121.51v14.31h-4.81v-22.81c1.45,0,2.9-0.05,4.32,0.03
						c0.34,0.02,0.72,0.47,0.97,0.8c3.16,4.16,6.31,8.32,9.46,12.5c0.23,0.32,0.53,0.59,0.97,1.07v-14.3h4.87v22.81
						c-1.44,0-2.89,0.06-4.32-0.04c-0.39-0.03-0.81-0.5-1.09-0.87c-3.17-4.15-6.31-8.33-9.46-12.49
						C341.74,122.21,341.47,121.96,341.06,121.51"/>
					<path id="Trazado_14787" class="st2" d="M372.91,136.29c-6.3-0.1-10.9-3.61-12.21-9.44c-1.35-6.32,2.67-12.53,8.99-13.89
						c0.53-0.11,1.07-0.19,1.61-0.23c4.28-0.27,8.15,0.64,11.08,4c4.26,4.85,3.78,12.24-1.07,16.5c-1.51,1.33-3.34,2.24-5.31,2.65
						C374.99,136.11,373.94,136.17,372.91,136.29 M372.88,117.32c-3.86-0.01-6.99,3.11-7,6.97c0,0.05,0,0.11,0,0.16
						c0.07,3.87,3.26,6.95,7.13,6.89c3.87-0.07,6.95-3.26,6.89-7.13C379.83,120.38,376.7,117.32,372.88,117.32"/>
					<path id="Trazado_14788" class="st2" d="M286.77,135.92v-22.94c3.37,0,6.67,0.02,9.98-0.01c2.47-0.08,4.9,0.61,6.97,1.96
						c4.2,2.82,5.43,6.98,4.68,11.7c-0.77,4.84-3.89,7.75-8.6,8.95c-0.93,0.22-1.88,0.32-2.83,0.31
						C293.6,135.94,290.24,135.92,286.77,135.92 M291.92,131.58c1.67,0,3.21,0.07,4.75-0.02c3.5-0.19,6.06-2.49,6.46-5.7
						c0.49-3.98-1.24-7.29-4.58-8.08c-2.11-0.5-4.36-0.42-6.63-0.61L291.92,131.58z"/>
					<path id="Trazado_14789" class="st2" d="M263.04,113.23c4.33,0,8.57-0.24,12.77,0.08c3.3,0.08,6.04,2.6,6.38,5.89
						c0.54,3.55-0.1,6.82-3.51,8.91c-0.15,0.09-0.29,0.2-0.51,0.36c1.54,2.41,3.08,4.81,4.77,7.45c-2.02,0-3.85,0.03-5.67-0.04
						c-0.27-0.01-0.58-0.49-0.77-0.82c-0.93-1.61-1.78-3.27-2.76-4.85c-0.32-0.44-0.8-0.73-1.33-0.81
						c-1.36-0.11-2.73-0.04-4.25-0.04v6.47h-5.12V113.23z M268.13,125.02c1.95,0,3.76,0.09,5.57-0.02c2.02,0.02,3.67-1.6,3.69-3.62
						c0.26-1.88-1.06-3.62-2.94-3.87c-0.07-0.01-0.15-0.02-0.22-0.02c-2.03-0.14-4.06-0.15-6.09-0.05L268.13,125.02z"/>
					<path id="Trazado_14790" class="st2" d="M316.06,131.55c-0.49,1.18-0.99,2.28-1.4,3.43c-0.12,0.64-0.73,1.07-1.38,0.97
						c-1.44-0.07-2.88-0.02-4.49-0.02c1.5-3.48,2.93-6.8,4.38-10.12c1.74-3.99,3.52-7.95,5.21-11.96c0.14-0.58,0.7-0.95,1.28-0.86
						c1.46,0.05,3.22-0.46,4.28,0.18c1.02,0.62,1.36,2.41,1.93,3.72c2.7,6.28,5.38,12.56,8.14,19.03c-1.82,0-3.49,0.03-5.15-0.03
						c-0.32-0.08-0.59-0.29-0.74-0.59c-0.4-0.71-0.72-1.46-0.94-2.24c-0.32-1.33-1.12-1.58-2.37-1.54
						C321.91,131.61,319,131.55,316.06,131.55 M324.85,127.29l-3.53-8.68c-1.25,3.11-2.37,5.85-3.51,8.68H324.85z"/>
					<path id="Trazado_14791" class="st2" d="M260.71,135.92c-1.74,0-3.37,0.02-5-0.03c-0.27-0.01-0.54-0.32-0.79-0.52
						c-0.1-0.1-0.16-0.22-0.18-0.36c-0.5-3.2-2.52-3.85-5.41-3.51c-2.05,0.13-4.1,0.15-6.14,0.05c-0.13,0.01-0.25,0.03-0.38,0.05
						c-0.47,0.94-0.87,1.92-1.2,2.92c-0.32,1.22-1,1.52-2.17,1.42c-1.22-0.1-2.45-0.02-3.87-0.02c1.16-2.72,2.26-5.33,3.39-7.93
						c2.06-4.73,4.13-9.47,6.24-14.17c0.17-0.37,0.74-0.56,1.14-0.82c0.06-0.04,0.18-0.01,0.27-0.01c1.41,0.02,3.12-0.45,4.14,0.18
						c0.98,0.62,1.29,2.36,1.83,3.63c2.56,5.95,5.12,11.9,7.66,17.86C260.4,135.04,260.52,135.42,260.71,135.92 M251.6,127.3
						c-1.19-2.95-2.3-5.68-3.52-8.69c-1.25,3.07-2.36,5.82-3.53,8.69H251.6z"/>
					<path id="Trazado_14792" class="st2" d="M232.38,128.79c1.02,1.13,1.98,2.2,2.93,3.26c-4.24,5.1-12.95,5.57-17.69,1.03
						c-4.76-4.51-4.96-12.02-0.45-16.77c0.22-0.23,0.45-0.46,0.69-0.67c4.94-4.36,13.32-3.77,17.41,0.96l-2.97,3.67
						c-1.99-2.01-4.2-3.33-7.06-2.93c-1.64,0.23-3.14,1.05-4.2,2.32c-2.23,2.74-2.21,6.67,0.04,9.39
						C223.83,132.19,227.38,132.14,232.38,128.79"/>
					<path id="Trazado_14793" class="st2" d="M163.53,109.19c2.64-0.01,4.78,2.13,4.79,4.77c0,0.03,0,0.06,0,0.09
						c-0.01,2.67-2.16,4.84-4.83,4.88c-2.71-0.06-4.88-2.26-4.91-4.97C158.66,111.28,160.86,109.16,163.53,109.19"/>
					<path id="Trazado_14794" class="st2" d="M174.77,138.4c-2.66,0-4.81-2.16-4.81-4.82c0-2.66,2.16-4.81,4.82-4.81
						c2.71-0.03,4.92,2.15,4.95,4.85c0,0.02,0,0.03,0,0.05c-0.06,2.67-2.27,4.79-4.95,4.73C174.78,138.4,174.77,138.4,174.77,138.4"
						/>
					<path id="Trazado_14795" class="st2" d="M153.05,123.73c-0.03-2.57,2.04-4.67,4.6-4.7c0.1,0,0.2,0,0.3,0.01
						c2.6-0.01,4.72,2.09,4.72,4.7c0,0.03,0,0.05,0,0.08c0.05,2.63-2.04,4.8-4.67,4.85c-0.09,0-0.19,0-0.28,0
						c-2.58,0.01-4.68-2.08-4.69-4.67C153.05,123.91,153.05,123.82,153.05,123.73"/>
					<path id="Trazado_14796" class="st2" d="M185.27,123.78c0,2.66-2.15,4.82-4.81,4.82c-2.66,0-4.82-2.15-4.82-4.81l0,0
						c-0.04-2.64,2.08-4.82,4.72-4.85c0.04,0,0.07,0,0.11,0c2.6-0.05,4.75,2.02,4.8,4.62C185.27,123.64,185.27,123.71,185.27,123.78
						"/>
					<path id="Trazado_14797" class="st2" d="M168.32,133.73c0.01,2.6-2.08,4.71-4.68,4.72c-0.03,0-0.06,0-0.09,0
						c-2.67,0.02-4.85-2.14-4.87-4.81s2.14-4.85,4.81-4.87c2.6-0.07,4.76,1.99,4.83,4.59C168.33,133.49,168.33,133.61,168.32,133.73
						"/>
					<path id="Trazado_14798" class="st2" d="M174.81,109.19c2.6-0.06,4.76,2.01,4.82,4.61c0,0.07,0,0.14,0,0.21
						c0.04,2.61-2.05,4.77-4.66,4.81c-0.06,0-0.12,0-0.18,0c-2.57,0.07-4.71-1.95-4.78-4.52c0-0.1,0-0.21,0-0.31
						c-0.08-2.57,1.93-4.72,4.5-4.8C174.61,109.19,174.71,109.19,174.81,109.19"/>
					<path id="Trazado_14799" class="st2" d="M188.82,133.51c-0.03,1.57-1.34,2.82-2.91,2.79c-1.54-0.03-2.77-1.28-2.79-2.82
						c-0.04-1.57,1.21-2.88,2.79-2.91c1.57-0.04,2.88,1.21,2.91,2.79C188.82,133.41,188.82,133.46,188.82,133.51"/>
					<path id="Trazado_14800" class="st2" d="M183.12,114.06c-0.03-1.56,1.22-2.85,2.78-2.88c0.01,0,0.01,0,0.02,0
						c1.61,0.01,2.9,1.33,2.89,2.94c-0.01,1.55-1.25,2.82-2.8,2.88c-1.57,0.02-2.86-1.23-2.88-2.8
						C183.12,114.16,183.12,114.11,183.12,114.06"/>
					<path id="Trazado_14801" class="st2" d="M169.11,107.24c-1.53,0.06-2.82-1.14-2.87-2.67c0-0.03,0-0.07,0-0.1
						c-0.01-1.57,1.24-2.86,2.81-2.91c1.56-0.05,2.87,1.17,2.92,2.73c0,0.06,0,0.12,0,0.17c0.03,1.5-1.16,2.75-2.66,2.78
						C169.24,107.25,169.18,107.25,169.11,107.24"/>
					<path id="Trazado_14802" class="st2" d="M166.17,143.16c-0.05-1.5,1.12-2.76,2.63-2.81c0.07,0,0.13,0,0.2,0
						c1.53-0.04,2.81,1.17,2.86,2.7c0,0.03,0,0.06,0,0.1c0.03,1.57-1.23,2.87-2.8,2.9c-0.04,0-0.08,0-0.12,0
						c-1.52,0.01-2.76-1.21-2.77-2.73C166.17,143.27,166.17,143.21,166.17,143.16"/>
					<path id="Trazado_14803" class="st2" d="M149.5,114.15c-0.02-1.55,1.22-2.83,2.77-2.85c0.03,0,0.05,0,0.08,0
						c1.53-0.04,2.81,1.17,2.86,2.7c0,0.04,0,0.08,0,0.12c0.04,1.58-1.21,2.9-2.79,2.94c-0.04,0-0.07,0-0.11,0
						C150.74,117.01,149.5,115.72,149.5,114.15"/>
					<path id="Trazado_14804" class="st2" d="M155.23,133.54c0.03,1.56-1.21,2.85-2.77,2.88c-0.01,0-0.02,0-0.03,0
						c-1.57,0.01-2.86-1.23-2.92-2.8c-0.05-1.57,1.19-2.88,2.76-2.93c0.05,0,0.09,0,0.14,0c1.53-0.02,2.79,1.21,2.81,2.74
						C155.24,133.47,155.23,133.5,155.23,133.54"/>
					<path id="Trazado_14805" class="st2" d="M194.27,126.19c-1.32,0.01-2.39-1.06-2.4-2.38c0-0.02,0-0.04,0-0.06
						c-0.01-1.35,1.07-2.45,2.41-2.47c1.35-0.01,2.45,1.07,2.47,2.41c0,0.04,0,0.09,0,0.13c-0.01,1.32-1.09,2.38-2.41,2.36
						C194.31,126.19,194.29,126.19,194.27,126.19"/>
					<path id="Trazado_14806" class="st2" d="M181.65,99.63c1.32-0.06,2.44,0.96,2.5,2.28c0,0.06,0,0.12,0,0.18
						c-0.07,1.33-1.16,2.38-2.49,2.4c-1.33-0.04-2.38-1.14-2.37-2.47c-0.09-1.23,0.83-2.3,2.06-2.39
						C181.45,99.62,181.55,99.62,181.65,99.63"/>
					<path id="Trazado_14807" class="st2" d="M156.5,99.64c1.33,0.01,2.42,1.04,2.51,2.37c0,1.38-1.12,2.5-2.5,2.51
						c-1.28,0.03-2.33-0.98-2.36-2.26c0-0.06,0-0.12,0-0.18c-0.07-1.27,0.9-2.37,2.18-2.44C156.39,99.63,156.45,99.63,156.5,99.64"
						/>
					<path id="Trazado_14808" class="st2" d="M144,121.49c1.26-0.09,2.36,0.85,2.46,2.11c0.01,0.07,0.01,0.14,0.01,0.2
						c0.01,1.38-1.1,2.51-2.48,2.54c-1.33-0.07-2.38-1.16-2.39-2.49c-0.04-1.26,0.94-2.33,2.21-2.37
						C143.86,121.48,143.93,121.49,144,121.49"/>
					<path id="Trazado_14809" class="st2" d="M184.17,145.61c0.05,1.26-0.93,2.31-2.19,2.36c-0.08,0-0.15,0-0.23,0
						c-1.33,0.01-2.42-1.07-2.44-2.4c0.02-1.38,1.16-2.49,2.54-2.46c0,0,0,0,0.01,0c1.32,0.04,2.35,1.14,2.31,2.46
						C184.17,145.58,184.17,145.59,184.17,145.61"/>
					<path id="Trazado_14810" class="st2" d="M159.03,145.63c0.05,1.29-0.95,2.37-2.24,2.42c-0.05,0-0.09,0-0.14,0
						c-1.34,0.02-2.45-1.04-2.49-2.37c-0.01-1.39,1.11-2.52,2.5-2.53c0,0,0.01,0,0.01,0C158,143.18,159.06,144.29,159.03,145.63"/>
					<path id="Trazado_14811" class="st2" d="M169.02,90.88c1.02-0.1,1.93,0.64,2.03,1.66c0.01,0.11,0.01,0.22,0,0.33
						c0.04,1.09-0.81,2-1.9,2.04c0,0,0,0,0,0c-1.14,0-2.06-0.91-2.09-2.04C167.07,91.78,167.94,90.9,169.02,90.88"/>
					<path id="Trazado_14812" class="st2" d="M171.04,154.84c-0.05,1.11-1,1.97-2.11,1.91c-1.09-0.05-1.94-0.97-1.91-2.06
						c0.05-1.09,0.94-1.95,2.02-1.97c1.13,0.02,2.02,0.95,2,2.08C171.04,154.81,171.04,154.83,171.04,154.84"/>
					<path id="Trazado_14813" class="st2" d="M140.28,108.27c0.09-1.12,1.07-1.96,2.19-1.87c0.02,0,0.03,0,0.05,0
						c1.07,0.08,1.87,1,1.79,2.07c-0.01,0.07-0.01,0.14-0.03,0.21c-0.14,1.08-1.1,1.85-2.18,1.76
						C141.03,110.29,140.24,109.35,140.28,108.27"/>
					<path id="Trazado_14814" class="st2" d="M142.36,141.39c-1.09-0.02-1.96-0.92-1.96-2.01c-0.06-1.06,0.76-1.97,1.82-2.03
						c0.07,0,0.15,0,0.22,0c1.09,0.02,1.97,0.89,2.01,1.98C144.43,140.47,143.5,141.38,142.36,141.39"/>
					<path id="Trazado_14815" class="st2" d="M197.93,108.25c0.07,1.03-0.71,1.93-1.74,2c-0.1,0.01-0.2,0.01-0.3,0
						c-1.09,0.01-1.98-0.86-2.01-1.95c0.06-1.13,0.96-2.02,2.09-2.07C197.06,106.27,197.92,107.16,197.93,108.25"/>
					<path id="Trazado_14816" class="st2" d="M198.04,139.2c-0.02,1.09-0.89,1.98-1.98,2.02c-1.11,0.04-2.04-0.82-2.08-1.93
						s0.82-2.04,1.93-2.08c0.03,0,0.06,0,0.1,0C197.1,137.26,197.98,138.12,198.04,139.2"/>
					<path id="Trazado_14817" class="st2" d="M202.8,125.27c-0.58-0.04-1.09-0.53-1.1-1.53c0-0.87,0.69-1.57,1.56-1.58
						c0.87,0,1.57,0.69,1.58,1.56C204.8,124.67,204.28,125.33,202.8,125.27"/>
					<path id="Trazado_14818" class="st2" d="M152.73,151.8c0.27,0.39,0.95,0.95,1.02,1.58c0.1,0.78-0.46,1.49-1.24,1.59
						c-0.13,0.02-0.25,0.01-0.38,0c-0.8,0.04-1.48-0.57-1.53-1.37c0-0.07,0-0.13,0-0.2C150.63,152.37,151.22,151.84,152.73,151.8"/>
					<path id="Trazado_14819" class="st2" d="M135,122.29c1,0.11,1.6,0.57,1.61,1.63c0.07,0.79-0.5,1.48-1.29,1.56
						c-0.07,0.01-0.15,0.01-0.22,0c-0.81,0.09-1.54-0.5-1.62-1.32c-0.01-0.05-0.01-0.11-0.01-0.16c-0.09-0.85,0.53-1.62,1.38-1.71
						C134.91,122.29,134.96,122.29,135,122.29"/>
					<path id="Trazado_14820" class="st2" d="M151.58,92.77c1.56,0.05,2.06,0.66,2.04,1.66s-0.71,1.43-1.59,1.51
						c-0.79,0.08-1.79-0.95-1.54-1.69C150.75,93.7,151.13,93.19,151.58,92.77"/>
					<path id="Trazado_14821" class="st2" d="M185.7,95.89c-0.3-0.39-1.01-0.92-1.12-1.56c-0.14-0.76,0.37-1.5,1.14-1.63
						c0.13-0.02,0.27-0.03,0.41-0.01c0.79-0.08,1.5,0.49,1.58,1.28c0.01,0.07,0.01,0.14,0.01,0.21
						C187.75,95.2,187.16,95.74,185.7,95.89"/>
					<path id="Trazado_14822" class="st2" d="M185.73,154.87c-0.24-0.36-0.87-0.93-0.97-1.56c-0.15-1,0.54-1.57,1.57-1.56
						c0.8-0.05,1.49,0.57,1.54,1.37c0,0.06,0,0.12,0,0.18C187.87,154.24,187.27,154.88,185.73,154.87"/>
				</g>
			</g>
		</g>
	</g>
	<g id="Grupo_5455" transform="translate(42.592 475.17)">
		<path id="Rectángulo_416" class="st0" d="M182.45,39.64H503.7c1.28,0,2.32,1.04,2.32,2.32v88.03c0,1.28-1.04,2.32-2.32,2.32
			H182.45c-1.28,0-2.32-1.04-2.32-2.32V41.96C180.13,40.68,181.17,39.64,182.45,39.64z"/>
		<g id="Grupo_4548" transform="translate(180.878 29.104)">
			<path id="Trazado_14823" class="st2" d="M138.62,33.83v41.25h21.86v-4.37h-17.03V56.26h14.9v-4.34h-14.9V38.2h16.11v-4.37H138.62
				z"/>
			<g id="Grupo_4547" transform="translate(0 0)">
				<g>
					<defs>
						<rect id="SVGID_11_" x="138.62" y="33.14" width="97.28" height="42.63"/>
					</defs>
					<clipPath id="SVGID_12_">
						<use xlink:href="#SVGID_11_"  style="overflow:visible;"/>
					</clipPath>
					<g id="Grupo_4546" class="st8">
						<path id="Trazado_14824" class="st2" d="M185.05,75.77c-5.84,0-10.53-1.93-14.05-5.78s-5.28-8.87-5.27-15.04
							c0-6.63,1.79-11.92,5.38-15.88c3.59-3.95,8.47-5.93,14.64-5.93c5.69,0,10.28,1.92,13.76,5.75c3.48,3.83,5.22,8.85,5.22,15.05
							c0,6.73-1.78,12.05-5.35,15.96C195.81,73.81,191.03,75.77,185.05,75.77 M185.39,37.51c-4.05-0.13-7.94,1.6-10.56,4.69
							c-2.7,3.13-4.05,7.23-4.06,12.31s1.31,9.17,3.96,12.27c2.54,3.05,6.34,4.77,10.31,4.65c4.53,0,8.1-1.48,10.7-4.43
							c2.6-2.95,3.91-7.09,3.91-12.4c0-5.45-1.27-9.66-3.8-12.63C193.33,39,189.84,37.51,185.39,37.51"/>
						<path id="Trazado_14825" class="st2" d="M210.91,73.41v-5.7c0.71,0.62,1.5,1.14,2.34,1.55c0.93,0.47,1.89,0.86,2.88,1.17
							c0.99,0.31,2.01,0.56,3.03,0.73c0.93,0.17,1.87,0.25,2.82,0.26c2.97,0,5.19-0.55,6.66-1.65c1.48-1.12,2.3-2.91,2.2-4.76
							c0.03-1.02-0.23-2.02-0.73-2.9c-0.53-0.87-1.22-1.64-2.03-2.26c-0.96-0.74-1.99-1.4-3.07-1.96c-1.18-0.62-2.45-1.28-3.81-1.97
							c-1.44-0.73-2.78-1.47-4.03-2.22c-1.18-0.69-2.27-1.52-3.25-2.47c-0.91-0.88-1.64-1.92-2.17-3.06
							c-0.55-1.26-0.82-2.64-0.79-4.02c-0.04-1.72,0.39-3.41,1.24-4.91c0.81-1.38,1.92-2.55,3.25-3.44c1.4-0.93,2.96-1.6,4.59-2.01
							c1.72-0.44,3.48-0.66,5.25-0.66c4.07,0,7.03,0.49,8.89,1.47v5.44c-2.44-1.69-5.56-2.53-9.38-2.53c-1.06,0-2.12,0.11-3.17,0.33
							c-0.99,0.2-1.95,0.56-2.82,1.08c-0.81,0.48-1.5,1.14-2.02,1.93c-0.54,0.86-0.81,1.86-0.77,2.88
							c-0.03,0.94,0.18,1.88,0.59,2.73c0.43,0.81,1.02,1.53,1.74,2.1c0.87,0.7,1.81,1.32,2.8,1.84c1.1,0.59,2.37,1.25,3.81,1.95
							c1.48,0.73,2.88,1.5,4.2,2.3c1.26,0.75,2.43,1.65,3.48,2.68c0.97,0.94,1.77,2.04,2.37,3.25c0.6,1.27,0.9,2.67,0.87,4.08
							c0.06,1.79-0.35,3.57-1.19,5.16c-0.78,1.39-1.88,2.57-3.22,3.44c-1.43,0.91-3.01,1.56-4.67,1.91c-1.83,0.4-3.7,0.6-5.58,0.59
							c-0.81-0.01-1.61-0.06-2.42-0.16c-0.96-0.1-1.94-0.26-2.93-0.46c-0.96-0.19-1.91-0.44-2.83-0.75
							C212.29,74.17,211.57,73.84,210.91,73.41"/>
					</g>
				</g>
			</g>
		</g>
		<g id="Grupo_4550" transform="translate(95.032 17.907)">
			<g>
				<defs>
					<rect id="SVGID_13_" x="158.17" y="35.69" width="38.43" height="58.16"/>
				</defs>
				<clipPath id="SVGID_14_">
					<use xlink:href="#SVGID_13_"  style="overflow:visible;"/>
				</clipPath>
				<g id="Grupo_4549" transform="translate(0 0)" class="st9">
					<path id="Trazado_14826" class="st2" d="M177.32,48.72c2.9,4.99,5.71,9.73,8.38,14.55c0.36,0.83,0.4,1.75,0.13,2.61
						c-1.43,4.78-3.06,9.5-4.45,14.29c-0.44,1.53-1.1,2.03-2.68,2.03c-4.8,0-4.8,0.06-6.24-4.59c-1.12-3.61-2.15-7.26-3.41-10.83
						c-0.64-1.49-0.49-3.21,0.42-4.56C172.12,57.9,174.59,53.45,177.32,48.72"/>
					<path id="Trazado_14827" class="st2" d="M178.49,35.69c3.74,5.33,7.45,10.57,11.08,15.85c0.31,0.58,0.39,1.26,0.21,1.9
						c-0.81,2.79-1.74,5.55-2.82,8.94c-1.67-2.85-2.8-5.44-4.5-7.58c-4.42-5.54-4.85-11.89-4.35-18.51
						C178.12,36.15,178.27,36.03,178.49,35.69"/>
					<path id="Trazado_14828" class="st2" d="M176.07,35.82c3.05,10.54-3.41,17.91-8.4,26.32c-1.05-3.27-1.99-6.1-2.84-8.94
						c-0.14-0.48-0.09-1,0.15-1.45C168.66,46.41,172.39,41.09,176.07,35.82"/>
					<path id="Trazado_14829" class="st2" d="M196.6,82.03h-14.29c1.64-5.24,3.22-10.28,5.02-15.99
						C190.57,71.62,193.5,76.67,196.6,82.03"/>
					<path id="Trazado_14830" class="st2" d="M167.28,66.17c1.78,5.61,3.36,10.55,5.01,15.76h-14.11L167.28,66.17"/>
					<path id="Trazado_14831" class="st2" d="M178.58,93.8c1.23-3.85,2.22-6.95,3.23-10.09h12.51c0.09,0.13,0.17,0.25,0.26,0.38
						C189.44,87.2,184.31,90.32,178.58,93.8"/>
					<path id="Trazado_14832" class="st2" d="M176.01,93.74l-16.38-9.97h13.22C173.84,86.89,174.83,90.03,176.01,93.74"/>
					<path id="Trazado_14833" class="st2" d="M191.05,55.83c1.58,6.99,3.16,13.97,4.75,20.96c-0.15,0.06-0.31,0.12-0.47,0.18
						c-2.35-4.07-4.71-8.13-7.02-12.22c-0.19-0.46-0.22-0.97-0.07-1.44c0.75-2.54,1.58-5.06,2.37-7.59L191.05,55.83"/>
					<path id="Trazado_14834" class="st2" d="M163.8,55.24c0.99,3.1,1.82,5.61,2.57,8.15c0.13,0.48,0.08,0.99-0.14,1.44
						c-2.23,4.07-4.67,8.02-7.31,11.84C160.5,69.73,162.08,62.79,163.8,55.24"/>
					<path id="Trazado_14835" class="st2" d="M174.43,83.71h5.79c-0.95,3.32-1.85,6.47-2.9,10.13
						C176.28,90.21,175.39,87.1,174.43,83.71"/>
				</g>
			</g>
		</g>
	</g>
	<g id="Grupo_5456" transform="translate(1050.064 0.099)">
		<path id="Rectángulo_419" class="st0" d="M-47.39,147.9h325.88c1.28,0,2.32,1.04,2.32,2.32v88.03c0,1.28-1.04,2.32-2.32,2.32
			H-47.39c-1.28,0-2.32-1.04-2.32-2.32v-88.03C-49.7,148.94-48.67,147.9-47.39,147.9z"/>
		<g id="Grupo_4552" transform="translate(159.372 27.683)">
			<g>
				<defs>
					<rect id="SVGID_15_" x="-85.95" y="141.67" width="157.58" height="41.9"/>
				</defs>
				<clipPath id="SVGID_16_">
					<use xlink:href="#SVGID_15_"  style="overflow:visible;"/>
				</clipPath>
				<g id="Grupo_4551" transform="translate(0 0)" class="st10">
					<path id="Trazado_14836" class="st2" d="M-66.62,182.57c-1.27,0.67-3.18,1.01-5.74,1.01c-6.06,0-9.08-3.15-9.08-9.44v-12.75
						h-4.52v-6.33h4.52v-6.01l8.57-2.45v8.46h6.26v6.33h-6.26v11.26c0,2.9,1.15,4.35,3.45,4.35c0.99-0.02,1.95-0.29,2.8-0.79
						L-66.62,182.57z"/>
					<path id="Trazado_14837" class="st2" d="M-36.98,171.42h-18.16c0.29,4.04,2.84,6.06,7.64,6.06c2.84,0.06,5.65-0.69,8.08-2.18
						v6.2c-2.57,1.38-5.92,2.07-10.04,2.07c-4.5,0-7.99-1.25-10.47-3.74c-2.48-2.49-3.72-5.97-3.72-10.42
						c0-4.62,1.34-8.28,4.02-10.99c2.59-2.67,6.18-4.13,9.9-4.05c4.06,0,7.2,1.21,9.42,3.62s3.33,5.68,3.33,9.82L-36.98,171.42z
						 M-44.95,166.15c0-3.99-1.61-5.98-4.84-5.98c-1.39,0-2.7,0.63-3.58,1.71c-1.03,1.2-1.67,2.69-1.84,4.27H-44.95z"/>
					<path id="Trazado_14838" class="st2" d="M-15.03,182.57c-1.27,0.67-3.18,1.01-5.74,1.01c-6.06,0-9.08-3.15-9.08-9.44v-12.75
						h-4.52v-6.33h4.52v-6.01l8.57-2.45v8.46h6.26v6.33h-6.26v11.26c0,2.9,1.15,4.35,3.45,4.35c0.99-0.02,1.95-0.29,2.8-0.79
						L-15.03,182.57z"/>
					<path id="Trazado_14839" class="st2" d="M16.54,182.9H7.97v-15.83c0-4.08-1.49-6.12-4.46-6.12c-1.43-0.04-2.8,0.59-3.7,1.71
						c-0.98,1.23-1.48,2.78-1.41,4.35v15.89h-8.59v-41.23h8.59v17.51h0.11c2.1-3.21,4.96-4.81,8.57-4.81
						c6.31,0,9.46,3.81,9.46,11.42L16.54,182.9z"/>
					<path id="Trazado_14840" class="st2" d="M48.35,171.42H30.18c0.29,4.04,2.84,6.06,7.64,6.06c2.84,0.06,5.65-0.69,8.08-2.18v6.2
						c-2.57,1.38-5.92,2.07-10.04,2.07c-4.5,0-7.99-1.25-10.47-3.74c-2.48-2.49-3.72-5.97-3.72-10.42c0-4.62,1.34-8.28,4.02-10.99
						c2.59-2.67,6.18-4.13,9.9-4.05c4.06,0,7.2,1.21,9.42,3.62s3.33,5.68,3.33,9.82L48.35,171.42z M40.38,166.15
						c0-3.99-1.61-5.98-4.84-5.98c-1.39,0-2.7,0.63-3.57,1.71c-1.03,1.2-1.68,2.69-1.84,4.27H40.38z"/>
					<path id="Trazado_14841" class="st2" d="M71.63,162.8c-1.12-0.58-2.36-0.87-3.62-0.84c-1.71-0.08-3.34,0.69-4.38,2.05
						c-1.13,1.64-1.69,3.6-1.58,5.59v13.3h-8.59v-27.85h8.59v5.17h0.11c1.36-3.77,3.81-5.66,7.34-5.66
						c0.72-0.03,1.44,0.08,2.12,0.33L71.63,162.8z"/>
				</g>
			</g>
		</g>
		<g id="Grupo_4553" transform="translate(48.497 23.951)">
			<path id="Trazado_14842" class="st2" d="M-49.28,142.52l-11.42,25.47l31.61,30.73l32.49-30.73l-12.29-25.47H-49.28z"/>
			<path id="Trazado_14843" class="st0" d="M-32.6,157.45h-10.54v-7.03h29.86v7.03h-11.42v29.86h-7.9V157.45z"/>
		</g>
	</g>
</g>
</svg>
