<svg xmlns="http://www.w3.org/2000/svg" xmlns:xlink="http://www.w3.org/1999/xlink" width="221" height="216" viewBox="0 0 221 216">
  <defs>
    <linearGradient id="linear-gradient" x1="0.5" x2="0.5" y2="1" gradientUnits="objectBoundingBox">
      <stop offset="0" stop-color="#05002a"/>
      <stop offset="1" stop-color="#025889"/>
    </linearGradient>
  </defs>
  <g id="Grupo_14361" data-name="Grupo 14361" transform="translate(-1501 -3126)">
    <g id="Elipse_140" data-name="Elipse 140" transform="translate(1501 3126)" stroke="#025889" stroke-width="1" fill="url(#linear-gradient)">
      <ellipse cx="110.5" cy="108" rx="110.5" ry="108" stroke="none"/>
      <ellipse cx="110.5" cy="108" rx="110" ry="107.5" fill="none"/>
    </g>
    <g id="Grupo_4331" data-name="Grupo 4331" transform="translate(1534 3152)">
      <path id="Trazado_9597" data-name="Trazado 9597" d="M-7358.066-1266.041c-3.48-3.483-6.687-6.717-9.921-9.922a7.778,7.778,0,0,1-2.447-6.965c.159-1.075.388-2.471,1.082-3.061,2.168-1.837,2.473-3.974,2.395-6.8a6.588,6.588,0,0,1,7.892-6.615c1.621.333,2.407-.07,3.434-1.356,2.3-2.88,5.34-2.926,8.639-1.69,2.126-3.281,4.944-4.807,8.779-3.722.438.124,1.18-.427,1.6-.863,2.8-2.889,5.6-5.78,8.281-8.8a4.141,4.141,0,0,0,.918-2.741,34.9,34.9,0,0,1,7.3-24.3,49.877,49.877,0,0,0,2.957-4.753c1.851-3.148,4.26-5.291,7.993-4.738,3.472.514,5.358,2.939,6.421,7.446,3.272-3.72,6.051-7.044,9-10.188,4.536-4.845,8.538-4.566,11.906-.092,3.037.646,5.564.667,7.594,1.742,2.7,1.429,3.671,4.34,3.051,7.527-.262,1.349-.18,2.083.97,2.985,2.388,1.87,3.082,4.627,2.4,7.627-.3,1.324-.314,2.083.85,3.021,2.111,1.7,2.6,4.179,2.431,6.959a5.115,5.115,0,0,0,1.052,3.3c2.405,2.811,4.96,5.49,7.59,8.064a4.336,4.336,0,0,0,2.931,1.284,29.891,29.891,0,0,1,22.1,7.245c1.98,1.646,4.173,3,6.277,4.481a7.635,7.635,0,0,1,3.346,7.778,6.967,6.967,0,0,1-5.26,6.124,6.966,6.966,0,0,0-.986.551c2.127,2.256,4.156,4.407,6.185,6.561q1.554,1.65,3.1,3.309c4.08,4.361,3.638,9.34-1.143,12.859,1.911,6.033-2.5,12.521-8.733,10.78-.478-.134-1.265.4-1.721.847-2.265,2.2-4.635,3.726-7.912,2.55a2.334,2.334,0,0,0-2.154.741c-1.811,2.77-4.353,2.924-7.144,2.762a3.789,3.789,0,0,0-2.678.849q-4.17,4.175-8.046,8.676a5.634,5.634,0,0,0-1,2.979c-.362,3.761.013,7.735-1.017,11.258-1.178,4.032-3.459,7.727-5.449,11.458-1.314,2.472-2.984,4.732-4.448,7.118-1.731,2.818-4.184,4.094-7.286,3.645-3.028-.438-4.966-2.39-5.884-5.477-.09-.3-.222-.591-.545-1.445-2.862,3.151-5.415,6.139-8.16,8.915a15.454,15.454,0,0,1-4.875,3.694c-2.932,1.156-5.555.029-7.641-2.514a2.584,2.584,0,0,0-1.9-.968c-6.684.814-10.117-3.246-8.625-10.313-4.165-4.2-4.472-5.208-3.282-10.9a8.029,8.029,0,0,1-3.507-8.831,2.707,2.707,0,0,0-.683-1.964c-2.768-3.049-5.543-6.1-8.479-8.957a4.6,4.6,0,0,0-3.068-.97c-5.342.069-10.663-.066-15.4-3.066-4.452-2.822-8.83-5.8-13.059-8.975a7.521,7.521,0,0,1-2.766-7.312C-7364.3-1262.818-7362.731-1264.421-7358.066-1266.041Zm38.993-21.476c2.5-2.721,5.147-5.3,7.437-8.2a9.082,9.082,0,0,1,8.5-3.768,17.579,17.579,0,0,0,14.253-5.561c6.2-6.362,12.245-12.889,18.354-19.349,1.072-1.136,1.811-2.447.461-3.792-1.31-1.307-2.5-.557-3.58.624-1.815,1.981-3.68,3.911-5.541,5.844-1.149,1.193-2.456,1.489-3.647.2s-.891-2.657.216-3.886c.393-.437.813-.845,1.214-1.273q3.964-4.219,7.926-8.439c1.06-1.124,1.48-2.357.3-3.6-1.208-1.271-2.356-.724-3.381.41-.395.435-.8.853-1.208,1.28q-3.885,4.117-7.77,8.236c-1.2,1.28-2.546,1.734-3.846.37-1.336-1.4-.76-2.829.385-4.079.68-.743,1.382-1.465,2.073-2.2,3.278-3.481,6.545-6.972,9.841-10.435,1.118-1.175,1.734-2.478.441-3.8-1.308-1.337-2.514-.535-3.575.63-1.354,1.49-2.732,2.961-4.11,4.426-2.647,2.809-5.277,5.634-7.965,8.4-1.146,1.179-2.706,1.488-3.591.028-.521-.863-.234-2.5.1-3.646.24-.806,1.18-1.38,1.814-2.051q3.8-4.03,7.6-8.056c1.028-1.09,1.314-2.462.09-3.313-.7-.484-2.006-.145-2.987.075-.47.1-.824.791-1.228,1.218-4.955,5.245-9.928,10.47-14.85,15.75-1.5,1.606-3.139,2.425-4.928.875-1.7-1.477-1.271-3.339-.187-5.11.708-1.157,1.347-2.363,2.026-3.539.8-1.374.814-2.65-.563-3.585-1.409-.957-2.476-.278-3.3,1.024-2.444,3.871-5.193,7.576-7.2,11.688a42.6,42.6,0,0,0-2.884,10.009,20.407,20.407,0,0,0-.045,5.936,7.012,7.012,0,0,1-2.395,6.114c-3.047,2.966-5.928,6.129-8.861,9.191C-7328.795-1297.738-7324.088-1292.789-7319.073-1287.517Zm52.105,22.544c-2.8,3.037-5.891,6-8.529,9.359a6.546,6.546,0,0,1-6.651,2.616,17.255,17.255,0,0,0-14.421,5.009c-6.693,6.421-12.875,13.445-19.261,20.227-.987,1.052-1.276,2.264-.2,3.422,1.2,1.3,2.332.773,3.379-.345,1.721-1.839,3.472-3.646,5.176-5.5,1.228-1.337,2.579-2.473,4.174-.845,1.716,1.752.569,3.245-.742,4.615q-4.178,4.363-8.316,8.767c-1.046,1.11-1.888,2.377-.588,3.8,1.413,1.549,2.619.6,3.74-.609,2.684-2.889,5.4-5.74,8.071-8.643,1.29-1.4,2.772-2.647,4.386-.985,1.747,1.8.466,3.378-.918,4.815-3.723,3.869-7.384,7.8-11.086,11.695-1.108,1.165-2.164,2.409-.72,3.953,1.414,1.515,2.591.534,3.727-.685,3.777-4.054,7.617-8.042,11.4-12.09,1.272-1.361,2.69-2.345,4.182-.693,1.456,1.615.547,3.126-.743,4.469q-4.361,4.532-8.633,9.157c-1.4,1.519-1.25,3.608.358,3.931a4.008,4.008,0,0,0,3.105-1.2c5.266-5.4,10.44-10.908,15.578-16.45,1.5-1.611,3.082-2.106,4.726-.662,1.574,1.386,1.3,3.18.266,4.9q-1.112,1.857-2.144,3.768c-.75,1.386-.757,2.94.7,3.5a3.228,3.228,0,0,0,3.025-.958,105.154,105.154,0,0,0,7.9-12.75c1.407-2.884,1.826-6.371,2.369-9.648.331-2.011-.165-4.172.135-6.195a9.142,9.142,0,0,1,1.777-4.486c3.006-3.449,6.288-6.629,9.6-10.057Zm-44.054,24.592c-1.526-1.777-2.854-3.4-4.266-4.943-1.122-1.225-1.564-2.548-.346-3.836a2.271,2.271,0,0,1,3.66-.016c1.551,1.61,3.168,3.148,4.828,4.786l3.632-4.194c-3.4-3.511-6.567-6.944-9.918-10.163a4.752,4.752,0,0,1-1.448-4.307c.457-6.432-.788-12.506-5.058-17.285-6.1-6.829-12.462-13.406-18.836-19.954a3.105,3.105,0,0,0-3.119-.3c-1.271.927-.9,2.369.214,3.519,1.811,1.864,3.578,3.777,5.367,5.664,1.2,1.261,2.053,2.731.657,4.262-1.465,1.606-2.928.829-4.221-.554-2.865-3.067-5.7-6.167-8.673-9.114a3.391,3.391,0,0,0-2.723-.931c-1.7.429-1.786,2.427-.233,4.106,3.02,3.266,6.187,6.39,9.056,9.795a3.989,3.989,0,0,1,.234,3.585c-.847,1.392-2.4,1.236-3.6.02-1.585-1.615-3.134-3.269-4.69-4.914q-3.888-4.116-7.767-8.243c-.978-1.035-2.081-1.466-3.221-.347-1.237,1.218-.881,2.449.181,3.59q1.2,1.289,2.405,2.573c3.275,3.486,6.541,6.982,9.831,10.449,1.163,1.224,1.479,2.617.33,3.87-1.236,1.35-2.632,1.071-3.83-.293-.333-.378-.7-.727-1.041-1.093-2.6-2.744-5.208-5.469-7.775-8.242-1.087-1.175-2.266-1.934-3.58-.613-1.475,1.481-.58,2.787.584,3.946.3.3.592.594.878.9,4.992,5.329,9.945,10.695,14.991,15.965,1.295,1.351,1.871,2.794.743,4.293-1.177,1.561-2.836,2.322-4.725,1.077-1.24-.818-2.426-1.74-3.7-2.485-1.368-.8-2.815-.8-3.579.835-.674,1.443-.006,2.5,1.34,3.359,2.711,1.725,5.383,3.544,7.924,5.536a22.34,22.34,0,0,0,15.494,5.031c3.645-.213,6.792.1,9.276,3.573a113.815,113.815,0,0,0,7.491,8.639C-7315.481-1235.725-7313.229-1238.077-7311.021-1240.381Zm28.707-63.643c2.625,2.782,5.133,5.755,7.958,8.335a9.585,9.585,0,0,1,3.232,8.358,21.715,21.715,0,0,0,6.518,16.922c5.7,5.892,11.351,11.837,16.89,17.9,1.188,1.3,2.124,1.893,3.449.662,1.3-1.214.786-2.431-.262-3.554a71.269,71.269,0,0,1-5.711-6.353c-.585-.8-.144-2.435-.172-3.689a24.175,24.175,0,0,1,3.55.074c.455.07.825.784,1.227,1.21q4.138,4.381,8.276,8.764c1.1,1.161,2.31,1.408,3.372.078.948-1.185.618-2.181-.493-3.3-2.943-2.96-5.7-6.129-8.564-9.177-1.25-1.327-2.3-2.84-.863-4.472,1.555-1.768,3.054-.669,4.385.733,3.865,4.066,7.773,8.086,11.639,12.151.963,1.014,1.84,2.144,3.241.731,1.439-1.454.881-2.671-.346-3.944-3.763-3.919-7.474-7.894-11.2-11.851-.458-.488-1.194-.949-1.281-1.512-.159-1.075-.335-2.61.219-3.216s2.021-.539,3.025-.364c.6.1,1.1.963,1.621,1.51q4.151,4.386,8.292,8.789c1.011,1.076,2.137,1.362,3.222.278s.925-2.3-.1-3.4q-.773-.83-1.547-1.655c-4.834-5.131-9.652-10.281-14.518-15.379-1.461-1.532-2.1-3.2-.76-5.027,1.375-1.875,3.114-1.453,4.8-.356,1.108.722,2.253,1.387,3.327,2.16,1.3.936,2.548.93,3.411-.453.944-1.511.324-2.724-1.05-3.678-3.473-2.409-6.879-4.923-10.359-7.316a18.411,18.411,0,0,0-10.861-3.354c-1.629.019-3.271-.149-4.883.023a6.028,6.028,0,0,1-5.562-2.454c-2.831-3.305-5.814-6.461-8.445-9.361-1.641,1.476-2.91,2.614-4.258,3.823,1.712,1.82,3.257,3.466,4.8,5.108,1.208,1.281,1.954,2.747.563,4.28s-2.822.855-4.023-.462c-1.572-1.727-3.095-3.505-4.671-5.3C-7277.705-1309.058-7279.9-1306.662-7282.314-1304.024Zm-33.827,20.276c4.735,5.968,6.423,12.633,6.133,19.963a2.848,2.848,0,0,0,.547,1.784c2.96,3.52,5.983,6.979,9.041,10.516,4.717-4.316,9.635-6.728,14.939-6.63a10.769,10.769,0,0,0,9.546-4.477c1.754-2.233,3.722-4.276,5.688-6.513a28.8,28.8,0,0,1-5.872-19.477,2.973,2.973,0,0,0-.474-1.9c-3.049-3.431-6.174-6.786-9.354-10.248a25.073,25.073,0,0,1-18.668,6.511,2.9,2.9,0,0,0-2,.672C-7309.8-1290.369-7312.9-1287.1-7316.142-1283.748Z" transform="translate(7370.529 1358.652)" fill="#fad000"/>
    </g>
  </g>
</svg>
