<svg id="Grupo_2740" data-name="Grupo 2740" xmlns="http://www.w3.org/2000/svg" width="34.443" height="28.953" viewBox="0 0 34.443 28.953">
  <path id="Trazado_7313" data-name="Trazado 7313" d="M129.768,70.632q-.583-.586-1.133-1.239l-5.385-5.407q.548.654,1.133,1.239Z" transform="translate(-121.108 -62.882)" fill="#ccc" style="mix-blend-mode: multiply;isolation: isolate"/>
  <path id="Trazado_7314" data-name="Trazado 7314" d="M124.252,72.03l5.385,5.406a6.763,6.763,0,0,0,.847.718L125.1,72.747A6.893,6.893,0,0,1,124.252,72.03Z" transform="translate(-121.214 -63.735)" fill="#ccc" style="mix-blend-mode: multiply;isolation: isolate"/>
  <path id="Trazado_7315" data-name="Trazado 7315" d="M124.19,76.844l5.386,5.406a5.975,5.975,0,0,0,2.953,1.587l-5.386-5.407A5.97,5.97,0,0,1,124.19,76.844Z" transform="translate(-121.208 -64.245)" fill="#ccc" style="mix-blend-mode: multiply;isolation: isolate"/>
  <path id="Trazado_7316" data-name="Trazado 7316" d="M154.063,69.713c.043-.078.075-.164.114-.244.072-.148.149-.291.209-.448.042-.111.08-.223.116-.338l-5.385-5.406a5.813,5.813,0,0,1-.325.785c-.039.081-.072.166-.114.245a5.677,5.677,0,0,1-.341.526c-.072.1-.136.217-.215.316a5.856,5.856,0,0,1-.464.492c-.08.08-.148.167-.233.242a6.787,6.787,0,0,1-.833.63l1.348,1.355a11,11,0,0,1-.875.725l-.1.189c.015.529,0,1.058-.037,1.586-.023.35-.048.7-.1,1.05-.064.505-.156,1-.265,1.5-.067.306-.148.607-.232.908-.032.114-.057.232-.091.346q-.189.628-.422,1.24-.252.66-.555,1.3c-.188.39-.392.769-.6,1.142-.147.261-.308.512-.469.763-.1.164-.2.332-.311.492-.19.279-.4.546-.6.814-.094.122-.18.249-.277.369-.311.38-.637.748-.983,1.1a16,16,0,0,1-7.77,4.448l-4.6-4.615a5.925,5.925,0,0,1-4.067-1.75l5.385,5.407a5.965,5.965,0,0,0,1.814,1.238,19.163,19.163,0,0,1-2.293.222c-.179,0-.358.007-.536.007A16.657,16.657,0,0,1,121,83.787l-.144-.089,5.385,5.407.144.089a16.653,16.653,0,0,0,8.955,2.567q.267,0,.535-.008a18.331,18.331,0,0,0,3.318-.39A16.013,16.013,0,0,0,147.4,86.8q.519-.532.983-1.1l.026-.029c.089-.11.165-.229.252-.341.207-.267.414-.535.6-.814.109-.16.206-.328.31-.491.161-.252.323-.5.47-.763.021-.038.046-.072.068-.111q.283-.506.535-1.032c.2-.429.387-.864.556-1.3,0-.008.007-.017.01-.026q.228-.6.411-1.214c.034-.114.06-.23.091-.344.074-.267.152-.535.214-.805.007-.035.011-.071.019-.105.108-.493.2-.99.264-1.495.038-.289.07-.577.092-.865,0-.062,0-.122,0-.184.035-.528.053-1.058.037-1.587l.1-.19a11.31,11.31,0,0,0,1.15-.951c.118-.112.218-.24.33-.356.228-.235.462-.465.67-.72l.025-.03.1-.124c.2-.251.387-.511.57-.788l-1.259-1.263C154.047,69.749,154.053,69.731,154.063,69.713Z" transform="translate(-120.854 -62.807)" fill="#025889" style="mix-blend-mode: multiply;isolation: isolate"/>
  <g id="Grupo_2739" data-name="Grupo 2739" transform="translate(0 0)">
    <path id="Trazado_7317" data-name="Trazado 7317" d="M149.911,65.568a9.17,9.17,0,0,1-.674.912,11.271,11.271,0,0,1-2.173,2.058l-.1.189a16.183,16.183,0,0,1-.132,2.636,17.642,17.642,0,0,1-4.814,9.978,16.028,16.028,0,0,1-8.21,4.56,18.474,18.474,0,0,1-3.318.39c-.179,0-.358.007-.535.007A16.658,16.658,0,0,1,121,83.732l-.144-.089a13.216,13.216,0,0,0,1.4.075,12.08,12.08,0,0,0,4.559-.888,11.812,11.812,0,0,0,2.838-1.657,5.9,5.9,0,0,1-5.5-4.127,5.726,5.726,0,0,0,1.1.107,6.213,6.213,0,0,0,1.443-.174l.089-.044a5.919,5.919,0,0,1-4.693-5.884,5.842,5.842,0,0,0,2.642.712A5.954,5.954,0,0,1,123,63.855a16.844,16.844,0,0,0,12.21,6.218c-.032-.245-.063-.445-.095-.656a6.01,6.01,0,0,1,4.955-6.573,6.563,6.563,0,0,1,1.082-.092,5.737,5.737,0,0,1,4.11,1.749.314.314,0,0,0,.218.1.361.361,0,0,0,.093-.013,11.774,11.774,0,0,0,3.469-1.323l.078-.045a5.857,5.857,0,0,1-2.527,3.236A11.473,11.473,0,0,0,149.911,65.568Z" transform="translate(-120.854 -62.751)" fill="#fff"/>
  </g>
</svg>
