<svg xmlns="http://www.w3.org/2000/svg" width="44.364" height="35.487" viewBox="0 0 44.364 35.487">
  <path id="Trazado_8167" data-name="Trazado 8167" d="M1211.234,37.76a18.377,18.377,0,0,1-5.783,2.175,9.149,9.149,0,0,0-6.642-2.829,9.031,9.031,0,0,0-9.1,8.96,8.9,8.9,0,0,0,.233,2.04,25.981,25.981,0,0,1-18.759-9.36,8.819,8.819,0,0,0-1.233,4.5A8.928,8.928,0,0,0,1174,50.706a9.242,9.242,0,0,1-4.121-1.119V49.7a9.005,9.005,0,0,0,7.3,8.785,9.218,9.218,0,0,1-2.4.315,9.417,9.417,0,0,1-1.713-.161,9.1,9.1,0,0,0,8.5,6.222,18.448,18.448,0,0,1-11.3,3.834,19.085,19.085,0,0,1-2.173-.124,26.075,26.075,0,0,0,13.953,4.023c16.742,0,25.894-13.649,25.894-25.488,0-.388,0-.778-.023-1.161a18.259,18.259,0,0,0,4.54-4.638,18.351,18.351,0,0,1-5.227,1.411A9.019,9.019,0,0,0,1211.234,37.76Z" transform="translate(-1168.095 -37.106)" fill="#fff"/>
</svg>
