<svg id="Grupo_3255" data-name="Grupo 3255" xmlns="http://www.w3.org/2000/svg" width="45.87" height="33.637" viewBox="0 0 45.87 33.637">
  <g id="Lozenge">
    <g id="Grupo_3252" data-name="Grupo 3252">
      <path id="Trazado_8161" data-name="Trazado 8161" d="M1326.577,44.757s-.449-3.3-1.822-4.748a6.407,6.407,0,0,0-4.591-2.026c-6.425-.481-16.049-.481-16.049-.481h-.021s-9.633,0-16.049.484a6.405,6.405,0,0,0-4.6,2.023c-1.371,1.451-1.82,4.75-1.82,4.75a75.1,75.1,0,0,0-.46,7.74v3.626a75.188,75.188,0,0,0,.46,7.745s.449,3.294,1.82,4.745c1.748,1.9,4.042,1.843,5.061,2.042,3.671.367,15.593.481,15.593.481s9.638-.016,16.063-.5a6.413,6.413,0,0,0,4.591-2.028c1.374-1.451,1.822-4.745,1.822-4.745a75.133,75.133,0,0,0,.46-7.743V52.5A75.193,75.193,0,0,0,1326.577,44.757Zm-27.209,15.768,0-13.437,12.392,6.743Z" transform="translate(-1281.167 -37.502)" fill="#fff"/>
    </g>
  </g>
  <g id="Lozenge-2" data-name="Lozenge">
    <g id="Grupo_3253" data-name="Grupo 3253">
      <path id="Trazado_8162" data-name="Trazado 8162" d="M1326.577,44.757s-.449-3.3-1.822-4.748a6.407,6.407,0,0,0-4.591-2.026c-6.425-.481-16.049-.481-16.049-.481h-.021s-9.633,0-16.049.484a6.405,6.405,0,0,0-4.6,2.023c-1.371,1.451-1.82,4.75-1.82,4.75a75.1,75.1,0,0,0-.46,7.74v3.626a75.188,75.188,0,0,0,.46,7.745s.449,3.294,1.82,4.745c1.748,1.9,4.042,1.843,5.061,2.042,3.671.367,15.593.481,15.593.481s9.638-.016,16.063-.5a6.413,6.413,0,0,0,4.591-2.028c1.374-1.451,1.822-4.745,1.822-4.745a75.133,75.133,0,0,0,.46-7.743V52.5A75.193,75.193,0,0,0,1326.577,44.757Zm-27.209,15.768,0-13.437,12.392,6.743Z" transform="translate(-1281.167 -37.502)" fill="#fff"/>
    </g>
  </g>
  <g id="Lozenge-3" data-name="Lozenge">
    <g id="Grupo_3254" data-name="Grupo 3254">
      <path id="Trazado_8163" data-name="Trazado 8163" d="M1326.577,44.757s-.449-3.3-1.822-4.748a6.407,6.407,0,0,0-4.591-2.026c-6.425-.481-16.049-.481-16.049-.481h-.021s-9.633,0-16.049.484a6.405,6.405,0,0,0-4.6,2.023c-1.371,1.451-1.82,4.75-1.82,4.75a75.1,75.1,0,0,0-.46,7.74v3.626a75.188,75.188,0,0,0,.46,7.745s.449,3.294,1.82,4.745c1.748,1.9,4.042,1.843,5.061,2.042,3.671.367,15.593.481,15.593.481s9.638-.016,16.063-.5a6.413,6.413,0,0,0,4.591-2.028c1.374-1.451,1.822-4.745,1.822-4.745a75.133,75.133,0,0,0,.46-7.743V52.5A75.193,75.193,0,0,0,1326.577,44.757Zm-27.209,15.768,0-13.437,12.392,6.743Z" transform="translate(-1281.167 -37.502)" fill="#fff"/>
    </g>
  </g>
</svg>
